<svg width="32" height="39" viewBox="0 0 32 39" fill="none" xmlns="http://www.w3.org/2000/svg">
<path d="M27.0422 21.3981H23.9538V11.1933C23.9538 6.74388 20.3335 3.11661 15.8771 3.11661C11.4207 3.11661 7.80728 6.74388 7.80728 11.1933V21.3981H4.72583V11.1933C4.72583 5.04425 9.72801 0.0351562 15.884 0.0351562C22.04 0.0351562 27.0422 5.04425 27.0422 11.1933V21.3981Z" fill="#B3B3B3"/>
<path d="M31.768 36.84C31.768 37.5033 31.2291 38.0353 30.5727 38.0353H1.19527C0.538909 38.0353 0 37.4964 0 36.84V17.7502C0 17.0869 0.538909 16.5549 1.19527 16.5549H30.5727C31.236 16.5549 31.768 17.0938 31.768 17.7502V36.84Z" fill="white"/>
<path d="M31.768 36.8399V25.1428C22.0883 33.3301 8.13888 36.4046 0.227966 37.5377C0.442148 37.8348 0.794512 38.0352 1.19524 38.0352H30.5727C31.2291 38.0352 31.768 37.4963 31.768 36.8399Z" fill="#FFF5DC"/>
<path d="M18.5095 24.0581C18.5095 22.6072 17.3349 21.4326 15.884 21.4326C14.4331 21.4326 13.2585 22.6072 13.2585 24.0581C13.2585 24.9217 13.68 25.6886 14.3225 26.1653L13.4865 32.1003H18.2815L17.4455 26.1653C18.088 25.6886 18.5095 24.9286 18.5095 24.0581Z" fill="#58595A"/>
<path d="M1.00183 18.8211V22.932C1.11238 21.184 1.94838 17.3909 7.2062 17.3909H2.43892C1.64438 17.384 1.00183 18.0335 1.00183 18.8211Z" fill="#FFF6CF"/>
<path d="M13.4865 32.1073C13.4865 32.1073 17.0447 31.0985 17.4454 26.1724L18.2814 32.1073H13.4865V32.1073Z" fill="#3E3D40"/>
</svg>
