<svg width="196" height="53" viewBox="0 0 196 53" fill="none" xmlns="http://www.w3.org/2000/svg">
<circle cx="24.5" cy="28.5" r="23.5" fill="white" stroke="#7563DF" stroke-width="2"/>
<g clip-path="url(#clip0_10_7176)">
<path d="M37.9048 40.224C34.4667 26.6775 31.4714 15.3442 27.6952 13.3251C23.9143 11.3059 25.481 30.6283 25.481 30.6283C25.481 30.6283 28.5571 31.0555 30.0381 37.7535C31.2286 43.1459 38.9286 44.238 37.9095 40.224H37.9048Z" fill="#49282E"/>
<path d="M29.6905 27.3424L18.9857 26.8473L19.8476 38.6757C22.5095 41.4423 30.4143 40.423 32.5095 37.5545L29.6857 27.3424H29.6905Z" fill="#D27558"/>
<path d="M15.1619 16.9265C16.6857 28.4053 20.5524 36.0547 21.9333 37.4623C23.3143 38.8698 31.3048 39.6076 36.4619 36.9429L32.6095 22.7994C29.681 16.6304 28.1524 5.53978 15.1619 16.9265Z" fill="#49282E"/>
<path d="M22.9095 26.7066C21.319 23.8623 20.4381 19.13 21.4762 16.8537C22.5143 14.5773 26.519 14.1939 27.9952 14.951C29.4667 15.7131 33.3571 26.4348 32.9667 27.4492C32.8286 27.8132 30.119 27.3279 28.7619 27.6385C26.3381 28.1918 25.6857 31.6573 22.9143 26.7066H22.9095Z" fill="#EDB984"/>
<path d="M19.7429 25.265C19.3905 24.4351 18.7476 23.9206 18.3048 24.1147C17.8619 24.3089 17.7905 25.1388 18.1429 25.9688C18.4952 26.7988 19.1381 27.3133 19.581 27.1191C20.0238 26.925 20.0952 26.095 19.7429 25.265Z" fill="#D27558"/>
<path d="M19.9524 26.4493C19.681 25.8087 19.1857 25.4155 18.8476 25.5611C18.5095 25.7116 18.4524 26.3474 18.7238 26.9881C18.9952 27.6288 19.4905 28.0219 19.8286 27.8763C20.1667 27.7258 20.2238 27.09 19.9524 26.4493Z" fill="#EDB984"/>
<path d="M13.5952 43.2915C12.8286 30.4051 12.3 19.6008 15.3 16.7857C18.3 13.9706 22.5714 31.4243 22.5714 31.4243C22.5714 31.4243 19.7714 32.6426 20.3571 38.9524C20.8286 44.0293 13.8238 47.1065 13.5952 43.2867V43.2915Z" fill="#49282E"/>
<path d="M20.2095 25.0563C19.6476 23.7361 18.6286 22.9159 17.9286 23.2265C17.2286 23.5371 17.1143 24.8573 17.6714 26.1727C18.2286 27.488 19.2524 28.3131 19.9524 28.0025C20.6524 27.6919 20.7667 26.3717 20.2095 25.0563Z" fill="#EDB984"/>
<path d="M26.0095 24.0565C25.8571 23.3139 25.4 22.7654 24.9762 22.8237C24.5571 22.8819 24.3381 23.5323 24.4905 24.2749C24.6429 25.0175 25.1 25.566 25.5238 25.5077C25.9429 25.4495 26.1619 24.7991 26.0095 24.0565Z" fill="#5A4949"/>
<path d="M24.5952 20.4065L22.1429 21.6782C21.9381 21.785 21.8524 22.0519 21.9571 22.2703L22.3524 23.1003C22.4571 23.3187 22.7095 23.4109 22.9143 23.3042L25.3667 22.0325C25.5714 21.9257 25.6571 21.6588 25.5524 21.4404L25.1571 20.6104C25.0524 20.392 24.8 20.2997 24.5952 20.4065Z" fill="#49282E"/>
<path d="M30.7429 22.8042C30.5714 22.0665 30.0905 21.5326 29.6762 21.6054C29.2619 21.6782 29.0619 22.3383 29.2333 23.076C29.4048 23.8138 29.8857 24.3477 30.3 24.2749C30.7143 24.2021 30.9143 23.542 30.7429 22.8042Z" fill="#5A4949"/>
<path d="M30.5714 19.5086L27.9333 19.5377C27.7095 19.5377 27.5429 19.7416 27.5571 19.9891L27.6143 20.921C27.6286 21.1686 27.8238 21.3676 28.0429 21.3627L30.681 21.3336C30.9048 21.3336 31.0714 21.1297 31.0571 20.8822L31 19.9503C30.9857 19.7027 30.7905 19.5037 30.5714 19.5086Z" fill="#49282E"/>
<path d="M27.7048 23.8284C29.1429 25.4446 29.8476 26.5415 29.3905 27.1483C29.1048 27.5268 28.5048 27.6142 28.0048 27.6142V27.653C28.0048 27.653 29.6714 27.9345 30.1952 27.3424C30.7143 26.7551 29.6714 25.5999 27.7048 23.8284Z" fill="#D27558"/>
<path d="M31.681 28.8179L26.219 29.7498C26.219 29.7498 26.681 31.8126 29.3048 31.9534C31.9333 32.0941 31.6762 28.8179 31.6762 28.8179H31.681Z" fill="#281519"/>
<path d="M31.0667 30.439C31.281 29.7935 31.2286 29.1285 31.2286 29.1285L26.819 29.8809C26.819 29.8809 26.9524 30.4681 27.5048 30.9729L31.0619 30.439H31.0667Z" fill="#F9EDDB"/>
<path d="M19.7571 25.2553C19.3952 24.4011 18.7381 23.8672 18.2857 24.0662C17.8333 24.2652 17.7571 25.1243 18.1143 25.9785C18.4762 26.8328 19.1333 27.3667 19.5857 27.1677C20.0381 26.9687 20.1143 26.1096 19.7571 25.2553Z" fill="#D27558"/>
<path d="M19.9 26.2067C19.6571 25.6194 19.2095 25.2553 18.9 25.3912C18.5905 25.5271 18.5381 26.1144 18.781 26.7017C19.0238 27.289 19.4714 27.653 19.781 27.5171C20.0905 27.3812 20.1429 26.7939 19.9 26.2067Z" fill="#EDB984"/>
</g>
<path d="M105.764 12.9883C105.65 13.0599 105.442 13.1602 105.141 13.2891C104.841 13.4036 104.49 13.5326 104.089 13.6758C103.702 13.819 103.286 13.9694 102.842 14.127C102.413 14.2845 101.997 14.4421 101.596 14.5996C101.21 14.7428 100.859 14.8789 100.544 15.0078C100.243 15.1224 100.035 15.2227 99.9206 15.3086C99.6628 15.4948 99.4694 15.7598 99.3405 16.1035C99.2116 16.4329 99.1185 16.8125 99.0612 17.2422C99.0039 17.6576 98.9753 18.1087 98.9753 18.5957C98.9753 19.0684 98.9896 19.5339 99.0182 19.9922C99.0469 20.4505 99.0755 20.8874 99.1042 21.3027C99.1471 21.7181 99.1758 22.069 99.1901 22.3555C99.1758 22.5846 99.0899 22.7923 98.9323 22.9785C98.7891 23.1504 98.6029 23.2363 98.3737 23.2363C98.2878 23.2363 98.1875 23.2148 98.0729 23.1719C97.9583 23.1289 97.9082 23.0501 97.9225 22.9355L97.8581 5.38281C97.8581 5.18229 97.9011 5.03906 97.987 4.95312C98.0729 4.85286 98.1804 4.80273 98.3093 4.80273C98.4382 4.78841 98.5742 4.8099 98.7175 4.86719C98.8607 4.92448 98.9896 4.99609 99.1042 5.08203C99.1185 5.71224 99.1257 6.43555 99.1257 7.25195C99.1257 8.06836 99.1257 8.89193 99.1257 9.72266C99.14 10.5534 99.1615 11.3555 99.1901 12.1289C99.2331 12.9023 99.3047 13.5612 99.405 14.1055C100.107 13.8047 100.823 13.554 101.553 13.3535C102.284 13.1387 102.943 12.8952 103.53 12.623C104.132 12.3366 104.626 11.9785 105.012 11.5488C105.399 11.1048 105.614 10.5104 105.657 9.76562C105.686 9.37891 105.7 9.03516 105.7 8.73438C105.7 8.43359 105.686 8.13281 105.657 7.83203C105.643 7.53125 105.6 7.21615 105.528 6.88672C105.471 6.54297 105.392 6.14193 105.292 5.68359C105.292 5.39714 105.349 5.2181 105.464 5.14648C105.592 5.06055 105.75 5.01758 105.936 5.01758C106.137 5.01758 106.287 5.06771 106.387 5.16797C106.502 5.26823 106.581 5.39714 106.624 5.55469C106.681 5.69792 106.717 5.86263 106.731 6.04883C106.745 6.23503 106.753 6.4069 106.753 6.56445C106.767 6.80794 106.781 7.1875 106.796 7.70312C106.81 8.21875 106.824 8.79883 106.839 9.44336C106.853 10.0736 106.867 10.7467 106.882 11.4629C106.91 12.179 106.932 12.8594 106.946 13.5039C106.96 14.1341 106.975 14.707 106.989 15.2227C107.003 15.7383 107.01 16.1178 107.01 16.3613C107.025 16.6621 107.032 17.0632 107.032 17.5645C107.032 18.0658 107.032 18.5885 107.032 19.1328C107.032 19.6771 107.025 20.207 107.01 20.7227C106.996 21.224 106.982 21.625 106.967 21.9258C106.953 22.0547 106.939 22.1836 106.924 22.3125C106.924 22.4414 106.903 22.5632 106.86 22.6777C106.831 22.7923 106.767 22.8926 106.667 22.9785C106.581 23.0645 106.445 23.1289 106.258 23.1719C105.972 22.9857 105.814 22.7637 105.786 22.5059C105.771 22.248 105.757 21.9688 105.743 21.668C105.743 21.4961 105.743 21.1882 105.743 20.7441C105.757 20.2858 105.764 19.763 105.764 19.1758C105.764 18.5885 105.764 17.9727 105.764 17.3281C105.779 16.6693 105.786 16.0534 105.786 15.4805C105.786 14.8932 105.786 14.3776 105.786 13.9336C105.786 13.4753 105.779 13.1602 105.764 12.9883ZM107.886 9.80859C107.972 9.76562 108.072 9.72982 108.187 9.70117C108.301 9.67253 108.409 9.6582 108.509 9.6582C108.624 9.6582 108.731 9.67969 108.831 9.72266C108.932 9.76562 109.01 9.8444 109.068 9.95898C109.068 10.89 109.075 11.8997 109.089 12.9883C109.118 14.0625 109.147 15.1582 109.175 16.2754C109.218 17.3783 109.254 18.4668 109.283 19.541C109.311 20.6152 109.34 21.6107 109.369 22.5273C109.383 22.7422 109.326 22.9069 109.197 23.0215C109.068 23.1361 108.925 23.1934 108.767 23.1934C108.624 23.1934 108.488 23.1361 108.359 23.0215C108.23 22.9212 108.165 22.7565 108.165 22.5273L107.886 9.80859ZM107.628 5.42578C107.628 5.23958 107.693 5.11784 107.822 5.06055C107.951 4.98893 108.094 4.95312 108.251 4.95312C108.566 4.95312 108.76 5.06055 108.831 5.27539C108.917 5.47591 108.96 5.71224 108.96 5.98438C108.874 6.15625 108.76 6.27799 108.617 6.34961C108.473 6.42122 108.323 6.43555 108.165 6.39258C108.022 6.34961 107.893 6.24935 107.779 6.0918C107.678 5.93424 107.628 5.71224 107.628 5.42578ZM111.383 25.5996C111.054 25.7572 110.796 25.8001 110.609 25.7285C110.438 25.6712 110.287 25.5208 110.158 25.2773C110.216 25.0339 110.28 24.7402 110.352 24.3965C110.438 24.0527 110.502 23.6947 110.545 23.3223C110.588 22.9642 110.595 22.6133 110.567 22.2695C110.552 21.9115 110.481 21.5964 110.352 21.3242C110.352 21.0951 110.359 20.916 110.373 20.7871C110.402 20.6439 110.445 20.5365 110.502 20.4648C110.574 20.3932 110.674 20.3431 110.803 20.3145C110.946 20.2858 111.125 20.2715 111.34 20.2715C111.483 20.4863 111.605 20.737 111.705 21.0234C111.82 21.2956 111.891 21.6393 111.92 22.0547C111.949 22.4557 111.92 22.9427 111.834 23.5156C111.762 24.0885 111.612 24.7832 111.383 25.5996ZM123.554 4.99609C123.612 4.91016 123.697 4.85286 123.812 4.82422C123.941 4.78125 124.07 4.76693 124.199 4.78125C124.328 4.79557 124.449 4.83138 124.564 4.88867C124.693 4.94596 124.779 5.01042 124.822 5.08203L125.144 22.6992C125.144 22.8711 125.101 22.9928 125.015 23.0645C124.929 23.1361 124.822 23.1719 124.693 23.1719C124.578 23.1862 124.457 23.1719 124.328 23.1289C124.199 23.0859 124.091 23.0215 124.005 22.9355L123.554 4.99609ZM127.18 7.68164C127.309 7.53841 127.445 7.45247 127.588 7.42383C127.746 7.38086 127.882 7.38086 127.996 7.42383C128.125 7.4668 128.226 7.53841 128.297 7.63867C128.383 7.72461 128.426 7.82487 128.426 7.93945L128.405 12.2793C128.39 12.3796 128.326 12.4655 128.211 12.5371C128.097 12.5944 127.968 12.623 127.824 12.623C127.696 12.623 127.567 12.5872 127.438 12.5156C127.309 12.4297 127.223 12.3008 127.18 12.1289V7.68164ZM130.118 22.8066C130.09 22.5202 130.061 22.0618 130.032 21.4316C130.018 20.7871 129.996 20.0566 129.968 19.2402C129.953 18.4095 129.939 17.5286 129.925 16.5977C129.91 15.6667 129.882 14.7715 129.839 13.9121C129.81 13.0384 129.76 12.2292 129.688 11.4844C129.631 10.7396 129.56 10.1452 129.474 9.70117C129.474 9.3431 129.581 9.14258 129.796 9.09961C130.025 9.04232 130.283 9.04232 130.569 9.09961C130.698 10.1738 130.784 11.1478 130.827 12.0215C130.884 12.8952 130.92 13.6758 130.935 14.3633C130.963 15.0365 130.985 15.6237 130.999 16.125C131.028 16.612 131.078 17.0059 131.149 17.3066C131.321 15.9746 131.5 14.8431 131.687 13.9121C131.873 12.9811 132.066 12.222 132.267 11.6348C132.481 11.0332 132.711 10.5964 132.954 10.3242C133.198 10.0378 133.463 9.87305 133.749 9.83008C134.007 9.80143 134.25 10.0091 134.479 10.4531C134.709 10.8828 134.916 11.4342 135.103 12.1074C135.303 12.7806 135.475 13.5111 135.618 14.2988C135.776 15.0723 135.897 15.7884 135.983 16.4473C136.47 15.0007 136.871 13.8548 137.187 13.0098C137.516 12.1647 137.802 11.5273 138.046 11.0977C138.289 10.6536 138.511 10.3743 138.712 10.2598C138.927 10.1452 139.163 10.0951 139.421 10.1094C139.765 10.1237 140.037 10.2741 140.237 10.5605C140.452 10.8327 140.617 11.2051 140.731 11.6777C140.846 12.1361 140.925 12.6732 140.968 13.2891C141.025 13.8906 141.068 14.528 141.097 15.2012C141.14 15.8743 141.19 16.5618 141.247 17.2637C141.319 17.9512 141.419 18.61 141.548 19.2402C141.677 19.8704 141.856 20.4577 142.085 21.002C142.314 21.5319 142.622 21.9688 143.009 22.3125C142.88 22.5703 142.729 22.7923 142.558 22.9785C142.386 23.1504 142.207 23.179 142.021 23.0645C141.605 22.7923 141.269 22.334 141.011 21.6895C140.767 21.0306 140.567 20.2858 140.409 19.4551C140.252 18.6243 140.137 17.765 140.065 16.877C139.994 15.9746 139.929 15.151 139.872 14.4062C139.815 13.6615 139.75 13.0456 139.679 12.5586C139.621 12.0716 139.535 11.821 139.421 11.8066C139.006 11.7493 138.576 12.401 138.132 13.7617C137.702 15.1224 137.136 17.1419 136.435 19.8203C136.363 20.0065 136.277 20.1426 136.177 20.2285C136.076 20.3001 135.976 20.3359 135.876 20.3359C135.776 20.3359 135.675 20.3073 135.575 20.25C135.475 20.1784 135.389 20.0924 135.317 19.9922C135.117 18.9036 134.945 17.8581 134.802 16.8555C134.673 15.8529 134.551 14.9648 134.437 14.1914C134.322 13.418 134.2 12.7949 134.071 12.3223C133.957 11.8496 133.828 11.599 133.685 11.5703C133.556 11.5417 133.427 11.6849 133.298 12C133.183 12.3008 133.069 12.7233 132.954 13.2676C132.84 13.7975 132.718 14.4349 132.589 15.1797C132.474 15.9102 132.353 16.6979 132.224 17.543C132.095 18.388 131.959 19.2617 131.815 20.1641C131.672 21.0521 131.515 21.9329 131.343 22.8066C131.285 22.9212 131.2 23.0072 131.085 23.0645C130.97 23.1361 130.849 23.1719 130.72 23.1719C130.605 23.1719 130.491 23.1432 130.376 23.0859C130.261 23.0286 130.175 22.9355 130.118 22.8066ZM154.772 22.0762C154.729 19.0111 154.679 16.4616 154.622 14.4277C154.564 12.3796 154.514 10.7253 154.471 9.46484C154.428 8.1901 154.392 7.25195 154.364 6.65039C154.335 6.03451 154.321 5.63346 154.321 5.44727C154.321 5.23242 154.378 5.06055 154.493 4.93164C154.622 4.80273 154.758 4.74544 154.901 4.75977C155.044 4.75977 155.18 4.83854 155.309 4.99609C155.438 5.13932 155.51 5.37565 155.524 5.70508L156.211 21.4531L165.536 19.4766C166.495 19.4766 166.703 19.8848 166.159 20.7012L155.373 23C154.972 23 154.772 22.6921 154.772 22.0762ZM173.243 10.3242C173.258 10.2383 173.301 10.1452 173.372 10.0449C173.458 9.93034 173.558 9.85156 173.673 9.80859C173.802 9.76562 173.938 9.78711 174.081 9.87305C174.239 9.94466 174.396 10.1165 174.554 10.3887C174.497 11.4915 174.425 12.5944 174.339 13.6973C174.267 14.7858 174.232 15.8672 174.232 16.9414C174.246 18.0013 174.318 19.054 174.446 20.0996C174.59 21.1452 174.84 22.1621 175.198 23.1504C175.213 23.2507 175.177 23.3366 175.091 23.4082C175.005 23.4941 174.89 23.5514 174.747 23.5801C174.604 23.623 174.461 23.6374 174.318 23.623C174.174 23.6087 174.06 23.5443 173.974 23.4297L173.222 19.8418C173.165 20.028 173 20.3001 172.728 20.6582C172.47 21.0163 172.162 21.3815 171.804 21.7539C171.46 22.112 171.102 22.4342 170.73 22.7207C170.357 22.9928 170.035 23.1361 169.763 23.1504C169.09 23.1934 168.56 22.957 168.173 22.4414C167.786 21.9258 167.5 21.2526 167.314 20.4219C167.142 19.5768 167.041 18.6387 167.013 17.6074C166.984 16.5762 166.984 15.5736 167.013 14.5996C167.041 13.6257 167.077 12.7448 167.12 11.957C167.163 11.1693 167.163 10.5892 167.12 10.2168C167.163 10.1022 167.235 10.0163 167.335 9.95898C167.45 9.90169 167.571 9.87305 167.7 9.87305C167.829 9.87305 167.951 9.90169 168.066 9.95898C168.194 10.0163 168.288 10.1022 168.345 10.2168C168.374 10.7038 168.381 11.3125 168.366 12.043C168.352 12.7734 168.338 13.554 168.323 14.3848C168.309 15.2012 168.309 16.0247 168.323 16.8555C168.352 17.6862 168.409 18.4453 168.495 19.1328C168.581 19.806 168.71 20.3717 168.882 20.8301C169.068 21.2741 169.326 21.5247 169.655 21.582C169.899 21.582 170.142 21.5033 170.386 21.3457C170.629 21.1882 170.873 20.9876 171.116 20.7441C171.36 20.4863 171.589 20.207 171.804 19.9062C172.019 19.5911 172.205 19.2904 172.362 19.0039C172.52 18.7031 172.649 18.431 172.749 18.1875C172.849 17.944 172.907 17.7578 172.921 17.6289C172.935 17.457 172.957 17.1849 172.986 16.8125C173.014 16.4258 173.036 15.9961 173.05 15.5234C173.079 15.0365 173.1 14.5208 173.114 13.9766C173.143 13.4323 173.165 12.9238 173.179 12.4512C173.208 11.9642 173.222 11.5345 173.222 11.1621C173.236 10.7754 173.243 10.4961 173.243 10.3242ZM175.644 5.10352C175.974 4.77409 176.232 4.63802 176.418 4.69531C176.618 4.7526 176.769 4.94596 176.869 5.27539L176.912 17.2422L182.476 9.72266C182.72 9.72266 182.92 9.76562 183.078 9.85156C183.25 9.92318 183.336 10.1022 183.336 10.3887L177.664 18.209L183.98 21.3457C184.023 21.403 184.073 21.5033 184.131 21.6465C184.202 21.7754 184.238 21.9115 184.238 22.0547C184.238 22.1836 184.188 22.3125 184.088 22.4414C183.988 22.556 183.801 22.6204 183.529 22.6348L177.041 19.2402V22.7422C176.941 22.9857 176.833 23.1432 176.719 23.2148C176.604 23.2865 176.489 23.3079 176.375 23.2793C176.26 23.265 176.146 23.2148 176.031 23.1289C175.931 23.043 175.838 22.9642 175.752 22.8926L175.644 5.10352ZM184.04 17.2637C183.939 17.3496 183.76 17.3854 183.503 17.3711C183.259 17.3424 183.03 17.2852 182.815 17.1992C182.615 17.1133 182.478 16.9987 182.407 16.8555C182.335 16.6979 182.421 16.5189 182.665 16.3184C182.765 16.2324 182.872 16.1751 182.987 16.1465C183.116 16.1035 183.238 16.0677 183.352 16.0391C183.481 15.9961 183.581 15.9388 183.653 15.8672C183.739 15.7956 183.789 15.681 183.803 15.5234C183.818 14.8789 183.868 14.2201 183.954 13.5469C184.054 12.8737 184.233 12.2721 184.491 11.7422C184.749 11.2122 185.114 10.7897 185.587 10.4746C186.074 10.1595 186.711 10.0378 187.499 10.1094C187.785 10.1094 188.107 10.181 188.465 10.3242C188.824 10.4531 189.167 10.6322 189.497 10.8613C189.826 11.0762 190.113 11.3411 190.356 11.6562C190.6 11.957 190.75 12.2865 190.807 12.6445C190.907 12.7878 190.85 12.9668 190.635 13.1816C190.421 13.3965 190.12 13.64 189.733 13.9121C189.346 14.1699 188.909 14.4349 188.422 14.707C187.935 14.9792 187.463 15.237 187.004 15.4805C186.56 15.724 186.167 15.9388 185.823 16.125C185.479 16.3112 185.257 16.4401 185.157 16.5117C185.243 17.0703 185.336 17.6576 185.436 18.2734C185.536 18.8893 185.68 19.4551 185.866 19.9707C186.052 20.4863 186.281 20.916 186.553 21.2598C186.84 21.5892 187.198 21.7539 187.628 21.7539C188.258 21.7969 188.795 21.7038 189.239 21.4746C189.697 21.2454 190.077 20.9447 190.378 20.5723C190.678 20.1999 190.915 19.7917 191.087 19.3477C191.273 18.9036 191.409 18.4811 191.495 18.0801C191.595 17.679 191.659 17.3424 191.688 17.0703C191.731 16.7839 191.767 16.6263 191.796 16.5977C191.953 16.5117 192.132 16.5117 192.333 16.5977C192.533 16.6693 192.648 16.877 192.676 17.2207C192.691 17.7793 192.569 18.4167 192.311 19.1328C192.053 19.849 191.695 20.5078 191.237 21.1094C190.793 21.7109 190.256 22.1979 189.626 22.5703C189.01 22.9284 188.351 23.0501 187.649 22.9355C186.919 22.9212 186.338 22.7135 185.909 22.3125C185.479 21.8971 185.135 21.403 184.878 20.8301C184.634 20.2428 184.455 19.627 184.34 18.9824C184.226 18.3379 184.126 17.765 184.04 17.2637ZM189.669 12.6445C189.21 12.0143 188.745 11.6133 188.272 11.4414C187.799 11.2695 187.312 11.2194 186.811 11.291C186.51 11.334 186.245 11.4772 186.016 11.7207C185.787 11.9499 185.601 12.2507 185.458 12.623C185.314 12.9811 185.214 13.3893 185.157 13.8477C185.1 14.2917 185.092 14.75 185.135 15.2227L189.669 12.6445ZM193.659 22.1406C193.659 21.8542 193.731 21.6536 193.874 21.5391C194.032 21.4245 194.204 21.3815 194.39 21.4102C194.576 21.4388 194.748 21.5247 194.906 21.668C195.063 21.8112 195.142 21.9974 195.142 22.2266C195.142 22.4701 195.056 22.6562 194.884 22.7852C194.727 22.9141 194.548 22.9785 194.347 22.9785C194.161 22.9642 193.989 22.8926 193.831 22.7637C193.688 22.6204 193.631 22.4128 193.659 22.1406ZM193.681 5.21094C193.796 5.02474 193.917 4.91016 194.046 4.86719C194.175 4.82422 194.297 4.81706 194.411 4.8457C194.526 4.87435 194.619 4.92448 194.691 4.99609C194.777 5.05339 194.827 5.10352 194.841 5.14648C194.841 6.02018 194.827 7.03711 194.798 8.19727C194.77 9.3431 194.748 10.5176 194.734 11.7207C194.719 12.9238 194.719 14.0983 194.734 15.2441C194.762 16.39 194.82 17.3926 194.906 18.252C194.848 18.4238 194.748 18.5456 194.605 18.6172C194.476 18.6745 194.34 18.696 194.197 18.6816C194.068 18.653 193.946 18.5957 193.831 18.5098C193.717 18.4238 193.645 18.3164 193.617 18.1875L193.681 5.21094Z" fill="#7563DF"/>
<path d="M49 29C74.9234 34.4669 85.5435 31.259 98 15" stroke="#7D6DE1"/>
<defs>
<clipPath id="clip0_10_7176">
<rect width="25" height="33" fill="white" transform="translate(13 12)"/>
</clipPath>
</defs>
</svg>
