<svg width="51" height="62" viewBox="0 0 51 62" fill="none" xmlns="http://www.w3.org/2000/svg">
<path d="M49.144 18.0723L50.6931 12.5828L46.0509 11.4L46.1697 10.731C46.1494 10.7573 45.6367 10.6754 44.7782 10.5191L45.0064 8.21092C44.7705 8.3688 43.5915 8.03989 43.2976 8.00139C42.6427 7.91869 41.9878 7.83599 41.3369 7.74803C39.9057 7.56013 38.4786 7.36696 37.0515 7.1738C31.6907 6.45179 26.3408 5.66679 20.9817 4.92087C19.0379 4.65116 17.0992 4.34761 15.1502 4.11172C14.0194 3.97571 12.8899 3.88693 11.7514 3.98882C9.80314 4.16981 7.73706 4.91543 7.05002 6.9312C6.85 7.52047 6.79684 8.07214 6.8573 8.5857L6.56861 11.2759C6.49163 11.2667 6.39954 11.2879 6.29355 11.3487C3.93074 11.5113 4.14686 14.7439 5.957 15.5281C6.00777 15.5548 6.05329 15.5775 6.10407 15.6042L6.07253 15.8783L6.03003 16.2154C6.03003 16.2154 6.03003 16.2154 6.03529 16.2194L5.51522 21.0808L5.50412 21.068C2.84931 20.9833 3.04721 24.4457 4.92271 25.2595C4.97349 25.2862 5.01375 25.3048 5.06453 25.3315L5.01411 25.7928L5.01647 25.8115L4.44998 31.091C1.89725 31.0265 2.13186 34.4795 3.95547 35.2951C3.97065 35.3027 3.98116 35.3108 3.99633 35.3184L3.94998 35.7744L3.92932 35.9476L3.3772 41.1163C0.781383 41.0857 0.9023 44.5389 2.76729 45.3446C2.81807 45.3713 2.86359 45.394 2.91436 45.4207L2.62397 48.1348C2.83349 49.1506 4.2181 49.6809 5.65794 49.8251C5.86956 49.8124 6.07489 49.8622 6.23499 50.0408L9.26165 50.9644C9.19347 51.2858 9.11477 51.5991 9.02557 51.9042C9.01861 51.924 9.01572 51.9386 9.00876 51.9584C8.23695 54.4635 6.69808 56.4879 4.97417 58.3984C4.97417 58.3984 5.31893 59.0986 5.09435 59.3451L8.76904 58.2815L8.96986 60.5352L9.09004 61.4819C11.2314 59.2767 12.9124 56.5804 14.1371 53.3875L14.1021 52.4396L31.9015 57.8656L32.8803 56.879L32.9706 56.2468L33.1178 56.1002C33.1174 56.1713 33.1175 56.2471 33.1217 56.3176C33.1554 56.2091 33.1896 56.1053 33.2232 55.9968L37.3549 51.8899C37.3415 52.157 37.3233 52.4247 37.3192 52.6905C37.3321 52.4188 37.3502 52.1512 37.3678 51.8788L38.5206 50.7327C38.533 50.8306 38.5414 50.9338 38.5585 51.0311C38.5664 50.9069 38.5842 50.7862 38.5922 50.662L39.0507 50.2057L40.0524 50.5192L40.7079 49.6731L42.3451 50.5883L48.3901 19.599L47.2024 18.9396L47.3689 18.2361L49.1609 18.056L49.144 18.0723ZM10.2874 11.941C10.2874 11.941 10.6351 12.0295 11.2319 12.1765L10.2874 11.941C10.0135 11.9852 9.78884 11.8953 9.60135 11.7248C9.82541 11.8101 10.0529 11.8855 10.2874 11.941ZM9.37145 11.6308C9.06863 11.5224 8.78906 11.3731 8.53096 11.1689C8.79017 11.3445 9.07034 11.4985 9.37145 11.6308ZM6.49984 11.2941C6.46898 11.3122 6.44336 11.3344 6.4125 11.3526C6.37985 11.3567 6.35128 11.3556 6.31864 11.3597L6.49984 11.2941Z" fill="#214380"/>
<path d="M4.43863 56.1209L8.15003 55.0479L8.3188 57.3104L8.43898 58.2571C10.5804 56.0519 12.2614 53.3556 13.4861 50.1628L13.4468 49.1442L8.76838 48.5346C8.2261 51.2428 4.31786 55.1696 4.31786 55.1696C4.31786 55.1696 4.66262 55.8697 4.43804 56.1162L4.43863 56.1209Z" fill="#014492"/>
<path d="M4.31904 55.1789L8.03045 54.1059L8.3194 57.3151C10.4608 55.11 12.1418 52.4136 13.3665 49.2208L8.64938 47.5973C8.03722 50.6508 6.3013 52.9892 4.31963 55.1836L4.31904 55.1789Z" fill="url(#paint0_linear_177_3460)"/>
<path d="M8.05442 49.5919L12.5057 51.2491C12.8209 50.4841 13.1528 49.6649 13.4935 48.8398L8.76865 47.1557C8.57505 48.0569 8.35667 48.8001 8.05442 49.5919Z" fill="#014492"/>
<path d="M4.31904 55.1789L8.03045 54.1059L8.28484 56.9309C10.1244 55.11 12.8074 51.9832 10.4029 51.9662C8.47701 51.9501 6.47871 53.3789 4.88162 54.5341C4.69545 54.7473 4.50987 54.9651 4.31845 55.1742L4.31904 55.1789Z" fill="url(#paint1_radial_177_3460)" style="mix-blend-mode:screen"/>
<path d="M8.03045 54.1059L8.3194 57.3151C10.9166 54.7441 12.2261 51.9954 13.3665 49.2208C11.5216 52.4923 9.66876 55.5896 8.56599 56.3835C8.32188 55.879 8.22487 54.8536 8.03511 54.1053L8.03045 54.1059Z" fill="#80FFFF"/>
<path d="M8.03045 54.1059L4.31904 55.1789L4.56398 54.9061L8.03045 54.1059Z" fill="#80FFFF"/>
<path fill-rule="evenodd" clip-rule="evenodd" d="M5.85227 8.05938C5.21687 8.42909 4.55271 9.91599 5.56204 10.2522C6.60579 10.5983 6.582 9.14187 6.34997 8.54586C6.20231 8.16657 6.01519 7.88707 5.59416 8.15375L5.85227 8.05938Z" fill="#71223D"/>
<path fill-rule="evenodd" clip-rule="evenodd" d="M1.89898 39.8113C2.35871 39.9615 2.67486 39.727 2.77428 39.2785C2.82285 39.0638 2.82944 38.8545 2.80162 38.6353C2.77438 38.4208 2.70037 38.1364 2.81659 37.9321C2.69483 37.9808 2.56596 37.9734 2.44478 38.0267C2.08534 38.1813 1.64794 38.4311 1.43579 38.7756C1.20099 39.1655 1.49291 39.6733 1.89372 39.8073L1.89898 39.8113Z" fill="#551A2E"/>
<path fill-rule="evenodd" clip-rule="evenodd" d="M3.08864 29.9228C4.0087 30.2277 3.98216 29.1602 3.97285 28.5643C3.97242 28.3369 4.00869 28.1002 4.00418 27.878C3.69522 27.9078 3.44466 27.987 3.20542 28.1926C2.93591 28.4211 2.60125 28.7337 2.55357 29.1046C2.5053 29.4709 2.74734 29.8098 3.08864 29.9228Z" fill="#551A2E"/>
<path fill-rule="evenodd" clip-rule="evenodd" d="M4.26291 19.913C4.7524 20.0736 5.07195 19.7913 5.1585 19.316C5.19596 19.0885 5.19086 18.8617 5.14786 18.635C5.12314 18.5149 5.02731 17.7974 5.17764 17.7499C4.90377 17.832 4.56179 17.9749 4.33765 18.1503C3.77819 18.5956 3.32242 19.5965 4.26757 19.9124L4.26291 19.913Z" fill="#71223D"/>
<path d="M43.306 5.67849L39.3874 47.2962L8.55695 37.4261L11.1474 1.0234L43.306 5.67849Z" fill="url(#paint2_radial_177_3460)"/>
<path d="M10.2013 7.75366C9.0585 6.55302 8.97484 4.58771 9.97749 3.26633C10.623 2.41674 12.197 1.34032 13.3409 1.65471C12.2638 1.23232 10.7294 1.01488 9.6164 1.35519C8.59958 1.66908 7.41723 2.32145 7.03207 3.35595C6.78497 4.02227 6.63528 4.7094 6.84185 5.40342C7.11533 6.32587 7.66682 7.49733 8.58303 7.92119C9.16252 8.19353 9.81368 8.13456 10.4275 8.04242C10.2745 7.91969 10.1884 7.72687 10.064 7.60525L10.2007 7.749L10.2013 7.75366Z" fill="#551A2E"/>
<path d="M43.306 5.67849L44.3594 4.98088L40.2511 46.1868L39.3874 47.2962L43.306 5.67849Z" fill="#551A2E"/>
<path d="M32.1973 53.1418L38.3857 46.9827L45.5181 7.50152L36 14.903L32.1973 53.1418Z" fill="url(#paint3_linear_177_3460)"/>
<path d="M45.5181 7.50152C45.3785 7.67088 25.5408 3.50811 21.1316 2.81692C19.3376 2.53293 17.5109 2.25308 15.7065 2.03673C13.9984 1.83187 11.0172 1.19157 9.5761 2.5307C8.88525 3.17281 8.34702 4.04667 8.25498 5.00131C8.12807 6.31576 9.01443 7.28833 10.1972 7.75892L37.4961 14.8932C37.4961 14.8932 44.4236 8.36072 45.5181 7.50152Z" fill="url(#paint4_linear_177_3460)"/>
<path d="M9.63986 8.70628C9.35658 8.75172 9.12668 8.65771 8.93742 8.47325L5.00222 46.6009C5.21384 46.5882 5.41917 46.638 5.57927 46.8166L9.63986 8.70628Z" fill="#551A2E"/>
<path d="M9.63986 8.70628L36.9674 15.581L31.2411 54.642L5.57986 46.8213L9.63986 8.70628Z" fill="url(#paint5_radial_177_3460)"/>
<path d="M8.93801 8.47791C7.51231 8.10925 6.52227 6.58122 6.2423 5.01042L1.97351 44.9147C2.18303 45.9305 3.56763 46.4608 5.00747 46.6049L8.93801 8.47791Z" fill="url(#paint6_linear_177_3460)"/>
<path d="M36.9674 15.581L31.2411 54.642L32.2205 53.6601L37.7277 14.9633L36.9674 15.581Z" fill="#551A2E"/>
<path d="M11.9968 27.9437L22.4581 20.4319L30.575 32.9724L18.6478 41.6653L11.9968 27.9437Z" fill="url(#paint7_linear_177_3460)"/>
<path d="M11.8544 27.867L22.4581 20.4319L29.5977 32.3288L18.9894 39.7645L11.8544 27.867Z" fill="url(#paint8_linear_177_3460)"/>
<path d="M12.359 27.9972L15.9465 28.897L21.6551 24.8932L22.3571 20.9802L12.359 27.9972Z" fill="url(#paint9_linear_177_3460)"/>
<path d="M21.5906 25.0199L22.3571 20.9802L29.0932 32.1986L25.5004 31.2948L21.5906 25.0199Z" fill="url(#paint10_linear_177_3460)"/>
<path d="M19.7918 35.2985L19.0897 39.2116L29.0932 32.1986L25.5004 31.2948L19.7918 35.2985Z" fill="url(#paint11_linear_177_3460)"/>
<path d="M12.359 27.9972L15.9465 28.897L19.7918 35.2985L19.0897 39.2116L12.359 27.9972Z" fill="url(#paint12_linear_177_3460)"/>
<path d="M19.7918 35.2985L15.9465 28.897L21.6551 24.8932L25.5004 31.2948L19.7918 35.2985Z" fill="url(#paint13_linear_177_3460)"/>
<path d="M19.0956 32.2406C18.665 32.0962 18.3091 31.9424 18.2061 31.1689C18.1688 30.8751 18.6264 28.6563 18.7464 28.2951C18.8078 28.1073 19.0009 27.5378 19.5009 27.4459C19.5616 27.4382 19.7183 27.4041 20.6097 27.6321C20.6289 27.6344 22.4799 28.1055 22.7708 28.3813C23.1627 28.7438 23.0838 29.2418 23.0256 29.6046C23.014 29.6629 23.0071 29.7207 23.0002 29.7784C22.9325 30.3272 22.6205 32.0869 22.519 32.4077C22.3429 32.9608 21.6873 32.8734 21.4074 32.8332C21.1473 32.7999 19.4865 32.371 19.095 32.2359L19.0956 32.2406Z" fill="url(#paint14_linear_177_3460)"/>
<path d="M22.3571 20.9802L21.6551 24.8932L25.4957 31.2954L29.0885 32.1992C23.6943 29.2733 22.4957 23.6398 22.3571 20.9802Z" fill="#F7E96E"/>
<path d="M22.3571 20.9802L21.6551 24.8932L15.9465 28.897L12.359 27.9972C15.6222 28.8434 19.2545 26.3637 22.3577 20.9849L22.3571 20.9802Z" fill="url(#paint15_linear_177_3460)" style="mix-blend-mode:screen"/>
<path d="M13.6284 28.3668L15.9459 28.8923L19.7865 35.2944L19.0845 39.2075C19.0027 35.7636 16.9732 31.0126 13.6232 28.3627L13.6284 28.3668Z" fill="url(#paint16_linear_177_3460)"/>
<path d="M19.0897 39.2116L19.7918 35.2985L25.5004 31.2948L29.0932 32.1986C23.6987 32.1821 21.3817 35.8785 19.0897 39.2116Z" fill="url(#paint17_linear_177_3460)"/>
<path d="M15.9465 28.897L23.5642 28.0626L19.7918 35.2985L15.9465 28.897Z" fill="#F7E96E"/>
<path d="M16.1409 28.7112L21.6551 24.8932L24.3162 29.5071L23.3477 32.7764L16.1409 28.7112Z" fill="#F7E96E"/>
<path d="M22.3571 20.9802C22.3962 20.9894 22.2714 21.8724 22.081 22.9485C21.886 24.0252 21.6982 24.8972 21.6551 24.8932C21.616 24.884 21.7408 24.001 21.9358 22.9243C22.1308 21.8476 22.3186 20.9756 22.3571 20.9802Z" fill="#FFFCD7"/>
<path d="M16.0763 29.0606C16.1292 29.0301 17.8061 31.7504 19.8119 35.1206L19.8242 35.1428L21.9529 33.6595L23.7796 32.4088C24.8225 31.7031 25.4787 31.2738 25.4963 31.3C25.5138 31.3262 24.8909 31.7939 23.8714 32.5346L22.0687 33.8248L19.7554 35.4595L19.6226 35.2347C17.6174 31.8691 16.0238 29.0956 16.0768 29.0652L16.0763 29.0606Z" fill="#F9B20E"/>
<path d="M21.6833 25.9369C21.4419 25.6405 20.4369 25.7113 20.46 26.2296C20.4863 26.847 22.1099 26.4608 21.6833 25.9369Z" fill="#FFECBC"/>
<path d="M22.5496 27.3858C22.7959 26.8997 21.8385 26.301 21.94 26.9515C21.9754 27.1555 22.3829 27.715 22.5496 27.3858Z" fill="#FFECBC"/>
<path d="M16.0946 28.9066C16.0946 28.9066 16.6925 28.4279 17.6893 27.6949L21.6794 24.7859L21.8777 25.1161C23.9085 28.4974 25.5359 31.276 25.5004 31.2948C25.4649 31.3135 23.781 28.5752 21.7495 25.1893L21.6355 25L17.7472 27.7775C16.734 28.4937 16.1063 28.9241 16.0946 28.9066Z" fill="#FFF9C5"/>
<path d="M29.0932 32.1986C29.0839 32.2377 28.2661 32.0667 27.2773 31.8179C26.2886 31.569 25.4911 31.3338 25.5004 31.2948C25.5096 31.2557 26.3274 31.4267 27.3161 31.6755C28.3049 31.9243 29.1024 32.1595 29.0932 32.1986Z" fill="#FFE384"/>
<path d="M12.359 27.9972C12.3682 27.9581 13.2146 28.1303 14.2418 28.3837C15.2691 28.6371 16.0998 28.8728 16.0905 28.9119C16.0813 28.9509 15.2349 28.7788 14.2077 28.5254C13.1805 28.272 12.3497 28.0363 12.359 27.9972Z" fill="#FFE384"/>
<path d="M19.0897 39.2116C19.0506 39.2023 19.1755 38.3193 19.3705 37.2426C19.5655 36.1659 19.7533 35.2939 19.7918 35.2985C19.8303 35.3031 19.706 36.1907 19.511 37.2674C19.316 38.3441 19.1282 39.2162 19.0897 39.2116Z" fill="#FFCE4D"/>
<path d="M15.5725 33.3038C15.5725 33.3038 15.9947 33.942 16.641 35.002L19.1152 39.1136L19.4063 38.906C22.7043 36.5919 25.4107 34.732 25.4341 34.767C25.4569 34.7973 22.7856 36.7096 19.4876 39.0236L19.0701 39.3183L16.5577 35.0552C15.9335 33.983 15.5602 33.3196 15.5731 33.3085L15.5725 33.3038Z" fill="#FFCE4D"/>
<path d="M20.7358 32.3649L21.1733 29.3679L22.4084 29.5482L22.4827 29.0416L21.2469 28.8613L21.4968 27.1513L20.9906 27.0773L20.7407 28.7873L19.5056 28.607L19.4317 29.1132L20.6671 29.2939L20.2296 32.2909L20.7358 32.3649Z" fill="#FFE384"/>
<path fill-rule="evenodd" clip-rule="evenodd" d="M13.2038 13.1155L34.8263 18.5727L33.4352 19.4838L14.2925 14.7115L13.2038 13.1155Z" fill="url(#paint18_linear_177_3460)"/>
<path fill-rule="evenodd" clip-rule="evenodd" d="M9.74576 45.5959L29.9669 51.7712L28.9417 50.1529L11.088 44.71L9.74576 45.5959Z" fill="url(#paint19_linear_177_3460)"/>
<path fill-rule="evenodd" clip-rule="evenodd" d="M34.824 18.554L29.951 51.7211L28.9417 50.1529L33.4352 19.4838L34.824 18.554Z" fill="url(#paint20_linear_177_3460)"/>
<path fill-rule="evenodd" clip-rule="evenodd" d="M13.2038 13.1155L9.74576 45.5959L11.088 44.71L14.2633 14.6679L13.2038 13.1155Z" fill="url(#paint21_linear_177_3460)"/>
<path fill-rule="evenodd" clip-rule="evenodd" d="M12.137 12.289L33.7595 17.7462L32.3683 18.6573L13.2257 13.8851L12.137 12.289Z" fill="url(#paint22_linear_177_3460)"/>
<path fill-rule="evenodd" clip-rule="evenodd" d="M8.67893 44.7694L28.9 50.9447L27.8748 49.3264L10.0212 43.8835L8.67893 44.7694Z" fill="url(#paint23_linear_177_3460)"/>
<path fill-rule="evenodd" clip-rule="evenodd" d="M33.7571 17.7276L28.8842 50.8946L27.8748 49.3264L32.3683 18.6573L33.7571 17.7276Z" fill="url(#paint24_linear_177_3460)"/>
<path fill-rule="evenodd" clip-rule="evenodd" d="M12.137 12.289L8.67893 44.7694L10.0212 43.8835L13.1964 13.8414L12.137 12.289Z" fill="url(#paint25_linear_177_3460)"/>
<path fill-rule="evenodd" clip-rule="evenodd" d="M5.91533 8.10823C3.26052 8.02355 3.43044 11.4895 5.30594 12.3033C6.85146 13.1306 7.77492 13.3877 9.09921 13.7787L9.35695 11.3673C5.11495 10.3137 4.6642 9.37587 5.91533 8.10823Z" fill="url(#paint26_linear_177_3460)"/>
<path d="M5.91533 8.10823C5.93346 8.1391 5.86129 8.20513 5.75189 8.31379C5.64248 8.42244 5.47838 8.58543 5.38843 8.81008C5.29383 9.03532 5.3241 9.31105 5.51876 9.57538C5.71343 9.83971 6.03689 10.0735 6.40284 10.2687C7.14873 10.6573 7.91468 10.8681 8.46191 11.0355C9.0132 11.1977 9.36324 11.3049 9.35288 11.3726C9.34192 11.4356 8.9787 11.4485 8.39491 11.3662C7.81519 11.2787 7.00326 11.1165 6.1815 10.6901C5.7747 10.4716 5.39868 10.1971 5.15716 9.82504C5.03903 9.64102 4.95932 9.42369 4.95193 9.21614C4.93927 9.00452 5.00479 8.8114 5.08555 8.66373C5.26165 8.37128 5.49578 8.23731 5.64723 8.16123C5.80393 8.08921 5.90245 8.08144 5.91533 8.10823Z" fill="#FFFFA5"/>
<path d="M5.44848 8.20067C4.53751 8.37792 3.89618 8.99953 4.05085 9.99392C4.19198 10.919 5.18169 11.3619 5.95542 11.6712C6.37496 11.8406 7.95845 12.4072 8.05248 11.5803C8.14711 10.758 6.45249 10.6225 5.98499 10.3738C5.04998 9.87655 5.07384 8.94479 5.69105 8.20779L5.44848 8.20067Z" fill="url(#paint27_radial_177_3460)" style="mix-blend-mode:screen"/>
<path fill-rule="evenodd" clip-rule="evenodd" d="M5.46464 12.359L5.38364 12.99C6.03182 13.5048 7.71739 14.0916 9.03021 14.2803L9.35695 11.3673C8.59665 12.5821 7.21809 12.7713 5.46464 12.359Z" fill="url(#paint28_linear_177_3460)"/>
<path fill-rule="evenodd" clip-rule="evenodd" d="M4.85365 17.8479C2.19885 17.7632 2.39674 21.2255 4.27224 22.0394C5.81776 22.8667 6.74123 23.1238 8.06551 23.5148L8.32325 21.1034C4.08126 20.0498 3.60252 19.1155 4.85365 17.8479Z" fill="url(#paint29_linear_177_3460)"/>
<path d="M4.85365 17.8479C4.87179 17.8787 4.80954 17.9482 4.70598 18.0656C4.60242 18.183 4.44882 18.3541 4.36414 18.5829C4.27479 18.8122 4.29632 19.0937 4.49098 19.3581C4.68099 19.623 5.00385 19.8521 5.3698 20.0473C6.1151 20.4313 6.88454 20.6321 7.43524 20.7896C7.99002 20.9419 8.33887 21.0398 8.3291 21.1121C8.32281 21.1745 7.95552 21.1927 7.36883 21.125C6.79029 21.0468 5.97549 20.8992 5.14965 20.478C4.74344 20.2642 4.36217 19.9857 4.12472 19.6083C3.87329 19.2327 3.88108 18.7342 4.06303 18.4505C4.22921 18.1546 4.44758 18.0084 4.59377 17.9282C4.74462 17.8475 4.84196 17.8304 4.8595 17.8566L4.85365 17.8479Z" fill="#FFFFA5"/>
<path d="M4.41478 17.9367C3.50381 18.114 2.86248 18.7356 3.01715 19.73C3.15828 20.655 4.14799 21.098 4.92172 21.4073C5.34126 21.5767 6.92475 22.1433 7.01938 21.321C7.114 20.4987 5.41939 20.3632 4.95188 20.1146C4.01687 19.6173 4.04074 18.6855 4.65794 17.9485L4.41538 17.9414L4.41478 17.9367Z" fill="url(#paint30_radial_177_3460)" style="mix-blend-mode:screen"/>
<path fill-rule="evenodd" clip-rule="evenodd" d="M4.44235 21.9609L4.36135 22.5919C5.00953 23.1067 6.6951 23.6935 8.00791 23.8822L8.33465 20.9693C7.57436 22.184 6.1958 22.3733 4.44235 21.9609Z" fill="url(#paint31_linear_177_3460)"/>
<path fill-rule="evenodd" clip-rule="evenodd" d="M3.8275 27.8673C1.24264 27.7737 1.47555 31.2506 3.30442 32.0704C4.81263 32.9024 5.71278 33.1624 6.99976 33.5582L7.24351 31.1485C3.11343 30.0808 2.61834 29.1296 3.83216 27.8667L3.8275 27.8673Z" fill="url(#paint32_linear_177_3460)"/>
<path d="M3.8275 27.8673C3.84563 27.8981 3.77346 27.9642 3.65939 28.0734C3.54999 28.1821 3.38529 28.3404 3.29068 28.5656C3.19608 28.7909 3.22168 29.0672 3.42101 29.3309C3.61567 29.5953 3.93913 29.829 4.30101 30.0295C5.04283 30.4234 5.80531 30.6441 6.35313 30.8162C6.90502 30.983 7.25039 31.0908 7.23943 31.1538C7.22848 31.2168 6.86467 31.2251 6.28028 31.1382C5.69996 31.046 4.89678 30.8779 4.0785 30.4416C3.67635 30.2225 3.30441 29.9428 3.06289 29.5707C2.94476 29.3867 2.86564 29.174 2.85765 28.9618C2.84966 28.7496 2.91052 28.557 2.99653 28.4134C3.1773 28.1204 3.40736 27.9917 3.5594 27.9203C3.7161 27.8482 3.81462 27.8405 3.8275 27.8673Z" fill="#FFFFA5"/>
<path d="M3.42364 27.9707C2.53599 28.145 1.91797 28.7636 2.06798 29.7586C2.20911 30.6836 3.17084 31.1301 3.92591 31.4418C4.34079 31.6118 5.87765 32.1843 5.96702 31.358C6.05757 30.541 4.409 30.3949 3.95082 30.145C3.03913 29.6448 3.05833 28.7136 3.65688 27.979L3.42364 27.9707Z" fill="url(#paint33_radial_177_3460)" style="mix-blend-mode:screen"/>
<path fill-rule="evenodd" clip-rule="evenodd" d="M3.3546 32.0924L3.27361 32.7234C3.92178 33.2382 5.60735 33.825 6.92017 34.0137L7.24691 31.1007C6.48661 32.3155 5.10805 32.5048 3.3546 32.0924Z" fill="url(#paint34_linear_177_3460)"/>
<path fill-rule="evenodd" clip-rule="evenodd" d="M2.77803 37.8897C0.123223 37.805 0.23607 41.3066 2.11157 42.1204C3.66175 42.9471 4.58055 43.2048 5.90484 43.5958L6.16258 41.1844C1.92058 40.1308 1.5269 39.1573 2.77744 37.885L2.77803 37.8897Z" fill="url(#paint35_linear_177_3460)"/>
<path d="M2.67381 37.9645C2.69194 37.9954 2.62969 38.0649 2.53079 38.1817C2.43656 38.2979 2.29229 38.4678 2.22219 38.6994C2.15149 38.9264 2.19108 39.2009 2.39389 39.4547C2.58737 39.7097 2.90965 39.9342 3.26975 40.1206C4.00395 40.4918 4.75532 40.6997 5.29263 40.8636C5.83401 41.0224 6.17413 41.1261 6.16376 41.1937C6.1528 41.2567 5.79425 41.2691 5.22563 41.1944C4.65582 41.1103 3.86433 40.9597 3.05367 40.5461C2.65271 40.3364 2.28254 40.0706 2.03755 39.7085C1.77975 39.3574 1.75141 38.8729 1.91293 38.5776C2.05928 38.2747 2.27239 38.1244 2.41799 38.0396C2.56359 37.9548 2.66152 37.9424 2.67906 37.9686L2.67381 37.9645Z" fill="#FFFFA5"/>
<path d="M2.25411 38.0178C1.34314 38.195 0.701808 38.8166 0.85648 39.811C0.997608 40.736 1.98732 41.179 2.76104 41.4883C3.18525 41.6571 4.76408 42.2243 4.85811 41.3974C4.95333 40.5798 3.25812 40.4396 2.79062 40.1909C1.85561 39.6936 1.87947 38.7619 2.49667 38.0249L2.25411 38.0178Z" fill="url(#paint36_radial_177_3460)" style="mix-blend-mode:screen"/>
<path fill-rule="evenodd" clip-rule="evenodd" d="M2.28537 42.1457L2.20437 42.7767C2.85255 43.2915 4.53812 43.8783 5.85093 44.067L6.17767 41.154C5.41738 42.3688 4.03882 42.5581 2.28537 42.1457Z" fill="url(#paint37_linear_177_3460)"/>
<path d="M29.3217 35.2306L27.259 48.3574L13.2701 44.2434C24.8356 47.6321 27.5173 44.7186 29.3217 35.2306Z" fill="#132745"/>
<path d="M36.9674 15.581L37.7323 14.9627C37.7323 14.9627 9.58105 7.53388 9.53205 7.52114C8.12153 7.16003 7.08166 5.79943 7.37446 4.33599C7.69153 2.76521 9.37679 1.66992 10.9001 1.57603C11.6341 1.53497 12.2218 1.53617 12.956 1.60881C13.8436 1.69515 14.7226 1.86312 15.6114 1.95879C18.2006 2.23659 20.7774 2.67709 23.3627 2.99805C26.4099 3.37409 29.4491 3.83644 32.498 4.22647C35.0414 4.55276 37.576 4.92279 40.1147 5.24966C41.179 5.38464 42.2405 5.53419 43.306 5.67849L44.3594 4.98088C44.1235 5.13876 42.9446 4.80985 42.6506 4.77135C41.9957 4.68865 41.3408 4.60595 40.6899 4.51799C39.2587 4.33008 37.8316 4.13692 36.4045 3.94376C31.0437 3.22175 25.6938 2.43675 20.3347 1.69083C18.3909 1.42111 16.4522 1.11757 14.5032 0.881684C13.373 0.750337 12.2388 0.662144 11.105 0.763443C9.15675 0.944436 7.09067 1.69005 6.40363 3.70582C5.54728 6.21693 7.3112 8.13004 9.64452 8.70569C9.68886 8.71902 36.9715 15.5758 36.9715 15.5758L36.9674 15.581Z" fill="url(#paint38_linear_177_3460)"/>
<path d="M20.1284 4.17154L20.4283 2.12911L25.4019 3.42151L25.131 5.05749L26.1006 3.25224L50.0455 9.3481L48.4964 14.8376L45.4879 15.139L47.7303 16.3801L41.6848 47.3647L38.7062 45.7006L44.7787 10.8223L20.1284 4.17154Z" fill="url(#paint39_linear_177_3460)"/>
<path d="M19.5883 4.35857L47.8311 10.231L46.2146 17.0938L44.5289 17.0661L45.9939 17.2213L39.4879 46.1842L38.7062 45.7006L43.9463 11.2075L19.5883 4.35857Z" fill="#865D46"/>
<path d="M18.5665 3.88651L46.8092 9.75896L45.1928 16.6217L43.5071 16.594L44.8917 18.0198L38.3857 46.9827L42.9245 10.7355L18.5665 3.88651Z" fill="url(#paint40_linear_177_3460)"/>
<path d="M25.9351 5.71829C25.9611 5.58706 32.5974 6.76315 40.7054 8.33521L47.0724 9.59287L46.0444 13.7748L45.2828 16.7335L44.4769 16.6936L43.9463 16.6567C43.6594 16.6363 43.5095 16.6127 43.5071 16.594C43.5047 16.5754 43.6586 16.5558 43.9461 16.543L45.1074 16.5093L45.212 15.989L45.357 15.3025L45.7032 13.6996L46.5425 9.93497L40.6089 8.80709C32.5009 7.23502 25.9045 5.85012 25.9311 5.72355L25.9351 5.71829Z" fill="#B3A281"/>
<path d="M32.9672 8.07139C32.9764 8.03231 33.9569 8.21584 35.6706 8.57637L38.7685 9.23976L42.9706 10.1657L41.4299 23.3731C39.9103 36.0376 38.5617 46.3539 38.4317 46.3372C38.3016 46.3205 39.4385 35.9791 40.9581 23.3145L42.5444 10.4662L35.6273 8.7951C33.9292 8.37098 32.9673 8.10929 32.9719 8.0708L32.9672 8.07139Z" fill="#B3A281"/>
<path d="M18.8519 7.70263C18.8641 7.64897 21.0742 8.15023 24.7731 9.03111L31.353 10.6219L39.8439 12.7092L38.7155 21.1021C36.5234 37.2779 34.6288 50.4591 34.4987 50.4425C34.3687 50.4258 36.051 37.2147 38.2431 21.0389L39.3332 13.0536L31.254 10.9993L24.699 9.30587C21.0186 8.34682 18.8339 7.74756 18.8467 7.69856L18.8519 7.70263Z" fill="#B3A281"/>
<path d="M9.85898 3.19134C9.89489 3.06358 14.5919 4.22999 20.3193 5.78681C26.0467 7.34363 30.6899 8.72063 30.654 8.84838C30.6181 8.97614 25.9205 7.80507 20.1931 6.24825C14.4657 4.69143 9.82249 3.31444 9.85432 3.19193L9.85898 3.19134Z" fill="#B3A281"/>
<path d="M9.31533 4.58239C9.34598 4.45056 12.5983 5.09908 16.5585 6.0226C20.518 6.94146 23.7212 7.79997 23.69 7.92714C23.6587 8.0543 20.4064 7.40579 16.4515 6.48633C12.492 5.56747 9.28876 4.70896 9.32 4.5818L9.31533 4.58239Z" fill="#B3A281"/>
<path d="M37.4928 15.3153L43.4994 24.4087L38.3857 46.9827L32.3677 52.9164L37.4928 15.3153Z" fill="url(#paint41_linear_177_3460)"/>
<path d="M8.32369 4.34816C12.2405 4.55694 16.3351 6.61483 20.3026 7.40948C21.2749 7.60352 22.2245 7.80518 23.23 7.96184C21.5862 7.55453 19.2987 7.48954 17.3666 6.93877C15.5377 6.41754 13.6672 6.05323 11.8358 5.73607C10.8081 5.5538 9.7387 5.52845 8.71782 5.25055C16.025 8.46429 24.2322 9.77263 32.0041 11.4585C33.4122 11.763 34.8978 12.0814 36.2614 12.5954C32.3611 11.2473 27.9547 10.8021 23.8917 10.0765C20.0038 9.38544 16.2991 8.49583 12.4963 7.54285C10.583 7.06551 7.83441 7.0259 8.31903 4.34875L8.32369 4.34816Z" fill="url(#paint42_linear_177_3460)"/>
<path d="M9.86113 3.0963C11.2924 2.72506 13.9336 3.89658 15.2429 4.39374C17.0598 5.08234 19.0537 5.29831 20.796 6.257C18.6301 6.06759 16.5441 5.23784 14.3109 5.15176C13.3062 5.11346 12.3176 4.94044 11.3238 4.80125C10.3008 4.65629 9.29801 4.66988 8.28105 4.60945C8.6543 3.14526 9.81979 1.9122 11.0897 1.91209C13.0138 1.91422 15.2619 2.75183 17.1864 2.98135C18.2017 3.10359 19.2256 3.14418 20.2376 3.31424C19.0341 3.57601 17.7988 3.40114 16.6317 3.1655C18.5908 3.48066 20.4834 4.42973 22.4065 4.83475C23.989 5.1693 25.5544 5.70503 27.1513 5.96667C28.2495 6.14472 29.6333 5.95957 30.509 6.81031C29.6633 6.38222 28.5206 6.41357 27.6211 6.23397C24.4907 5.61262 21.3492 5.01637 18.2483 4.25386C15.5089 3.57812 12.7237 2.35382 9.86172 3.10096L9.86113 3.0963Z" fill="url(#paint43_linear_177_3460)"/>
<path d="M36.8008 47.2266C36.7247 47.9707 36.6731 48.7212 36.6541 49.4675C36.6871 48.7194 36.7486 47.9724 36.8008 47.2266Z" fill="url(#paint44_linear_177_3460)"/>
<path d="M39.1028 13.5899C38.662 13.8875 38.1193 14.5392 37.6488 14.8643C37.5935 15.2125 37.5615 15.5577 37.5062 15.9059C37.3154 17.0531 37.2739 18.2193 37.0825 19.3619C36.5648 22.4128 36.1959 25.516 35.7796 28.5825C35.2962 32.1645 34.7451 35.7362 34.2663 39.3177C33.8714 42.2914 33.4182 45.2536 33.0042 48.2251C32.8305 49.4696 32.6469 50.7107 32.4732 51.9553C32.4646 52.3355 32.456 52.7156 32.4666 53.0981C32.9382 51.5125 33.6945 50.0423 33.9776 48.3905C34.5847 44.8497 34.7141 41.1657 35.081 37.5984C35.3472 35.0296 35.8898 32.5109 36.3543 29.9737C36.9036 26.9851 36.7592 23.7576 37.9484 20.9199C38.3232 22.3791 37.5671 24.2236 37.4825 25.7222C37.2863 29.2157 36.7165 32.4912 36.2602 35.9514C35.6437 40.6496 34.1459 45.872 34.674 50.6287C35.5423 47.3911 35.6351 44.0908 36.0177 40.7964C36.4713 36.8675 37.598 33.0522 38.1386 29.1359C38.5009 26.5406 38.5356 23.9775 38.8927 21.3781C39.1354 19.632 39.6571 13.4769 41.3516 12.6789C41.1985 14.6079 40.8881 16.6043 40.63 18.5277C39.9793 23.3677 38.5756 28.0996 38.1419 32.9689C37.7166 37.7187 37.1252 42.4659 36.8067 47.2353C37.0458 44.8263 37.5274 42.4243 37.9269 40.047C37.9248 40.1421 37.9139 40.243 37.9117 40.338C37.9007 42.7892 37.5016 45.356 37.8946 47.8174C38.2711 43.2065 39.0635 38.6613 39.5124 34.0601C40.1025 28.0337 41.0449 22.0573 42.1004 16.0761C42.3011 14.9323 42.0152 10.8888 43.085 10.2081C42.0635 10.859 40.9479 11.6261 40.1176 12.5133C39.7795 12.8737 39.4349 13.1828 39.1028 13.5899Z" fill="url(#paint45_linear_177_3460)"/>
<path d="M44.8861 18.1627C45.018 18.1934 43.7309 24.403 42.0301 31.9825C40.3252 39.5672 38.8328 45.7271 38.7062 45.7006C38.5797 45.674 39.8621 39.4649 41.5669 31.8802C43.2718 24.2955 44.7642 18.1355 44.8908 18.1621L44.8861 18.1627Z" fill="#865D46"/>
<path d="M26.1006 3.25224L50.0455 9.3481L48.4964 14.8376L49.1182 9.80699L26.2793 3.68919L25.131 5.05749L26.1006 3.25224Z" fill="url(#paint46_linear_177_3460)"/>
<path d="M20.1284 4.17154L20.4283 2.12911L25.4019 3.42151L20.7919 2.64208L20.1284 4.17154Z" fill="url(#paint47_linear_177_3460)"/>
<path d="M45.7249 15.289L47.7303 16.3801L41.6848 47.3647L39.2145 45.9346L41.2434 46.7621L47.1124 16.7381L45.7249 15.289Z" fill="url(#paint48_linear_177_3460)"/>
<path d="M28.774 6.3198L46.8092 9.75896L45.1928 16.6217L45.4218 10.1768L28.774 6.3198Z" fill="url(#paint49_linear_177_3460)"/>
<path d="M11.5713 11.0056C12.2321 10.7985 12.8003 10.0867 11.9374 9.78402C11.3773 9.58977 10.1143 10.1292 10.6911 10.8283C10.8986 11.0816 11.2473 11.1036 11.5713 11.0056Z" fill="#FABBAC"/>
<path d="M10.9725 13.4556C11.0119 13.0194 10.9336 12.6266 10.6506 12.5251C10.1244 12.336 9.64727 13.4675 9.60714 13.8232C9.5716 14.1405 9.82694 15.0321 10.303 14.9005C10.6049 14.8148 10.9108 14.0889 10.9679 13.4562L10.9725 13.4556Z" fill="#FABBAC"/>
<path d="M30.6031 53.3489L36.8902 15.7567L31.0783 54.5916L7.48054 47.3856L30.6031 53.3489Z" fill="url(#paint50_linear_177_3460)"/>
<defs>
<linearGradient id="paint0_linear_177_3460" x1="32.9233" y1="8.27759" x2="5.96628" y2="61.037" gradientUnits="userSpaceOnUse">
<stop stop-color="#015FBA"/>
<stop offset="1" stop-color="#29CCE5"/>
</linearGradient>
<radialGradient id="paint1_radial_177_3460" cx="0" cy="0" r="1" gradientUnits="userSpaceOnUse" gradientTransform="translate(17.5738 -18.2147) scale(51.2096 96.9743)">
<stop stop-color="#42C4D7"/>
<stop offset="0.29" stop-color="#2C8492"/>
<stop offset="0.63" stop-color="#153F47"/>
<stop offset="0.88" stop-color="#071418"/>
<stop offset="1" stop-color="#020406"/>
</radialGradient>
<radialGradient id="paint2_radial_177_3460" cx="0" cy="0" r="1" gradientUnits="userSpaceOnUse" gradientTransform="translate(7.99089 15.4568) scale(64.7309 61.2417)">
<stop stop-color="#FF665B"/>
<stop offset="0.33" stop-color="#E00056"/>
<stop offset="0.96" stop-color="#71223D"/>
</radialGradient>
<linearGradient id="paint3_linear_177_3460" x1="37.9013" y1="3.39237" x2="30.0455" y2="55.2639" gradientUnits="userSpaceOnUse">
<stop stop-color="#F2EAD1"/>
<stop offset="0.37" stop-color="#C8BA9B"/>
<stop offset="0.59" stop-color="#B3A281"/>
<stop offset="1" stop-color="#865D46"/>
</linearGradient>
<linearGradient id="paint4_linear_177_3460" x1="52.8741" y1="58.172" x2="-12.7833" y2="49.1478" gradientUnits="userSpaceOnUse">
<stop offset="0.04" stop-color="#FBFAF5"/>
<stop offset="0.18" stop-color="#F6F2E4"/>
<stop offset="0.36" stop-color="#F3ECD5"/>
<stop offset="0.52" stop-color="#F2EAD1"/>
<stop offset="0.82" stop-color="#C8BA9B"/>
<stop offset="1" stop-color="#B3A281"/>
</linearGradient>
<radialGradient id="paint5_radial_177_3460" cx="0" cy="0" r="1" gradientUnits="userSpaceOnUse" gradientTransform="translate(7.99056 15.4591) scale(67.3613 59.5085)">
<stop stop-color="#4981D4"/>
<stop offset="0.33" stop-color="#3C78D1"/>
<stop offset="0.96" stop-color="#2C559E"/>
</radialGradient>
<linearGradient id="paint6_linear_177_3460" x1="15.4234" y1="30.1244" x2="28.4315" y2="39.6622" gradientUnits="userSpaceOnUse">
<stop stop-color="#2C549D"/>
<stop offset="0.07" stop-color="#2D589E"/>
<stop offset="0.13" stop-color="#7396CB"/>
<stop offset="0.171875" stop-color="#274C88"/>
<stop offset="0.22" stop-color="#2D599E"/>
<stop offset="0.3" stop-color="#3C78D1"/>
<stop offset="0.38" stop-color="#3E79D1"/>
<stop offset="0.46" stop-color="#23478A"/>
<stop offset="0.54" stop-color="#2C559E"/>
<stop offset="0.6099" stop-color="#2F5C9D"/>
<stop offset="0.61" stop-color="#E00256"/>
<stop offset="0.6101" stop-color="#3E79D1"/>
<stop offset="0.6102" stop-color="#3E79D1"/>
<stop offset="0.67" stop-color="#3C78D1"/>
<stop offset="0.75" stop-color="#2C549D"/>
<stop offset="0.84" stop-color="#417BD2"/>
<stop offset="0.94" stop-color="#3C78D1"/>
<stop offset="0.96" stop-color="#3C78D1"/>
</linearGradient>
<linearGradient id="paint7_linear_177_3460" x1="29.9755" y1="44.318" x2="33.4015" y2="54.9435" gradientUnits="userSpaceOnUse">
<stop stop-color="#551A2E"/>
<stop offset="1" stop-color="#71223D"/>
</linearGradient>
<linearGradient id="paint8_linear_177_3460" x1="35.2344" y1="0.980996" x2="12.6823" y2="59.2109" gradientUnits="userSpaceOnUse">
<stop stop-color="#FF665B"/>
<stop offset="0.19" stop-color="#C62E4F"/>
<stop offset="0.3" stop-color="#A81149"/>
<stop offset="1" stop-color="#71223D"/>
</linearGradient>
<linearGradient id="paint9_linear_177_3460" x1="48.0108" y1="10.6829" x2="3.31339" y2="26.5933" gradientUnits="userSpaceOnUse">
<stop offset="0.02" stop-color="#F7E641"/>
<stop offset="0.47" stop-color="#FFCF01"/>
<stop offset="0.8" stop-color="#FCBD11"/>
<stop offset="1" stop-color="#FBB01E"/>
</linearGradient>
<linearGradient id="paint10_linear_177_3460" x1="33.6749" y1="53.3924" x2="19.9593" y2="5.405" gradientUnits="userSpaceOnUse">
<stop stop-color="#F89736"/>
<stop offset="0.16" stop-color="#F7A538"/>
<stop offset="0.72" stop-color="#F7D43E"/>
<stop offset="1" stop-color="#F7E641"/>
</linearGradient>
<linearGradient id="paint11_linear_177_3460" x1="46.7036" y1="10.6259" x2="-0.732413" y2="20.2633" gradientUnits="userSpaceOnUse">
<stop stop-color="#FBCB48"/>
<stop offset="0.48" stop-color="#E38530"/>
<stop offset="1" stop-color="#B52A44"/>
</linearGradient>
<linearGradient id="paint12_linear_177_3460" x1="14.3465" y1="5.32053" x2="30.2347" y2="59.1113" gradientUnits="userSpaceOnUse">
<stop stop-color="#FBCB48"/>
<stop offset="0.48" stop-color="#E38530"/>
<stop offset="1" stop-color="#B52A44"/>
</linearGradient>
<linearGradient id="paint13_linear_177_3460" x1="34.3893" y1="5.35334" x2="12.0997" y2="59.2952" gradientUnits="userSpaceOnUse">
<stop stop-color="#F7E96E"/>
<stop offset="0.61" stop-color="#FFB44F"/>
<stop offset="1" stop-color="#F9A135"/>
</linearGradient>
<linearGradient id="paint14_linear_177_3460" x1="35.7781" y1="0.226323" x2="17.8365" y2="47.095" gradientUnits="userSpaceOnUse">
<stop stop-color="#F19639"/>
<stop offset="1" stop-color="#C6611B"/>
</linearGradient>
<linearGradient id="paint15_linear_177_3460" x1="28.5971" y1="-43.7839" x2="13.8129" y2="57.2627" gradientUnits="userSpaceOnUse">
<stop stop-color="#FFECBC"/>
<stop offset="0.55" stop-color="#7B6E5A"/>
<stop offset="1" stop-color="#130C0E"/>
</linearGradient>
<linearGradient id="paint16_linear_177_3460" x1="-2.76484" y1="46.797" x2="15.667" y2="6.11443" gradientUnits="userSpaceOnUse">
<stop stop-color="#FF665B"/>
<stop offset="1" stop-color="white"/>
</linearGradient>
<linearGradient id="paint17_linear_177_3460" x1="3.73718" y1="77.2582" x2="61.6652" y2="39.0721" gradientUnits="userSpaceOnUse">
<stop stop-color="#FF665B"/>
<stop offset="1" stop-color="white"/>
</linearGradient>
<linearGradient id="paint18_linear_177_3460" x1="25.8805" y1="27.4956" x2="20.4459" y2="32.2128" gradientUnits="userSpaceOnUse">
<stop stop-color="#551A2E"/>
<stop offset="1" stop-color="#71223D"/>
</linearGradient>
<linearGradient id="paint19_linear_177_3460" x1="27.0863" y1="25.9113" x2="22.7854" y2="29.6934" gradientUnits="userSpaceOnUse">
<stop stop-color="#3864DB"/>
<stop offset="1" stop-color="#698AE4"/>
</linearGradient>
<linearGradient id="paint20_linear_177_3460" x1="19.9746" y1="30.194" x2="26.227" y2="35.5145" gradientUnits="userSpaceOnUse">
<stop stop-color="#551A2E"/>
<stop offset="1" stop-color="#71223D"/>
</linearGradient>
<linearGradient id="paint21_linear_177_3460" x1="21.2872" y1="30.9479" x2="27.9179" y2="36.275" gradientUnits="userSpaceOnUse">
<stop stop-color="#551A2E"/>
<stop offset="1" stop-color="#71223D"/>
</linearGradient>
<linearGradient id="paint22_linear_177_3460" x1="25.8773" y1="27.5022" x2="20.4426" y2="32.2194" gradientUnits="userSpaceOnUse">
<stop offset="0.02" stop-color="#CC5348"/>
<stop offset="0.05" stop-color="#D06047"/>
<stop offset="0.14" stop-color="#DD8647"/>
<stop offset="0.24" stop-color="#E7A646"/>
<stop offset="0.34" stop-color="#EFBE46"/>
<stop offset="0.44" stop-color="#F5CF46"/>
<stop offset="0.55" stop-color="#F8D946"/>
<stop offset="0.68" stop-color="#FADD46"/>
<stop offset="0.83" stop-color="#E0A300"/>
<stop offset="1" stop-color="#CC5348"/>
</linearGradient>
<linearGradient id="paint23_linear_177_3460" x1="27.0831" y1="25.8871" x2="22.7677" y2="29.6973" gradientUnits="userSpaceOnUse">
<stop offset="0.02" stop-color="#CC5348"/>
<stop offset="0.05" stop-color="#D06047"/>
<stop offset="0.14" stop-color="#DD8647"/>
<stop offset="0.24" stop-color="#E7A646"/>
<stop offset="0.34" stop-color="#EFBE46"/>
<stop offset="0.44" stop-color="#F5CF46"/>
<stop offset="0.55" stop-color="#F8D946"/>
<stop offset="0.68" stop-color="#FADD46"/>
<stop offset="0.83" stop-color="#E0A300"/>
<stop offset="1" stop-color="#CC5348"/>
</linearGradient>
<linearGradient id="paint24_linear_177_3460" x1="19.9746" y1="30.194" x2="26.2337" y2="35.4918" gradientUnits="userSpaceOnUse">
<stop offset="0.02" stop-color="#CC5348"/>
<stop offset="0.05" stop-color="#D06047"/>
<stop offset="0.14" stop-color="#DD8647"/>
<stop offset="0.22" stop-color="#E7A646"/>
<stop offset="0.32" stop-color="#EFBE46"/>
<stop offset="0.41" stop-color="#F5CF46"/>
<stop offset="0.52" stop-color="#F8D946"/>
<stop offset="0.64" stop-color="#FADD46"/>
<stop offset="0.83" stop-color="#E0A300"/>
<stop offset="1" stop-color="#CC5348"/>
</linearGradient>
<linearGradient id="paint25_linear_177_3460" x1="21.2872" y1="30.9479" x2="27.9179" y2="36.275" gradientUnits="userSpaceOnUse">
<stop offset="0.02" stop-color="#CC5348"/>
<stop offset="0.05" stop-color="#D06047"/>
<stop offset="0.14" stop-color="#DD8647"/>
<stop offset="0.24" stop-color="#E7A646"/>
<stop offset="0.34" stop-color="#EFBE46"/>
<stop offset="0.44" stop-color="#F5CF46"/>
<stop offset="0.55" stop-color="#F8D946"/>
<stop offset="0.68" stop-color="#FADD46"/>
<stop offset="0.83" stop-color="#E0A300"/>
<stop offset="1" stop-color="#CC5348"/>
</linearGradient>
<linearGradient id="paint26_linear_177_3460" x1="35.8139" y1="7.38399" x2="18.3304" y2="45.7721" gradientUnits="userSpaceOnUse">
<stop offset="0.02" stop-color="#CC5348"/>
<stop offset="0.07" stop-color="#D26946"/>
<stop offset="0.15" stop-color="#DD8F45"/>
<stop offset="0.23" stop-color="#E6AF43"/>
<stop offset="0.32" stop-color="#EEC742"/>
<stop offset="0.41" stop-color="#F3D841"/>
<stop offset="0.51" stop-color="#F6E241"/>
<stop offset="0.64" stop-color="#F7E641"/>
<stop offset="0.83" stop-color="#FBB040"/>
<stop offset="1" stop-color="#A81149"/>
</linearGradient>
<radialGradient id="paint27_radial_177_3460" cx="0" cy="0" r="1" gradientUnits="userSpaceOnUse" gradientTransform="translate(19.4142 20.9901) scale(36.1498 41.1769)">
<stop stop-color="#FFE780"/>
<stop offset="0.55" stop-color="#7B6C40"/>
<stop offset="1" stop-color="#130C0E"/>
</radialGradient>
<linearGradient id="paint28_linear_177_3460" x1="28.6614" y1="62.7854" x2="17.7254" y2="3.07155" gradientUnits="userSpaceOnUse">
<stop stop-color="#3864DB"/>
<stop offset="1" stop-color="#3864DB"/>
</linearGradient>
<linearGradient id="paint29_linear_177_3460" x1="35.7106" y1="7.47824" x2="18.3004" y2="45.7028" gradientUnits="userSpaceOnUse">
<stop offset="0.02" stop-color="#CC5348"/>
<stop offset="0.07" stop-color="#D26946"/>
<stop offset="0.15" stop-color="#DD8F45"/>
<stop offset="0.23" stop-color="#E6AF43"/>
<stop offset="0.32" stop-color="#EEC742"/>
<stop offset="0.41" stop-color="#F3D841"/>
<stop offset="0.51" stop-color="#F6E241"/>
<stop offset="0.64" stop-color="#F7E641"/>
<stop offset="0.83" stop-color="#FBB040"/>
<stop offset="1" stop-color="#A81149"/>
</linearGradient>
<radialGradient id="paint30_radial_177_3460" cx="0" cy="0" r="1" gradientUnits="userSpaceOnUse" gradientTransform="translate(19.4142 20.9831) scale(36.1498 41.1626)">
<stop stop-color="#FFE780"/>
<stop offset="0.55" stop-color="#7B6C40"/>
<stop offset="1" stop-color="#130C0E"/>
</radialGradient>
<linearGradient id="paint31_linear_177_3460" x1="28.6614" y1="62.7854" x2="17.7254" y2="3.07155" gradientUnits="userSpaceOnUse">
<stop stop-color="#3864DB"/>
<stop offset="1" stop-color="#3864DB"/>
</linearGradient>
<linearGradient id="paint32_linear_177_3460" x1="36.0094" y1="7.50278" x2="18.7885" y2="46.3022" gradientUnits="userSpaceOnUse">
<stop offset="0.02" stop-color="#CC5348"/>
<stop offset="0.07" stop-color="#D26946"/>
<stop offset="0.15" stop-color="#DD8F45"/>
<stop offset="0.23" stop-color="#E6AF43"/>
<stop offset="0.32" stop-color="#EEC742"/>
<stop offset="0.41" stop-color="#F3D841"/>
<stop offset="0.51" stop-color="#F6E241"/>
<stop offset="0.64" stop-color="#F7E641"/>
<stop offset="0.83" stop-color="#FBB040"/>
<stop offset="1" stop-color="#A81149"/>
</linearGradient>
<radialGradient id="paint33_radial_177_3460" cx="0" cy="0" r="1" gradientUnits="userSpaceOnUse" gradientTransform="translate(18.9417 20.9901) scale(35.9932 41.1063)">
<stop stop-color="#FFE780"/>
<stop offset="0.55" stop-color="#7B6C40"/>
<stop offset="1" stop-color="#130C0E"/>
</radialGradient>
<linearGradient id="paint34_linear_177_3460" x1="28.6614" y1="62.7854" x2="17.7254" y2="3.07155" gradientUnits="userSpaceOnUse">
<stop stop-color="#3864DB"/>
<stop offset="1" stop-color="#3864DB"/>
</linearGradient>
<linearGradient id="paint35_linear_177_3460" x1="36.0628" y1="7.25701" x2="18.569" y2="46.0019" gradientUnits="userSpaceOnUse">
<stop offset="0.02" stop-color="#CC5348"/>
<stop offset="0.07" stop-color="#D26946"/>
<stop offset="0.15" stop-color="#DD8F45"/>
<stop offset="0.23" stop-color="#E6AF43"/>
<stop offset="0.32" stop-color="#EEC742"/>
<stop offset="0.41" stop-color="#F3D841"/>
<stop offset="0.51" stop-color="#F6E241"/>
<stop offset="0.64" stop-color="#F7E641"/>
<stop offset="0.83" stop-color="#FBB040"/>
<stop offset="1" stop-color="#A81149"/>
</linearGradient>
<radialGradient id="paint36_radial_177_3460" cx="0" cy="0" r="1" gradientUnits="userSpaceOnUse" gradientTransform="translate(19.4142 21.0607) scale(36.1498 41.1769)">
<stop stop-color="#FFE780"/>
<stop offset="0.55" stop-color="#7B6C40"/>
<stop offset="1" stop-color="#130C0E"/>
</radialGradient>
<linearGradient id="paint37_linear_177_3460" x1="28.6615" y1="62.7854" x2="17.7261" y2="3.17389" gradientUnits="userSpaceOnUse">
<stop stop-color="#3864DB"/>
<stop offset="1" stop-color="#3864DB"/>
</linearGradient>
<linearGradient id="paint38_linear_177_3460" x1="3.21773" y1="46.646" x2="43.9612" y2="41.6717" gradientUnits="userSpaceOnUse">
<stop stop-color="#4B82D5"/>
<stop offset="0.3" stop-color="#447ED3"/>
<stop offset="0.57" stop-color="#2C559E"/>
<stop offset="0.72" stop-color="#3C78D1"/>
<stop offset="0.98" stop-color="#2B539D"/>
</linearGradient>
<linearGradient id="paint39_linear_177_3460" x1="7.9798" y1="-5.73757" x2="30.0454" y2="52.7456" gradientUnits="userSpaceOnUse">
<stop stop-color="#F8F5EA"/>
<stop offset="0.41" stop-color="#F2EAD1"/>
<stop offset="0.78" stop-color="#C8BA9B"/>
<stop offset="1" stop-color="#B3A281"/>
</linearGradient>
<linearGradient id="paint40_linear_177_3460" x1="8.50418" y1="-6.23669" x2="30.2799" y2="52.1928" gradientUnits="userSpaceOnUse">
<stop offset="0.05" stop-color="#F2EAD1"/>
<stop offset="0.23" stop-color="#ECE4CA"/>
<stop offset="0.49" stop-color="#DED4B8"/>
<stop offset="0.78" stop-color="#C7B99B"/>
<stop offset="1" stop-color="#B3A281"/>
</linearGradient>
<linearGradient id="paint41_linear_177_3460" x1="27.4093" y1="0.641562" x2="27.0194" y2="38.2435" gradientUnits="userSpaceOnUse">
<stop stop-color="#865D46"/>
<stop offset="0.58" stop-color="#A1876A"/>
<stop offset="1" stop-color="#B3A281"/>
</linearGradient>
<linearGradient id="paint42_linear_177_3460" x1="25.9605" y1="2.18422" x2="23.856" y2="37.6442" gradientUnits="userSpaceOnUse">
<stop stop-color="#865D46"/>
<stop offset="0.58" stop-color="#A1876A"/>
<stop offset="1" stop-color="#B3A281"/>
</linearGradient>
<linearGradient id="paint43_linear_177_3460" x1="25.9428" y1="2.13776" x2="23.1363" y2="37.2406" gradientUnits="userSpaceOnUse">
<stop stop-color="#865D46"/>
<stop offset="0.58" stop-color="#A1876A"/>
<stop offset="1" stop-color="#B3A281"/>
</linearGradient>
<linearGradient id="paint44_linear_177_3460" x1="-2.55407" y1="56.8178" x2="2.88043" y2="-31.2886" gradientUnits="userSpaceOnUse">
<stop stop-color="#865D46"/>
<stop offset="0.58" stop-color="#A1876A"/>
<stop offset="1" stop-color="#B3A281"/>
</linearGradient>
<linearGradient id="paint45_linear_177_3460" x1="10.5534" y1="58.0026" x2="21.7667" y2="-33.3557" gradientUnits="userSpaceOnUse">
<stop stop-color="#865D46"/>
<stop offset="0.58" stop-color="#A1876A"/>
<stop offset="1" stop-color="#B3A281"/>
</linearGradient>
<linearGradient id="paint46_linear_177_3460" x1="6.4022" y1="5.36895" x2="65.8207" y2="20.4455" gradientUnits="userSpaceOnUse">
<stop offset="0.38" stop-color="#FBFAF5"/>
<stop offset="0.57" stop-color="#F6F2E4"/>
<stop offset="0.8" stop-color="#F3ECD5"/>
<stop offset="1" stop-color="#F2EAD1"/>
</linearGradient>
<linearGradient id="paint47_linear_177_3460" x1="6.29486" y1="27.2941" x2="62.8583" y2="36.3353" gradientUnits="userSpaceOnUse">
<stop offset="0.38" stop-color="white"/>
<stop offset="0.4" stop-color="#FEFDFB"/>
<stop offset="0.62" stop-color="#F7F2E4"/>
<stop offset="0.83" stop-color="#F3ECD5"/>
<stop offset="1" stop-color="#F2EAD1"/>
</linearGradient>
<linearGradient id="paint48_linear_177_3460" x1="15.5192" y1="28.3777" x2="31.9434" y2="46.4854" gradientUnits="userSpaceOnUse">
<stop stop-color="#F2EAD1"/>
<stop offset="0.2" stop-color="#EEE5CC"/>
<stop offset="0.44" stop-color="#E2D8BD"/>
<stop offset="0.7" stop-color="#D0C3A6"/>
<stop offset="0.97" stop-color="#B6A685"/>
<stop offset="1" stop-color="#B3A281"/>
</linearGradient>
<linearGradient id="paint49_linear_177_3460" x1="29.3613" y1="-17.9695" x2="-9.72505" y2="99.5395" gradientUnits="userSpaceOnUse">
<stop stop-color="#FBFAF5"/>
<stop offset="0.13" stop-color="#F6F2E4"/>
<stop offset="0.3" stop-color="#F3ECD5"/>
<stop offset="0.44" stop-color="#F2EAD1"/>
<stop offset="0.79" stop-color="#C8BA9B"/>
<stop offset="0.99" stop-color="#B3A281"/>
</linearGradient>
<linearGradient id="paint50_linear_177_3460" x1="24.9316" y1="55.4053" x2="20.7804" y2="19.3846" gradientUnits="userSpaceOnUse">
<stop stop-color="#09E9FA"/>
<stop offset="0.02" stop-color="#12DCEF"/>
<stop offset="0.11" stop-color="#34ADC9"/>
<stop offset="0.21" stop-color="#5383A6"/>
<stop offset="0.31" stop-color="#6D5F89"/>
<stop offset="0.42" stop-color="#3864DB"/>
<stop offset="0.53" stop-color="#3864DB"/>
<stop offset="0.65" stop-color="#3864DB"/>
<stop offset="0.79" stop-color="#3864DB"/>
<stop offset="0.98" stop-color="#3864DB"/>
</linearGradient>
</defs>
</svg>
