<svg width="41" height="36" viewBox="0 0 41 36" fill="none" xmlns="http://www.w3.org/2000/svg">
<g opacity="0.84">
<path d="M40.3576 11.7635C40.3576 11.7635 40.3576 11.7607 40.3576 11.758C40.3164 11.5874 40.2723 11.4196 40.2201 11.2573C40.2201 11.2491 40.2146 11.2408 40.2118 11.2325C40.1623 11.0757 40.1073 10.9189 40.0495 10.7649C40.044 10.7484 40.0385 10.7346 40.0303 10.7181C39.9725 10.5723 39.912 10.4292 39.8459 10.2917C39.8349 10.2697 39.8239 10.2477 39.8129 10.2257C39.7497 10.0936 39.6836 9.96707 39.6121 9.84053C39.5956 9.81027 39.5763 9.78276 39.5598 9.75249C39.4911 9.63695 39.4223 9.52141 39.348 9.41137C39.3232 9.3756 39.2985 9.33984 39.2737 9.30408C39.2022 9.20229 39.1307 9.10325 39.0564 9.00697C39.0234 8.9657 38.9904 8.92719 38.9546 8.88592C38.8831 8.80064 38.8116 8.7126 38.7345 8.63007C38.6933 8.58606 38.6492 8.54204 38.6052 8.49802C38.5337 8.4265 38.4622 8.35222 38.3879 8.28344C38.3356 8.23668 38.2806 8.19266 38.2256 8.14864C38.1541 8.08812 38.0853 8.0276 38.0138 7.97258C37.9505 7.92306 37.8817 7.87904 37.8157 7.83503C37.7497 7.78826 37.6836 7.74149 37.6149 7.70022C37.5323 7.64796 37.447 7.60394 37.3618 7.55992C37.3067 7.52966 37.2517 7.49665 37.1939 7.46639C37.0509 7.39486 36.9023 7.33159 36.751 7.27657C36.6547 7.2408 36.5557 7.21054 36.4567 7.18303C36.4182 7.17203 36.3824 7.16102 36.3439 7.15277C36.3246 7.14727 36.3054 7.14452 36.2861 7.13901C36.2861 7.13901 36.2806 7.13901 36.2779 7.13901C36.2448 7.13076 36.2091 7.12251 36.1761 7.11426C36.0935 7.095 36.011 7.08124 35.9257 7.06474C35.9257 7.06474 35.923 7.06474 35.9202 7.06474C35.9065 7.06474 35.89 7.05923 35.8762 7.05648C35.8735 7.05648 35.8707 7.05648 35.868 7.05648C35.403 6.98496 34.9326 6.98221 34.4677 7.03723C34.4457 7.03723 34.4209 7.04273 34.3989 7.04548C34.2503 7.06474 34.1045 7.08674 33.9587 7.11701C33.956 7.11701 33.9505 7.11701 33.9477 7.11701C33.9367 7.11701 33.923 7.12251 33.912 7.12526C33.5021 7.21329 33.0536 7.33434 32.674 7.52416C32.641 7.54067 32.5777 7.58468 32.5034 7.64245C32.4429 7.67547 32.3824 7.71673 32.3219 7.75249C32.0908 7.85703 31.8652 7.96983 31.6644 8.13489C31.2215 8.49802 30.8363 8.98771 30.553 9.49665C30.6382 9.27657 30.6933 9.03172 30.7373 8.77863C30.773 8.64658 30.806 8.51453 30.8418 8.38798C30.9711 8.20917 31.1252 8.12663 31.2792 7.85703C31.4553 7.68647 31.5846 7.4939 31.6699 7.25456C31.6699 7.25456 31.6699 7.25181 31.6699 7.24906C31.7001 7.16377 31.7249 7.07849 31.7442 6.98221C31.7772 6.81714 31.8597 6.35772 31.8845 5.96157C31.8845 5.94507 31.8845 5.93131 31.8845 5.91756C31.89 5.85703 31.8955 5.79651 31.901 5.73874C31.9037 5.68372 31.9037 5.63145 31.901 5.58193C31.901 5.54067 31.8955 5.50215 31.8927 5.46089C31.8927 5.45813 31.8927 5.45538 31.8927 5.44988C31.8927 5.44988 31.8927 5.44713 31.8927 5.44438C31.8762 5.31783 31.8459 5.20229 31.7937 5.095C31.7937 5.09225 31.7909 5.08674 31.7882 5.08399C31.7717 5.04823 31.7524 5.01247 31.7304 4.9767C31.7304 4.9767 31.7276 4.97395 31.7276 4.9712C31.6836 4.90243 31.6314 4.83365 31.5708 4.76487C31.5708 4.76487 31.5681 4.75937 31.5653 4.75662C31.5378 4.72636 31.5048 4.69335 31.4718 4.66309C31.4608 4.65483 31.4525 4.64383 31.4415 4.63558C31.4085 4.60531 31.3755 4.57505 31.3397 4.54479C31.293 4.50078 31.2407 4.45676 31.1802 4.41824C31.0481 4.33021 30.9133 4.24768 30.7703 4.16515C30.7455 4.15139 30.718 4.13764 30.6905 4.12388C30.5722 4.05786 30.4512 3.99183 30.3219 3.92856C30.2751 3.9038 30.2228 3.88179 30.1733 3.85979C30.0633 3.80752 29.956 3.75525 29.8404 3.70573C29.7552 3.66996 29.6671 3.6342 29.5791 3.59844C29.4938 3.56542 29.414 3.52966 29.326 3.49665C29.2049 3.44988 29.0784 3.40862 28.9519 3.3646C28.8941 3.34534 28.8391 3.32333 28.7785 3.30133C28.619 3.24906 28.4539 3.19679 28.2889 3.14727C28.2586 3.13901 28.2311 3.12801 28.2008 3.11976C28.0055 3.06199 27.8074 3.00697 27.6011 2.9547C27.5983 2.9547 27.5928 2.9547 27.5901 2.95194C25.6891 2.45401 23.359 2.12113 20.6933 1.88179C16.4044 1.5049 12.9821 1.55167 10.8446 2.38798C10.8308 2.39349 10.8198 2.39899 10.8061 2.40449C10.7208 2.4375 10.6355 2.47327 10.5557 2.50903C10.4402 2.5613 10.3301 2.61357 10.2228 2.66859C10.2173 2.66859 10.2146 2.67409 10.2091 2.67684C10.0413 2.75937 9.67813 3.02897 9.54058 3.4939C9.54058 3.49115 9.54058 3.4884 9.54058 3.48564C9.53783 3.49665 9.53508 3.5049 9.53232 3.51591C9.52682 3.53791 9.52132 3.55717 9.51582 3.57918C9.50206 3.64245 9.48831 3.70848 9.48556 3.77725C9.48556 3.82402 9.48556 3.86804 9.48281 3.91205C9.4773 3.94232 9.4718 3.96983 9.4718 4.00009C9.4608 4.46226 9.4663 4.83915 9.4718 5.00421C9.50206 5.54342 9.67263 5.97533 10.1238 6.28344C10.1293 6.28895 10.1376 6.29445 10.1431 6.2972C10.1651 6.48152 10.1871 6.67409 10.2118 6.87216C10.2036 6.86666 10.1981 6.85841 10.1898 6.85016C10.1981 6.85841 10.2063 6.86941 10.2146 6.88042C10.2256 6.96295 10.2338 7.04548 10.2448 7.13076C10.2503 7.17478 10.2558 7.21879 10.2613 7.26281C9.31499 5.3701 7.29574 4.39624 5.55708 4.36047C5.53783 4.36047 5.51857 4.36047 5.49931 4.36047C5.43054 4.36047 5.35901 4.36047 5.29023 4.36047C5.26272 4.36047 5.23796 4.36047 5.21045 4.36322C5.14718 4.36597 5.08391 4.37148 5.02338 4.37698C4.99862 4.37698 4.97111 4.38248 4.94636 4.38523C4.86107 4.39624 4.77854 4.40724 4.69601 4.421C4.5392 4.44851 4.38515 4.48702 4.23109 4.53104C4.17882 4.54754 4.1293 4.5668 4.07703 4.58331C3.97799 4.61632 3.87896 4.64658 3.77992 4.68785C3.71664 4.7126 3.65337 4.74562 3.5901 4.77588C3.51032 4.81164 3.42779 4.84741 3.34801 4.88867C3.27648 4.92719 3.2077 4.96845 3.13618 5.00972C3.07015 5.04823 3.00138 5.08674 2.93535 5.12801C2.85832 5.17753 2.78405 5.23255 2.70977 5.28757C2.65475 5.32884 2.59697 5.3646 2.54471 5.40862C2.46493 5.47189 2.38515 5.54067 2.30812 5.60944C2.2641 5.64796 2.22008 5.68372 2.17882 5.72223C2.09354 5.79926 2.01376 5.88454 1.93398 5.96708C1.90096 6.00009 1.86795 6.0331 1.83494 6.06886C1.74966 6.1624 1.66713 6.26144 1.58735 6.36047C1.56259 6.38798 1.54058 6.41824 1.51582 6.44575C1.43054 6.5558 1.35076 6.66859 1.27098 6.78413C1.25447 6.80614 1.24072 6.82815 1.22421 6.85016C1.14168 6.97395 1.0619 7.10325 0.987622 7.2353C0.979368 7.25181 0.971115 7.26556 0.960111 7.28207C0.880331 7.42237 0.806054 7.56542 0.737278 7.71123C0.734527 7.71948 0.729025 7.72774 0.726274 7.73599C0.651996 7.89005 0.585971 8.04685 0.522697 8.20641C0.522697 8.20641 0.522697 8.20917 0.522697 8.21192C0.233839 8.96845 0.0467689 9.79376 0.00825446 10.6548C0.00825446 10.7099 0.00825446 10.7649 0.00550343 10.8171C0.00550343 10.9079 0.0027524 10.9987 0.00550343 11.0867C0.00550343 11.128 0.00550343 11.172 0.00825446 11.2133C0.0110055 11.3178 0.0165076 11.4224 0.0247607 11.5269C0.0275117 11.5682 0.0302627 11.6067 0.0330137 11.648C0.057773 11.9286 0.10179 12.2009 0.15681 12.4678C0.162312 12.498 0.170565 12.531 0.178818 12.5613C0.203578 12.6713 0.231088 12.7814 0.261349 12.8887C0.269602 12.9134 0.275105 12.9382 0.280607 12.9629C0.360386 13.2325 0.453921 13.4939 0.561212 13.747C0.566714 13.758 0.572216 13.769 0.574967 13.78C0.627236 13.9038 0.685008 14.0248 0.74278 14.1431C0.74278 14.1431 0.74278 14.1486 0.745531 14.1514C1.76891 16.2009 3.69189 17.6645 5.55708 18.3247C5.67263 18.366 5.78817 18.4045 5.90647 18.443C6.5337 18.6493 7.08941 18.8034 7.7304 19.0152C8.25034 19.1858 8.75653 19.4059 9.24622 19.659C9.24622 19.659 9.25172 19.6617 9.25447 19.6645C9.36176 19.7277 9.4663 19.7938 9.57084 19.8625C9.58459 19.8708 9.59835 19.8818 9.6121 19.89C9.70289 19.9533 9.79092 20.0193 9.87895 20.0881C9.89821 20.1046 9.92022 20.1211 9.93948 20.1376C10.022 20.2037 10.099 20.2752 10.1761 20.3495C10.1953 20.3687 10.2173 20.388 10.2393 20.4072C10.3329 20.5008 10.4237 20.5998 10.5117 20.7044C10.5502 20.7511 10.586 20.8034 10.6245 20.8557C10.6355 20.8722 10.6465 20.8887 10.6575 20.9052C10.685 20.9464 10.7098 20.9905 10.7345 21.0345C10.7428 21.051 10.7538 21.0675 10.762 21.084C10.8281 21.2105 10.8886 21.3453 10.9409 21.4884C10.9436 21.4994 10.9491 21.5104 10.9519 21.5214C10.9766 21.5874 10.9959 21.6562 11.0179 21.7277C11.0179 21.7332 11.0206 21.7415 11.0234 21.747C11.0894 21.9863 11.1279 22.2394 11.1334 22.487C11.1389 22.8254 11.0839 23.1555 10.9409 23.4416C10.4979 24.3192 9.52407 24.3605 9.01513 23.8598C9.01513 23.8488 9.01513 23.8405 9.01788 23.8295C9.02063 23.8158 9.02889 23.802 9.03164 23.7883C9.92847 23.4526 9.7359 22.3082 9.29849 21.7855C9.29574 21.7828 9.29298 21.78 9.29023 21.7773C9.29023 21.7773 9.29574 21.7773 9.29849 21.7773C9.25997 21.736 9.21871 21.6975 9.17744 21.6617C8.70977 21.2408 8.11279 21.4031 7.69188 21.8515C7.66162 21.8818 7.63411 21.9148 7.6066 21.9478C7.5956 21.9588 7.58735 21.9726 7.57909 21.9836C7.54058 22.0331 7.50481 22.0826 7.47455 22.1349C7.46905 22.1404 7.4663 22.1486 7.4608 22.1541C7.42779 22.2092 7.39477 22.2669 7.36726 22.3275C7.35351 22.3577 7.33975 22.388 7.32875 22.421C7.31774 22.4458 7.30674 22.4733 7.29849 22.498C7.28198 22.5393 7.26823 22.5806 7.25722 22.6246C7.25722 22.6328 7.25172 22.6438 7.24897 22.6521C7.22696 22.7319 7.21045 22.8144 7.1967 22.8997C7.19395 22.9272 7.18845 22.9547 7.18569 22.9795C7.18294 23.0125 7.18019 23.0455 7.17744 23.0785C7.17469 23.1445 7.17194 23.2133 7.17744 23.2793C7.26547 24.531 8.19532 25.2243 9.19945 25.4581C9.55983 25.5737 9.93673 25.6259 10.2889 25.5764C10.8941 25.4911 11.4305 25.2243 11.8624 24.8447C11.8955 24.8171 11.9257 24.7896 11.9587 24.7594C11.9835 24.7346 12.0083 24.7126 12.033 24.6878C12.7235 24.0221 13.1389 23.0647 13.1334 22.0056C13.4195 22.4347 13.7304 22.7841 14.0358 22.9822C14.619 23.5627 15.4443 24.0414 16.6905 24.3907C16.7153 24.8474 16.7593 25.3398 16.9986 25.6865C17.0757 25.8295 17.1857 25.9451 17.3425 26.0496C17.6974 27.4526 17.8184 29.1335 17.6864 31.1253C17.0674 31.139 16.5722 31.2188 16.3109 31.3453C16.3109 31.3426 16.3081 31.3398 16.3054 31.3343C16.2889 31.3508 16.2668 31.3618 16.2503 31.3756C16.2146 31.3976 16.1843 31.4196 16.1623 31.4444C15.392 32.0414 14.3851 32.2312 13.4278 32.1899C13.4195 32.1899 13.4113 32.1982 13.403 32.2009C13.304 32.2064 13.2022 32.2229 13.1004 32.2532C13.1279 32.2779 13.1582 32.2999 13.1884 32.3247C13.1417 32.355 13.0922 32.3825 13.0371 32.399C12.7043 32.4953 12.4759 32.6273 12.3439 32.7841C12.3191 32.7511 12.2889 32.7209 12.2641 32.6878C12.0825 32.8942 12.11 33.0565 12.2118 33.2078C12.2366 33.4306 12.3879 33.6755 12.6547 33.9258C12.9656 34.2229 13.4443 34.5255 14.0688 34.8034C15.1857 35.3178 16.7648 35.7607 18.6933 35.9588C22.4154 36.2147 24.8858 35.3233 25.1664 34.4127C25.1802 34.3797 25.1884 34.3467 25.1967 34.3137C25.3012 34.1459 25.348 33.9533 25.293 33.7305C25.3177 33.8323 25.2682 33.9313 25.1747 34.0276C25.1747 34.0221 25.1692 34.0166 25.1664 34.0138C25.1609 33.9808 25.1499 33.9478 25.1389 33.9148C25.1362 33.9203 25.1307 33.9258 25.1279 33.9313C25.1169 33.9121 25.1004 33.8928 25.0839 33.8735C25.0839 33.8735 25.0839 33.8708 25.0812 33.868C25.0812 33.868 25.0757 33.8625 25.0757 33.8598C25.0564 33.835 25.0371 33.8103 25.0124 33.7883C24.8088 33.5682 24.5337 33.4636 24.3439 33.2325C24.3576 33.2243 24.3741 33.2188 24.3879 33.2105C24.3604 33.1995 24.3301 33.1913 24.3026 33.1803C24.2779 33.1445 24.2531 33.106 24.2311 33.0647C24.1458 33.0812 24.055 33.084 23.9615 33.0812C23.8872 33.062 23.8102 33.0427 23.7386 33.0207C23.7276 33.0235 23.7166 33.029 23.7056 33.0317C23.4223 32.9629 23.1334 32.8777 22.8528 32.7704C22.8473 32.7704 22.8446 32.7676 22.8391 32.7649C22.3741 32.5833 21.923 32.3357 21.5818 31.9643C21.5791 31.9588 21.5736 31.9561 21.5708 31.9533C21.4443 31.714 20.8005 31.4664 19.9175 31.3041C19.9285 31.1363 19.9395 30.9684 19.9532 30.8061C19.9587 30.7374 19.9642 30.6686 19.9697 30.5998C19.989 30.3852 20.011 30.1789 20.033 29.9753C20.0358 29.9423 20.0413 29.9093 20.044 29.8763C20.0688 29.6727 20.0963 29.4774 20.1265 29.2848C20.1376 29.2215 20.1458 29.161 20.1568 29.0977C20.1871 28.9162 20.2173 28.7401 20.2503 28.5695C20.2558 28.5475 20.2586 28.5255 20.2641 28.5035C20.3026 28.322 20.3411 28.1486 20.3851 27.9808C20.3961 27.9341 20.4099 27.8845 20.4209 27.8378C20.4622 27.6782 20.5062 27.5242 20.553 27.3756C20.5557 27.3646 20.5585 27.3563 20.5612 27.3453C20.5887 27.2628 20.619 27.1858 20.6465 27.106C20.74 26.8694 20.8473 26.6548 20.9766 26.4485C21.0701 26.4072 21.1609 26.3577 21.249 26.2944C21.2765 26.2752 21.3012 26.2532 21.326 26.2312C21.7442 25.9616 21.8845 25.3894 21.9862 24.8557C22.6795 24.7869 23.2572 24.6603 23.7442 24.4843C23.7442 24.4953 23.7442 24.5035 23.7442 24.5145C23.7442 24.5173 23.9312 24.4292 24.1596 24.311C24.3521 24.2202 24.5282 24.1184 24.6933 24.0083C24.74 23.9781 24.784 23.9478 24.8198 23.9203C24.8198 23.9203 24.8253 23.9176 24.8281 23.9148C24.8363 23.9093 24.8446 23.9038 24.8501 23.8983C25.2682 23.5874 25.5956 23.216 25.8762 22.8034C25.89 22.7841 25.9065 22.7649 25.923 22.7456C26.0413 22.5833 26.1513 22.4237 26.2558 22.2614C26.2421 22.2999 26.2283 22.3385 26.2146 22.377C26.2036 22.4072 26.1953 22.4403 26.1843 22.4705C26.1458 22.5888 26.1128 22.7044 26.088 22.8226C26.0825 22.8474 26.077 22.8722 26.0715 22.8969C25.7497 24.4403 26.3741 25.9671 27.5791 26.7924C27.6644 26.8529 27.7607 26.9052 27.8597 26.9547C27.8982 26.974 27.9367 26.9905 27.9752 27.007C28.033 27.0317 28.088 27.0537 28.1486 27.0757C28.2118 27.0977 28.2751 27.1198 28.3411 27.139C28.3576 27.1445 28.3741 27.1473 28.3934 27.1528C28.5832 27.205 28.7758 27.2463 28.9601 27.2628C29.238 27.2876 29.5268 27.2711 29.8074 27.2188C29.8734 27.2078 29.9395 27.194 30.0055 27.1803C30.0275 27.1748 30.0495 27.1693 30.0688 27.1638C30.3961 27.0785 30.7043 26.9354 30.9684 26.7264C30.9849 26.7154 31.0014 26.7016 31.0151 26.6906C31.0701 26.6438 31.1224 26.5943 31.1719 26.5393C31.2105 26.5008 31.249 26.465 31.282 26.4237C31.293 26.41 31.304 26.3907 31.3177 26.377C31.3728 26.3082 31.4278 26.2422 31.4718 26.1651C31.6369 25.89 31.7386 25.5654 31.7634 25.2408C31.7634 25.2353 31.7634 25.227 31.7634 25.2215C31.7772 25.0097 31.7634 24.7979 31.7084 24.5971C31.6891 24.5283 31.6616 24.4513 31.6286 24.3715C31.3122 23.5599 30.5117 23.0345 29.8377 23.6204C29.3205 24.0689 28.9656 25.2105 29.8845 25.681C29.3205 26.1349 28.3164 25.9341 27.989 24.9629C27.8845 24.6548 27.8762 24.3165 27.9285 23.9836C27.9807 23.6535 28.0963 23.3316 28.2476 23.0455C28.2476 23.0455 28.2476 23.0427 28.2476 23.04C28.3219 22.9024 28.4016 22.7731 28.4897 22.6576C28.4979 22.6466 28.5062 22.6356 28.5144 22.6273C28.5475 22.5833 28.5832 22.542 28.619 22.5008C28.63 22.4898 28.641 22.476 28.652 22.465C28.696 22.4182 28.74 22.3742 28.784 22.333C28.8831 22.2449 28.9849 22.1651 29.0894 22.0909C29.1169 22.0716 29.1472 22.0524 29.1747 22.0331C29.2545 21.9781 29.3342 21.9258 29.4195 21.879C29.447 21.8625 29.4773 21.8488 29.5048 21.8323C29.5928 21.7828 29.6836 21.736 29.7744 21.6947C29.7964 21.6837 29.8157 21.6755 29.8377 21.6645C29.9422 21.6177 30.0495 21.5737 30.1568 21.5324C30.1623 21.5324 30.1706 21.5269 30.1761 21.5242C30.6933 21.3618 31.2242 21.2325 31.7579 21.1555C32.5419 21.04 33.1857 20.9932 33.9972 20.8584C36.2916 20.4788 38.8171 18.9932 39.9505 16.4815C39.956 16.4705 39.9615 16.4595 39.967 16.4458C40.0165 16.3302 40.066 16.2147 40.11 16.0964C40.1183 16.0771 40.1238 16.0579 40.132 16.0386C40.2283 15.78 40.3081 15.5104 40.3741 15.2325C40.3824 15.1995 40.3879 15.1665 40.3961 15.1335C40.4182 15.0262 40.4402 14.9189 40.4594 14.8089C40.4649 14.7704 40.4732 14.7319 40.4787 14.6933C40.4924 14.6026 40.5034 14.5118 40.5144 14.421C40.5199 14.3687 40.5282 14.3137 40.5337 14.2587C40.6107 13.4004 40.5419 12.553 40.3521 11.7552L40.3576 11.7635ZM2.98212 12.7071C2.97387 12.6768 2.96561 12.6493 2.96011 12.6191C2.93535 12.5283 2.91334 12.4347 2.89684 12.344C2.89134 12.3192 2.88583 12.2972 2.88308 12.2724C2.84182 12.0359 2.81706 11.7993 2.81431 11.5709C2.81431 11.3784 2.82256 11.1858 2.84732 11.0015C2.84732 11.0015 2.84732 11.0042 2.84732 11.007C2.91609 10.4595 3.08941 9.95057 3.34801 9.50765C3.34801 9.50215 3.35351 9.4994 3.35626 9.4939C3.48281 9.27932 3.62586 9.08124 3.78542 8.90243C3.79367 8.89417 3.80193 8.88317 3.81018 8.87492C3.96699 8.7016 4.1403 8.54754 4.32462 8.41274C4.34113 8.40174 4.35488 8.39073 4.36864 8.37973C4.45942 8.31646 4.55021 8.25868 4.64649 8.20366C4.66025 8.19541 4.674 8.18991 4.68776 8.18165C4.77304 8.13489 4.85832 8.09362 4.94911 8.05786C4.96836 8.04961 4.98762 8.04135 5.00963 8.0331C5.10867 7.99459 5.2077 7.96157 5.30949 7.93406C5.3315 7.92856 5.35626 7.92306 5.37827 7.91756C5.4663 7.89555 5.55708 7.87629 5.64787 7.86254C5.66988 7.85978 5.68913 7.85428 5.71114 7.85153C5.81568 7.83778 5.92297 7.83227 6.03026 7.82952C6.05777 7.82952 6.08528 7.82952 6.11279 7.82952C6.21183 7.82952 6.31087 7.83503 6.4099 7.84878C6.42366 7.84878 6.44017 7.84878 6.45392 7.85153C6.56396 7.86529 6.67675 7.89005 6.78955 7.91756C6.81706 7.92306 6.84457 7.93131 6.87208 7.93956C6.98762 7.97258 7.10316 8.00834 7.21871 8.05511C7.26272 8.07161 7.30674 8.09362 7.35076 8.11563C7.36451 8.12113 7.37552 8.12939 7.38927 8.13764C7.41953 8.15415 7.44979 8.17065 7.48006 8.18991C7.49381 8.19816 7.51032 8.20916 7.52407 8.22017C7.55158 8.23943 7.57909 8.25868 7.6066 8.28069C7.62036 8.2917 7.63411 8.3027 7.64787 8.3137C7.67538 8.33571 7.70289 8.36047 7.7304 8.38523C7.7414 8.39624 7.75516 8.40724 7.76616 8.41824C7.79917 8.44851 7.83219 8.48152 7.86245 8.51453C7.86795 8.52003 7.87345 8.52553 7.87895 8.53104C7.95598 8.61357 8.03026 8.70435 8.09904 8.79789C8.10179 8.80339 8.10454 8.80614 8.10729 8.81164C8.13755 8.85566 8.16781 8.89967 8.19532 8.94369C8.20083 8.95194 8.20358 8.95745 8.20908 8.9657C8.23659 9.00972 8.2641 9.05373 8.28886 9.1005C8.29161 9.106 8.29711 9.1115 8.29986 9.11976C8.32737 9.16928 8.35488 9.22154 8.37964 9.27381C8.48693 9.4939 8.56671 9.73049 8.61348 9.96432C8.62448 10.0221 8.63549 10.0799 8.64099 10.1349C8.64099 10.1349 8.64099 10.1376 8.64099 10.1404C8.64924 10.1982 8.65199 10.2559 8.65475 10.3137C8.663 10.4733 8.65475 10.6301 8.62173 10.7786C8.62173 10.7786 8.62173 10.7786 8.62173 10.7814C8.61623 10.8144 8.60523 10.8447 8.59697 10.8777C8.5392 11.0482 8.45117 11.2133 8.35488 11.3536C8.21458 11.5269 8.02201 11.67 7.77166 11.769C7.76341 11.769 7.75791 11.769 7.74966 11.769C7.84869 11.5737 7.87345 11.3481 7.84594 11.128C7.84594 11.1198 7.84594 11.1088 7.84319 11.1005C7.83769 11.0647 7.82944 11.029 7.82118 10.9932C7.81568 10.9657 7.81018 10.9382 7.80193 10.9107C7.79642 10.8887 7.78542 10.8694 7.77717 10.8474C7.76341 10.8116 7.75241 10.7759 7.7359 10.7429C7.7249 10.7181 7.70839 10.6933 7.69464 10.6686C7.68088 10.6411 7.66713 10.6136 7.65062 10.5888C7.61761 10.5393 7.58459 10.4925 7.54608 10.4513C7.49106 10.388 7.43329 10.3357 7.37827 10.2889C7.36176 10.2752 7.34801 10.2642 7.3315 10.2504C7.28473 10.2119 7.23521 10.1789 7.18845 10.1514C7.18019 10.1459 7.16919 10.1404 7.16094 10.1349C7.10591 10.1046 7.04814 10.0826 6.99312 10.0634C6.97937 10.0579 6.96286 10.0551 6.94911 10.0524C6.90509 10.0414 6.85832 10.0331 6.81431 10.0276C6.80055 10.0276 6.78955 10.0248 6.77579 10.0221C6.72077 10.0193 6.6685 10.0221 6.61623 10.0276C6.60523 10.0276 6.59422 10.0331 6.58047 10.0331C6.53645 10.0414 6.49519 10.0524 6.45392 10.0661C6.44017 10.0716 6.42916 10.0744 6.41541 10.0799C6.36589 10.0991 6.31637 10.1239 6.26685 10.1514C6.26135 10.1541 6.25585 10.1596 6.25034 10.1624C6.20908 10.1899 6.16781 10.2202 6.12655 10.2532C6.11554 10.2614 6.10454 10.2724 6.09354 10.2807C6.0055 10.3605 5.92297 10.454 5.85144 10.5585C5.84319 10.5696 5.83494 10.5833 5.82669 10.5971C5.79642 10.6466 5.76616 10.6961 5.73865 10.7484C5.7359 10.7539 5.7304 10.7621 5.72765 10.7676C5.69739 10.8281 5.66988 10.8914 5.64512 10.9547C5.63962 10.9684 5.63411 10.9822 5.63136 10.996C5.6121 11.051 5.59285 11.1088 5.57909 11.1665C5.57634 11.1803 5.57084 11.1913 5.56809 11.205C5.55158 11.2738 5.53783 11.3426 5.52682 11.4141C5.52682 11.4279 5.52407 11.4389 5.52132 11.4526C5.51307 11.5132 5.50757 11.5737 5.50481 11.6342C5.50481 11.6507 5.50481 11.6672 5.50481 11.6865C5.50481 11.758 5.50482 11.8323 5.51307 11.9038C5.51307 11.9038 5.51307 11.9066 5.51307 11.9093C5.51307 11.9176 5.51307 11.9286 5.51582 11.9368C5.51582 11.9506 5.51857 11.9643 5.52132 11.9808C5.53232 12.0689 5.54883 12.1569 5.57084 12.2422C5.57084 12.2504 5.57634 12.2559 5.57634 12.2642C5.59835 12.3467 5.62861 12.4265 5.66437 12.509C5.66988 12.5228 5.67538 12.5365 5.68088 12.5475C5.71664 12.6273 5.76341 12.7071 5.81293 12.7841C5.82393 12.8006 5.83494 12.8171 5.84594 12.8336C5.89821 12.9107 5.95873 12.9822 6.02476 13.0537C6.03576 13.0647 6.04952 13.0785 6.06052 13.0895C6.1348 13.1638 6.21183 13.2353 6.30261 13.3013C6.98487 13.8075 7.81293 13.8405 8.56396 13.5297C9.62036 13.0922 10.3714 11.9891 10.6685 10.7291C10.6795 10.6906 10.6905 10.6521 10.6988 10.6108C10.718 10.7594 10.7373 10.9079 10.7565 11.051C10.762 11.0867 10.7648 11.1225 10.7703 11.161C10.7703 11.172 10.773 11.183 10.7758 11.194C10.0385 12.1486 9.57359 13.2986 9.48831 14.564C9.41403 15.6452 9.5901 16.6823 9.97524 17.6204C8.78679 17.0757 7.4718 16.7484 6.38239 16.1927C5.17469 15.5792 3.66438 14.5668 3.10041 13.0482C3.0564 12.9327 3.02063 12.8171 2.98762 12.7016L2.98212 12.7071ZM37.4773 15.3646C37.4718 15.3811 37.4663 15.3976 37.4608 15.4141C37.4278 15.5077 37.392 15.6012 37.3535 15.692C37.3425 15.7167 37.3342 15.7415 37.3232 15.7635C37.2737 15.8735 37.2215 15.9808 37.1637 16.0881C36.3989 17.4856 34.7703 18.2202 33.4938 18.6108C31.392 19.2546 28.6492 19.029 27.0289 20.9464C27.2187 20.5613 27.3865 20.1596 27.5351 19.747C27.8817 18.8474 28.1706 17.8763 28.5007 16.7319C28.5117 16.6878 28.5282 16.6438 28.542 16.6026C28.619 16.355 28.696 16.1101 28.7758 15.8763C28.784 15.8515 28.7923 15.824 28.8033 15.7938C28.8033 15.7855 28.8088 15.7773 28.8116 15.769C28.8116 15.7607 28.8171 15.7525 28.8198 15.7442C28.8418 15.6755 28.8666 15.5902 28.8941 15.4939C29.1279 14.7319 29.3425 13.9643 29.5461 13.1913C29.6891 12.6796 29.8377 12.1294 29.9917 11.5709C29.9725 11.8185 29.967 12.0689 29.9862 12.311C29.989 12.355 29.9972 12.399 30.0027 12.443C30.077 13.2683 30.3439 14.0661 30.7813 14.6988C31.0316 15.0592 31.3397 15.3674 31.6974 15.5929C32.3961 16.0331 33.2572 16.2147 33.9615 15.7662C34.1238 15.6837 34.2613 15.5847 34.3796 15.4746C34.7345 15.194 34.8858 14.9244 34.9656 14.4265C34.9766 14.3522 34.9794 14.2752 34.9794 14.1954C35.0151 13.6507 34.8391 13.1115 34.5392 12.7759C34.5337 12.7704 34.5282 12.7649 34.5254 12.7594C34.5144 12.7484 34.5034 12.7374 34.4924 12.7264C34.4704 12.7016 34.4457 12.6796 34.4209 12.6576C34.0798 12.3715 33.6176 12.322 33.1224 12.7264C33.0784 12.7621 33.0399 12.8006 33.0014 12.8419C32.9656 12.8832 32.9326 12.9272 32.8996 12.974C32.8996 12.974 32.8996 12.974 32.8968 12.9767C32.8666 13.0207 32.8418 13.0647 32.8198 13.1143C32.8171 13.1198 32.8143 13.1253 32.8116 13.1308C32.795 13.1638 32.784 13.1995 32.7703 13.2353C32.762 13.2601 32.751 13.2848 32.7428 13.3096C32.7373 13.3233 32.7345 13.3398 32.7318 13.3536C32.6768 13.5599 32.6712 13.7828 32.7428 13.9918C32.7345 13.9918 32.7263 13.9918 32.7208 13.9891C32.4842 13.846 32.3136 13.67 32.2008 13.4719C32.1238 13.3178 32.0578 13.139 32.0275 12.9574C32.0248 12.9299 32.0193 12.9052 32.0193 12.8777C32.0193 12.8694 32.0193 12.8612 32.0193 12.8502C32.0082 12.6988 32.0193 12.5448 32.0495 12.388C32.121 11.9973 32.3109 11.6039 32.5667 11.2683C32.5667 11.2656 32.5722 11.2628 32.575 11.2601C32.608 11.216 32.6437 11.1748 32.6795 11.1335C32.6823 11.1308 32.685 11.1253 32.6905 11.1225C32.729 11.0785 32.7675 11.0372 32.806 10.9987C32.8886 10.9162 32.9739 10.8392 33.0646 10.7704C33.0674 10.7704 33.0701 10.7649 33.0729 10.7649C33.1114 10.7346 33.1527 10.7071 33.1939 10.6796C33.2049 10.6713 33.216 10.6658 33.227 10.6603C33.26 10.6383 33.293 10.6191 33.326 10.5998C33.3397 10.5916 33.3535 10.5833 33.3673 10.5778C33.3975 10.5613 33.4305 10.5448 33.4635 10.531C33.4773 10.5255 33.4938 10.5173 33.5076 10.5118C33.5406 10.498 33.5736 10.4843 33.6066 10.4733C33.6204 10.4678 33.6314 10.4623 33.6451 10.4595C33.6919 10.4458 33.7359 10.432 33.7827 10.421C33.9037 10.3962 34.022 10.3797 34.1403 10.3687C34.1678 10.366 34.1981 10.3632 34.2256 10.3605C34.3411 10.3522 34.4539 10.3495 34.5667 10.355C34.5805 10.355 34.597 10.3577 34.6107 10.3577C34.7125 10.3632 34.8116 10.377 34.9078 10.3935C34.9353 10.399 34.9601 10.4017 34.9876 10.4072C35.0949 10.4292 35.1995 10.454 35.3012 10.487C35.3205 10.4925 35.3398 10.5008 35.359 10.5063C35.447 10.5365 35.5351 10.5696 35.6204 10.6081C35.6424 10.6163 35.6644 10.6273 35.6836 10.6356C35.7799 10.6823 35.8735 10.7319 35.967 10.7869C35.9862 10.7979 36.0027 10.8116 36.022 10.8226C36.1045 10.8749 36.1843 10.9299 36.2613 10.9905C36.2751 11.0015 36.2861 11.0097 36.2999 11.0207C36.3851 11.0895 36.4704 11.1638 36.5502 11.2436C36.564 11.2573 36.5777 11.2711 36.5915 11.2848C36.6712 11.3646 36.7455 11.4471 36.8171 11.5324C36.8171 11.5324 36.8198 11.5352 36.8226 11.5379C36.8968 11.6287 36.9684 11.725 37.0344 11.824C37.0426 11.8378 37.0509 11.8515 37.0619 11.8653C37.1939 12.0689 37.3067 12.2862 37.4003 12.5145C37.403 12.5255 37.4085 12.5338 37.4113 12.5448C37.5048 12.7814 37.5791 13.029 37.6259 13.2848C37.6259 13.2903 37.6259 13.2931 37.6259 13.2986C37.6754 13.5599 37.7001 13.8323 37.6946 14.1074C37.6946 14.2972 37.6781 14.487 37.6479 14.6768C37.6479 14.6741 37.6479 14.6713 37.6479 14.6686C37.6121 14.8997 37.5571 15.1308 37.4828 15.3618L37.4773 15.3646Z" fill="#214380"/>
<path d="M13.425 30.5338C14.4402 30.5778 15.5158 30.3687 16.3026 29.6782C16.674 30.564 18.1348 30.6191 18.8721 30.6851C19.304 30.7236 21.3535 30.9382 21.5241 30.2614C22.1898 31.0262 23.3095 31.3013 24.2063 31.4939C24.2063 31.4939 24.2834 31.6975 24.3989 31.747C26.7565 32.7676 23.6809 34.5861 18.5282 34.2312C13.2765 33.6947 10.773 31.3921 13.0316 30.7429C13.1884 30.6989 13.2875 30.5723 13.4223 30.5338H13.425Z" fill="url(#paint0_radial_177_3458)"/>
<path d="M18.5777 33.5654C19.9973 33.6645 21.4415 33.6149 22.8418 33.3068C23.1472 33.238 25.436 32.6713 25.2902 32.0799C25.5213 33.0262 23.9945 33.4389 23.4305 33.5957C21.8404 34.0441 20.1788 34.1266 18.5475 34.0138C16.5997 33.8158 13.9147 33.4499 12.4237 31.813C12.2063 31.5764 11.978 31.3591 12.2614 31.0372C13.6534 32.9217 16.5117 33.4251 18.575 33.5682L18.5777 33.5654Z" fill="url(#paint1_radial_177_3458)" style="mix-blend-mode:screen"/>
<path d="M18.5612 33.7883C22.1981 34.0386 24.6905 33.1638 25.1334 32.2614C25.5296 33.2821 22.7703 34.5255 18.531 34.2339C14.2063 33.791 11.7909 32.1899 12.2834 31.2408C12.5805 32.2064 14.8501 33.4086 18.5612 33.791V33.7883Z" fill="url(#paint2_linear_177_3458)"/>
<path d="M18.6245 33.9643C22.2613 34.2147 24.7098 33.2821 25.1527 32.3797C25.5488 33.4004 22.9326 34.5971 18.6933 34.3055C14.3686 33.8625 11.7909 32.1899 12.2861 31.2381C12.5832 32.2037 14.9161 33.5847 18.6272 33.9643H18.6245Z" fill="url(#paint3_linear_177_3458)"/>
<path d="M24.3851 31.5572C23.1857 32.1734 21.1252 32.6218 18.6272 32.4513C16.8666 32.3302 14.5392 31.857 13.0977 30.5971C14.022 30.3192 14.9106 31.1308 15.7634 31.4004C16.7098 31.7002 17.6809 31.8873 18.6575 31.9891C20.7318 32.1321 22.5062 31.8268 23.7332 31.3674C23.8872 31.4169 24.044 31.4609 24.2091 31.4967C24.2724 31.5159 24.3274 31.5379 24.3851 31.5572Z" fill="url(#paint4_radial_177_3458)" style="mix-blend-mode:screen"/>
<path d="M13.0344 30.7429C13.1884 30.6988 13.3067 30.5723 13.425 30.5338C14.5227 31.2711 16.3329 31.9726 18.6658 32.2147C20.9271 32.3687 22.9023 31.9918 24.1265 31.4609C24.1788 31.4746 24.3136 31.6314 24.3989 31.7497C23.2545 32.4292 21.2957 32.8584 18.6327 32.6768C15.8982 32.3962 14.022 31.6094 13.0316 30.7456L13.0344 30.7429Z" fill="url(#paint5_linear_177_3458)"/>
<path d="M16.0935 30.0166C16.066 30.4292 17.271 30.8749 18.7868 31.0097C20.3026 31.1445 21.5543 30.9189 21.5818 30.5035C21.6094 30.0909 20.4044 29.6425 18.8886 29.5104C17.3728 29.3756 16.121 29.6012 16.0935 30.0166Z" fill="url(#paint6_radial_177_3458)" style="mix-blend-mode:screen"/>
<path d="M16.1018 29.9066C16.077 30.2587 17.2875 30.6548 18.8033 30.7896C20.3191 30.9244 21.5681 30.7484 21.5928 30.3935C21.6176 30.0414 20.4072 29.6452 18.8941 29.5104C17.3783 29.3756 16.1293 29.5517 16.1045 29.9038L16.1018 29.9066Z" fill="url(#paint7_radial_177_3458)"/>
<path d="M19.1637 29.648C19.1334 29.648 19.1032 29.648 19.0729 29.6507C18.7043 29.67 18.3494 29.8213 17.9807 29.824C17.8817 29.824 17.6176 29.7167 17.6149 29.9231C17.6149 30.0359 17.7964 30.1514 17.8652 30.2009C18.3824 30.5668 19.8129 30.7649 20.5887 30.5833C20.795 30.5365 21.2077 30.2834 20.8831 30.0331C20.6795 29.8735 20.4127 29.8378 20.1761 29.78C19.8459 29.7002 19.5048 29.6397 19.1637 29.648Z" fill="#473F87"/>
<path d="M19.8074 30.3275C20.1513 30.2422 20.4264 29.9093 19.9752 29.7718C19.5763 29.6507 19.2077 29.6837 18.8033 29.681C18.5887 29.681 18.3631 29.7332 18.1486 29.7057C18.0165 29.6892 17.8955 29.6012 17.7662 29.6672C17.3315 29.89 17.9587 30.1954 18.121 30.2422C18.3934 30.322 18.6768 30.355 18.9574 30.3742C19.1169 30.3852 19.5021 30.4017 19.8074 30.3247V30.3275Z" fill="url(#paint8_linear_177_3458)"/>
<path d="M21.5653 23.835C20.6382 24.7869 20.0743 26.7841 19.8955 29.89C19.6341 30.3577 17.9312 30.344 17.6671 29.7828C17.879 27.128 17.6451 25.0125 17.0261 23.3563L21.5653 23.8378V23.835Z" fill="url(#paint9_radial_177_3458)"/>
<path d="M19.2297 24.7869C19.1499 24.7759 19.0702 24.7649 18.9904 24.7511C18.652 24.6878 18.2971 24.6878 17.9725 24.553C17.7139 24.4458 17.4911 24.2532 17.2215 24.1624C17.8404 25.1968 20.0303 25.216 20.2256 26.9272C20.4814 25.813 20.685 25.1115 21.216 24.4595C20.6355 24.8089 19.89 24.8667 19.2297 24.7869Z" fill="url(#paint10_linear_177_3458)"/>
<path d="M17.6671 29.78C17.6726 29.7057 17.6781 29.6369 17.6809 29.5627C17.8404 29.7718 18.3301 29.8653 18.4622 29.857C18.8116 29.8323 19.0069 29.5352 19.1912 29.2381C19.2847 29.0867 19.3673 28.9327 19.4415 28.7731C19.6589 28.311 19.7992 27.8158 19.9422 27.3178C20.077 26.8502 20.2751 26.4045 20.3906 25.9258C20.4402 25.725 20.6382 25.0812 20.4539 24.9354C20.4677 24.9464 20.7648 24.8254 20.9326 24.7539C20.3769 25.8625 20.0275 27.5654 19.8955 29.8873C19.6341 30.355 17.9312 30.3412 17.6671 29.78Z" fill="url(#paint11_linear_177_3458)"/>
<path d="M19.3453 22.8777C20.663 23.0097 22 23.1418 22 23.1418C21.8845 23.7607 21.7304 24.4595 21.1472 24.6741C20.5502 24.9574 19.8735 25.029 19.205 24.9464C18.531 24.9107 17.8735 24.7181 17.3205 24.333C16.7758 24.0166 16.718 23.3013 16.6878 22.6713C16.6878 22.6713 18.0248 22.7759 19.3453 22.8777Z" fill="url(#paint12_radial_177_3458)"/>
<path d="M21.3755 23.9478C21.7414 23.7525 22.0138 23.3481 22.0468 22.8777C21.8129 22.9189 21.5928 23.029 21.3508 23.0565C21.0729 23.0895 20.7923 23.0867 20.5144 23.0647C19.978 23.0235 19.4498 22.9162 18.9188 22.8447C18.0523 22.7291 17.2352 22.6438 16.4209 22.2449C16.9216 23.1638 17.5736 23.5847 18.5034 23.8598C19.3067 24.0991 20.3219 24.2477 21.1444 24.0359C21.227 24.0138 21.304 23.9836 21.3755 23.9451V23.9478Z" fill="url(#paint13_linear_177_3458)"/>
<path d="M19.5433 19.9753C22.8968 20.2752 26.2338 20.5723 26.2338 20.5723C25.249 22.3385 23.912 23.4691 19.326 23.1418C14.751 22.6548 13.5846 21.2986 12.8501 19.3811C12.8501 19.3811 16.1898 19.6782 19.5406 19.9781L19.5433 19.9753Z" fill="url(#paint14_radial_177_3458)"/>
<path d="M19.5433 19.9753C22.8968 20.2752 26.2338 20.5723 26.2338 20.5723C25.249 22.3385 23.912 23.4691 19.326 23.1418C14.751 22.6548 13.5846 21.2986 12.8501 19.3811C12.8501 19.3811 16.1898 19.6782 19.5406 19.9781L19.5433 19.9753Z" fill="url(#paint15_radial_177_3458)"/>
<path d="M19.5433 19.9753C22.8968 20.2752 26.2338 20.5723 26.2338 20.5723C25.249 22.3385 23.9092 23.5407 19.3232 23.2105C14.7483 22.7236 13.5846 21.2986 12.8528 19.3784C12.8528 19.3784 16.1926 19.6755 19.5433 19.9753Z" fill="url(#paint16_linear_177_3458)"/>
<path d="M31.1087 5.72774C30.5089 8.06061 29.0261 13.4774 28.7758 14.2257C28.0165 16.5063 27.3398 19.4444 25.7937 21.1775C24.3576 22.5503 21.2875 22.4017 19.3012 22.3165C16.8226 22.0221 14.1045 21.5049 13.2187 20.0744C11.9202 18.0909 11.6479 15.0455 11.2077 12.6576C11.0647 11.8735 10.3356 6.25868 10.0633 3.84878C10.0633 3.84878 31.1114 5.72223 31.1114 5.72498L31.1087 5.72774Z" fill="url(#paint17_radial_177_3458)"/>
<path d="M13.6919 20.6246C13.0867 20.0964 12.4347 18.5751 12.1293 17.8323C12.4429 19.1088 13.4663 19.6507 14.5667 20.1762C20.1678 22.8502 26.9216 17.5709 28.6355 12.2504C28.4512 15.1748 27.7909 18.9382 25.7937 21.1803C24.3576 22.553 21.5048 22.9712 19.1719 22.7181C16.4952 22.4953 14.8611 21.6452 13.6919 20.6246Z" fill="url(#paint18_linear_177_3458)"/>
<path d="M15.923 21.736C16.1293 21.89 16.3494 22.0303 16.5805 22.1596C15.5076 21.5654 13.9285 21.227 13.216 20.0771C11.9175 18.0936 11.6451 15.0482 11.205 12.6603C11.0619 11.8763 10.3329 6.26419 10.0605 3.85428C10.0688 3.92031 11.923 4.47602 12.1816 4.89417C12.5199 5.44988 12.2696 6.47051 12.2558 7.09775C12.2146 8.93819 12.2366 10.7924 12.3906 12.6273C12.6492 15.736 13.2352 19.7387 15.9257 21.736H15.923Z" fill="url(#paint19_radial_177_3458)"/>
<path d="M29.1087 8.28069C28.9794 8.90793 28.8501 9.53791 28.707 10.1596C28.0358 13.0812 27.2682 16.0524 25.923 18.6768C25.26 19.9698 24.4842 21.0895 23.4195 21.9753C23.304 22.0689 23.1857 22.1679 23.0674 22.2587C22.0358 22.3962 20.9298 22.3825 19.9752 22.3495C21.3425 21.1088 22.011 19.5159 22.575 17.5627C23.4911 14.3742 23.8735 9.77175 22.7593 6.65208C24.674 6.88317 27.3398 6.7016 29.1582 5.55717C29.3453 5.57368 29.5241 5.59018 29.6864 5.60394C29.4718 6.48152 29.2875 7.38111 29.1059 8.28069H29.1087Z" fill="url(#paint20_radial_177_3458)"/>
<path d="M10.4127 6.76763C10.2889 5.78276 10.1733 4.85016 10.0908 4.13489C10.8666 4.62732 11.9037 4.90793 12.5282 5.15277C14.9629 6.10463 17.5571 6.67134 20.1155 6.67959C22.6768 6.68509 25.0041 6.54204 27.5186 5.94782C27.9587 5.84603 28.8143 5.64245 29.6396 5.60119C30.2091 5.65071 30.6355 5.68922 30.8776 5.71123C30.9519 5.73324 31.0234 5.76075 31.0894 5.79376C30.4814 8.1569 29.0206 13.4884 28.773 14.2312C28.4347 15.2463 28.1128 16.3935 27.7249 17.5049C27.6644 17.5269 27.6039 17.5462 27.5351 17.5654C25.3535 18.1321 21.3508 16.985 19.3563 16.0221C15.392 14.1074 12.2366 11.5544 10.4127 6.77038V6.76763Z" fill="url(#paint21_radial_177_3458)" style="mix-blend-mode:screen"/>
<path d="M16.5667 5.48564C18.6327 5.84328 20.7565 6.20091 22.8446 6.21742C25.7331 6.24218 28.2751 6.33021 31.0894 5.47739C30.707 6.32471 30.8941 7.78551 30.1733 8.443C29.4608 9.095 27.7579 9.04823 26.8611 9.14452C23.2352 9.54067 19.0151 8.98771 15.4773 8.0386C14.1898 7.69197 12.6327 7.2463 11.5846 6.36873C9.74966 4.8364 11.1747 4.65483 12.9409 4.93819C14.0523 5.11701 15.1692 5.2408 16.2779 5.43338C16.3741 5.44988 16.4704 5.46639 16.5667 5.48289V5.48564Z" fill="url(#paint22_linear_177_3458)"/>
<path d="M10.2256 1.01522C12.2889 -0.0934474 15.9697 -0.189734 20.6988 0.228423C25.4195 0.654833 29.0839 1.3701 31.1829 2.77038C31.7387 3.18578 31.9422 3.53516 31.9065 4.09087C31.879 4.48977 31.7964 4.94919 31.7634 5.11425C31.6589 5.6397 31.4003 5.97533 30.9464 6.26144C29.4113 7.23255 25.7001 7.08399 23.1554 6.94644C22.2448 6.89692 18.2613 6.55855 17.3728 6.41274C15.8707 6.16515 12.0853 5.73874 10.1458 4.40724C9.69464 4.09637 9.52407 3.66721 9.49381 3.12801C9.48556 2.9657 9.48006 2.58606 9.49381 2.12388C9.53508 1.47189 10.033 1.10875 10.2283 1.01797L10.2256 1.01522Z" fill="url(#paint23_radial_177_3458)"/>
<path d="M9.55709 2.23943C9.58735 2.77863 9.75791 3.20779 10.2091 3.51866C12.1486 4.84741 15.934 5.27657 17.436 5.52416C18.3246 5.66996 22.3081 6.00834 23.2187 6.05786C25.7634 6.19541 29.4746 6.34397 31.0096 5.37285C31.4636 5.08675 31.7249 4.75112 31.8294 4.22567C31.8459 4.14314 31.8735 3.98908 31.9037 3.80476C31.9147 3.89555 31.9175 3.98908 31.912 4.09087C31.8845 4.48977 31.8019 4.94919 31.7689 5.11426C31.6644 5.6397 31.4058 5.97533 30.9519 6.26144C29.4168 7.23255 25.7056 7.08399 23.1609 6.94644C22.2503 6.89692 18.2669 6.55855 17.3783 6.41274C15.8762 6.16515 12.0908 5.73874 10.1513 4.40724C9.70014 4.09637 9.52957 3.66721 9.49931 3.12801C9.49106 2.9657 9.48556 2.58606 9.49931 2.12388C9.50482 2.01934 9.52682 1.92306 9.55158 1.83227C9.55158 2.01384 9.55708 2.15415 9.56259 2.23943H9.55709Z" fill="url(#paint24_radial_177_3458)"/>
<path d="M28.4429 4.75937C26.3329 4.89692 23.5461 4.82815 20.5997 4.5668C17.6534 4.3027 14.8941 3.87904 12.8253 3.36735C12.0413 3.17203 11.1719 2.99046 10.4374 2.60807C9.84044 2.29995 9.46355 1.41962 10.2283 1.01522C11.7194 0.225672 14.1843 -0.0714392 17.2682 0.0165938C18.2366 0.0496062 19.249 0.110129 20.2889 0.19266C20.3384 0.195411 20.3879 0.200913 20.4402 0.203664C20.5502 0.211917 20.663 0.222921 20.773 0.231174C25.458 0.657584 29.0977 1.37285 31.1829 2.76487C31.9697 3.29032 31.5351 4.05236 30.8803 4.33021C30.1018 4.66034 29.2655 4.7016 28.4429 4.75662V4.75937Z" fill="url(#paint25_linear_177_3458)"/>
<path d="M18.9656 6.53654C18.8721 6.52278 18.7758 6.50353 18.6795 6.48427C18.7043 5.54892 18.5997 4.63833 18.2228 3.79926C17.9835 3.27106 17.2737 1.93131 16.7125 1.87629C17.3398 1.93681 17.9807 2.06611 18.63 2.12388C19.359 2.18716 20.4209 1.99459 21.0014 2.61082C21.3232 2.95194 21.5956 3.35084 21.868 3.74424C22.5337 4.70435 22.9876 5.79926 23.1114 7.01247C22.0413 7.10325 20.8666 6.85841 19.8102 6.66309C19.5268 6.61082 19.2462 6.58331 18.9656 6.53654Z" fill="url(#paint26_radial_177_3458)" style="mix-blend-mode:screen"/>
<path d="M17.7111 6.48152C16.9106 6.432 15.9587 6.24768 15.1802 6.0221C15.8157 4.56405 14.8336 2.87492 14.1321 1.769C15.8569 1.82402 17.0344 2.74562 17.6121 4.62182C17.8047 5.2463 17.8349 5.86529 17.9202 6.48977C17.8514 6.48977 17.7799 6.48977 17.7111 6.48427V6.48152Z" fill="url(#paint27_radial_177_3458)" style="mix-blend-mode:screen"/>
<path d="M26.7703 4.3137C26.6795 4.22842 26.5777 4.1789 26.4649 4.17615C27.2957 4.19541 28.2724 3.65346 28.8913 4.46776C29.2077 4.88592 29.5571 6.13214 29.348 6.69335C29.1609 7.20229 27.7992 7.05373 27.3343 7.14177C27.3122 6.25868 27.4635 4.9657 26.7703 4.31095V4.3137Z" fill="url(#paint28_radial_177_3458)" style="mix-blend-mode:screen"/>
<path d="M10.9298 1.39761C10.8693 2.29995 15.216 3.42512 20.6437 3.9093C26.0715 4.39348 30.5199 4.05236 30.5805 3.15002C30.641 2.24768 26.2944 1.12251 20.8666 0.641078C15.4388 0.156896 10.9904 0.498024 10.9271 1.39761H10.9298Z" fill="url(#paint29_radial_177_3458)"/>
<path d="M9.51032 2.90518C9.54333 3.44438 9.64237 3.70022 10.1623 4.18166C12.0385 5.59018 19.0371 6.5778 20.2503 6.62732C22.1953 6.85566 28.9519 7.32058 30.9629 6.03585C31.4168 5.74974 31.6781 5.41687 31.7827 4.88867C31.8074 4.76487 31.8597 4.47602 31.8955 4.17065C31.8955 4.21742 31.8955 4.26144 31.8955 4.31095C31.868 4.70985 31.7882 5.16928 31.7552 5.33159C31.6506 5.85978 31.3893 6.19266 30.9381 6.47877C28.9078 7.96983 21.6699 7.32608 19.978 7.15277C18.7813 7.07849 12.2751 6.33571 10.1376 4.62457C9.68638 4.31646 9.51582 3.8873 9.48556 3.34534C9.47731 3.18303 9.4718 2.80614 9.48556 2.34122C9.49106 2.27794 9.49931 2.22017 9.51032 2.1624C9.50482 2.50078 9.51032 2.77038 9.51857 2.89967L9.51032 2.90518Z" fill="url(#paint30_linear_177_3458)"/>
<path d="M11.6644 4.12388C10.7235 2.79238 14.9271 3.87079 13.4691 4.65208C13.0509 4.87492 11.9505 4.53104 11.6644 4.12388Z" fill="#D9BB22"/>
<path d="M14.8528 5.10875C14.4017 5.11976 13.9917 4.39899 14.6327 4.22292C15.1032 4.09362 15.5736 4.87767 14.9766 5.08399C14.9354 5.1005 14.8913 5.106 14.8501 5.10875H14.8528Z" fill="#D9BB22"/>
<path d="M11.9917 8.51178C12.2146 9.86529 11.9807 11.2876 11.1527 12.3247C11.0096 11.3949 10.8886 10.454 10.7648 9.51591C10.6602 8.7126 10.5557 7.91205 10.4567 7.1115C10.4182 6.80614 10.4237 5.38111 10.1981 5.19679C11.1362 5.96157 11.7772 7.20504 11.9917 8.51178Z" fill="#473F87"/>
<path d="M12.1155 17.3068C13.3232 18.2587 13.7799 19.9011 14.1348 21.3894C13.0977 20.8337 11.912 18.355 12.0825 17.0785L12.1155 17.3068Z" fill="#473F87"/>
<path d="M24.3961 13.6617C24.8446 11.4306 25.0509 9.16102 24.8281 6.97395C26.0853 7.02072 27.3067 6.96845 28.5502 7.06749C27.8157 12.8171 25.326 17.8818 23.8735 19.769C23.271 20.5503 21.9835 21.6975 21.359 22.4458C21.8542 21.8488 22.1541 21.1308 22.4292 20.3825C23.1967 18.2834 23.9257 15.9946 24.3934 13.659L24.3961 13.6617Z" fill="#78471C"/>
<path d="M25.249 20.9987C26.3246 19.8295 27.1279 18.1899 27.6506 16.7869C28.1486 15.4581 28.4127 14.0083 28.8116 12.6383C29.1857 11.3536 29.4856 9.95057 29.458 8.58881C29.436 7.47464 28.696 6.81164 27.6231 6.87216C28.8583 6.80339 30.1018 6.65208 30.9436 5.51315C31.5681 4.66859 32.0798 3.32608 30.9794 2.64658C31.0481 2.68785 31.1169 2.72911 31.1802 2.77038C31.2407 2.81164 31.293 2.85566 31.3398 2.89692C31.6836 3.18578 31.8569 3.45538 31.8982 3.80476C31.9037 3.84603 31.9065 3.89005 31.9065 3.93406C31.9065 3.98358 31.9065 4.03585 31.9065 4.09087C31.901 4.14589 31.8982 4.20641 31.89 4.26419C31.89 4.28069 31.89 4.2972 31.89 4.3137C31.8624 4.7126 31.7827 5.17203 31.7497 5.33434C31.7304 5.43062 31.7029 5.51866 31.6726 5.60669C31.5598 5.78 31.4333 5.95607 31.3095 6.15415C31.2985 6.17065 31.2902 6.19266 31.282 6.20917C31.0509 6.61632 30.8116 6.59156 30.6712 7.12801C30.055 9.46364 29.5268 11.8185 28.8088 14.1184C28.8088 14.1266 28.8033 14.1349 28.8006 14.1431C28.7895 14.1762 28.7813 14.2037 28.773 14.2257C28.696 14.4595 28.6162 14.7044 28.5392 14.9519C28.5254 14.996 28.5117 15.04 28.4979 15.0812C27.7854 17.5599 27.2627 19.2408 25.9202 21.0895C25.6369 21.4801 25.304 21.8488 24.9326 22.1596C24.795 22.3605 23.7359 22.8694 23.7414 22.8612C23.7717 22.476 23.0784 22.5695 22.8418 22.6273C23.7717 22.3412 24.597 21.6975 25.2462 20.996L25.249 20.9987Z" fill="url(#paint31_linear_177_3458)"/>
<path d="M17.4168 24.443C17.0481 24.2284 16.9216 23.9808 16.8363 23.5187C16.8253 23.5049 16.8253 23.5049 16.8363 23.5187C17.392 24.3962 18.9904 24.6273 19.8817 24.6273C20.7428 24.6273 21.7964 24.2394 21.9587 23.1143C21.901 23.9286 21.6149 24.3852 21.2517 24.6438C20.8611 24.9189 20.4154 24.9767 19.9642 24.9932C19.1334 25.0207 18.1706 24.8859 17.4223 24.4458L17.4168 24.443Z" fill="url(#paint32_linear_177_3458)"/>
<path d="M17.8652 24.9767C18.1678 25.4911 18.7703 25.824 19.293 25.8928C19.1417 26.7951 18.9876 27.8598 18.7235 28.7291C18.663 28.9272 18.553 29.4114 18.3274 29.4086C18.088 29.4086 18.0055 28.9767 17.9917 28.7814C17.8927 27.5049 17.8817 26.2229 17.7964 24.9409L17.8679 24.974L17.8652 24.9767Z" fill="url(#paint33_radial_177_3458)" style="mix-blend-mode:screen"/>
<path d="M17.4608 30.7621C17.1059 30.9052 16.8583 31.5159 16.8528 31.9313C16.066 31.6672 15.2242 31.4829 14.5062 31.1225C15.0344 30.9629 16.1596 31.0977 16.1403 30.1239C16.4402 30.6108 17.0426 30.6851 17.4635 30.7594L17.4608 30.7621Z" fill="url(#paint34_radial_177_3458)" style="mix-blend-mode:screen"/>
<path d="M15.7689 33.2601C14.7895 33.0015 13.1664 32.41 12.3741 31.5407C12.8363 31.7305 13.7166 31.7855 13.9092 31.3041C14.5612 31.7222 15.1884 31.9396 15.8927 32.1707C15.7084 32.2779 15.4801 33.2298 15.7662 33.2601H15.7689Z" fill="url(#paint35_radial_177_3458)" style="mix-blend-mode:screen"/>
<path d="M21.5323 30.4925C21.5791 31.1665 22.5089 31.4141 22.9629 31.5764C23.1307 31.6342 23.2847 31.6507 23.458 31.6755C23.392 31.9726 23.3453 32.2147 23.5873 32.4017C23.8349 32.5943 24.1128 32.6823 24.4044 32.7429C24.553 32.7731 24.707 32.7979 24.8363 32.7429C24.6327 33.0015 23.0096 33.6259 22.2173 33.6865C22.4649 33.3261 22.1513 32.6438 21.6836 32.6108C21.7469 31.9423 21.5461 31.3481 21.0261 31.0015C20.8886 30.9107 20.7428 30.8309 20.586 30.8034C20.8693 30.7154 21.293 30.7539 21.5323 30.5145V30.4925Z" fill="url(#paint36_radial_177_3458)"/>
<path d="M21.5626 30.2972C21.5626 30.2972 21.5378 30.2752 21.5241 30.2614C21.4966 30.3687 21.4195 30.4513 21.315 30.5173C21.1939 30.6548 20.9381 30.7044 20.8116 30.7511C20.6602 30.8061 20.4512 30.8006 20.3274 30.8557C20.8198 30.9024 21.348 30.5503 21.8157 30.7264C22.2724 30.8997 22.6602 31.2573 23.1197 31.4196C23.271 31.4746 23.425 31.5489 23.5818 31.5737C23.6616 31.5874 23.7827 31.5489 23.8569 31.5902C24.11 31.725 23.8735 32.0193 23.7111 32.0799C23.923 32.0028 24.1431 31.9231 24.3686 31.9231C24.7593 31.9231 25.0949 32.2724 25.0536 32.7374C25.0454 32.8474 25.0124 32.9464 24.9711 33.04C25.1142 32.7291 25.3287 32.5613 25.0757 32.2147C24.8281 31.879 24.4209 31.8075 24.2256 31.4114C23.7909 31.5022 23.249 31.2738 22.8308 31.1115C22.3659 30.9299 21.9147 30.6823 21.5736 30.311C21.5708 30.3055 21.5653 30.3027 21.5598 30.2972H21.5626Z" fill="url(#paint37_linear_177_3458)"/>
<path d="M12.7345 18.553C11.5433 15.8543 8.51995 15.637 6.37689 14.5475C5.16919 13.9341 3.65887 12.9217 3.09491 11.4031C1.94223 8.30545 4.50894 5.31508 7.21871 6.40174C8.50344 6.91618 9.48281 9.56542 7.66438 10.1569C7.64512 10.1734 7.64512 10.1762 7.66438 10.1596C7.99175 9.75249 7.8542 9.14452 7.54333 8.79789C6.15406 7.2463 4.47868 10.2999 6.29711 11.6535C6.97937 12.1596 7.80743 12.1927 8.55846 11.8818C10.1183 11.2381 11.0151 9.13901 10.762 7.2298C10.3164 3.86529 6.98762 2.36047 4.70151 2.77038C2.14305 3.2298 0.151308 5.88729 0.00825446 9.00421C-0.170563 12.8804 2.75929 15.6837 5.55984 16.6713C7.1912 17.2491 9.25722 17.5269 10.5144 19.051C11.0289 19.6755 11.3728 20.9299 10.9409 21.7855C10.4842 22.6878 9.4663 22.7071 8.97112 22.1596C9.94223 21.857 9.74966 20.6658 9.30124 20.1321C8.47318 19.1445 7.08391 20.3055 7.17744 21.6204C7.32325 23.7167 9.83219 24.2587 11.1059 23.67C12.674 22.9437 13.5571 21.0702 12.9436 19.1033C12.8831 18.9079 12.8143 18.7236 12.7373 18.5503L12.7345 18.553Z" fill="url(#paint38_radial_177_3458)"/>
<path d="M9.17744 20.0111C9.21871 20.0469 9.25997 20.0854 9.29849 20.1266C9.09766 20.0331 8.86933 20.0496 8.67125 20.1431C7.93673 20.4925 8.00825 21.2683 8.30537 21.9066C8.63824 22.6191 9.29299 23.0427 10.0853 22.9602C11.9752 22.7649 12.3796 20.5943 11.901 18.8171C11.6011 17.7085 11.0344 16.9987 10.1348 16.4733C10.6355 16.4788 11.1472 16.8226 11.5763 17.1088L11.5158 17.029C12.0688 17.6397 12.5667 18.3247 12.9243 19.0537C12.9298 19.0702 12.9381 19.0895 12.9436 19.106C13.5571 21.073 12.674 22.9464 11.1059 23.6727C9.83494 24.2614 7.326 23.7195 7.17744 21.6232C7.11967 20.7786 7.70839 19.7607 8.64924 19.7938C8.85557 19.7993 9.02889 19.8845 9.17744 20.0111Z" fill="url(#paint39_linear_177_3458)"/>
<path d="M7.24897 5.95882C8.1238 6.31095 8.85832 7.65346 8.66025 8.66033C8.61623 7.73599 7.96974 6.70435 7.21871 6.40174C5.12517 5.55992 3.11967 7.15552 2.84732 9.35359C2.88583 6.93269 5.01788 5.05923 7.25172 5.95607L7.24897 5.95882Z" fill="url(#paint40_radial_177_3458)"/>
<path d="M8.55846 11.8818C7.80743 12.1927 6.97937 12.1596 6.29711 11.6535C5.51032 11.0675 5.37827 10.1651 5.59285 9.45538C5.80193 9.28482 6.05777 9.16653 6.23109 8.89417C5.18019 10.5475 7.21321 11.3949 8.42916 11.2821C8.5337 11.2711 8.62999 11.2546 8.72077 11.2326C10.751 10.6906 11.0096 6.88042 9.99725 5.22155C10.2146 5.57643 10.4127 5.97533 10.5805 6.39624C10.6602 6.66034 10.7235 6.94094 10.762 7.23255C11.0151 9.14177 10.1183 11.2408 8.55846 11.8845V11.8818Z" fill="url(#paint41_radial_177_3458)"/>
<path d="M0.0357648 8.67684C0.299864 5.70298 2.23384 3.21604 4.70427 2.77313C5.0619 2.70985 5.4498 2.69335 5.84319 2.72086C5.90372 2.73186 5.96424 2.74012 6.02201 2.75387L6.51169 3.2463C3.95048 3.33434 1.70839 5.29032 1.36451 8.33021C0.894087 12.52 4.66025 15.3949 7.5956 16.6989C8.22559 16.9795 9.16369 17.3178 9.79367 17.9011C10.066 18.1046 10.3191 18.3357 10.5447 18.6108C10.9629 19.1198 11.271 20.0469 11.1362 20.8364C11.1224 20.1651 10.8583 19.4719 10.5144 19.0565C10.1513 18.6163 9.7194 18.2834 9.25172 18.0138C8.76204 17.758 8.2531 17.5379 7.73315 17.3674C6.97387 17.1143 6.34388 16.9547 5.55984 16.6768C2.75929 15.6837 -0.170563 12.8804 0.00825446 9.00421C0.0137565 8.89417 0.0247607 8.78413 0.0357648 8.67684Z" fill="url(#paint42_radial_177_3458)"/>
<path d="M10.718 7.8983C10.2724 4.53379 6.94361 3.02897 4.6575 3.43613C2.23659 3.87354 0.327374 6.27244 0.00550343 9.16928C0.00550343 9.11426 0.00550343 9.06199 0.00825446 9.00697C0.151308 5.8873 2.14305 3.2298 4.70151 2.77313C6.98762 2.36322 10.3136 3.86804 10.762 7.23255C10.8198 7.67272 10.8143 8.12388 10.7565 8.56405C10.7565 8.34122 10.7455 8.12113 10.7153 7.90105L10.718 7.8983Z" fill="url(#paint43_linear_177_3458)"/>
<path d="M12.8968 19.7745C12.8363 19.5792 12.7675 19.3949 12.6905 19.2215C11.4993 16.5228 8.47593 16.3055 6.33288 15.216C5.12517 14.6026 3.61761 13.5902 3.0509 12.0716C2.77579 11.3288 2.71252 10.5943 2.81431 9.92031C2.81981 10.4017 2.90784 10.9024 3.09491 11.4059C3.65887 12.9244 5.16919 13.9368 6.37689 14.5503C8.51995 15.6397 11.5461 15.857 12.7345 18.5558C12.8116 18.7291 12.8803 18.9134 12.9409 19.1088C13.1417 19.7525 13.1774 20.3852 13.0867 20.974C13.0812 20.5833 13.0206 20.1817 12.8941 19.7773L12.8968 19.7745Z" fill="url(#paint44_radial_177_3458)" style="mix-blend-mode:screen"/>
<path d="M7.54333 8.79789C7.84319 9.13351 7.96424 9.69197 7.74966 10.1156C7.90922 10.1596 8.20633 9.90655 8.31362 9.7635C8.46768 9.55717 8.61623 9.27382 8.65475 9.00146C8.73728 8.38248 8.48968 7.67822 8.18157 7.18303C8.42366 7.43062 8.61073 7.71673 8.75653 8.04685C9.15543 8.94369 8.54471 11.1665 7.21321 10.3302C7.44979 10.1074 7.63686 9.91756 7.57359 9.55717C7.49106 9.095 7.05365 8.63558 6.55846 8.73186C5.89821 8.86116 5.63962 9.69472 5.51032 10.2587C5.39202 8.95194 6.54195 7.67271 7.54608 8.79238L7.54333 8.79789Z" fill="url(#paint45_linear_177_3458)"/>
<path d="M7.55984 10.8116C7.11417 11.6342 6.09629 11.637 5.66437 10.8006C5.22421 9.95057 5.83769 8.36598 6.78955 8.64383C7.5846 8.87767 7.9945 10.0111 7.56259 10.8116H7.55984Z" fill="url(#paint46_radial_177_3458)" style="mix-blend-mode:screen"/>
<path d="M9.02063 22.1762C8.94636 22.4513 9.21596 22.5723 9.43054 23.0592C9.0564 23.2793 8.37689 23.0235 8.03301 22.7951C7.23797 22.2669 7.05089 20.6081 7.90371 20.0414C9.06465 19.2711 10.1513 20.7099 9.26823 21.7745C9.12242 21.9478 9.04814 22.0744 9.02063 22.1762Z" fill="url(#paint47_radial_177_3458)" style="mix-blend-mode:screen"/>
<path d="M4.70151 2.77313C6.98762 2.36322 10.3136 3.86804 10.762 7.23255C10.8363 7.79376 10.8226 8.39624 10.6988 8.94369C10.4924 9.85703 9.98074 10.7209 9.25447 11.1913C8.62999 11.5957 7.34801 12.0854 6.69051 11.4829C7.41128 11.4251 8.24209 11.1363 8.61898 10.3605C8.97662 9.62595 9.09766 8.62457 8.94085 7.80476C8.58322 5.93131 6.70426 4.8254 5.12517 4.9767C2.59697 5.21879 0.550208 7.69472 0.833564 10.6383C0.95736 11.9341 1.50206 13.0592 2.16231 14.0964C1.61211 13.6672 1.13893 13.1225 0.745531 12.498C0.23659 11.4719 -0.0522682 10.2999 0.00825446 9.00421C0.151308 5.88729 2.14306 3.2298 4.70151 2.77313Z" fill="url(#paint48_radial_177_3458)" style="mix-blend-mode:screen"/>
<path d="M7.09216 4.5668C6.48418 3.00421 10.3026 5.27657 8.71802 5.60669C8.2641 5.70298 7.27923 5.04548 7.09216 4.5668Z" fill="#FFFFA5"/>
<path d="M6.23384 4.4375C5.78542 4.37423 5.47455 3.59293 6.1293 3.52416C6.61348 3.47464 6.97662 4.33021 6.36039 4.43475C6.31637 4.443 6.2751 4.443 6.23384 4.43475V4.4375Z" fill="#FFFFA5"/>
<path d="M26.6658 19.7938C28.2091 17.3371 31.227 17.659 33.4938 16.9629C34.7703 16.5696 36.3989 15.835 37.1637 14.4403C38.7235 11.5847 36.597 8.1734 33.7717 8.77038C32.4347 9.05098 31.1032 11.4939 32.8198 12.4017C32.8363 12.4237 32.8363 12.4237 32.8198 12.4017C32.5502 11.9423 32.7703 11.3646 33.1252 11.0757C34.7098 9.78826 35.9505 13.1033 33.967 14.1184C33.2242 14.498 32.4017 14.3825 31.7029 13.9451C30.2503 13.0317 29.6506 10.8006 30.1623 8.9602C31.0619 5.71398 34.553 4.81714 36.7565 5.62595C39.2215 6.53379 40.8281 9.5104 40.5447 12.6163C40.1953 16.476 36.9188 18.7264 34.0138 19.2078C32.3246 19.4884 30.2448 19.4004 28.7978 20.6796C28.2036 21.205 27.6946 22.3825 28.0028 23.3041C28.3301 24.2779 29.3343 24.476 29.8982 24.0221C28.9794 23.5517 29.3343 22.41 29.8514 21.9616C30.8061 21.1308 32.0165 22.5255 31.7469 23.8075C31.3177 25.8515 28.7648 25.9423 27.5873 25.1363C26.1376 24.1431 25.5213 22.1349 26.3934 20.3027C26.4814 20.1211 26.5722 19.9506 26.674 19.7938H26.6658Z" fill="url(#paint49_radial_177_3458)"/>
<path d="M30.8088 21.8598C31.7414 22.4458 31.0922 23.89 30.3961 24.3605C29.9257 24.6768 29.2242 24.7731 28.6823 24.6163C26.8418 24.0881 26.7373 21.8735 27.4525 20.2037C27.901 19.161 28.5557 18.5613 29.5186 18.2009C29.0234 18.1184 28.4704 18.3687 28.0083 18.5751L28.0798 18.5063C27.4525 19.0125 26.8666 19.6012 26.4127 20.2559C26.4044 20.2724 26.3961 20.2889 26.3879 20.3055C25.5158 22.1404 26.1321 24.1459 27.5818 25.139C27.9725 25.4059 28.4979 25.5654 28.9629 25.6067C29.901 25.692 30.9766 25.3508 31.4801 24.509C31.7552 24.0496 31.8569 23.4609 31.7166 22.9382C31.6121 22.5503 31.2545 21.9093 30.8088 21.8598Z" fill="url(#paint50_linear_177_3458)"/>
<path d="M33.8019 8.32471C32.8886 8.51728 31.9807 9.71398 32.0413 10.7456C32.2091 9.84053 32.9876 8.93544 33.7717 8.77038C35.9532 8.31095 37.7194 10.2422 37.6891 12.4623C37.9807 10.0661 36.1293 7.83503 33.8019 8.32471Z" fill="url(#paint51_radial_177_3458)"/>
<path d="M33.8239 5.63695C35.1664 5.37835 36.542 5.63695 37.2407 6.64658C36.6272 6.27794 35.9725 6.00559 35.2682 6.05786C33.9725 6.15415 32.8033 7.13076 32.0825 8.31645C31.0646 9.99183 31.3342 14.2092 33.912 13.1033C34.5722 12.8171 34.5282 12.2669 34.7758 11.67C34.7455 11.7745 34.9106 11.9781 34.9326 12.0854C34.9766 12.2999 35.0069 12.5613 34.9739 12.7841C34.8693 13.4471 34.6327 13.7057 33.9697 14.1239C33.2655 14.5696 32.4044 14.388 31.7056 13.9506C31.3453 13.725 31.0371 13.4169 30.7868 13.0537C30.2669 12.2587 29.9752 11.2133 30.0495 10.1982C30.0935 9.61769 30.2393 8.83915 30.4814 8.11013C30.9023 6.85291 32.3439 5.92581 33.8294 5.6397L33.8239 5.63695Z" fill="url(#paint52_radial_177_3458)"/>
<path d="M40.5557 12.2889C40.7015 9.30408 39.1279 6.50353 36.751 5.6287C36.4044 5.50215 36.0275 5.41687 35.6314 5.3756C35.5708 5.3756 35.5103 5.3756 35.4498 5.3756L34.8996 5.7745C37.4168 6.3137 39.3645 8.64383 39.2902 11.7085C39.1857 15.9313 35.0729 18.1046 31.9945 18.8722C31.3342 19.0372 30.3604 19.205 29.6616 19.67C29.3673 19.8213 29.0839 20.0056 28.8253 20.2367C28.3411 20.6631 27.912 21.5269 27.9395 22.3302C28.044 21.67 28.4017 21.0317 28.795 20.6823C29.2132 20.3137 29.6836 20.0579 30.1843 19.8763C30.7043 19.7112 31.2352 19.5847 31.7717 19.5077C32.5557 19.3921 33.1994 19.3453 34.011 19.2105C36.9133 18.7291 40.1898 16.4788 40.542 12.6191C40.553 12.509 40.5557 12.399 40.5585 12.2889H40.5557Z" fill="url(#paint53_radial_177_3458)"/>
<path d="M31.923 6.44851C32.6245 6.33571 33.2572 6.03585 34.0028 5.95607C34.8803 5.86254 35.8707 5.98908 36.707 6.2972C38.9271 7.11426 40.8418 9.98358 40.5227 12.7814C40.5282 12.7291 40.5364 12.6741 40.542 12.6191C40.8253 9.51315 39.2187 6.53654 36.7538 5.6287C35.8597 5.30133 34.8803 5.27382 33.9615 5.46639C33.5406 5.55442 33.0729 5.67822 32.6795 5.87629C32.5475 5.94232 31.9697 6.443 31.9285 6.44851H31.923Z" fill="url(#paint54_linear_177_3458)"/>
<path d="M26.3411 20.9712C26.4292 20.7896 26.5227 20.6191 26.6217 20.4623C28.1651 18.0056 31.1829 18.3275 33.4498 17.6314C34.729 17.2381 36.3549 16.5063 37.1197 15.106C37.4938 14.4237 37.6534 13.7085 37.6451 13.0207C37.5736 13.4966 37.4195 13.9753 37.1664 14.4403C36.4017 15.8378 34.773 16.5723 33.4966 16.9629C31.2297 17.659 28.2118 17.3398 26.6685 19.7938C26.5695 19.9533 26.4759 20.1211 26.3879 20.3027C26.1045 20.9024 25.978 21.5214 25.989 22.1184C26.0495 21.736 26.1623 21.3481 26.3411 20.9685V20.9712Z" fill="url(#paint55_radial_177_3458)" style="mix-blend-mode:screen"/>
<path d="M33.1224 11.0785C32.7813 11.3563 32.586 11.8873 32.74 12.344C32.575 12.3605 32.3164 12.0579 32.2311 11.8983C32.1073 11.6672 31.9972 11.3591 32 11.0867C32 10.4623 32.3439 9.81027 32.7153 9.37285C32.4429 9.57643 32.2173 9.82402 32.0275 10.1239C31.3893 11.1335 31.901 13.1555 33.2297 12.5998C32.9436 12.7209 32.9133 11.4939 33.4966 11.2986C33.978 11.139 34.6437 11.3866 34.8693 11.846C34.6933 11.4884 34.7015 11.1665 34.3054 10.9272C33.9065 10.6878 33.4746 10.7924 33.1224 11.0785Z" fill="url(#paint56_linear_177_3458)"/>
<path d="M32.8336 13.0647C33.1609 13.9561 34.1678 14.1404 34.707 13.3866C35.2572 12.6246 34.8693 10.9519 33.89 11.0592C33.0702 11.1473 32.5117 12.1954 32.8308 13.0647H32.8336Z" fill="url(#paint57_radial_177_3458)" style="mix-blend-mode:screen"/>
<path d="M30.7318 24.8199C31.8129 24.3412 32.0963 22.2972 30.8198 21.8515C30.033 21.5764 29.227 22.454 29.4773 23.2325C29.5708 23.5214 29.9147 23.7305 29.9257 24.0276C29.9395 24.4155 29.4883 24.5585 29.3177 24.8309C29.6589 25.1143 30.3631 24.9822 30.7318 24.8199Z" fill="url(#paint58_radial_177_3458)" style="mix-blend-mode:screen"/>
<path d="M36.751 5.6287C34.5502 4.81989 31.0564 5.71673 30.1568 8.96295C30.0055 9.50215 29.9367 10.0991 29.9835 10.6631C30.0633 11.6012 30.4484 12.5475 31.1032 13.139C31.6671 13.648 32.8666 14.3605 33.5984 13.8818C32.8941 13.6975 32.1128 13.2628 31.8459 12.432C31.5928 11.6452 31.6066 10.6301 31.8735 9.84878C32.4814 8.06061 34.4897 7.30133 36.0275 7.73049C38.4952 8.41549 40.1761 11.2243 39.4938 14.0826C39.1939 15.3398 38.5034 16.355 37.7111 17.2656C38.3136 16.9409 38.8556 16.4843 39.3288 15.9396C39.9752 15.0152 40.4182 13.9066 40.5365 12.6191C40.8198 9.51316 39.2132 6.53654 36.7483 5.6287L36.751 5.6287Z" fill="url(#paint59_radial_177_3458)" style="mix-blend-mode:screen"/>
<path d="M10.2861 23.9176C9.58459 24.0166 8.78129 23.7085 8.21183 23.3123C10.2503 24.2752 12.5254 22.531 12.7455 20.509C12.8088 19.9231 12.6768 19.4471 12.5117 18.9024C13.7387 21.0812 12.4429 23.6149 10.2861 23.9203V23.9176Z" fill="url(#paint60_linear_177_3458)"/>
<path d="M31.2957 24.4347C29.4966 26.322 26.4457 24.7649 26.2421 22.4017C26.3411 23.5489 26.553 24.3825 27.5818 25.0565C28.3274 25.5462 29.326 25.7195 30.1513 25.3178C30.5777 25.1088 30.9711 24.8144 31.2957 24.4347Z" fill="url(#paint61_linear_177_3458)"/>
<path d="M32.4402 14.2202C33.1857 14.487 34.2779 14.0138 34.5722 13.2518C34.1348 13.6314 33.4635 13.8653 32.8996 13.747C32.022 13.5627 31.315 12.9134 31.0426 12.0496C30.4402 10.1404 30.6878 7.54617 32.3521 6.21742C32.6217 6.00284 32.9216 5.85703 33.2132 5.67547C32.707 5.99183 32.121 6.11288 31.6644 6.48702C31.1527 6.90518 30.7208 7.4884 30.4347 8.07987C29.7854 9.41962 29.9257 11.2656 30.6052 12.5723C30.9739 13.2766 31.6781 13.9478 32.4402 14.2202Z" fill="url(#paint62_radial_177_3458)"/>
</g>
<defs>
<radialGradient id="paint0_radial_177_3458" cx="0" cy="0" r="1" gradientUnits="userSpaceOnUse" gradientTransform="translate(21.0861 -21.0237) scale(28.6508 71.9019)">
<stop stop-color="#D9BB22"/>
<stop offset="0.15" stop-color="#D4B521"/>
<stop offset="0.34" stop-color="#C6A520"/>
<stop offset="0.56" stop-color="#B08A1F"/>
<stop offset="0.79" stop-color="#91651D"/>
<stop offset="0.96" stop-color="#78471C"/>
</radialGradient>
<radialGradient id="paint1_radial_177_3458" cx="0" cy="0" r="1" gradientUnits="userSpaceOnUse" gradientTransform="translate(18.6124 18.6654) rotate(-160.94) scale(15.3572 60.804)">
<stop stop-color="#F9EC31"/>
<stop offset="0.99"/>
</radialGradient>
<linearGradient id="paint2_linear_177_3458" x1="40.4064" y1="25.3563" x2="-5.84269" y2="24.5317" gradientUnits="userSpaceOnUse">
<stop stop-color="#8A4400"/>
<stop offset="0.34" stop-color="#927A25"/>
<stop offset="0.54" stop-color="#957C24"/>
<stop offset="0.71" stop-color="#9F8322"/>
<stop offset="0.87" stop-color="#B18F1F"/>
<stop offset="1" stop-color="#C69D1C"/>
</linearGradient>
<linearGradient id="paint3_linear_177_3458" x1="38.8149" y1="25.9335" x2="-2.02551" y2="24.9476" gradientUnits="userSpaceOnUse">
<stop stop-color="#38BAD5"/>
<stop offset="0.12" stop-color="#3BB7CE"/>
<stop offset="0.28" stop-color="#44B1BD"/>
<stop offset="0.46" stop-color="#52A6A0"/>
<stop offset="0.66" stop-color="#679878"/>
<stop offset="0.87" stop-color="#818646"/>
<stop offset="1" stop-color="#927A25"/>
</linearGradient>
<radialGradient id="paint4_radial_177_3458" cx="0" cy="0" r="1" gradientUnits="userSpaceOnUse" gradientTransform="translate(18.4936 18.6257) rotate(-155.35) scale(15.872 77.1784)">
<stop stop-color="#F9EC31"/>
<stop offset="0.99"/>
</radialGradient>
<linearGradient id="paint5_linear_177_3458" x1="40.5153" y1="26.7533" x2="-5.78612" y2="26.0763" gradientUnits="userSpaceOnUse">
<stop stop-color="#78471C"/>
<stop offset="0.34" stop-color="#927A25"/>
<stop offset="0.54" stop-color="#957C24"/>
<stop offset="0.71" stop-color="#9F8322"/>
<stop offset="0.87" stop-color="#B18F1F"/>
<stop offset="1" stop-color="#C69D1C"/>
</linearGradient>
<radialGradient id="paint6_radial_177_3458" cx="0" cy="0" r="1" gradientUnits="userSpaceOnUse" gradientTransform="translate(-4.43244 3.87151) rotate(-164.593) scale(45.8986 139.33)">
<stop stop-color="#F9EC31"/>
<stop offset="0.99"/>
</radialGradient>
<radialGradient id="paint7_radial_177_3458" cx="0" cy="0" r="1" gradientUnits="userSpaceOnUse" gradientTransform="translate(-2.91235 1.49617) rotate(-162.387) scale(46.4037 134.355)">
<stop stop-color="#F9ED32"/>
<stop offset="0.14" stop-color="#F0DF2D"/>
<stop offset="0.56" stop-color="#D9BB22"/>
<stop offset="0.65" stop-color="#D3B522"/>
<stop offset="0.77" stop-color="#C3A622"/>
<stop offset="0.9" stop-color="#A88E24"/>
<stop offset="0.99" stop-color="#927A25"/>
</radialGradient>
<linearGradient id="paint8_linear_177_3458" x1="40.5351" y1="21.5844" x2="-5.65126" y2="20.5902" gradientUnits="userSpaceOnUse">
<stop stop-color="#78471C"/>
<stop offset="0.34" stop-color="#927A25"/>
<stop offset="0.54" stop-color="#957C24"/>
<stop offset="0.71" stop-color="#9F8322"/>
<stop offset="0.87" stop-color="#B18F1F"/>
<stop offset="1" stop-color="#C69D1C"/>
</linearGradient>
<radialGradient id="paint9_radial_177_3458" cx="0" cy="0" r="1" gradientUnits="userSpaceOnUse" gradientTransform="translate(14.2252 16.5566) rotate(-177.004) scale(29.8613 19.9956)">
<stop stop-color="#D9BB22"/>
<stop offset="0.15" stop-color="#D4B521"/>
<stop offset="0.34" stop-color="#C6A520"/>
<stop offset="0.56" stop-color="#B08A1F"/>
<stop offset="0.79" stop-color="#91651D"/>
<stop offset="0.96" stop-color="#78471C"/>
</radialGradient>
<linearGradient id="paint10_linear_177_3458" x1="20.3005" y1="2.33775" x2="17.0988" y2="34.2854" gradientUnits="userSpaceOnUse">
<stop stop-color="#C69D1C"/>
<stop offset="0.13" stop-color="#B18F1F"/>
<stop offset="0.29" stop-color="#9F8322"/>
<stop offset="0.46" stop-color="#957C24"/>
<stop offset="0.66" stop-color="#927A25"/>
<stop offset="0.99" stop-color="#78471C"/>
</linearGradient>
<linearGradient id="paint11_linear_177_3458" x1="45.3758" y1="14.3413" x2="-2.76707" y2="55.5501" gradientUnits="userSpaceOnUse">
<stop stop-color="#927A25"/>
<stop offset="1" stop-color="#38BAD5"/>
</linearGradient>
<radialGradient id="paint12_radial_177_3458" cx="0" cy="0" r="1" gradientUnits="userSpaceOnUse" gradientTransform="translate(14.4435 -346.713) rotate(-169.667) scale(167.676 379.553)">
<stop stop-color="#D9BB22"/>
<stop offset="0.87" stop-color="#C69D1C"/>
<stop offset="0.9" stop-color="#C0991C"/>
<stop offset="0.94" stop-color="#B08E1F"/>
<stop offset="0.98" stop-color="#957C24"/>
<stop offset="0.99" stop-color="#927A25"/>
</radialGradient>
<linearGradient id="paint13_linear_177_3458" x1="20.378" y1="4.60292" x2="14.4914" y2="33.1527" gradientUnits="userSpaceOnUse">
<stop stop-color="#927A25"/>
<stop offset="0.99" stop-color="#78471C"/>
</linearGradient>
<radialGradient id="paint14_radial_177_3458" cx="0" cy="0" r="1" gradientUnits="userSpaceOnUse" gradientTransform="translate(24.8935 -150.756) rotate(-164.482) scale(54.4377 180.018)">
<stop stop-color="#EF8626"/>
<stop offset="0.05" stop-color="#E27A23"/>
<stop offset="0.19" stop-color="#CA621F"/>
<stop offset="0.33" stop-color="#B8521C"/>
<stop offset="0.48" stop-color="#AE481A"/>
<stop offset="0.66" stop-color="#AB451A"/>
<stop offset="0.78" stop-color="#AA421A"/>
<stop offset="0.87" stop-color="#A8381A"/>
<stop offset="0.96" stop-color="#A5281C"/>
<stop offset="0.99" stop-color="#A41E1D"/>
</radialGradient>
<radialGradient id="paint15_radial_177_3458" cx="0" cy="0" r="1" gradientUnits="userSpaceOnUse" gradientTransform="translate(24.8935 -150.756) rotate(-164.482) scale(54.4377 180.018)">
<stop stop-color="#EF8626"/>
<stop offset="0.05" stop-color="#E27A23"/>
<stop offset="0.19" stop-color="#CA621F"/>
<stop offset="0.33" stop-color="#B8521C"/>
<stop offset="0.48" stop-color="#AE481A"/>
<stop offset="0.66" stop-color="#AB451A"/>
<stop offset="0.78" stop-color="#AA421A"/>
<stop offset="0.87" stop-color="#A8381A"/>
<stop offset="0.96" stop-color="#A5281C"/>
<stop offset="0.99" stop-color="#A41E1D"/>
</radialGradient>
<linearGradient id="paint16_linear_177_3458" x1="0.000305176" y1="17.9907" x2="40.577" y2="17.9907" gradientUnits="userSpaceOnUse">
<stop stop-color="#A34A10"/>
<stop offset="0.19" stop-color="#856846"/>
<stop offset="0.39" stop-color="#6A8578"/>
<stop offset="0.57" stop-color="#549CA0"/>
<stop offset="0.74" stop-color="#44ACBD"/>
<stop offset="0.89" stop-color="#3BB6CE"/>
<stop offset="1" stop-color="#38BAD5"/>
</linearGradient>
<radialGradient id="paint17_radial_177_3458" cx="0" cy="0" r="1" gradientUnits="userSpaceOnUse" gradientTransform="translate(21.079 1.67687) rotate(-174.857) scale(30.1542 34.534)">
<stop stop-color="#D9BB22"/>
<stop offset="0.25" stop-color="#D6B721"/>
<stop offset="0.46" stop-color="#D0AD1F"/>
<stop offset="0.64" stop-color="#C69D1C"/>
<stop offset="0.74" stop-color="#BC961D"/>
<stop offset="0.91" stop-color="#A38522"/>
<stop offset="1" stop-color="#927A25"/>
</radialGradient>
<linearGradient id="paint18_linear_177_3458" x1="20.9293" y1="-1.46906" x2="16.923" y2="35.403" gradientUnits="userSpaceOnUse">
<stop stop-color="#C69D1C"/>
<stop offset="0.13" stop-color="#B18F1F"/>
<stop offset="0.29" stop-color="#9F8322"/>
<stop offset="0.46" stop-color="#957C24"/>
<stop offset="0.66" stop-color="#927A25"/>
<stop offset="0.99" stop-color="#78471C"/>
</linearGradient>
<radialGradient id="paint19_radial_177_3458" cx="0" cy="0" r="1" gradientUnits="userSpaceOnUse" gradientTransform="translate(-45.0004 16.7084) rotate(-178.384) scale(110.756 40.0409)">
<stop offset="0.04" stop-color="#C69D1C"/>
<stop offset="0.61" stop-color="#927A25"/>
<stop offset="0.99" stop-color="#78471C"/>
</radialGradient>
<radialGradient id="paint20_radial_177_3458" cx="0" cy="0" r="1" gradientUnits="userSpaceOnUse" gradientTransform="translate(-29.5414 5.36611) scale(73.5209 37.6764)">
<stop offset="0.04" stop-color="#D9BB22"/>
<stop offset="0.61" stop-color="#927A25"/>
<stop offset="0.99" stop-color="#78471C"/>
</radialGradient>
<radialGradient id="paint21_radial_177_3458" cx="0" cy="0" r="1" gradientUnits="userSpaceOnUse" gradientTransform="translate(9.87204 27.8882) scale(27.7174 38.0257)">
<stop stop-color="#D66900"/>
<stop offset="0.99"/>
</radialGradient>
<linearGradient id="paint22_linear_177_3458" x1="20.3971" y1="-0.545006" x2="10.3637" y2="31.05" gradientUnits="userSpaceOnUse">
<stop stop-color="#C69D1C"/>
<stop offset="0.99" stop-color="#78471C"/>
</linearGradient>
<radialGradient id="paint23_radial_177_3458" cx="0" cy="0" r="1" gradientUnits="userSpaceOnUse" gradientTransform="translate(25.7177 -111.046) rotate(-165.856) scale(57.2623 153.245)">
<stop offset="0.85" stop-color="#D9BB22"/>
<stop offset="0.98" stop-color="#C9A21D"/>
<stop offset="1" stop-color="#C69D1C"/>
</radialGradient>
<radialGradient id="paint24_radial_177_3458" cx="0" cy="0" r="1" gradientUnits="userSpaceOnUse" gradientTransform="translate(24.3518 -161.002) rotate(-161.194) scale(62.4838 244.595)">
<stop offset="0.61" stop-color="#D9BB22"/>
<stop offset="0.76" stop-color="#C0A423"/>
<stop offset="1" stop-color="#927A25"/>
</radialGradient>
<linearGradient id="paint25_linear_177_3458" x1="44.4205" y1="25.4017" x2="-14.4422" y2="24.2537" gradientUnits="userSpaceOnUse">
<stop stop-color="#D9BB22"/>
<stop offset="0.13" stop-color="#E1C62A"/>
<stop offset="0.39" stop-color="#EDD837"/>
<stop offset="0.67" stop-color="#F4E23E"/>
<stop offset="1" stop-color="#F7E641"/>
</linearGradient>
<radialGradient id="paint26_radial_177_3458" cx="0" cy="0" r="1" gradientUnits="userSpaceOnUse" gradientTransform="translate(12.1882 26.6481) rotate(-174.387) scale(33.4463 41.7647)">
<stop stop-color="#FFCF01"/>
<stop offset="0.99"/>
</radialGradient>
<radialGradient id="paint27_radial_177_3458" cx="0" cy="0" r="1" gradientUnits="userSpaceOnUse" gradientTransform="translate(26.5649 14.6304) rotate(-176.364) scale(36.9243 29.9775)">
<stop stop-color="#F9EC31"/>
<stop offset="0.99"/>
</radialGradient>
<radialGradient id="paint28_radial_177_3458" cx="0" cy="0" r="1" gradientUnits="userSpaceOnUse" gradientTransform="translate(-7.92482 -13.8768) rotate(-175.729) scale(72.4294 68.9943)">
<stop stop-color="#130B0D"/>
<stop offset="0.3" stop-color="#173459"/>
<stop offset="0.79" stop-color="#1E73CE"/>
<stop offset="1" stop-color="#218DFE"/>
</radialGradient>
<radialGradient id="paint29_radial_177_3458" cx="0" cy="0" r="1" gradientUnits="userSpaceOnUse" gradientTransform="translate(21.9067 -27.2652) scale(23.8091 111.953)">
<stop stop-color="#C69D1C"/>
<stop offset="0.14" stop-color="#C2971B"/>
<stop offset="0.31" stop-color="#B8861A"/>
<stop offset="0.51" stop-color="#A76B18"/>
<stop offset="0.62" stop-color="#9C5A17"/>
<stop offset="1" stop-color="#78471C"/>
</radialGradient>
<linearGradient id="paint30_linear_177_3458" x1="21.0721" y1="-16.1228" x2="-6.26019" y2="44.0366" gradientUnits="userSpaceOnUse">
<stop stop-color="#927A25"/>
<stop offset="0.99" stop-color="#78471C"/>
</linearGradient>
<linearGradient id="paint31_linear_177_3458" x1="40.3211" y1="2.50168" x2="32.8804" y2="39.8261" gradientUnits="userSpaceOnUse">
<stop stop-color="#927A25"/>
<stop offset="0.11" stop-color="#8C7D2F"/>
<stop offset="0.31" stop-color="#7E874A"/>
<stop offset="0.56" stop-color="#679877"/>
<stop offset="0.86" stop-color="#48AEB5"/>
<stop offset="1" stop-color="#38BAD5"/>
</linearGradient>
<linearGradient id="paint32_linear_177_3458" x1="39.9721" y1="19.5454" x2="-0.29353" y2="18.2438" gradientUnits="userSpaceOnUse">
<stop stop-color="#C69D1C"/>
<stop offset="1" stop-color="#38BAD5"/>
</linearGradient>
<radialGradient id="paint33_radial_177_3458" cx="0" cy="0" r="1" gradientUnits="userSpaceOnUse" gradientTransform="translate(12.6994 13.6134) rotate(-178.481) scale(69.0488 23.479)">
<stop stop-color="#F7E641"/>
<stop offset="0.99"/>
</radialGradient>
<radialGradient id="paint34_radial_177_3458" cx="0" cy="0" r="1" gradientUnits="userSpaceOnUse" gradientTransform="translate(18.7027 11.1842) rotate(-172.617) scale(27.9132 45.6288)">
<stop stop-color="#D9BB22"/>
<stop offset="0.99"/>
</radialGradient>
<radialGradient id="paint35_radial_177_3458" cx="0" cy="0" r="1" gradientUnits="userSpaceOnUse" gradientTransform="translate(19.23 11.193) rotate(-171.893) scale(27.664 49.5459)">
<stop stop-color="#D9BB22"/>
<stop offset="0.99"/>
</radialGradient>
<radialGradient id="paint36_radial_177_3458" cx="0" cy="0" r="1" gradientUnits="userSpaceOnUse" gradientTransform="translate(-40.3 11.9522) rotate(-173.984) scale(67.3706 90.0716)">
<stop offset="0.04" stop-color="#FFCF01"/>
<stop offset="0.61" stop-color="#927A25"/>
<stop offset="0.99" stop-color="#78471C"/>
</radialGradient>
<linearGradient id="paint37_linear_177_3458" x1="-2.11044" y1="-82.5233" x2="69.1343" y2="49.93" gradientUnits="userSpaceOnUse">
<stop stop-color="#D66900"/>
<stop offset="1" stop-color="#38BAD5"/>
</linearGradient>
<radialGradient id="paint38_radial_177_3458" cx="0" cy="0" r="1" gradientUnits="userSpaceOnUse" gradientTransform="translate(27.5257 -15.2768) rotate(-177.189) scale(65.4255 43.8195)">
<stop stop-color="#FFCF01"/>
<stop offset="0.2" stop-color="#FBCC02"/>
<stop offset="0.37" stop-color="#F1C207"/>
<stop offset="0.53" stop-color="#DFB30F"/>
<stop offset="0.68" stop-color="#C79E1B"/>
<stop offset="0.69" stop-color="#C69D1C"/>
<stop offset="1" stop-color="#927A25"/>
</radialGradient>
<linearGradient id="paint39_linear_177_3458" x1="22.6348" y1="0.74363" x2="20.6803" y2="35.7973" gradientUnits="userSpaceOnUse">
<stop stop-color="#927A25"/>
<stop offset="0.99" stop-color="#78471C"/>
</linearGradient>
<radialGradient id="paint40_radial_177_3458" cx="0" cy="0" r="1" gradientUnits="userSpaceOnUse" gradientTransform="translate(23.8063 -17.5874) rotate(-172.724) scale(33.3314 53.712)">
<stop stop-color="#7A5A25"/>
<stop offset="0.46" stop-color="#784D1F"/>
<stop offset="0.93" stop-color="#78471C"/>
</radialGradient>
<radialGradient id="paint41_radial_177_3458" cx="0" cy="0" r="1" gradientUnits="userSpaceOnUse" gradientTransform="translate(23.1478 -6.97143) rotate(-176.497) scale(57.8604 45.2687)">
<stop offset="0.04" stop-color="#FFCF01"/>
<stop offset="0.61" stop-color="#C69D1C"/>
<stop offset="0.99" stop-color="#7A5A25"/>
</radialGradient>
<radialGradient id="paint42_radial_177_3458" cx="0" cy="0" r="1" gradientUnits="userSpaceOnUse" gradientTransform="translate(26.8576 -15.3236) rotate(-177.207) scale(69.2661 43.2428)">
<stop offset="0.04" stop-color="#FFCF01"/>
<stop offset="0.61" stop-color="#C69D1C"/>
<stop offset="1" stop-color="#78471C"/>
</radialGradient>
<linearGradient id="paint43_linear_177_3458" x1="4.56996" y1="11.6172" x2="42.9237" y2="25.2364" gradientUnits="userSpaceOnUse">
<stop stop-color="#F9EC31"/>
<stop offset="1" stop-color="#D9BB22"/>
</linearGradient>
<radialGradient id="paint44_radial_177_3458" cx="0" cy="0" r="1" gradientUnits="userSpaceOnUse" gradientTransform="translate(14.887 15.2235) rotate(-175.753) scale(33.8395 32.0576)">
<stop stop-color="#FFCF01"/>
<stop offset="0.99"/>
</radialGradient>
<linearGradient id="paint45_linear_177_3458" x1="6.45165" y1="8.76913" x2="37.2887" y2="39.7533" gradientUnits="userSpaceOnUse">
<stop stop-color="#F9EC31"/>
<stop offset="0.31" stop-color="#F6E82F"/>
<stop offset="0.58" stop-color="#EFDE2C"/>
<stop offset="0.82" stop-color="#E4CC27"/>
<stop offset="1" stop-color="#D9BB22"/>
</linearGradient>
<radialGradient id="paint46_radial_177_3458" cx="0" cy="0" r="1" gradientUnits="userSpaceOnUse" gradientTransform="translate(15.8916 5.97626) rotate(-176.431) scale(38.6439 30.7963)">
<stop stop-color="#FFCF01"/>
<stop offset="0.99"/>
</radialGradient>
<radialGradient id="paint47_radial_177_3458" cx="0" cy="0" r="1" gradientUnits="userSpaceOnUse" gradientTransform="translate(13.962 7.39464) rotate(-176.933) scale(37.5021 25.7021)">
<stop stop-color="#FFCF01"/>
<stop offset="0.99"/>
</radialGradient>
<radialGradient id="paint48_radial_177_3458" cx="0" cy="0" r="1" gradientUnits="userSpaceOnUse" gradientTransform="translate(14.3152 0.2689) scale(33.8379 28.4901)">
<stop stop-color="#FFCF01"/>
<stop offset="1"/>
</radialGradient>
<radialGradient id="paint49_radial_177_3458" cx="0" cy="0" r="1" gradientUnits="userSpaceOnUse" gradientTransform="translate(24.022 -16.5693) rotate(3.26235) scale(58.9648 45.802)">
<stop stop-color="#FFCF01"/>
<stop offset="0.2" stop-color="#FBCC02"/>
<stop offset="0.37" stop-color="#F1C207"/>
<stop offset="0.53" stop-color="#DFB30F"/>
<stop offset="0.68" stop-color="#C79E1B"/>
<stop offset="0.69" stop-color="#C69D1C"/>
<stop offset="1" stop-color="#927A25"/>
</radialGradient>
<linearGradient id="paint50_linear_177_3458" x1="22.6698" y1="0.604135" x2="20.7751" y2="35.6598" gradientUnits="userSpaceOnUse">
<stop stop-color="#927A25"/>
<stop offset="0.99" stop-color="#78471C"/>
</linearGradient>
<radialGradient id="paint51_radial_177_3458" cx="0" cy="0" r="1" gradientUnits="userSpaceOnUse" gradientTransform="translate(17.1891 -18.7982) rotate(6.1057) scale(52.3417 71.01)">
<stop stop-color="#7A5A25"/>
<stop offset="0.46" stop-color="#784D1F"/>
<stop offset="0.93" stop-color="#78471C"/>
</radialGradient>
<radialGradient id="paint52_radial_177_3458" cx="0" cy="0" r="1" gradientUnits="userSpaceOnUse" gradientTransform="translate(22.1374 -6.50955) rotate(-176.307) scale(54.5423 44.9657)">
<stop offset="0.04" stop-color="#FFCF01"/>
<stop offset="0.61" stop-color="#C69D1C"/>
<stop offset="0.99" stop-color="#7A5A25"/>
</radialGradient>
<radialGradient id="paint53_radial_177_3458" cx="0" cy="0" r="1" gradientUnits="userSpaceOnUse" gradientTransform="translate(24.3888 -16.6915) rotate(3.37514) scale(61.2958 46.2111)">
<stop offset="0.04" stop-color="#FFCF01"/>
<stop offset="0.61" stop-color="#C69D1C"/>
<stop offset="1" stop-color="#78471C"/>
</radialGradient>
<linearGradient id="paint54_linear_177_3458" x1="-0.787216" y1="15.6551" x2="41.6406" y2="18.8678" gradientUnits="userSpaceOnUse">
<stop offset="0.39" stop-color="#F9EC31"/>
<stop offset="0.58" stop-color="#F9E92D"/>
<stop offset="0.74" stop-color="#FAE323"/>
<stop offset="0.9" stop-color="#FCD911"/>
<stop offset="1" stop-color="#FFCF01"/>
</linearGradient>
<radialGradient id="paint55_radial_177_3458" cx="0" cy="0" r="1" gradientUnits="userSpaceOnUse" gradientTransform="translate(23.934 15.5707) rotate(5.79381) scale(30.1612 38.8577)">
<stop stop-color="#FFCF01"/>
<stop offset="0.99"/>
</radialGradient>
<linearGradient id="paint56_linear_177_3458" x1="44.5188" y1="26.2977" x2="6.05671" y2="11.9947" gradientUnits="userSpaceOnUse">
<stop stop-color="#F9EC31"/>
<stop offset="0.31" stop-color="#F6E82F"/>
<stop offset="0.58" stop-color="#EFDE2C"/>
<stop offset="0.82" stop-color="#E4CC27"/>
<stop offset="1" stop-color="#D9BB22"/>
</linearGradient>
<radialGradient id="paint57_radial_177_3458" cx="0" cy="0" r="1" gradientUnits="userSpaceOnUse" gradientTransform="translate(23.4371 6.49373) rotate(3.58733) scale(38.634 30.9481)">
<stop stop-color="#FFCF01"/>
<stop offset="0.99"/>
</radialGradient>
<radialGradient id="paint58_radial_177_3458" cx="0" cy="0" r="1" gradientUnits="userSpaceOnUse" gradientTransform="translate(17.1449 8.06189) rotate(3.32827) scale(35.7762 26.5989)">
<stop stop-color="#FFCF01"/>
<stop offset="0.99"/>
</radialGradient>
<radialGradient id="paint59_radial_177_3458" cx="0" cy="0" r="1" gradientUnits="userSpaceOnUse" gradientTransform="translate(34.5348 -0.310828) scale(30.5825 24.1374)">
<stop stop-color="#FFCF01"/>
<stop offset="1"/>
</radialGradient>
<linearGradient id="paint60_linear_177_3458" x1="0.000305176" y1="18.0036" x2="40.5857" y2="18.0036" gradientUnits="userSpaceOnUse">
<stop stop-color="#8A6400"/>
<stop offset="1" stop-color="#29CCE5"/>
</linearGradient>
<linearGradient id="paint61_linear_177_3458" x1="4.32967" y1="-15.5242" x2="42.9881" y2="24.2631" gradientUnits="userSpaceOnUse">
<stop stop-color="#8A6400"/>
<stop offset="1" stop-color="#29CCE5"/>
</linearGradient>
<radialGradient id="paint62_radial_177_3458" cx="0" cy="0" r="1" gradientUnits="userSpaceOnUse" gradientTransform="translate(32.2283 4.29152) scale(10.4622)">
<stop offset="0.04" stop-color="#FFCF01"/>
<stop offset="0.51" stop-color="#927A25"/>
<stop offset="0.99" stop-color="#78471C"/>
</radialGradient>
</defs>
</svg>
