<svg width="140" height="168" viewBox="0 0 140 168" fill="none" xmlns="http://www.w3.org/2000/svg">
<g clip-path="url(#clip0_151_1793)">
<path d="M162.741 148.597L101.463 0.931877H46.5283L0 20.1688" fill="#1B1721"/>
<path d="M0 20.1687L61.3483 168H115.81L162.741 148.597" fill="#1B1721"/>
<path d="M165.354 148.488L104.076 0H49.1414L2.6131 19.3441" fill="#C77955"/>
<path d="M2.6131 19.3441L63.9614 168H118.423L165.354 148.488" fill="#C77955"/>
<path d="M55.5576 148.212L94.5277 168H95.8353L55.2111 147.37L55.5576 148.212Z" fill="#A05B40"/>
<path d="M44.4404 121.268L128.341 163.877L129.061 163.577L44.0939 120.428L44.4404 121.268Z" fill="#A05B40"/>
<path d="M33.3211 94.3272L151.4 154.289L152.121 153.991L32.9745 93.4872L33.3211 94.3272Z" fill="#A05B40"/>
<path d="M160.32 136.859L21.8552 66.5437L22.2017 67.3837L160.666 137.699" fill="#A05B40"/>
<path d="M149.201 109.915L10.738 39.6025L11.0845 40.4425L149.547 110.757L149.201 109.915Z" fill="#A05B40"/>
<path d="M138.081 82.9741L8.20334 17.0209L7.48413 17.3184L138.43 83.8141L138.081 82.9741Z" fill="#A05B40"/>
<path d="M126.964 56.0328L31.2637 7.43312L30.5445 7.73281L127.31 56.8728L126.964 56.0328Z" fill="#A05B40"/>
<path d="M115.845 29.0894L58.5609 0H57.2532L116.191 29.9294L115.845 29.0894Z" fill="#A05B40"/>
<path d="M104.727 2.14813L100.497 0H99.1895L105.074 2.98813L104.727 2.14813Z" fill="#A05B40"/>
<path d="M92.8017 0H76.1509L16.18 24.9331L75.2225 168H88.469L151.345 141.859L92.8017 0Z" fill="#894530"/>
<path d="M90.3476 163.085C91.0559 164.168 91.7664 165.25 92.4747 166.333L97.7053 164.159C98.0039 161.096 98.5923 158.027 99.2592 154.873C101.238 156.826 103.008 158.994 104.533 161.322L107.517 160.081C107.613 156.387 106.194 152.633 103.516 150.08C106.181 151.699 108.502 153.882 110.289 156.443C111.494 154.991 111.59 152.718 110.512 151.167C111.845 153.206 113.303 155.162 114.87 157.025L119.53 155.089C118.885 152.569 117.608 150.211 115.792 148.352C118.233 149.971 120.543 151.786 122.699 153.773L128.973 151.163C128.411 149.419 127.511 147.788 126.297 146.412C127.642 147.788 128.952 149.198 130.227 150.642L136.59 147.995C135.88 147.096 135.104 146.248 134.267 145.464C136.383 145.751 138.5 146.038 140.614 146.322L141.318 146.029C140.123 143.454 139.916 140.429 140.762 137.718C144.007 137.681 147.252 138.248 150.305 139.353L147.124 131.642C145.519 130.39 143.826 129.255 142.059 128.251C143.421 128.47 144.768 128.772 146.095 129.15L142.85 121.288C141.725 120.855 140.59 120.444 139.459 120.037C140.474 120.337 141.52 120.529 142.573 120.617L139.646 113.525C137.41 113.221 135.222 112.687 133.11 111.821C134.814 111.221 136.44 110.403 137.942 109.395L136.804 106.636C134.553 106.008 133.796 105.173 133.594 104.433C133.328 103.464 134.021 102.723 133.735 101.371C133.389 99.7281 131.907 98.6628 130.782 98.0394C131.541 97.895 132.295 97.72 133.042 97.5231L127.677 84.5206C127.552 84.5316 127.428 84.5425 127.304 84.5534C127.302 84.2625 127.304 83.9584 127.315 83.6434L120.515 67.165C120.099 67.2569 119.689 67.3509 119.288 67.4472C119.07 66.4234 119.144 65.4478 119.414 64.5028L104.889 29.3059C103.753 30.1022 102.618 30.8984 101.484 31.6947C102.419 30.3581 103.322 28.9975 104.191 27.615L101.081 20.0791C100.129 20.3722 99.2287 20.5953 98.4005 20.7594C97.7336 18.7513 96.9076 15.4022 97.228 11.2569C97.2389 11.1147 97.252 10.9725 97.2651 10.8325L93.717 2.23563C93.6298 2.30563 93.5426 2.37563 93.4576 2.44781C91.7925 3.86313 90.9273 5.48187 90.4958 6.48156C90.7966 4.28969 90.4696 2.01688 89.5695 0H89.2971C88.1725 0.995313 87.0501 1.99063 85.9256 2.98594C85.7033 2.065 85.4069 1.06094 85.0102 0H76.14L75.9438 0.0809375C75.3554 1.39563 74.6754 2.38219 74.1916 3.00344C73.4506 2.62063 71.888 1.80906 71.8444 1.785L65.681 4.34656C66.2128 6.07469 67.0627 7.70219 68.2135 9.09781C66.5833 8.31469 64.9531 7.53375 63.3229 6.75063C65.0228 11.41 65.3759 16.5594 64.3232 21.4091C62.5644 14.8641 60.7141 10.3163 58.8921 7.17063L52.2427 9.93563C52.9336 11.725 53.2387 13.5844 52.6132 15.3956C52.0357 17.0691 50.6256 18.8081 49.4967 18.6463C48.4484 18.4953 48.4135 16.8131 46.8683 14.4813C46.4433 13.8381 45.9747 13.2563 45.4974 12.7422L43.063 13.755C43.1262 14.0241 43.1763 14.3084 43.2069 14.6081C43.3943 16.3603 42.8974 17.8916 42.383 18.9941C42.1716 18.515 41.4154 16.87 39.9508 15.05L32.325 18.2197C33.539 19.6569 34.6069 21.0525 35.5419 22.3694C32.652 21.7416 29.7621 21.1138 26.8722 20.4881L25.7933 20.9366C27.2775 21.84 29.0428 23.1941 30.6404 25.1891C32.6454 27.6916 33.5717 30.1831 34.0141 31.7406C27.9401 26.8253 21.2231 24.4169 16.1669 24.9419L20.5213 35.4966C25.1243 37.3056 28.5111 39.7075 30.551 41.3547C28.8837 41.4859 26.7065 41.8556 24.3331 42.8269C24.1065 42.9209 23.8842 43.0172 23.6662 43.1156L26.3077 49.5184C26.469 49.5447 26.6324 49.5731 26.7981 49.6016C31.4751 50.4438 34.8423 52.4322 36.6577 53.6922C34.8924 54.8844 32.5277 56.2756 29.5986 57.4897L31.8194 62.8731C33.0334 62.9409 34.1819 63.2122 35.1234 63.9713C36.7885 65.3122 36.0911 68.7291 34.3061 68.8975L48.9779 104.453C49.4117 104.287 49.8454 104.118 50.2769 103.95C49.9195 104.576 49.7015 105.232 49.5773 105.91L57.7305 125.668C58.5848 124.532 59.4675 123.419 60.3806 122.329C59.766 124.541 59.3541 126.812 59.1471 129.098L67.8103 150.091C68.3791 148.013 68.8695 145.911 69.2748 143.793C71.3671 148.573 72.8621 153.615 73.7165 158.767C75.9155 155.905 77.3365 152.449 77.7898 148.864C78.8555 153.549 79.9213 158.233 80.9848 162.918C81.1156 163.494 81.3226 164.161 81.8784 164.356C82.1748 164.461 82.4908 164.251 82.6434 163.995C82.9071 165.368 83.3103 166.712 83.8377 168.007H88.4537L90.7399 167.055C90.6135 165.721 90.4762 164.397 90.3323 163.091L90.3476 163.085Z" fill="#6B3324"/>
<path d="M76.2141 3.29875C75.7237 6.05062 74.4422 7.98 73.6881 8.95125C73.0082 8.60125 72.3216 8.26 71.646 7.89906C70.8941 7.49437 69.9875 6.86437 69.0874 5.96312C67.3744 4.24375 66.5876 2.36906 66.2215 1.25562C64.4104 5.60219 65.1993 10.9266 68.1917 14.5556C66.6922 13.8359 65.195 13.1162 63.6955 12.3987C65.2603 16.6841 65.5829 21.4156 64.6152 25.8759C60.8514 11.8672 56.6277 7.80281 53.3499 6.81187C53.3499 6.81187 53.1297 6.74406 46.1578 4.94594C48.7121 7.22968 50.3117 9.49375 51.2794 11.0972C52.9314 13.8337 54.9452 17.1697 53.8468 20.3459C53.315 21.8837 52.0182 23.485 50.9808 23.3341C50.0175 23.1941 49.9848 21.6475 48.5639 19.5037C46.744 16.7584 44.083 15.2009 43.7234 15.5225C43.4226 15.7937 44.9417 17.1981 45.201 19.6175C45.3732 21.2297 44.9177 22.6362 44.4426 23.6491C44.0307 22.7172 41.3718 16.9597 35.0123 15.0784C31.547 14.0525 28.5481 14.6409 27.0879 15.0412C28.7138 16.3406 30.4508 17.8741 32.2139 19.6678C34.6418 22.1353 36.5967 24.5656 38.1528 26.7553C34.4718 25.9569 30.7907 25.1562 27.1119 24.3578C28.5656 24.99 31.3029 26.4162 33.648 29.3453C35.4917 31.6466 36.3417 33.9369 36.7493 35.3697C30.211 30.0781 22.862 27.9431 18.1022 29.6012C14.7023 30.7847 11.4528 33.4359 11.4528 33.4359C9.9599 34.6544 8.86366 35.8509 8.12701 36.7456C10.6747 36.4437 14.0158 36.3344 17.8254 36.995C25.4621 38.3162 30.83 42 33.5651 44.2094C32.033 44.3297 30.0301 44.6687 27.8485 45.5612C23.1977 47.4644 20.4908 50.7544 19.2922 52.4366C21.2907 51.8262 25.2463 50.9119 30.1129 51.7891C34.4129 52.5634 37.5077 54.3922 39.1793 55.5516C36.9302 57.0719 33.6283 58.94 29.3392 60.2459C25.8849 61.2959 22.7988 61.6722 20.4145 61.7816C23.797 63.4922 27.6262 64.3016 31.4075 64.1047C33.6 63.9909 36.0562 63.6212 37.7692 65.0016C39.4801 66.3819 38.4775 70.1509 36.3962 69.4553C36.3286 70.5381 36.9977 71.6275 37.9893 72.0541C37.4401 72.0256 34.9818 71.96 32.798 73.7887C30.5466 75.6744 30.2088 78.2141 30.15 78.7412C30.3723 78.5028 32.6868 76.0944 35.6857 76.6544C36.7667 76.8556 37.5687 77.3741 38.0634 77.7722C37.2069 79.0037 35.3784 81.2612 32.2488 82.7925C27.3451 85.1922 22.7029 84.1116 21.3931 83.7594C22.9601 85.1922 26.8678 88.3728 32.8416 89.3944C37.4597 90.1841 41.228 89.3266 43.2178 88.7184C36.1695 96.1406 34.7246 97.8819 34.8292 97.9847C34.9796 98.1356 38.0002 94.5306 41.544 94.9791C42.0888 95.0469 42.5138 95.1956 42.7579 95.2919C41.7728 95.8475 39.5324 97.2847 37.9349 100.117C36.8016 102.128 36.1979 104.442 36.2981 106.752C41.5309 105.407 46.6787 103.736 51.7066 101.756C50.0938 104.576 51.5409 108.104 51.4145 111.355C51.2859 114.642 49.5272 117.6 48.2871 120.645C45.5388 127.387 45.2947 135.124 47.6115 142.026C50.6539 133.525 55.2089 125.571 60.9974 118.654C59.5307 123.939 59.3171 129.57 60.385 134.951C61.3439 134.739 62.3007 134.529 63.2596 134.317C61.8823 141.507 61.9498 148.973 63.4558 156.137C66.0754 150.485 68.0021 144.511 69.1768 138.388C71.1012 142.782 72.4764 147.42 73.2588 152.154C75.2791 149.522 76.5868 146.344 77.003 143.049C77.9816 147.357 78.9623 151.664 79.9409 155.971C80.0607 156.5 80.2504 157.113 80.7625 157.292C81.035 157.388 81.3248 157.196 81.4643 156.96C82.2729 161.186 84.5089 165.119 87.6931 167.996H89.5477C89.5085 167.344 89.4671 166.69 89.4213 166.033C89.1881 162.643 88.8874 159.34 88.5321 156.128C90.9338 159.797 93.3356 163.465 95.7394 167.136C94.4035 160.825 95.3929 154.888 96.7267 148.579C99.4052 151.226 101.67 154.293 103.411 157.638C105.32 153.151 104.163 147.532 100.641 144.172C103.091 145.661 105.226 147.667 106.868 150.021C107.977 148.684 108.064 146.595 107.072 145.169C109.468 148.833 112.296 152.211 115.478 155.21C116.494 150.762 115.108 145.838 111.926 142.579C116.463 145.587 120.511 149.334 123.867 153.628C125.521 149.369 124.606 144.217 121.585 140.796C126.94 146.272 131.693 152.34 135.73 158.854C136.606 151.944 133.988 144.677 128.914 139.926C131.137 140.225 133.36 140.527 135.583 140.827C134.324 138.381 134.069 135.432 134.888 132.803C140.313 132.742 145.744 134.512 150.096 137.762C146.69 132.107 141.812 127.352 136.08 124.099C141.392 124.952 146.483 127.146 150.759 130.423C149.965 126.658 147.287 123.511 144.12 121.341C140.954 119.171 137.301 117.849 133.692 116.548C137.044 117.537 140.747 117.265 143.92 115.8C143.074 114.632 141.756 113.818 140.335 113.59C143.51 113.691 146.703 112.389 148.911 110.097C141.852 110.917 134.435 111.694 127.855 108.994C130.396 108.1 132.75 106.678 134.727 104.842C129.863 104.326 128.566 103.176 128.298 102.202C128.054 101.31 128.692 100.629 128.428 99.3869C128.11 97.8775 126.748 96.8975 125.713 96.3244C131.922 95.1387 137.743 91.9756 142.124 87.4016C137.327 88.4209 132.447 89.0466 127.55 89.2653C130.536 87.1456 133.149 84.4966 135.23 81.4778C131.098 82.7619 126.824 83.5844 122.514 83.9234C122.5 82.2719 122.679 80.1675 123.398 77.8509C125.286 71.7719 129.634 68.3047 131.488 66.9966C128.394 66.7144 124.667 66.6597 120.5 67.2C118.567 67.4516 116.777 67.7972 115.145 68.1953C113.914 62.405 122.81 58.2466 121.827 52.4081C118.931 54.0334 116.036 55.6587 113.14 57.2841C118.15 52.9375 121.712 46.9372 123.135 40.4469C119.608 42.0197 116.263 44.0037 113.186 46.3422C113.271 45.185 113.356 44.0256 113.441 42.8684C112.026 43.7741 110.026 42.8334 109.2 41.3678C108.374 39.9022 108.395 38.1216 108.439 36.4394C107.362 36.8462 106.288 37.2553 105.211 37.6622C107.92 36.1134 108.827 32.0928 107.048 29.5225C104.291 31.4562 101.532 33.3922 98.7732 35.3259C102.278 30.3144 105.287 24.955 107.748 19.3506C106.151 20.7769 103.744 22.5706 100.484 23.9028C98.8255 24.5809 97.2803 25.0031 95.94 25.2722C95.3275 23.4259 94.5669 20.3481 94.8611 16.5353C95.2534 11.4559 97.3064 7.78531 98.4506 6.03531C97.5157 6.00906 94.2269 6.03093 91.3959 8.43718C89.8637 9.73875 89.0683 11.2262 88.6716 12.145C88.9549 10.0734 88.6324 7.92093 87.7497 6.02656C86.6557 6.99343 85.5638 7.9625 84.4697 8.93156C84.1188 7.47906 83.5696 5.79906 82.6913 4.025C81.9307 2.48937 81.0567 1.155 80.1501 -0.00218964H76.3536C76.4386 1.00187 76.4168 2.11094 76.2054 3.29656L76.2141 3.29875Z" fill="#F1C48B"/>
<path d="M72.3479 130.235C72.2585 131.766 70.9378 133.265 71.5611 134.667C72.6639 137.15 76.8069 134.579 79.0953 136.036C79.6315 136.378 80.0063 136.92 80.2984 137.484C81.2529 139.328 81.436 141.463 81.9264 143.482C82.4189 145.502 83.3866 147.606 85.2543 148.505C87.1221 149.406 89.9183 148.284 89.9445 146.206C89.9597 145.106 89.2361 144.032 89.5107 142.966C89.8115 141.803 91.1518 141.251 92.344 141.135C93.5361 141.019 94.8002 141.151 95.8768 140.621C96.9534 140.092 97.6203 138.499 96.742 137.681C99.2462 137.233 101.781 138.049 104.235 138.718C106.691 139.388 109.378 139.902 111.717 138.898C114.057 137.896 115.622 134.772 114.162 132.678C116.498 133.93 119.14 134.603 121.786 134.621C121.175 132.466 120.269 130.397 119.098 128.492C120.509 129.141 122.832 129.981 125.783 130.045C130.667 130.15 134.23 128.061 135.632 127.131C130.604 124.832 128.572 121.957 127.653 120.105C125.835 116.445 125.536 111.361 124.66 107.737C124.466 106.936 124.272 106.135 124.177 105.317C124.098 104.646 124.087 103.97 124.054 103.294C123.834 98.8181 122.631 94.395 120.554 90.4291C118.449 86.4106 115.389 81.7447 117.59 77.7766C117.856 77.2953 118.205 76.7309 117.954 76.2409C117.769 75.8778 117.335 75.74 116.95 75.6131C111.085 73.6663 108.197 65.6797 111.451 60.41C108.74 60.1256 106.118 59.0188 104.019 57.2731C105.985 53.8103 105.741 49.2078 103.42 45.9747C102.204 47.6634 99.7431 47.9281 97.7402 47.3769C95.9967 46.8956 94.3381 45.85 93.4816 44.2509C92.6251 42.6519 92.7537 40.4709 94.0592 39.2175C91.6858 40.4294 88.822 38.1456 88.1007 35.5731C87.3793 33.0006 87.9743 30.2619 87.8762 27.5909C87.8587 27.1403 87.7476 26.5869 87.3183 26.4556C86.8889 26.3222 86.6099 27.2016 87.0567 27.1622C87.6212 26.6197 86.6731 25.8563 85.9801 25.4953C83.2362 24.0669 82.7698 20.4159 82.4385 17.3316C82.1073 14.2472 81.0067 10.5459 77.9882 9.88531C77.1404 12.7597 80.2678 15.7916 79.2174 18.5959C78.6115 20.2125 76.7459 21.0656 75.0242 21.0241C73.3024 20.9847 71.6853 20.2431 70.1227 19.5147C69.2269 20.9563 68.7039 22.6297 68.6189 24.3272C68.3682 23.5791 68.1154 22.8331 67.8648 22.085C67.3941 26.8013 64.9335 31.2856 61.2154 34.2059C60.9016 34.4531 60.5616 34.6959 60.1671 34.7441C59.583 34.8141 59.0316 34.4356 58.6633 33.9763C56.3117 31.0363 59.6811 25.9788 57.2445 23.1109C55.6514 25.7688 56.388 29.9863 53.6289 31.3863C52.3997 32.0097 50.9373 31.7516 49.5599 31.7253C47.3391 31.6859 45.1074 32.3159 43.2331 33.5125C42.7187 33.8406 42.1957 34.2628 42.0714 34.8622C41.7031 36.6319 44.7521 37.1547 45.3035 38.8763C42.6621 41.4575 38.6105 42.4856 35.0646 41.475C33.988 42.6016 35.1431 44.5113 36.5292 45.2178C37.9153 45.9266 39.6327 46.2109 40.5567 47.4666C42.4681 50.0631 39.5738 54.7356 42.1957 56.6059C44.0046 57.8966 47.3652 56.6978 48.1869 58.7672C48.6293 59.8806 47.8403 61.1253 47.9907 62.3153C48.2043 64.0041 50.1745 64.9666 50.6169 66.6116C51.0179 68.1056 49.9827 69.6631 48.6663 70.4681C47.35 71.2731 45.7895 71.5444 44.3206 72.0103C43.6057 72.2378 42.8233 72.5966 42.5858 73.3097C42.3504 74.0163 42.758 74.7797 43.2527 75.3331C45.3057 77.63 48.6881 77.9691 51.6064 78.9425C54.5246 79.9159 57.5693 82.6219 56.6386 85.5641C56.0131 87.5437 53.9013 88.5478 52.2101 89.7444C50.5167 90.9388 49.0063 93.2291 50.144 94.9638C50.9874 96.2522 52.792 96.4097 54.0778 97.2519C56.3183 98.7219 56.5602 101.913 56.1984 104.578C57.7719 104.926 59.3455 105.276 60.9168 105.623C62.4076 108.362 65.6549 110.025 68.7387 109.627C69.3098 112.269 68.8499 115.119 67.4769 117.447C65.8074 120.278 65.6876 121.253 67.8278 123.69C69.2814 125.346 72.4895 127.818 72.3479 130.231V130.235Z" fill="#EAA459"/>
<path d="M27.5957 80.4519C27.4889 80.4978 27.3647 80.4453 27.3189 80.3381L10.8883 40.5234C10.8426 40.4141 10.8949 40.2916 11.0017 40.2456C11.1106 40.1997 11.2327 40.2522 11.2784 40.3594L27.709 80.1719C27.7548 80.2812 27.7025 80.4037 27.5957 80.4497V80.4519Z" fill="#322C39"/>
<path d="M45.9551 47.3112C45.9551 47.3112 45.9442 47.3156 45.9376 47.3178C45.8265 47.3528 45.7066 47.2916 45.6718 47.18C45.663 47.1537 44.8305 44.6141 41.8534 41.7287C36.8713 36.8987 29.8252 34.8337 24.7908 33.9522C24.6753 33.9325 24.599 33.8231 24.6186 33.7072C24.6382 33.5912 24.7472 33.5147 24.8627 33.5344C29.9669 34.4269 37.111 36.5269 42.1694 41.4466C45.2097 44.4041 46.0401 46.9459 46.0728 47.0531C46.1055 47.1581 46.0532 47.2719 45.9529 47.3134L45.9551 47.3112Z" fill="#322C39"/>
<path d="M41.8665 85.68C38.9265 86.9028 35.799 87.5809 32.5452 87.6991C32.4275 87.7034 32.3294 87.6116 32.3272 87.4956C32.3229 87.3775 32.4144 87.2812 32.5299 87.2769C36.3831 87.1369 40.0533 86.2006 43.4401 84.4922C49.9129 81.2306 53.4327 76.0003 54.9539 73.1741C55.0084 73.0712 55.137 73.0319 55.2394 73.0887C55.3419 73.1434 55.3811 73.2725 55.3244 73.3753C53.7792 76.2453 50.205 81.5566 43.6275 84.8706C43.0478 85.1616 42.4593 85.4328 41.8644 85.68H41.8665Z" fill="#322C39"/>
<path d="M48.9758 132.263C48.9431 132.276 48.9082 132.283 48.869 132.278C48.7535 132.265 48.6707 132.158 48.6837 132.042C49.5751 124.615 52.7026 118.818 55.1697 115.262C57.8438 111.407 60.348 109.277 60.3719 109.255C60.4613 109.18 60.5942 109.191 60.6705 109.281C60.7446 109.371 60.7337 109.504 60.6444 109.581C60.6204 109.603 58.1511 111.705 55.5075 115.518C53.0709 119.033 49.9805 124.762 49.1022 132.094C49.0935 132.173 49.0412 132.237 48.9736 132.265L48.9758 132.263Z" fill="#322C39"/>
<path d="M65.2168 143.756C65.2037 143.76 65.1906 143.765 65.1776 143.769C65.062 143.791 64.9509 143.717 64.9291 143.603C63.8263 138.062 66.0602 133.341 68.1307 130.355C70.3646 127.131 72.897 125.18 72.9232 125.162C73.0169 125.09 73.1477 125.11 73.2196 125.202C73.2893 125.296 73.2719 125.427 73.1804 125.499C73.1564 125.519 70.6697 127.435 68.4728 130.609C66.4547 133.525 64.2753 138.13 65.3475 143.52C65.3672 143.62 65.3127 143.719 65.2211 143.758L65.2168 143.756Z" fill="#322C39"/>
<path d="M75.2987 145.248C75.1919 145.292 75.0699 145.243 75.0241 145.136C72.5658 139.451 72.4328 135.139 72.7532 132.523C73.1041 129.671 74.0325 128.185 74.0717 128.124C74.1349 128.026 74.2657 127.997 74.3638 128.061C74.4618 128.124 74.4902 128.255 74.4292 128.354C74.4204 128.369 73.5051 129.839 73.1695 132.606C72.86 135.163 72.9973 139.385 75.4121 144.968C75.4578 145.075 75.4099 145.2 75.3031 145.248H75.2987Z" fill="#322C39"/>
<path d="M87.3248 164.572C87.2223 164.616 87.1025 164.57 87.0523 164.467C83.6437 157.281 82.5431 150.629 82.2227 146.313C81.874 141.634 82.3383 138.609 82.3426 138.578C82.3601 138.462 82.469 138.383 82.5845 138.401C82.7 138.418 82.7785 138.528 82.7611 138.644C82.7414 138.762 80.9718 150.653 87.4359 164.283C87.486 164.388 87.4403 164.515 87.3357 164.566C87.3313 164.566 87.3291 164.568 87.3248 164.57V164.572Z" fill="#322C39"/>
<path d="M131.571 151.097C131.571 151.097 131.556 151.104 131.549 151.106C131.438 151.139 131.321 151.075 131.288 150.962C129.743 145.672 126.633 138.491 120.6 134.326C116.995 131.838 114.014 131.609 113.983 131.607C113.868 131.598 113.778 131.497 113.787 131.381C113.796 131.265 113.896 131.176 114.012 131.184C114.044 131.184 114.801 131.241 116.023 131.611C117.144 131.95 118.885 132.635 120.814 133.96C124.209 136.297 128.851 141.122 131.693 150.843C131.724 150.948 131.669 151.058 131.571 151.099V151.097Z" fill="#322C39"/>
<path d="M140.797 131.523C140.733 131.55 140.657 131.545 140.596 131.504C132.576 126.015 123.069 127.081 122.973 127.092C122.858 127.105 122.753 127.022 122.738 126.906C122.725 126.79 122.808 126.685 122.923 126.669C123.019 126.658 132.685 125.576 140.834 131.152C140.93 131.217 140.956 131.348 140.888 131.447C140.864 131.482 140.832 131.508 140.795 131.523H140.797Z" fill="#322C39"/>
<path d="M79.383 28.6606C79.3176 28.6891 79.237 28.6803 79.1759 28.6344C79.0822 28.5644 79.0626 28.4309 79.1324 28.3369C79.1498 28.315 80.8149 26.0247 81.6387 22.0084C82.3993 18.3028 82.5802 12.3222 79.1149 4.88469C79.0648 4.7775 79.1106 4.65281 79.2174 4.6025C79.322 4.55219 79.4484 4.59812 79.4985 4.70531C83.0161 12.2609 82.8265 18.3466 82.0484 22.12C81.2028 26.2194 79.5421 28.4966 79.4723 28.5906C79.4484 28.6234 79.4179 28.6453 79.383 28.6606Z" fill="#322C39"/>
<path d="M58.1336 28.1378C58.0922 28.1553 58.0443 28.1597 57.9985 28.1466C57.8852 28.1159 57.8198 28 57.8481 27.8862C57.8677 27.8141 59.7355 20.5034 55.3723 13.4991C55.3113 13.4006 55.3396 13.2694 55.4399 13.2059C55.538 13.1425 55.6687 13.1731 55.7319 13.2737C60.1954 20.4378 58.2775 27.9212 58.2557 27.9956C58.2382 28.0612 58.1903 28.1116 58.1315 28.1378H58.1336Z" fill="#322C39"/>
<path d="M105.503 54.2981C103.193 55.2584 100.582 55.8491 97.7401 55.7003C96.8226 55.6522 95.8985 55.5253 94.9941 55.3241C94.8807 55.2978 94.8088 55.1862 94.8328 55.0703C94.8589 54.9566 94.9723 54.8844 95.0856 54.9084C95.9683 55.1053 96.8684 55.2278 97.7619 55.2737C104.089 55.6041 109.252 52.1806 112.471 49.2494C112.556 49.1706 112.691 49.1772 112.769 49.2647C112.848 49.3522 112.841 49.4856 112.754 49.5644C110.917 51.2378 108.454 53.0687 105.503 54.2959V54.2981Z" fill="#322C39"/>
<path d="M87.741 41.5647C87.6953 41.5844 87.6408 41.5866 87.5906 41.5691C87.4795 41.5297 87.4228 41.4094 87.4621 41.2978C87.473 41.2694 88.4733 38.4541 90.4914 35.3719C92.3592 32.5194 95.5085 28.8444 99.8978 27.5472C100.009 27.5144 100.127 27.5778 100.159 27.6916C100.192 27.8031 100.129 27.9213 100.015 27.9541C91.8405 30.3713 87.8979 41.3263 87.8587 41.4378C87.8369 41.4969 87.7933 41.5406 87.741 41.5625V41.5647Z" fill="#322C39"/>
<path d="M135.695 114.188C135.675 114.196 135.653 114.201 135.631 114.203C130.978 114.592 125.22 115.894 125.162 115.907C125.048 115.933 124.935 115.861 124.909 115.747C124.883 115.633 124.955 115.52 125.068 115.493C125.127 115.48 130.913 114.172 135.594 113.781C135.71 113.772 135.812 113.857 135.823 113.975C135.832 114.069 135.775 114.155 135.692 114.19L135.695 114.188Z" fill="#322C39"/>
<path d="M60.117 59.9266C58.0814 60.6681 56.7563 62.8009 56.5427 64.9644C56.3292 67.1278 57.0745 69.2934 58.173 71.1681C58.356 71.4788 58.5543 71.8091 58.5434 72.17C58.5304 72.5594 58.2754 72.8919 58.0356 73.1981C57.02 74.5041 56.0611 75.9325 55.7821 77.5666C55.416 79.7169 56.279 81.8694 57.1857 83.8513C58.3909 86.485 59.8424 89.215 62.3531 90.6456C59.2539 93.2925 58.4454 98.2253 59.4327 102.187C60.4199 106.148 63.774 109.417 67.7493 110.289C66.3675 113.135 67.1478 116.708 69.1027 119.19C71.0576 121.675 73.9977 123.202 77.0118 124.132C77.051 127.238 78.7183 130.279 81.3118 131.972C83.9053 133.665 87.351 133.962 90.1951 132.74C90.6964 132.525 91.1933 132.261 91.7381 132.23C92.3636 132.193 92.9586 132.468 93.5383 132.703C100.397 135.465 109.04 132.591 112.898 126.265C113.439 125.377 113.918 124.407 114.746 123.782C115.413 123.277 116.243 123.047 117.002 122.69C119.521 121.509 121.226 118.759 121.169 115.97C121.149 114.968 120.923 113.973 120.986 112.973C121.034 112.228 121.241 111.501 121.391 110.768C122.542 105.217 120.23 99.0916 115.703 95.6988C118.442 91.2559 116.257 84.5688 111.425 82.6197C112.416 77.7372 108.921 72.3866 104.065 71.3541C104.185 66.2069 99.6298 61.4141 94.5038 61.2916C94.2379 58.8503 93.5666 56.4528 92.5249 54.2303C91.7468 52.57 90.7051 50.9469 89.1272 50.0194C85.797 48.0572 81.6017 49.8356 78.1691 51.6141C72.1561 54.7334 66.4722 57.61 60.1104 59.9287L60.117 59.9266Z" fill="#F9DCBB"/>
<path d="M111.431 82.6197C112.423 77.7372 108.927 72.3866 104.071 71.3541C104.191 66.2069 99.6363 61.4141 94.5103 61.2916C94.2444 58.8503 93.5732 56.4528 92.5314 54.2303C91.7534 52.57 90.7116 50.9469 89.1337 50.0194C85.8036 48.0572 81.6082 49.8356 78.1756 51.6141C72.1626 54.7334 66.4787 57.61 60.117 59.9287C59.4218 60.1825 58.8115 60.5981 58.2972 61.1209C58.2798 61.2347 58.2645 61.3484 58.2536 61.4622C58.04 63.6256 58.7832 65.7912 59.8838 67.6659C60.0669 67.9766 60.2652 68.3069 60.2543 68.6678C60.2412 69.0572 59.9862 69.3897 59.7465 69.6959C59.2692 70.3084 58.805 70.9494 58.4171 71.6253C58.4955 71.8003 58.5478 71.9819 58.5413 72.1722C58.5282 72.5616 58.2732 72.8941 58.0335 73.2003C57.8635 73.4191 57.6935 73.6422 57.53 73.8675C57.517 73.9331 57.5017 73.9966 57.4908 74.0622C57.1247 76.2125 57.9877 78.365 58.8944 80.3469C60.0996 82.9806 61.5511 85.7106 64.0617 87.1412C63.0701 87.99 62.3139 89.0728 61.7734 90.2825C61.9586 90.4116 62.1504 90.5341 62.3487 90.6478C61.9281 91.0066 61.5511 91.4091 61.2154 91.8444C60.5987 94.0603 60.6008 96.5169 61.1413 98.6847C62.1286 102.646 65.4827 105.914 69.458 106.787C68.0762 109.633 68.8565 113.203 70.8114 115.688C72.7663 118.173 75.7064 119.7 78.7205 120.63C78.7597 123.736 80.427 126.777 83.0205 128.47C85.614 130.163 89.0596 130.46 91.9038 129.237C92.405 129.023 92.9019 128.758 93.4468 128.728C94.0723 128.691 94.6673 128.966 95.247 129.2C102.106 131.963 110.749 129.089 114.607 122.763C115.147 121.874 115.627 120.905 116.455 120.28C117.122 119.774 117.952 119.545 118.711 119.188C119.604 118.768 120.395 118.151 121.043 117.405C121.132 116.935 121.178 116.454 121.167 115.975C121.147 114.973 120.92 113.977 120.984 112.978C121.032 112.232 121.239 111.506 121.389 110.773C122.54 105.221 120.227 99.0959 115.701 95.7031C118.44 91.2603 116.254 84.5731 111.423 82.6241L111.431 82.6197Z" fill="white"/>
<path d="M74.8672 65.7541C80.8083 63.2844 83.8377 56.525 82.4734 49.7437C80.9892 50.2162 79.5225 50.9141 78.1756 51.6119C72.1626 54.7312 66.4787 57.6078 60.117 59.9266C59.6375 60.1016 59.1973 60.3553 58.8006 60.6681C62.7083 65.8437 69.2226 68.1012 74.8672 65.7541Z" fill="#F9DCBB"/>
<path d="M66.8906 85.6931C70.3995 88.2284 75.1027 88.0666 79.4179 87.8019C79.686 87.7844 79.9584 87.7669 80.2025 87.6553C80.889 87.3403 81.0568 86.3647 80.719 85.6866C80.3812 85.0084 79.6969 84.5819 79.0125 84.2581C75.2705 82.4884 70.5934 82.7597 67.4159 80.0997C66.3828 79.2334 62.0044 73.4147 61.9935 77.9844C61.9869 80.7056 64.8093 84.1903 66.8906 85.6931Z" fill="#FFEDD7"/>
<path d="M89.8551 70.1881C88.0855 72.345 86.0695 74.3269 84.6485 76.7331C84.3674 77.2078 84.1058 77.7219 84.0949 78.2731C84.0666 79.6994 85.8036 80.6291 87.1854 80.3009C88.5671 79.9728 89.5936 78.8288 90.4567 77.6978C91.5747 76.2322 92.5838 74.6791 93.4185 73.0319C94.1028 71.6822 94.676 70.2559 94.8809 68.7553C95.1315 66.9331 94.8961 64.5291 93.7454 63.0416C93.0044 63.7547 92.793 65.6184 92.2787 66.6225C91.6226 67.9044 90.7661 69.0791 89.8551 70.1881Z" fill="#FFEDD7"/>
<path d="M91.8842 92.225C92.9957 90.8884 94.4624 89.9041 95.7178 88.7031C98.4595 86.0803 100.094 82.5322 101.633 79.0606C102.21 77.7591 102.783 76.2453 102.167 74.9613C103.426 77.2844 104.73 79.8306 104.307 82.4425C104.058 83.9803 103.23 85.3541 102.409 86.6775C99.9807 90.5844 97.2978 94.5963 93.2572 96.775C89.4803 98.8116 90.4392 93.9662 91.8842 92.2272V92.225Z" fill="#FFEDD7"/>
<path d="M81.2203 113.671C83.8421 113.369 86.27 111.908 88.9093 111.891C91.4897 111.873 94.0243 113.374 95.2557 115.649C95.526 116.147 95.7417 116.714 95.648 117.276C95.5151 118.062 94.7871 118.637 94.0178 118.834C93.2485 119.033 92.4399 118.928 91.6531 118.823C87.0284 118.204 82.4037 117.585 77.779 116.966C76.9508 116.854 76.1008 116.738 75.3707 116.333C74.111 115.636 72.5702 111.836 74.6385 111.766C75.2313 111.746 76.8963 113.109 77.6112 113.328C78.7772 113.684 80.0129 113.811 81.2246 113.671H81.2203Z" fill="#FFEDD7"/>
<path d="M100.316 101.434C103.073 99.6188 105.588 97.4662 108.097 95.3181C109.814 93.8481 111.641 92.19 112.013 89.9566C113.574 90.1009 114.426 92.0544 114.025 93.5769C113.624 95.0972 112.403 96.2391 111.233 97.2869C107.866 100.301 104.496 104.035 100.739 106.536C99.3639 107.452 97.9298 107.358 97.6051 105.44C97.276 103.499 98.9062 102.366 100.316 101.434Z" fill="#FFEDD7"/>
<path d="M108.602 115.067C111.861 111.337 115.284 107.227 115.638 102.279C117.786 103.775 117.954 107.023 116.902 109.428C115.851 111.832 113.903 113.702 112.358 115.819C110.921 117.788 109.799 120.015 108.044 121.704C106.532 123.161 104.632 124.134 102.764 125.088C101.609 125.676 99.8847 126.453 98.6839 125.545C97.2498 124.46 98.0148 123.279 99.1546 122.559C100.739 121.559 102.443 121.01 103.941 119.796C105.662 118.401 107.149 116.734 108.605 115.069L108.602 115.067Z" fill="#FFEDD7"/>
<path d="M99.0936 62.8316C99.0348 62.8556 98.9651 62.8534 98.904 62.8184C97.5266 61.9938 96.0032 61.5387 94.5038 61.5016C94.397 61.4994 94.3098 61.4184 94.2989 61.3134C94.0352 58.8831 93.3749 56.5294 92.3396 54.3178C91.3829 52.2747 90.3302 50.9666 89.0269 50.1987C87.3074 49.1859 85.1846 49.1028 82.5388 49.9428C82.4277 49.9778 82.3078 49.9166 82.2729 49.805C82.2381 49.6934 82.2991 49.5753 82.4102 49.5381C85.1781 48.6588 87.412 48.755 89.2405 49.8313C90.6201 50.645 91.7272 52.0122 92.721 54.1363C93.7519 56.3347 94.4166 58.6709 94.6978 61.0837C96.2103 61.1537 97.7359 61.6241 99.1198 62.4531C99.22 62.5122 99.2527 62.6434 99.1939 62.7441C99.1699 62.7856 99.1329 62.8141 99.0936 62.8316Z" fill="#322C39"/>
<path d="M116.954 90.7134C116.934 90.7222 116.913 90.7266 116.891 90.7287C116.775 90.7375 116.673 90.6522 116.662 90.5341C116.379 87.0844 114.245 83.9825 111.351 82.8144C111.257 82.7772 111.202 82.6766 111.222 82.5759C112.19 77.8181 108.759 72.5681 104.026 71.5597C103.925 71.5378 103.856 71.4503 103.858 71.3475C103.895 69.7616 103.474 68.1428 102.64 66.6597C102.583 66.5569 102.618 66.4278 102.72 66.3709C102.823 66.3141 102.951 66.3491 103.008 66.4519C103.849 67.9459 104.287 69.5778 104.283 71.1834C109.086 72.31 112.554 77.6191 111.669 82.4884C114.624 83.7616 116.79 86.9575 117.083 90.4991C117.091 90.5931 117.035 90.6784 116.952 90.7134H116.954Z" fill="#322C39"/>
<path d="M105.601 132.663C103.413 133.573 101.009 134.037 98.5706 133.956C98.4551 133.952 98.3635 133.853 98.3657 133.737C98.3701 133.621 98.466 133.529 98.5836 133.532C104.326 133.72 109.875 130.823 112.724 126.153C112.813 126.007 112.902 125.856 112.99 125.705C113.439 124.943 113.901 124.158 114.624 123.611C115.106 123.246 115.664 123.021 116.204 122.802C116.442 122.706 116.686 122.607 116.917 122.498C119.353 121.354 121.016 118.672 120.962 115.975C120.953 115.566 120.91 115.148 120.866 114.743C120.805 114.161 120.74 113.562 120.779 112.96C120.816 112.389 120.942 111.827 121.066 111.285C121.108 111.099 121.151 110.913 121.191 110.725C121.746 108.041 121.502 105.195 120.485 102.498C119.467 99.8003 117.771 97.5078 115.581 95.8672C115.487 95.7972 115.468 95.6638 115.537 95.5697C115.607 95.4756 115.74 95.4559 115.834 95.5259C118.087 97.2147 119.833 99.5728 120.879 102.347C121.925 105.12 122.176 108.045 121.603 110.81C121.563 111 121.52 111.188 121.478 111.377C121.359 111.902 121.236 112.446 121.202 112.984C121.167 113.549 121.228 114.133 121.287 114.695C121.33 115.108 121.376 115.537 121.385 115.964C121.441 118.825 119.678 121.669 117.096 122.881C116.854 122.994 116.603 123.095 116.361 123.193C115.823 123.412 115.315 123.618 114.879 123.948C114.223 124.445 113.783 125.195 113.356 125.919C113.266 126.072 113.177 126.223 113.085 126.372C111.37 129.185 108.703 131.37 105.601 132.661V132.663Z" fill="#322C39"/>
<path d="M91.8231 132.427C91.8013 132.436 91.7795 132.442 91.7534 132.442C91.3349 132.466 90.9426 132.641 90.5285 132.827C90.4457 132.864 90.2147 132.965 90.1798 132.978C87.2725 134.188 83.8421 133.873 81.2006 132.149C78.5723 130.432 76.8985 127.433 76.8069 124.289C73.3133 123.189 70.6675 121.518 68.9393 119.322C66.8514 116.67 66.2695 113.135 67.4507 110.436C63.5016 109.465 60.2172 106.201 59.23 102.237C58.3408 98.665 58.842 93.5791 61.9978 90.6784C59.5307 89.1494 58.1228 86.4062 56.9961 83.9387C56.1112 82.0028 55.198 79.7541 55.5751 77.5294C55.8649 75.8253 56.85 74.3772 57.87 73.0669C58.0814 72.7956 58.3211 72.4872 58.332 72.1613C58.3408 71.8703 58.1708 71.5794 58.0051 71.2972L57.9899 71.2731C56.7106 69.0944 56.1374 66.9047 56.3313 64.9425C56.4795 63.4397 57.1421 61.9916 58.1468 60.9678C58.2296 60.8847 58.3626 60.8825 58.4454 60.9656C58.5282 61.0488 58.5304 61.1822 58.4476 61.2653C57.5104 62.2213 56.8915 63.5775 56.752 64.9841C56.5667 66.8566 57.1203 68.9566 58.3538 71.0587L58.3669 71.0828C58.5543 71.4022 58.7657 71.7609 58.7527 72.1766C58.7374 72.6403 58.4388 73.0231 58.2013 73.3294C57.214 74.5959 56.2638 75.9916 55.9892 77.6038C55.6318 79.7081 56.4795 81.8016 57.3775 83.7638C58.5173 86.2531 59.9426 89.0291 62.4577 90.4619C62.5187 90.4969 62.5579 90.5581 62.5645 90.6259C62.571 90.6959 62.5427 90.7616 62.4904 90.8075C59.2757 93.555 58.7592 98.6059 59.6375 102.137C60.6074 106.032 63.8852 109.226 67.7951 110.084C67.8583 110.097 67.9127 110.141 67.9411 110.197C67.9694 110.257 67.9694 110.324 67.9411 110.383C66.6857 112.967 67.2197 116.454 69.2705 119.061C70.9683 121.218 73.5945 122.857 77.075 123.933C77.1622 123.959 77.2232 124.04 77.2232 124.134C77.2603 127.146 78.9123 130.156 81.4273 131.799C83.9162 133.424 87.2768 133.731 90.0186 132.589C90.0491 132.576 90.2735 132.479 90.352 132.442C90.7835 132.25 91.2303 132.051 91.725 132.022C91.8405 132.016 91.9408 132.105 91.9473 132.221C91.9517 132.313 91.8972 132.396 91.8166 132.429L91.8231 132.427Z" fill="#322C39"/>
<path d="M79.189 86.3209C79.1607 86.3319 79.1302 86.3384 79.0975 86.3362C75.0503 86.1372 69.4449 85.1528 65.7202 81.5784C63.4755 79.4259 62.9873 77.3763 62.9677 77.2888C62.9415 77.175 63.0134 77.0613 63.1267 77.035C63.2401 77.0088 63.3534 77.0809 63.3796 77.1947C63.3839 77.2144 63.8677 79.2269 66.0341 81.2941C69.665 84.7591 75.1528 85.7194 79.1171 85.9141C79.2348 85.9206 79.3242 86.0191 79.3176 86.1372C79.3133 86.2225 79.261 86.2925 79.1869 86.3231L79.189 86.3209Z" fill="#322C39"/>
<path d="M87.2267 78.2666C87.1548 78.2972 87.0676 78.2841 87.0044 78.2294C86.9172 78.1506 86.9107 78.0172 86.987 77.9297C91.2783 73.1106 93.0392 68.8494 93.7584 66.1238C94.5387 63.1728 94.3011 61.3375 94.2989 61.3178C94.2837 61.2019 94.3643 61.0947 94.4798 61.0794C94.5953 61.0641 94.7021 61.145 94.7174 61.2609C94.7283 61.3375 94.968 63.1794 94.1747 66.2047C93.4446 68.9806 91.6597 73.3184 87.3008 78.2119C87.279 78.2359 87.2529 78.2556 87.2245 78.2666H87.2267Z" fill="#322C39"/>
<path d="M91.579 96.5234C91.494 96.5584 91.3937 96.5344 91.3327 96.46C91.2608 96.3681 91.2739 96.2347 91.3654 96.1625C95.4954 92.8506 100.859 87.4431 102.96 80.4912C104.211 76.3525 103.701 73.605 103.694 73.5787C103.673 73.465 103.747 73.3534 103.862 73.3294C103.978 73.3075 104.087 73.3819 104.111 73.4978C104.132 73.6137 104.647 76.3766 103.365 80.6159C102.188 84.5119 99.1982 90.4291 91.6313 96.495C91.616 96.5081 91.5986 96.5169 91.579 96.5256V96.5234Z" fill="#322C39"/>
<path d="M85.7622 98.9428C85.7447 98.9494 85.7273 98.9538 85.7099 98.9581C81.0895 99.5684 74.7169 99.7762 70.5847 97.2934C68.0719 95.7841 67.5837 94.0078 67.5641 93.9334C67.5336 93.8197 67.6033 93.7038 67.7145 93.6753C67.8278 93.6447 67.9433 93.7125 67.9716 93.8263C67.9782 93.8503 68.4576 95.5369 70.8397 96.9544C74.8695 99.3497 81.1178 99.1375 85.651 98.5381C85.7665 98.5228 85.8733 98.6038 85.8886 98.7197C85.9017 98.8181 85.8472 98.9078 85.76 98.9428H85.7622Z" fill="#322C39"/>
<path d="M99.4598 105.713C99.3922 105.742 99.3137 105.733 99.2505 105.687C99.1568 105.617 99.1394 105.483 99.2091 105.389C104.839 97.9234 110.307 93.7759 110.361 93.7344C110.453 93.6644 110.588 93.6841 110.658 93.7781C110.727 93.8722 110.708 94.0056 110.616 94.0756C110.562 94.1172 105.139 98.2297 99.5469 105.645C99.523 105.676 99.4925 105.7 99.4598 105.713Z" fill="#322C39"/>
<path d="M91.773 116.813C91.7577 116.819 91.7403 116.823 91.7228 116.826C87.826 117.399 82.2337 117.635 77.7201 115.511C74.9958 114.229 73.9693 112.709 73.9257 112.645C73.8604 112.547 73.8865 112.416 73.9846 112.352C74.0827 112.287 74.2134 112.313 74.2766 112.411C74.2875 112.427 75.2988 113.914 77.9315 115.143C82.3448 117.206 87.8348 116.97 91.6596 116.408C91.7751 116.39 91.8819 116.471 91.8994 116.587C91.9146 116.686 91.858 116.778 91.7708 116.815L91.773 116.813Z" fill="#322C39"/>
<path d="M100.558 123.498C100.462 123.537 100.351 123.502 100.297 123.41C100.238 123.309 100.271 123.178 100.371 123.119C111.802 116.277 115.505 106.641 115.542 106.544C115.583 106.435 115.705 106.378 115.814 106.42C115.923 106.461 115.98 106.584 115.938 106.693C115.93 106.717 114.995 109.187 112.645 112.472C110.479 115.5 106.63 119.866 100.589 123.484C100.58 123.489 100.571 123.495 100.56 123.498H100.558Z" fill="#322C39"/>
<path d="M104.318 129.255C102.646 129.951 101.038 130.189 99.7279 130.231C96.9905 130.32 95.0029 129.612 94.9179 129.581C94.8089 129.542 94.7523 129.419 94.7915 129.31C94.8307 129.2 94.9528 129.141 95.0617 129.183C95.0814 129.189 97.0712 129.896 99.73 129.806C102.173 129.723 105.702 128.933 108.639 125.628C108.718 125.541 108.851 125.534 108.938 125.611C109.025 125.689 109.032 125.823 108.956 125.91C107.487 127.562 105.876 128.605 104.318 129.253V129.255Z" fill="#322C39"/>
<path d="M54.5311 34.6391L55.5228 33.8253L58.1206 37.7081L54.5311 34.6391Z" fill="#322C39"/>
<path d="M53.6746 37.8306L53.7487 36.6012L56.9459 37.6775L53.6746 37.8306Z" fill="#322C39"/>
<path d="M81.4491 43.3059C81.5733 43.1922 82.456 42.3631 82.6783 41.2081C82.7306 40.9391 82.8396 40.3266 82.4952 39.8912C82.3884 39.7578 82.2838 39.6638 82.1356 39.5981C81.7193 39.4144 81.2813 39.2831 80.8323 39.2044C80.8323 38.4606 80.6994 37.0147 80.1829 36.4809C79.6663 35.9472 78.6856 35.8312 78.2149 36.4044C78.5701 35.8662 78.7575 34.6784 78.3413 34.1862C77.925 33.6941 77.1753 33.5212 76.5868 33.7859C76.7786 32.9547 76.4626 32.0272 75.8044 31.4891C75.1462 30.9487 74.1786 30.8241 73.4049 31.1763C73.2262 31.2572 73.0409 31.3666 72.847 31.3338C72.5789 31.2878 72.4307 31.0056 72.2759 30.7825C71.827 30.1306 70.977 29.785 70.2011 29.9359C69.8633 30.0016 69.5277 30.1547 69.1899 30.0978C68.8456 30.0409 68.5775 29.7828 68.2854 29.5903C67.1434 28.8466 65.4152 29.2622 64.7352 30.4456C63.7501 30.31 62.9481 30.4106 62.3509 30.5616C58.1839 31.6094 56.7345 36.8222 56.6147 37.2816C53.825 38.5109 53.2083 39.4056 53.1952 40.0116C53.1908 40.2063 53.2497 40.635 53.0339 41.1425C52.8639 41.5406 52.4999 41.8206 52.2798 42.1903C51.8156 42.9712 52.1578 44.1197 52.9729 44.5134C52.4193 45.1391 51.9682 45.9287 52.0248 46.7644C52.0815 47.6 52.8225 48.4137 53.6485 48.2978C53.0927 49.2384 53.5809 50.6319 54.6031 51.0147C54.2304 51.6906 54.9147 52.4847 55.6165 52.8019C57.3927 53.6091 59.6353 53.2437 60.9168 52.8325C60.9168 52.8325 76.5367 47.8144 81.4513 43.3059H81.4491Z" fill="#A55D41"/>
<path d="M85.1868 44.5222C85.9212 45.6181 85.6314 47.1056 84.5395 47.8428C83.4476 48.58 81.9656 48.2891 81.2311 47.1931C80.4967 46.0972 80.7865 44.6097 81.8784 43.8725C82.9703 43.1353 84.4523 43.4263 85.1868 44.5222Z" fill="#FDA67D"/>
<path d="M84.0142 45.2309C84.4327 45.8566 84.2692 46.7053 83.6459 47.1253C83.0226 47.5453 82.177 47.3813 81.7586 46.7556C81.3401 46.13 81.5036 45.2813 82.1269 44.8613C82.7502 44.4413 83.5958 44.6053 84.0142 45.2309Z" fill="#D85920"/>
<path d="M84.8577 47.8581C84.7748 47.8931 84.679 47.8713 84.6179 47.8013C84.5417 47.7138 84.5504 47.5781 84.6397 47.5016C85.4635 46.7819 85.6248 45.5525 85.0146 44.6403C84.6898 44.1569 84.1973 43.8288 83.6285 43.7172C83.0597 43.6056 82.4799 43.7238 81.9983 44.0475C81.9024 44.1131 81.7694 44.0869 81.7041 43.9906C81.6387 43.8944 81.6648 43.7609 81.7607 43.6953C82.3361 43.3059 83.027 43.1659 83.7091 43.2994C84.3891 43.4328 84.9775 43.8244 85.3655 44.4019C86.0956 45.4913 85.9038 46.9613 84.9187 47.8209C84.9013 47.8363 84.8816 47.8494 84.8598 47.8559L84.8577 47.8581Z" fill="#322C39"/>
<path d="M55.0019 57.6603C55.5402 58.8656 56.9525 59.4059 58.1533 58.8656C59.3542 58.3253 59.8925 56.9078 59.3542 55.7025C58.8159 54.4972 57.4036 53.9569 56.2027 54.4972C55.0019 55.0375 54.4636 56.455 55.0019 57.6603Z" fill="#FDA67D"/>
<path d="M58.5783 55.8053C58.9967 56.4309 58.8333 57.2797 58.21 57.6997C57.5866 58.1197 56.741 57.9556 56.3226 57.33C55.9041 56.7044 56.0676 55.8556 56.6909 55.4356C57.3142 55.0156 58.1598 55.1797 58.5783 55.8053Z" fill="#D85920"/>
<path d="M57.0898 59.2638C57.0614 59.2769 57.0287 59.2812 56.9939 59.2791C56.0371 59.2112 55.2002 58.6228 54.8101 57.7456C54.2238 56.4353 54.8101 54.8909 56.1156 54.3025C56.5732 54.0969 57.0767 54.0269 57.5714 54.1034C57.6869 54.1209 57.7654 54.2303 57.7479 54.3462C57.7305 54.4622 57.6215 54.5409 57.506 54.5234C57.0919 54.46 56.6713 54.5169 56.2877 54.6897C55.1937 55.1819 54.7033 56.4747 55.1937 57.5728C55.5227 58.3078 56.2223 58.7978 57.0222 58.8569C57.1377 58.8656 57.2271 58.9662 57.2183 59.0844C57.2118 59.1675 57.1595 59.2353 57.0876 59.2659L57.0898 59.2638Z" fill="#322C39"/>
<path d="M75.0729 62.9831C81.9341 60.1305 84.9127 51.5576 81.7256 43.8349C78.5386 36.1122 70.3929 32.1641 63.5316 35.0167C56.6704 37.8693 53.6918 46.4422 56.8788 54.1649C60.0659 61.8876 68.2116 65.8357 75.0729 62.9831Z" fill="#F99269"/>
<path d="M63.785 34.9169C57.8831 38.2681 55.4901 46.2087 58.4628 53.4122C61.6099 61.04 69.5975 64.9862 76.4038 62.3306C82.3056 58.9794 84.6986 51.0387 81.7259 43.8353C78.5788 36.2075 70.5913 32.2612 63.785 34.9169Z" fill="#FDA67D"/>
<path d="M75.1549 63.1794C70.3384 65.1831 64.7657 63.9712 60.6139 60.0184C60.5289 59.9375 60.5267 59.8041 60.6052 59.7187C60.6858 59.6334 60.8187 59.6291 60.9037 59.71C64.9335 63.5447 70.3297 64.7237 74.9915 62.7856C75.9482 62.3875 76.8483 61.8669 77.6678 61.2369C77.7593 61.1669 77.8923 61.1844 77.9642 61.2762C78.0361 61.3703 78.0165 61.5016 77.925 61.5738C77.075 62.2256 76.1422 62.7659 75.1528 63.1772L75.1549 63.1794Z" fill="#322C39"/>
<path d="M73.006 57.8659C71.9054 58.3231 70.9334 58.0322 70.5542 57.8791C70.3733 57.8047 70.2861 57.5991 70.358 57.4175C70.4321 57.2359 70.637 57.1484 70.8179 57.2206C71.1295 57.3475 71.9577 57.5903 72.8687 57.1506C73.7819 56.7109 74.2505 55.8469 74.4096 55.4947C74.4902 55.3153 74.6994 55.2366 74.8781 55.3197C75.0568 55.4006 75.1353 55.6106 75.0525 55.79C74.8149 56.3128 74.2548 57.2688 73.1738 57.7916C73.1172 57.82 73.0605 57.8441 73.0038 57.8681L73.006 57.8659Z" fill="#D85920"/>
<path d="M72.8818 47.425C73.3002 47.4206 73.6446 47.4053 73.9628 47.355C74.2788 47.3047 74.5599 47.2194 74.828 47.1056C75.0939 46.9919 75.3489 46.8431 75.6104 46.6484C75.8741 46.4516 76.1378 46.2197 76.4495 45.9419C76.5192 46.3641 76.4015 46.7819 76.1858 47.1472C75.97 47.5147 75.6191 47.8253 75.2072 48.0003C74.7953 48.1753 74.3311 48.2191 73.9105 48.1141C73.492 48.0091 73.1128 47.7816 72.8818 47.425Z" fill="#322C39"/>
<path d="M61.9825 51.9488C62.401 51.9488 62.7475 51.94 63.0657 51.8919C63.3817 51.8438 63.6607 51.7563 63.9266 51.6447C64.1925 51.5331 64.4431 51.3734 64.7068 51.1766C64.9727 50.9775 65.2364 50.7434 65.5502 50.4656C65.6178 50.89 65.5001 51.3056 65.2865 51.6709C65.073 52.0363 64.733 52.3622 64.3123 52.5328C64.2077 52.5744 64.1031 52.6159 63.9941 52.6422C63.8852 52.6662 63.7762 52.6925 63.6651 52.6991C63.4428 52.7144 63.2204 52.7012 63.009 52.6487C62.5884 52.5416 62.2114 52.3075 61.9847 51.9466L61.9825 51.9488Z" fill="#322C39"/>
<path d="M76.578 43.8856C76.4059 43.9578 76.2032 43.925 76.0593 43.7894C74.5163 42.3194 72.7575 43.3519 72.6834 43.3956C72.4546 43.5334 72.1582 43.4612 72.0187 43.2316C71.8814 43.0019 71.9511 42.7066 72.18 42.5666C73.0212 42.0503 75.0546 41.4925 76.7262 43.085C76.9202 43.2687 76.9267 43.5772 76.7437 43.7719C76.6957 43.8222 76.639 43.8616 76.578 43.8856Z" fill="#C77955"/>
<path d="M60.6989 50.7237C60.6487 50.7456 60.5921 50.7566 60.5354 50.7609C60.2673 50.7719 60.0428 50.5641 60.032 50.2972C59.9317 47.9872 61.6861 46.8125 62.6255 46.515C62.8804 46.4341 63.1529 46.5762 63.2313 46.8322C63.312 47.0881 63.1703 47.3594 62.9175 47.4403C62.8281 47.4687 60.9059 48.125 60.9974 50.2534C61.0061 50.4634 60.8819 50.6472 60.6989 50.7237Z" fill="#C77955"/>
<path d="M71.3606 53.7316C70.7089 54.0028 70.114 53.935 69.8067 53.865C69.7021 53.8409 69.6345 53.7359 69.6585 53.6309C69.6824 53.5259 69.7871 53.4581 69.8917 53.4822C70.1706 53.5456 70.7286 53.6069 71.3257 53.3159C71.9795 52.9987 72.2803 52.4431 72.3784 52.22C72.422 52.1216 72.5375 52.0756 72.6355 52.1194C72.7336 52.1631 72.7794 52.2791 72.7358 52.3775C72.6203 52.64 72.2672 53.2941 71.4957 53.6681C71.4499 53.69 71.4042 53.7097 71.3584 53.7294L71.3606 53.7316Z" fill="#D85920"/>
<path d="M56.6212 50.1266C57.6543 50.0828 57.9877 48.6894 57.8417 47.6612C57.6085 46.0184 56.9351 44.4741 56.2507 42.9625C57.0092 42.3456 57.7654 41.7287 58.5239 41.1097C59.0404 40.6875 59.6157 40.0881 59.4065 39.4516C60.7752 39.8584 62.3858 38.8784 62.6626 37.4719C63.7196 38.2834 65.5045 37.7584 65.9578 36.5006C66.6683 37.3953 68.4162 36.8528 68.5012 35.7109C69.1616 36.015 70.0072 35.8597 70.5172 35.3391C70.5433 36.5837 72.4285 37.2553 73.2327 36.3059C73.7209 37.1481 74.961 37.4325 75.7652 36.8878C76.2229 37.5791 76.334 38.4541 76.7852 39.1497C77.2363 39.8453 78.3326 40.2631 78.8622 39.6244C78.945 40.2741 79.043 40.9631 79.4702 41.4575C79.8974 41.9519 80.7757 42.1028 81.1745 41.5844C81.4448 41.2322 81.3946 40.7312 81.2857 40.3003C80.7452 38.1434 79.1586 36.3891 77.3736 35.0722C73.1673 31.9659 67.4072 30.8897 62.5296 32.7578C57.6499 34.6259 53.9689 39.585 54.0626 44.8262C54.0866 46.2153 54.3699 47.5694 54.6532 48.9234C54.821 49.7219 54.8101 51.2947 55.27 51.9706C56.7803 54.1931 58.7919 50.5291 56.6256 50.1244L56.6212 50.1266Z" fill="#874430"/>
<path d="M62.5252 32.7622C57.3688 34.7747 54.954 39.1869 54.3372 40.7181C53.8272 41.9869 53.679 43.1681 53.679 43.1681C53.5875 43.9009 53.6223 44.3472 53.971 47.1494C54.2456 49.3456 54.3459 50.0544 54.7556 51.0322C55.0477 51.73 55.5097 52.7975 56.2049 52.8194C56.6844 52.8347 57.0854 52.3469 57.1661 52.2506C57.5823 51.7453 57.5671 51.1613 57.5584 51.0125C57.5431 50.9075 57.5017 50.7281 57.3753 50.5553C57.2249 50.3519 56.9808 50.1966 56.6234 50.1288C57.0898 50.1091 57.4145 49.8138 57.615 49.4003C57.7 49.0547 57.785 48.7091 57.8678 48.3613C57.8831 48.1228 57.8744 47.8844 57.8439 47.6634C57.6107 46.0206 56.9372 44.4763 56.2529 42.9647C56.4425 42.8094 56.6343 42.6541 56.8239 42.4988C57.4472 41.8797 58.1555 41.0616 58.8115 40.0116C59.1755 39.4275 59.4653 38.8675 59.6942 38.3534C61.0629 38.7603 62.6734 37.7803 62.9502 36.3738C64.0072 37.1853 65.7922 36.6603 66.2455 35.4025C66.956 36.2972 68.7039 35.7547 68.7889 34.6128C69.4492 34.9169 70.2949 34.7616 70.8048 34.2409C70.831 35.4856 72.7162 36.1572 73.5204 35.2078C74.0086 36.05 75.2487 36.3344 76.0529 35.7897C76.5105 36.4809 76.6217 37.3559 77.0728 38.0516C77.524 38.7472 78.6202 39.165 79.1498 38.5263C79.1455 38.7713 79.1629 39.5981 79.7579 40.3594C80.4705 41.2716 81.484 41.4159 81.6866 41.44C81.521 40.6897 81.2006 39.6091 80.5294 38.4519C80.5294 38.4519 79.4462 36.5881 77.3758 35.0744C75.8218 33.9391 69.519 30.0322 62.5318 32.76L62.5252 32.7622Z" fill="#A55D41"/>
<path d="M55.695 52.9988C55.6426 53.0206 55.5816 53.0206 55.5271 52.9966C54.967 52.7428 54.5028 52.2681 54.3459 51.7912C54.2696 51.5637 54.2653 51.3363 54.3263 51.1263C53.8751 50.8922 53.5199 50.47 53.3325 49.9384C53.1625 49.455 53.1581 48.9519 53.315 48.5122C53.0404 48.4772 52.7724 48.3591 52.537 48.1644C52.1207 47.8253 51.8505 47.3091 51.8134 46.7819C51.7633 46.0709 52.0532 45.3097 52.6481 44.5703C52.319 44.3362 52.0662 43.9797 51.942 43.5597C51.7873 43.0434 51.8439 42.5053 52.0967 42.0831C52.2014 41.9081 52.3299 41.7572 52.4542 41.6106C52.6089 41.4291 52.7549 41.2562 52.8399 41.0594C53.0012 40.6809 52.9925 40.3528 52.9859 40.1362C52.9859 40.0859 52.9838 40.0444 52.9859 40.0072C53.0056 39.0841 54.165 38.1303 56.5319 37.0869C56.6321 37.0366 56.7629 37.0869 56.8108 37.1962C56.8588 37.3034 56.8108 37.4281 56.7018 37.4762C53.9994 38.6662 53.4196 39.515 53.4087 40.0159C53.4087 40.0466 53.4087 40.0816 53.4087 40.1231C53.4153 40.3616 53.4262 40.7619 53.2279 41.2256C53.1189 41.4838 52.9445 41.6872 52.7767 41.8862C52.659 42.0262 52.5479 42.1575 52.4607 42.2997C52.2689 42.6212 52.2275 43.0347 52.3474 43.4372C52.4672 43.8375 52.7288 44.1613 53.0644 44.3253C53.1232 44.3538 53.1668 44.4106 53.1799 44.4741C53.193 44.5397 53.1756 44.6075 53.1298 44.6556C52.6895 45.1522 52.1774 45.92 52.2362 46.7513C52.2646 47.1581 52.4825 47.5716 52.805 47.8341C53.0535 48.0375 53.3434 48.1272 53.6202 48.09C53.7008 48.0791 53.7814 48.1141 53.825 48.1819C53.8708 48.2497 53.873 48.3372 53.8316 48.4072C53.5984 48.8009 53.5635 49.3084 53.7357 49.7963C53.9078 50.2841 54.25 50.6559 54.6793 50.8156C54.736 50.8375 54.7818 50.8834 54.8036 50.9403C54.8254 50.9972 54.8188 51.0628 54.7905 51.1175C54.7011 51.2794 54.6881 51.4609 54.7513 51.6556C54.8711 52.0209 55.2547 52.4038 55.7059 52.6094C55.8126 52.6575 55.8606 52.7844 55.8105 52.8894C55.7865 52.9397 55.7473 52.9791 55.6993 52.9988H55.695Z" fill="#322C39"/>
<path d="M77.9424 34.0134C77.8879 34.0353 77.8269 34.0353 77.7703 34.0091C77.4172 33.8406 77.0053 33.8319 76.674 33.9784C76.6021 34.0113 76.5149 34.0003 76.4539 33.9478C76.3929 33.8975 76.3645 33.8144 76.382 33.7356C76.5563 32.9788 76.2708 32.1409 75.6715 31.6509C75.0721 31.1588 74.1982 31.0472 73.4942 31.3666L73.4223 31.3994C73.2545 31.4781 73.0453 31.5787 72.8121 31.5394C72.4917 31.4847 72.3108 31.2134 72.167 30.9947C72.1452 30.9619 72.1234 30.9291 72.1038 30.8984C71.7006 30.3166 70.9356 30.0037 70.2426 30.1394C70.151 30.1569 70.0595 30.1831 69.9614 30.2094C69.7042 30.2794 69.4405 30.3516 69.155 30.3034C68.8477 30.2531 68.608 30.0781 68.377 29.9119C68.3072 29.8616 68.2397 29.8113 68.1699 29.7675C67.673 29.4438 67.0236 29.3475 66.3872 29.5006C65.7486 29.6537 65.2147 30.0366 64.9183 30.5506C64.8747 30.625 64.7918 30.6666 64.7068 30.6556C63.9114 30.5462 63.1355 30.5834 62.4032 30.7672C61.1784 31.0756 59.4152 31.9813 57.9703 34.5559C57.9136 34.6588 57.7829 34.6937 57.6826 34.6369C57.5802 34.58 57.5453 34.4509 57.602 34.3481C58.441 32.8541 59.9361 30.9509 62.3008 30.3559C63.044 30.17 63.8264 30.1241 64.6284 30.2181C64.9924 29.6647 65.5917 29.2578 66.2891 29.0894C67.0388 28.9078 67.8082 29.0259 68.401 29.4131C68.4772 29.4634 68.5513 29.5159 68.6254 29.5706C68.8259 29.7172 69.0156 29.8528 69.2248 29.8878C69.4187 29.9206 69.6301 29.8638 69.8524 29.8025C69.9527 29.7763 70.0573 29.7478 70.1619 29.7259C71.0141 29.5597 71.9556 29.9425 72.4503 30.66C72.4743 30.6928 72.4961 30.7278 72.52 30.7628C72.6356 30.9356 72.7423 31.0997 72.8818 31.1237C72.9843 31.1412 73.1085 31.0822 73.2414 31.0188L73.3177 30.9837C74.1611 30.5966 75.2182 30.7344 75.9374 31.325C76.5672 31.8412 76.9072 32.6747 76.8462 33.4841C77.2101 33.4119 77.6024 33.4622 77.9512 33.6284C78.0558 33.6787 78.1015 33.8056 78.0514 33.9106C78.0274 33.9588 77.9882 33.9959 77.9424 34.0156V34.0134Z" fill="#322C39"/>
<path d="M81.5298 43.5028C81.4491 43.5356 81.3554 43.5181 81.2922 43.4503C81.2137 43.3628 81.2203 43.2294 81.3053 43.1506C81.4644 43.0041 82.2664 42.2253 82.4691 41.1709C82.5105 40.9587 82.6195 40.3944 82.3274 40.0269C82.2315 39.9066 82.1531 39.8409 82.0485 39.795C81.6474 39.6178 81.2268 39.4909 80.7953 39.4166C80.695 39.3991 80.6209 39.3116 80.6209 39.2087C80.6209 38.2594 80.4335 37.0475 80.0325 36.6319C79.9257 36.5225 79.7906 36.4284 79.638 36.3606C79.5312 36.3125 79.4833 36.1878 79.5312 36.0806C79.5792 35.9734 79.7034 35.9253 79.8102 35.9734C80.0107 36.0631 80.1916 36.1878 80.3354 36.3366C80.9282 36.9469 81.0263 38.4869 81.0416 39.0316C81.4469 39.1147 81.8414 39.2416 82.2206 39.4078C82.3906 39.4822 82.5214 39.5894 82.6587 39.7644C83.0706 40.285 82.9355 40.9894 82.8854 41.2541C82.6565 42.4397 81.7673 43.3059 81.5908 43.4678C81.5712 43.4853 81.5516 43.4984 81.5298 43.5072V43.5028Z" fill="#322C39"/>
<path opacity="0.37" d="M65.6069 54.3638C66.1648 55.1206 65.7181 56.4025 64.6066 57.2294C63.4951 58.0541 62.1438 58.1087 61.5837 57.3519C61.0258 56.595 61.4726 55.3131 62.5841 54.4863C63.6956 53.6616 65.0468 53.6069 65.6069 54.3638Z" fill="#F73C51"/>
<path opacity="0.37" d="M80.586 49.8313C80.6122 50.7719 79.5159 51.5681 78.1342 51.6097C76.7524 51.6491 75.6126 50.9184 75.5843 49.9778C75.5581 49.0372 76.6544 48.2409 78.0361 48.1994C79.4178 48.16 80.5577 48.8906 80.586 49.8313Z" fill="#F73C51"/>
</g>
<defs>
<clipPath id="clip0_151_1793">
<rect width="140" height="168" fill="white"/>
</clipPath>
</defs>
</svg>
