<svg width="255" height="142" viewBox="0 0 255 142" fill="none" xmlns="http://www.w3.org/2000/svg">
<path d="M166.5 49.5C85.8945 122.796 4.339 174.502 -40.4857 151.5L-40.4858 215.44L437.514 207.94L437.514 -14.0597C392.606 -18.8315 247.106 -23.7962 166.5 49.5Z" fill="#FFF1D6"/>
<path d="M220 73.5C132.484 138.389 -3.19378 185.36 -45.5 158L-40.9857 220.94L383.828 291.157L470.48 56.654C426.271 47.4257 307.516 8.61106 220 73.5Z" fill="#7F75BC"/>
<path d="M190.048 38.2687L344.04 133.033C344.696 133.436 344.669 134.398 343.992 134.764L225.007 199.174C224.701 199.339 224.331 199.334 224.029 199.159L74.9365 112.765C74.288 112.389 74.2682 111.459 74.9001 111.056L188.986 38.2773C189.309 38.0712 189.721 38.0679 190.048 38.2687Z" fill="black" fill-opacity="0.46"/>
<path d="M344.644 104.827L230.319 170.733L80.0142 83.9798L194.34 18.0745L344.644 104.827Z" fill="#3C2415"/>
<path opacity="0.3" d="M344.644 104.827L230.319 170.733L80.0142 83.9798L194.34 18.0745L344.644 104.827Z" fill="#1A1242"/>
<path d="M337.247 104.491L230.319 166.025V129.71L337.247 68.1757V104.491Z" fill="white"/>
<path d="M230.319 166.025L88.0842 83.9795V47.6643L230.319 129.71V166.025Z" fill="#C29B5C"/>
<path d="M342.143 70.3267C342.81 70.7117 342.81 71.6745 342.143 72.0591L229.819 136.811C229.509 136.989 229.128 136.989 228.819 136.81L80.5157 51.2123C79.8487 50.8273 79.8489 49.8645 80.5162 49.4799L192.84 -15.2716C193.149 -15.4499 193.53 -15.4498 193.839 -15.2713L342.143 70.3267Z" fill="#FCC660"/>
<path d="M203.419 25.4718L185.597 35.5594L169.121 25.8081L158.025 32.1968L174.837 41.9481L157.016 52.0357L168.112 58.4245L185.597 48.3369L227.293 72.2108L238.053 65.822L196.694 41.9481L214.179 31.5243L203.419 25.4718Z" fill="#140C40"/>
<path d="M344.644 74.5648L234.018 138.789V168.715L344.644 104.827V109.199L230.319 175.44V170.733V136.099L344.644 70.1935V74.5648Z" fill="#140C40"/>
<path d="M230.319 140.806V170.733V173.708C230.319 174.478 229.486 174.959 228.819 174.574L80.5143 88.9757C80.2048 88.7971 80.0142 88.4669 80.0142 88.1096V83.9795V54.0531V51.0774C80.0142 50.3076 80.8474 49.8265 81.5141 50.2113L229.819 135.81C230.128 135.989 230.319 136.319 230.319 136.676V140.806Z" fill="#140C40"/>
<path d="M211.825 164.68L200.729 158.291V118.95L211.825 125.675V164.68Z" fill="#362A79"/>
<path d="M106.578 104.155L95.4818 97.4298V58.4246L106.578 65.1496V104.155Z" fill="#362A79"/>
<path d="M175 54.5V42L157 52L168 58.5L175 54.5Z" fill="#362A79"/>
<path d="M173.5 42L165 37L170 42L163.5 47L173.5 42Z" fill="#FFE0A5"/>
</svg>
