<svg width="174" height="158" viewBox="0 0 174 158" fill="none" xmlns="http://www.w3.org/2000/svg">
<g filter="url(#filter0_d_822_9959)">
<path fill-rule="evenodd" clip-rule="evenodd" d="M150.376 35.5638L115.319 38.3053L14.4172 106.06L14.3508 109.151L18.0725 114.484L23.3393 120.316L28.8887 125.367L32.8596 127.759L35.2355 128.606L37.3123 128.523L39.0237 128.208H40.5024L42.0808 128.573L44.0579 129.271L45.4536 129.404L112.477 134.92L150.974 36.8266L150.376 35.5638Z" fill="url(#paint0_linear_822_9959)"/>
<path fill-rule="evenodd" clip-rule="evenodd" d="M111.746 133.857L150.376 35.5638L151.572 38.0727L113.225 135.983L111.746 133.857Z" fill="url(#paint1_radial_822_9959)"/>
<g style="mix-blend-mode:screen">
<path fill-rule="evenodd" clip-rule="evenodd" d="M98.1722 132.744C99.8503 132.827 110.65 133.707 111.464 133.142C111.929 132.827 112.112 132.079 112.345 131.514L130.405 86.405L112.61 132.644C112.494 132.96 112.311 133.325 112.295 133.641C112.278 134.189 112.693 135.036 113.009 135.684C112.544 134.987 111.896 134.405 111.547 134.222C110.716 133.807 99.9666 132.943 98.1722 132.76V132.744Z" fill="url(#paint2_radial_822_9959)"/>
</g>
<path fill-rule="evenodd" clip-rule="evenodd" d="M90.978 108.004L28.4235 106.06C30.9157 112.191 36.3985 118.538 42.33 122.409C44.4401 122.326 45.0881 123.04 47.0486 123.223C66.8534 125.117 86.6581 127.011 106.463 128.905C103.871 121.08 95.2314 111.792 90.9614 108.004H90.978Z" fill="url(#paint3_radial_822_9959)"/>
<path fill-rule="evenodd" clip-rule="evenodd" d="M111.962 65.1215L90.9946 108.004C91.3102 110.729 92.44 113.537 94.1846 116.328L95.3144 115.63L95.0153 117.574C95.8627 118.804 96.8263 120.017 97.8897 121.196L98.87 120.748L98.6706 122.044C100.216 123.688 101.944 125.3 103.821 126.829L104.984 126.463V127.759C105.466 128.158 105.981 128.54 106.496 128.922C118.143 98.7996 129.807 68.677 141.454 38.5711C140.357 37.7072 139.277 36.7269 138.247 35.6303L136.835 37.5244L137.35 34.65C136.519 33.6864 135.721 32.6397 134.957 31.4766L133.877 32.2741L134.176 30.2471C133.877 29.7487 133.595 29.2503 133.312 28.7186L132.548 29.3333L132.664 27.4559C132.282 26.6916 131.933 25.8775 131.584 25.0467L111.962 65.1547V65.1215Z" fill="url(#paint4_radial_822_9959)"/>
<path fill-rule="evenodd" clip-rule="evenodd" d="M132.183 28.702L124.938 48.2243L132.598 30.3136L133.279 28.702L132.531 29.3001L132.648 27.4226L132.183 28.702Z" fill="#72574C"/>
<path fill-rule="evenodd" clip-rule="evenodd" d="M133.312 32.4237L121.898 62.3136L133.944 33.8027L134.924 31.4766L133.877 32.2575L134.176 30.2305L133.329 32.4403L133.312 32.4237Z" fill="#72574C"/>
<path fill-rule="evenodd" clip-rule="evenodd" d="M96.5273 113.587L109.138 80.9886L104.785 91.2897L103.04 95.5431C102.575 96.6729 102.11 97.7196 101.645 98.7165L95.7298 112.706L94.2012 116.328L95.331 115.647L95.032 117.508L96.5439 113.587H96.5273Z" fill="#72574C"/>
<path fill-rule="evenodd" clip-rule="evenodd" d="M119.622 68.0623L99.5345 117.142L98.521 119.601L97.873 121.18L98.8533 120.731L98.6539 122.01L100.216 118.006L119.622 68.0457V68.0623Z" fill="#72574C"/>
<path style="mix-blend-mode:screen" fill-rule="evenodd" clip-rule="evenodd" d="M106.264 94.9782C112.112 82.5836 116.764 71.9169 120.652 59.1069L106.264 94.9782Z" fill="url(#paint5_radial_822_9959)"/>
<path fill-rule="evenodd" clip-rule="evenodd" d="M104.901 98.2015C108.756 88.1661 112.511 78.1973 116.515 68.2284C118.392 63.5431 120.502 58.8577 122.529 54.2388C120.685 59.2565 118.924 64.2243 116.93 69.1921C113.042 78.8785 108.939 88.5815 104.901 98.2015Z" fill="#72574C"/>
<path style="mix-blend-mode:multiply" fill-rule="evenodd" clip-rule="evenodd" d="M100.399 118.255L132.515 39.784L135.555 32.3406C135.356 32.0582 135.14 31.7591 134.941 31.46L133.861 32.2575L134.16 30.2305C133.861 29.7321 133.578 29.2337 133.296 28.702L132.531 29.3167L132.648 27.4393C132.598 27.3396 132.548 27.2399 132.498 27.1402C132.183 26.459 131.867 25.7612 131.568 25.0301L111.946 65.1381L90.978 108.021C91.2936 110.746 92.4235 113.553 94.168 116.345L95.2978 115.647L94.9987 117.591C95.8461 118.82 96.8097 120.033 97.8731 121.213L98.8534 120.764L98.654 122.06C98.654 122.06 98.7371 122.16 98.7869 122.193L100.399 118.255Z" fill="url(#paint6_radial_822_9959)"/>
<path style="mix-blend-mode:multiply" fill-rule="evenodd" clip-rule="evenodd" d="M90.978 108.004L28.4235 106.06C30.1182 110.214 33.1753 114.484 36.8305 117.99L98.7703 122.193C98.7703 122.193 98.6872 122.093 98.6374 122.06L98.8368 120.764L97.8565 121.213C96.7931 120.017 95.8295 118.804 94.9821 117.591L95.2812 115.647L94.1514 116.345C92.4069 113.553 91.2771 110.746 90.9614 108.021L90.978 108.004Z" fill="url(#paint7_radial_822_9959)"/>
<path fill-rule="evenodd" clip-rule="evenodd" d="M104.519 112.906C106.995 106.177 109.437 99.4642 112.079 92.7851C115.717 83.5639 119.555 74.3925 123.36 65.2378C119.854 74.5255 116.365 83.8629 112.727 93.1007C110.102 99.7466 107.294 106.309 104.536 112.906H104.519Z" fill="#72574C"/>
<path fill-rule="evenodd" clip-rule="evenodd" d="M136.436 37.0426L118.774 83.514L137.383 37.7072L138.23 35.6303L136.918 37.4081L136.835 37.5078L136.851 37.3583L137.35 34.6335L136.436 37.0426Z" fill="#72574C"/>
<path fill-rule="evenodd" clip-rule="evenodd" d="M123.377 78.513L104.652 124.752L104.253 125.732L103.805 126.829L104.968 126.463L104.951 127.709L105.449 126.347L123.377 78.513Z" fill="#72574C"/>
<g style="mix-blend-mode:multiply">
<path fill-rule="evenodd" clip-rule="evenodd" d="M54.2594 113.969L94.9988 117.591L95.2978 115.647L94.168 116.328L54.2428 113.969H54.2594Z" fill="#BFAA97"/>
</g>
<g style="mix-blend-mode:multiply">
<path fill-rule="evenodd" clip-rule="evenodd" d="M97.873 121.213L70.8076 119.418L98.6539 122.06L98.8533 120.764L97.873 121.213Z" fill="#BFAA97"/>
</g>
<g style="mix-blend-mode:multiply">
<path fill-rule="evenodd" clip-rule="evenodd" d="M103.788 126.829L57.4328 122.957L104.934 127.742L104.951 126.447L103.788 126.812V126.829Z" fill="#BFAA97"/>
</g>
<g style="mix-blend-mode:multiply">
<path fill-rule="evenodd" clip-rule="evenodd" d="M30.5003 110.147L73.8814 112.789L30.0184 109.317C30.168 109.599 30.3341 109.865 30.5003 110.147Z" fill="#BFAA97"/>
</g>
<g style="mix-blend-mode:multiply">
<path fill-rule="evenodd" clip-rule="evenodd" d="M61.5698 116.727L33.3912 114.251C33.6072 114.517 33.8232 114.783 34.0558 115.049L61.5698 116.744V116.727Z" fill="#BFAA97"/>
</g>
<g style="mix-blend-mode:multiply">
<path fill-rule="evenodd" clip-rule="evenodd" d="M78.3341 121.828L36.8138 117.973C37.0797 118.222 37.3455 118.488 37.6113 118.721L78.3341 121.828Z" fill="#BFAA97"/>
</g>
<path style="mix-blend-mode:screen" opacity="0.5" fill-rule="evenodd" clip-rule="evenodd" d="M96.5273 113.587L95.0153 117.508L60.872 114.55L95.5138 118.289L97.0091 114.118L105.632 90.0768L96.5439 113.587H96.5273Z" fill="url(#paint8_radial_822_9959)"/>
<path fill-rule="evenodd" clip-rule="evenodd" d="M137.233 8L72.519 14.6957C71.6882 14.7788 71.4722 14.9782 70.7578 15.2939C69.4452 15.892 69.2957 15.9585 67.8668 15.7757C66.2884 15.5763 64.4774 15.3936 63.0153 16.1578C62.2012 16.5898 61.6363 17.3209 60.9883 18.4507L12.2407 105.446L14.7329 104.748L16.4774 104.914L19.6176 105.811L21.2292 105.861L23.5387 105.379L25.2999 105.279L94.683 108.935L137.881 9.3458L137.233 8Z" fill="url(#paint9_linear_822_9959)"/>
<mask id="mask0_822_9959" style="mask-type:luminance" maskUnits="userSpaceOnUse" x="12" y="8" width="126" height="101">
<path d="M137.233 8L72.519 14.6957C71.6882 14.7788 71.4722 14.9782 70.7578 15.2939C69.4452 15.892 69.2957 15.9585 67.8668 15.7757C66.2884 15.5763 64.4774 15.3936 63.0153 16.1578C62.2012 16.5898 61.6363 17.3209 60.9883 18.4507L12.2407 105.446L14.7329 104.748L16.4774 104.914L19.6176 105.811L21.2292 105.861L23.5387 105.379L25.2999 105.279L94.683 108.935L137.881 9.3458L137.233 8Z" fill="white"/>
</mask>
<g mask="url(#mask0_822_9959)">
<path style="mix-blend-mode:screen" opacity="0.5" d="M113.587 54.634C135.992 32.2293 135.992 -4.09578 113.587 -26.5004C91.1822 -48.9051 54.8571 -48.9051 32.4524 -26.5004C10.0478 -4.09579 10.0478 32.2293 32.4524 54.634C54.8571 77.0387 91.1822 77.0387 113.587 54.634Z" fill="url(#paint10_radial_822_9959)"/>
</g>
<path fill-rule="evenodd" clip-rule="evenodd" d="M117.578 11.5389L117.096 13.2503L103.206 13.8152L117.578 11.5389Z" fill="url(#paint11_radial_822_9959)"/>
<path fill-rule="evenodd" clip-rule="evenodd" d="M117.445 12.0374L103.206 13.8152L117.578 11.5389L117.445 12.0374Z" fill="#CC6633"/>
<path fill-rule="evenodd" clip-rule="evenodd" d="M38.0268 87.5514L37.4951 86.6708L34.8367 87.5182L26.0807 101.774L26.6124 102.654L41.7485 103.219L43.493 99.8629L42.9613 98.9823C42.5958 99.6802 42.0808 99.73 41.9146 99.7134C36.3819 98.6999 34.9032 93.3499 38.0268 87.568V87.5514ZM92.2074 105.08L74.3466 104.415L73.8149 103.535L76.0247 100.86C83.2022 101.076 92.573 95.244 95.763 88.1329L99.1192 87.2856L99.6508 88.1661L92.1908 105.08H92.2074ZM117.877 11.6386L116.116 13.3499L116.648 14.2305C121.599 13.7155 126.002 15.8588 125.636 20.3115C125.586 20.893 125.088 21.7404 124.291 22.3385L124.822 23.2191L128.444 22.9034L134.176 9.92731L133.645 9.04673L117.877 11.622V11.6386ZM70.2594 27.9045L67.0527 28.1869L66.521 27.3063L73.5491 16.2409L87.2064 13.8816L87.7381 14.7622L86.3757 17.3707C79.8128 18.0519 73.1836 22.5213 70.276 27.9045H70.2594Z" fill="#954B25"/>
<path fill-rule="evenodd" clip-rule="evenodd" d="M41.2167 102.322L41.765 103.203L43.5096 99.8464L42.9613 98.9658L41.2167 102.322Z" fill="#954B25"/>
<path fill-rule="evenodd" clip-rule="evenodd" d="M96.4276 88.5317L112.029 56.3489L98.9032 88.8806L96.4276 88.5317Z" fill="url(#paint12_radial_822_9959)"/>
<path fill-rule="evenodd" clip-rule="evenodd" d="M97.3248 88.6646L112.029 56.3489L98.9032 88.8806L97.3248 88.6646Z" fill="url(#paint13_radial_822_9959)"/>
<path fill-rule="evenodd" clip-rule="evenodd" d="M91.6758 104.183L73.815 103.518L74.3466 104.399L92.2075 105.063L91.6758 104.183ZM41.7651 103.202L41.2334 102.322L26.0974 101.757L26.6291 102.638L41.7651 103.202Z" fill="#CC6633"/>
<path fill-rule="evenodd" clip-rule="evenodd" d="M35.3019 87.7674L52.6643 57.6282L37.2625 88.2492L35.3019 87.7674Z" fill="url(#paint14_radial_822_9959)"/>
<path fill-rule="evenodd" clip-rule="evenodd" d="M124.307 22.3385L124.839 23.2191L128.461 22.9034L127.929 22.0229L124.307 22.3385ZM67.0527 28.1703L70.2594 27.8879L69.7277 27.0073L66.5211 27.2897L67.0527 28.1703Z" fill="#CC6633"/>
<path fill-rule="evenodd" clip-rule="evenodd" d="M86.3757 17.3707L87.7215 14.7622L87.1898 13.865L85.8274 16.4735L86.3757 17.3707Z" fill="#954B25"/>
<path fill-rule="evenodd" clip-rule="evenodd" d="M116.116 13.3499L116.648 14.2305C120.021 13.8816 123.128 14.7622 124.656 16.756C123.427 14.1308 119.937 12.9512 116.116 13.3499Z" fill="#954B25"/>
<path fill-rule="evenodd" clip-rule="evenodd" d="M133.645 9.06333L127.913 22.0395L128.444 22.92L134.176 9.94391L133.645 9.06333ZM99.1192 87.2856L91.6592 104.199L92.1909 105.08L99.6509 88.1661L99.1192 87.2856Z" fill="#954B25"/>
<path fill-rule="evenodd" clip-rule="evenodd" d="M86.3757 17.3707L85.844 16.4901C79.2812 17.1713 72.6519 21.6407 69.7443 27.0239L70.276 27.9045C73.1836 22.5213 79.8295 18.0519 86.3757 17.3707Z" fill="#954B25"/>
<path fill-rule="evenodd" clip-rule="evenodd" d="M37.0964 96.324C35.9666 94.0312 36.249 90.8578 38.0434 87.5514L37.5117 86.6708C35.4847 90.4258 35.4017 94.0146 37.113 96.3406L37.0964 96.324Z" fill="#954B25"/>
<path fill-rule="evenodd" clip-rule="evenodd" d="M35.9001 87.9169L52.6643 57.6282L35.3019 87.7674L35.9001 87.9169Z" fill="url(#paint15_radial_822_9959)"/>
<path fill-rule="evenodd" clip-rule="evenodd" d="M37.4951 86.6542L34.3051 86.621L26.0974 101.757L41.2334 102.322L42.978 98.9657C36.1659 98.7497 34.1057 92.9678 37.5117 86.6708L37.4951 86.6542ZM91.6758 104.183L73.815 103.518L75.4931 99.9626C82.6706 100.179 92.0413 94.3468 95.2314 87.2357L99.1358 87.269L91.6758 104.183ZM117.346 10.7414L116.133 13.3333C122.064 12.7186 127.198 15.9086 124.324 22.3219L127.946 22.0062L133.678 9.03011L117.362 10.7248L117.346 10.7414ZM69.7277 27.0073L66.5211 27.2897L73.0008 15.3437L87.1898 13.8816L85.8274 16.4901C79.2646 17.1713 72.6353 21.6407 69.7277 27.0239V27.0073Z" fill="url(#paint16_radial_822_9959)"/>
<path fill-rule="evenodd" clip-rule="evenodd" d="M93.8191 107.672L25.8315 104.731C24.1202 104.665 23.3725 104.698 21.3289 105.13C19.4681 105.529 17.1088 104.415 14.6332 104.316C12.4567 104.216 11.4099 105.794 12.3404 107.904C12.789 108.918 13.3705 109.882 14.0018 110.795C16.2282 114.019 19.2022 117.425 22.1431 120.382C25.25 123.506 29.1711 127.078 33.3082 128.739C34.0558 129.038 34.8533 129.238 35.6342 129.421C37.196 129.786 37.9104 129.736 39.3892 129.337C40.9676 128.922 41.5158 129.238 42.5626 129.62C43.6093 130.002 43.9416 130.118 45.0548 130.218L113.225 136L111.763 133.873L44.5896 128.374C42.9946 128.241 41.6155 127.576 40.087 127.277C38.6415 126.995 38.1597 127.178 36.7806 127.46C35.8668 127.643 34.953 127.626 33.0922 126.845C27.6592 124.602 18.8201 115.049 15.979 109.848C14.5667 107.256 15.6633 106.127 18.3715 106.675C19.601 106.924 20.4982 107.389 21.9104 107.539C23.6716 107.738 24.735 106.957 26.2801 106.924C27.0112 106.924 27.7422 106.941 28.4733 106.991L95.5636 110.214L93.8191 107.672Z" fill="url(#paint17_radial_822_9959)"/>
<path fill-rule="evenodd" clip-rule="evenodd" d="M93.8191 107.672L137.233 8L138.513 10.6916L95.5304 110.214L93.8191 107.672Z" fill="url(#paint18_radial_822_9959)"/>
<g style="mix-blend-mode:multiply" opacity="0.35">
<path fill-rule="evenodd" clip-rule="evenodd" d="M67.2022 15.6926L18.4712 104.731L19.1192 105.097C19.9001 105.229 20.6477 105.279 21.3289 105.146C21.628 105.08 21.9104 105.03 22.1597 104.98L71.4224 14.9782C71.223 15.0613 71.0236 15.1776 70.7412 15.3105C69.4286 15.9086 69.2791 15.9751 67.8502 15.7923C67.6342 15.7591 67.4182 15.7425 67.2022 15.7092V15.6926Z" fill="url(#paint19_linear_822_9959)"/>
</g>
<g style="mix-blend-mode:screen">
<path fill-rule="evenodd" clip-rule="evenodd" d="M62.6831 16.3572L13.6696 104.399C13.952 104.332 14.2843 104.299 14.6332 104.316C15.3476 104.349 16.0621 104.465 16.7599 104.598L66.3051 15.6096C65.1587 15.5431 64.0122 15.6262 62.9987 16.1578C62.8824 16.2077 62.7827 16.2741 62.6831 16.3406V16.3572Z" fill="url(#paint20_linear_822_9959)"/>
</g>
<path fill-rule="evenodd" clip-rule="evenodd" d="M59.2771 106.177C59.6093 106.409 60.2573 106.775 60.789 106.874C62.5169 107.173 66.1223 107.589 68.3487 107.389C69.2791 107.306 70.0268 106.908 70.3092 106.658C68.681 105.346 66.7205 104.582 66.1389 104.515C65.2584 104.415 61.869 104.914 59.2604 106.193L59.2771 106.177Z" fill="url(#paint21_radial_822_9959)"/>
<g style="mix-blend-mode:screen">
<path fill-rule="evenodd" clip-rule="evenodd" d="M64.9925 104.548C65.5076 104.482 65.9229 104.482 66.1555 104.498C66.6041 104.548 67.8669 105.03 69.1794 105.844C69.5616 106.077 69.9437 106.359 70.3258 106.658C70.0268 106.908 69.2957 107.323 68.3653 107.389C68.0496 107.423 67.7007 107.439 67.3518 107.439C66.7537 107.439 63.7962 104.681 65.0091 104.548H64.9925Z" fill="url(#paint22_radial_822_9959)"/>
</g>
<path style="mix-blend-mode:screen" fill-rule="evenodd" clip-rule="evenodd" d="M69.8772 26.7414C73.1835 20.8598 77.5532 18.1184 83.9665 16.7726C77.6861 18.6667 74.2469 20.7601 69.8772 26.7414Z" fill="url(#paint23_radial_822_9959)"/>
<path fill-rule="evenodd" clip-rule="evenodd" d="M101.778 42.9741C105.832 49.4538 100.266 60.2368 89.3331 67.0821C78.4006 73.9273 66.2719 74.2264 62.2179 67.7466C58.1639 61.2669 63.5138 50.1682 74.4463 43.323C85.3788 36.4777 97.7236 36.4943 101.778 42.9741ZM102.409 42.7913C106.579 49.4372 100.847 60.5359 89.6322 67.5639C78.4006 74.5919 65.923 74.9076 61.7693 68.2451C57.599 61.5992 63.1151 50.1849 74.3466 43.1568C85.5782 36.1288 98.2552 36.1288 102.426 42.7913H102.409Z" fill="url(#paint24_linear_822_9959)"/>
<path fill-rule="evenodd" clip-rule="evenodd" d="M101.462 42.5254C105.516 49.0052 99.9499 59.7882 89.0174 66.6334C78.0849 73.4787 65.9561 73.7778 61.9021 67.298C57.8482 60.8183 63.4141 50.0353 74.3466 43.19C85.2791 36.3448 97.4079 36.0457 101.462 42.5254ZM102.093 42.3427C106.264 48.9886 100.531 60.0872 89.3165 67.1153C78.0849 74.1433 65.6072 74.459 61.4536 67.7965C57.2832 61.1506 63.0153 50.0519 74.2303 43.0239C85.4619 35.9959 97.9395 35.6802 102.093 42.3427Z" fill="url(#paint25_radial_822_9959)"/>
<path fill-rule="evenodd" clip-rule="evenodd" d="M72.0205 40.5151L72.7349 44.5857L75.6093 42.7415L72.0205 40.5151Z" fill="#999999"/>
<path fill-rule="evenodd" clip-rule="evenodd" d="M72.0205 40.5151L74.1306 43.7051L72.7349 44.5857L72.0205 40.5151Z" fill="url(#paint26_radial_822_9959)"/>
<path fill-rule="evenodd" clip-rule="evenodd" d="M72.0205 40.5151L75.6093 42.7415L74.1306 43.7051L72.0205 40.5151Z" fill="url(#paint27_radial_822_9959)"/>
<path fill-rule="evenodd" clip-rule="evenodd" d="M84.7972 39.6013L94.7827 27.2565L92.7557 40.6646L84.7972 39.6013Z" fill="url(#paint28_radial_822_9959)"/>
<path fill-rule="evenodd" clip-rule="evenodd" d="M92.7557 40.6646L93.2874 40.7144L93.6197 38.3385L93.1545 37.973L92.7557 40.6646ZM93.7028 37.6906L95.0984 27.7383L94.7495 27.2731L93.1877 37.6573C93.3539 37.6573 93.52 37.6906 93.6862 37.7072L93.7028 37.6906Z" fill="#6B3328"/>
<path fill-rule="evenodd" clip-rule="evenodd" d="M87.1898 39.9169L94.7827 27.2565L84.7972 39.6013L87.1898 39.9169Z" fill="url(#paint29_radial_822_9959)"/>
<path style="mix-blend-mode:screen" fill-rule="evenodd" clip-rule="evenodd" d="M88.2365 37.2087C87.1732 38.837 86.5584 38.8536 85.2292 39.053L84.7806 39.6013L87.1898 39.9169L94.7827 27.2565L88.2365 37.2087Z" fill="url(#paint30_radial_822_9959)"/>
<path fill-rule="evenodd" clip-rule="evenodd" d="M106.081 38.5213L95.6799 42.9907L97.5408 46.3634L106.081 38.5213Z" fill="url(#paint31_radial_822_9959)"/>
<path fill-rule="evenodd" clip-rule="evenodd" d="M106.081 38.5213L106.363 38.9699L102.326 42.7248C102.259 42.5919 102.176 42.459 102.093 42.3427C102.077 42.3094 102.043 42.2762 102.027 42.243L106.081 38.5213ZM101.844 43.1734L97.7235 46.9948L97.5408 46.3468L101.562 42.6584C101.661 42.8245 101.761 42.9907 101.844 43.1568V43.1734Z" fill="#6B3328"/>
<path fill-rule="evenodd" clip-rule="evenodd" d="M96.1784 43.8712L106.081 38.5213L95.6799 42.9907L96.1784 43.8712Z" fill="url(#paint32_radial_822_9959)"/>
<path fill-rule="evenodd" clip-rule="evenodd" d="M65.5075 52.677L53.7277 55.7009L63.7796 58.243L65.5075 52.677Z" fill="url(#paint33_radial_822_9959)"/>
<path fill-rule="evenodd" clip-rule="evenodd" d="M53.7277 55.7009L64.9426 54.4548L65.5075 52.677L53.7277 55.7009Z" fill="url(#paint34_radial_822_9959)"/>
<path fill-rule="evenodd" clip-rule="evenodd" d="M53.8938 56.1662L61.0215 57.9605C61.0714 57.8276 61.1212 57.7113 61.1711 57.5784L53.7277 55.7009L53.8938 56.1662ZM61.6861 58.1267L63.763 58.6418L63.7962 58.2264L61.52 57.6449L61.7027 58.1101L61.6861 58.1267Z" fill="#6B3328"/>
<path style="mix-blend-mode:screen" fill-rule="evenodd" clip-rule="evenodd" d="M56.3528 55.1693L53.7111 55.7009L64.9426 54.4714L65.4909 52.6937L65.0257 52.8266C63.9125 54.1059 58.4795 54.7539 56.3362 55.1693H56.3528Z" fill="url(#paint35_radial_822_9959)"/>
<path fill-rule="evenodd" clip-rule="evenodd" d="M95.6799 42.9907L97.3414 45.9647C100.216 51.1153 96.1285 59.323 87.6384 64.6397C79.1483 69.9564 69.9437 70.0893 66.6041 65.2212L64.6768 62.4133L95.6799 42.9907Z" fill="url(#paint36_linear_822_9959)"/>
<path style="mix-blend-mode:multiply" fill-rule="evenodd" clip-rule="evenodd" d="M92.6892 55.9834C93.2375 56.9304 93.8024 57.8775 94.3507 58.8245C97.9893 54.405 99.2687 49.5369 97.3746 46.0478L95.9956 43.5888C97.657 46.9948 96.2614 51.6968 92.6726 56L92.6892 55.9834Z" fill="url(#paint37_linear_822_9959)"/>
<path style="mix-blend-mode:multiply" fill-rule="evenodd" clip-rule="evenodd" d="M73.682 68.7103C73.0839 67.8131 72.4691 66.8993 71.871 66.0021C68.8804 65.8193 66.4214 64.7892 64.9759 62.8619L66.5875 65.2212C68.033 67.3146 70.5751 68.4943 73.6654 68.7103H73.682Z" fill="url(#paint38_linear_822_9959)"/>
<path style="mix-blend-mode:screen" fill-rule="evenodd" clip-rule="evenodd" d="M95.8295 43.3894C98.9697 48.3904 94.6 56.7809 86.0932 62.1142C85.2625 62.6293 84.4151 63.1111 83.5678 63.5431C83.1524 64.3406 82.521 64.9886 82.1389 65.2212C81.8565 65.4039 80.6103 65.4704 79.4639 65.2212C73.1337 67.2316 67.3352 66.4174 64.9925 62.6957C61.8523 57.6947 66.222 49.3042 74.7287 43.9709C83.2355 38.6376 92.6893 38.3717 95.8295 43.3894Z" fill="url(#paint39_radial_822_9959)"/>
<path fill-rule="evenodd" clip-rule="evenodd" d="M95.6799 42.9907C98.8367 48.0249 94.4504 56.4652 85.8938 61.8152C77.3372 67.1817 67.8336 67.4476 64.6768 62.3967C61.52 57.3624 65.9063 48.9221 74.4629 43.5722C83.0195 38.2056 92.5231 37.9398 95.6799 42.9907Z" fill="url(#paint40_radial_822_9959)"/>
<path fill-rule="evenodd" clip-rule="evenodd" d="M91.6591 43.2233C94.2178 47.2607 90.7287 54.0561 83.8668 58.4091C77.0049 62.7622 69.3621 63.028 66.8035 58.9907C64.2448 54.9533 67.7339 48.1578 74.5958 43.8048C81.4577 39.4517 89.1005 39.1859 91.6591 43.2233Z" fill="url(#paint41_radial_822_9959)"/>
<path fill-rule="evenodd" clip-rule="evenodd" d="M92.5896 42.7747C95.3144 47.0779 91.6093 54.3385 84.2822 58.9741C76.9717 63.6096 68.8139 63.892 66.0891 59.5888C63.3642 55.2856 67.0693 48.0249 74.3964 43.3894C81.7069 38.7539 89.8648 38.4715 92.5896 42.7747ZM91.6758 43.2233C94.2344 47.2607 90.7453 54.0561 83.8835 58.4092C77.0216 62.7622 69.3788 63.0281 66.8201 58.9907C64.2614 54.9533 67.7505 48.1579 74.6124 43.8048C81.4743 39.4517 89.1171 39.1859 91.6758 43.2233Z" fill="url(#paint42_radial_822_9959)"/>
<path fill-rule="evenodd" clip-rule="evenodd" d="M76.3238 46.7622C82.4048 42.9076 89.1005 42.243 92.3736 44.918C92.2407 44.3198 92.0081 43.7383 91.6758 43.2233C89.1171 39.1859 81.4743 39.4517 74.6124 43.8048C67.7506 48.1578 64.2615 54.9533 66.8201 58.9907C67.0693 59.3894 67.385 59.7549 67.7339 60.0706C67.0361 56 70.4421 50.5005 76.3238 46.7622Z" fill="url(#paint43_linear_822_9959)"/>
<path fill-rule="evenodd" clip-rule="evenodd" d="M84.2822 58.9741C77.7692 63.1111 70.6083 63.7757 67.1856 60.8515C66.8035 60.5192 66.4712 60.1537 66.1721 59.7217L66.9198 60.8681C66.9198 60.8681 66.9696 60.9346 66.9862 60.9678C69.844 65.1215 77.8523 64.8557 85.1129 60.2534C92.2739 55.7009 96.0454 48.6065 93.5698 44.3198C93.52 44.2368 93.4702 44.1371 93.4037 44.054L92.573 42.7747C92.9053 43.3063 93.1545 43.8712 93.2874 44.486C94.3341 48.8224 90.6789 54.9034 84.2656 58.9741H84.2822Z" fill="url(#paint44_linear_822_9959)"/>
<path fill-rule="evenodd" clip-rule="evenodd" d="M76.2905 72.2326L76.4733 72.6978L66.6706 85.0426L66.3217 84.81L76.2905 72.2326ZM80.0122 67.5307L80.3113 67.9128L77.5532 71.3687C77.3206 71.4185 77.088 71.4684 76.8388 71.5016L79.9956 67.514L80.0122 67.5307Z" fill="#6B3328"/>
<path fill-rule="evenodd" clip-rule="evenodd" d="M66.3217 84.81L73.5325 67.1319C72.2863 67.4309 71.0402 67.6469 69.7775 67.7965C68.6311 73.4787 67.4681 79.1443 66.3217 84.81Z" fill="url(#paint45_radial_822_9959)"/>
<path fill-rule="evenodd" clip-rule="evenodd" d="M73.5491 67.1319L66.3383 84.81C70.9074 79.0447 75.4598 73.296 80.0289 67.5306C77.8689 67.4808 75.709 67.3977 73.5491 67.1153V67.1319Z" fill="url(#paint46_radial_822_9959)"/>
<path fill-rule="evenodd" clip-rule="evenodd" d="M86.9572 63.1776C86.276 64.0083 85.5616 64.8058 84.8139 65.6033C87.0735 67.1319 89.3331 68.6771 91.5927 70.2056C91.0943 67.514 90.5958 64.8058 90.114 62.1142C89.0673 62.4798 88.0206 62.8453 86.9572 63.1776Z" fill="#666666"/>
<path fill-rule="evenodd" clip-rule="evenodd" d="M91.5927 70.2223L86.9572 63.1942C86.276 64.025 85.5616 64.8225 84.8139 65.62C87.0735 67.1485 89.3331 68.6937 91.5927 70.2223Z" fill="url(#paint47_radial_822_9959)"/>
<path fill-rule="evenodd" clip-rule="evenodd" d="M86.9572 63.1776L91.5927 70.2056C91.0943 67.514 90.5958 64.8058 90.114 62.1142C89.0673 62.4798 88.0206 62.8453 86.9572 63.1776Z" fill="url(#paint48_radial_822_9959)"/>
<path fill-rule="evenodd" clip-rule="evenodd" d="M64.9759 62.8619L56.6353 70.6376L67.2188 65.9855C67.0029 65.7363 66.7869 65.4704 66.6041 65.2046L64.9925 62.8453L64.9759 62.8619Z" fill="url(#paint49_radial_822_9959)"/>
<path fill-rule="evenodd" clip-rule="evenodd" d="M65.5407 63.676L56.6519 70.6376L64.9758 62.8619L65.5407 63.676Z" fill="url(#paint50_radial_822_9959)"/>
<path style="mix-blend-mode:multiply" fill-rule="evenodd" clip-rule="evenodd" d="M66.1721 59.7217C66.1721 59.7217 66.1223 59.6387 66.0891 59.5888L66.1721 59.7217ZM73.0672 63.892C72.7848 63.4767 72.519 63.0613 72.2365 62.6293C69.5615 62.4798 67.385 61.5161 66.1721 59.7217L66.9198 60.8681C66.9198 60.8681 66.9696 60.9346 66.9862 60.9678C68.2157 62.7622 70.3923 63.7259 73.0672 63.892Z" fill="url(#paint51_linear_822_9959)"/>
<path style="mix-blend-mode:multiply" fill-rule="evenodd" clip-rule="evenodd" d="M90.3134 53.6407C90.5958 54.0727 90.8783 54.4881 91.1441 54.92C94.1181 51.1817 95.1981 47.1444 93.5699 44.3198C93.5532 44.27 93.52 44.2368 93.4868 44.1869C93.4536 44.1371 93.4369 44.1039 93.4037 44.054L92.573 42.7747C92.573 42.7747 92.6062 42.8245 92.6228 42.8577C94.3674 45.7155 93.3206 49.8359 90.2968 53.6407H90.3134Z" fill="url(#paint52_linear_822_9959)"/>
<path fill-rule="evenodd" clip-rule="evenodd" d="M62.8325 68.5109L67.6674 66.4341C67.6674 66.4341 67.5345 66.3177 67.4847 66.2679C67.4847 66.2679 67.3518 66.135 67.2853 66.0685C67.2853 66.0685 67.2354 66.0187 67.2188 66.0021L62.4504 68.0955C62.5667 68.2451 62.6996 68.3946 62.8159 68.5275L62.8325 68.5109ZM56.6519 70.6376L56.9841 71.0363L62.1846 68.7934L61.8357 68.3614L56.6519 70.6376Z" fill="#6B3328"/>
<path fill-rule="evenodd" clip-rule="evenodd" d="M96.4276 52.9263C95.8959 54.5379 95.2978 56.1329 94.6166 57.7113L108.988 53.4081L98.2386 50.2347C97.6737 51.1983 97.0756 52.0789 96.4276 52.9263Z" fill="#666666"/>
<path style="mix-blend-mode:screen" fill-rule="evenodd" clip-rule="evenodd" d="M84.2822 58.974C77.9354 62.9948 70.9738 63.7425 67.4515 61.0675C70.8409 63.9751 77.952 63.3105 84.3985 59.2066C90.3964 55.4019 93.9686 49.8193 93.4702 45.5826C93.736 49.8027 90.1805 55.2357 84.2822 58.974Z" fill="url(#paint53_radial_822_9959)"/>
<path style="mix-blend-mode:multiply" d="M85.6945 44.8017C85.9105 44.8017 86.1431 44.8017 86.3425 44.8017L86.924 43.8214C86.6914 43.8214 86.4421 43.8214 86.1929 43.8214C85.9437 43.8214 85.6945 43.838 85.4453 43.8712L85.0133 44.8515C85.2459 44.8349 85.4619 44.8183 85.6945 44.8017ZM85.8772 45.5161L85.4286 45.6158L85.4785 45.6823L85.1628 46.2804L84.9967 45.5493L84.6311 45.649L84.0496 46.7788H84.4484L84.3985 46.6958L84.7474 46.0312L84.9136 46.7622H85.2957V46.6791L85.8772 45.5493V45.5161ZM71.7713 53.6241L71.6218 54.8204H71.9042L72.3196 54.3385L72.2531 54.8037H72.5356L73.5491 53.6407C73.6156 53.5909 73.6654 53.5576 73.6654 53.5576H73.2833L72.6021 54.3884L72.735 53.6906L72.8347 53.5909H72.4027L72.3528 53.9398L71.9541 54.405L72.087 53.6906L72.1867 53.6075H71.7713V53.6241ZM80.3611 53.7736L79.8295 52.9097L79.4473 52.9927L79.9292 53.7902H80.3445L80.3611 53.7736ZM79.979 52.8931L80.5107 53.7736H80.8263L80.2448 52.8432L79.979 52.8931ZM75.2272 53.9564L75.1939 53.8899L74.845 53.9564H75.2272ZM75.3269 53.8733L75.3767 53.9564H75.7921L75.709 53.7902L75.3269 53.8733ZM75.8419 53.7736L75.9416 53.9398H76.357L76.2075 53.6906L75.8253 53.7736H75.8419ZM76.357 53.6739L76.5231 53.9398H76.9385L76.7391 53.6075L76.357 53.6906V53.6739ZM76.872 53.5743L77.088 53.9232H77.5034L77.2542 53.4912L76.872 53.5743ZM77.3871 53.4746L77.6529 53.9066H78.0683L77.7692 53.3915L77.3871 53.4746ZM77.9022 53.3749L78.2178 53.9066H78.6332L78.2677 53.3084L77.8855 53.3915L77.9022 53.3749ZM78.4172 53.2752L78.7994 53.8899H79.2147L78.7994 53.1921L78.4172 53.2752ZM78.9323 53.1755L79.3643 53.8733H79.7796L79.3144 53.0924L78.9323 53.1755ZM80.6104 54.5878L79.1316 55.5182L79.0486 55.8172L80.4276 54.9533L80.627 54.5878H80.6104ZM79.1649 55.4019L80.6934 54.4548L80.843 54.1724L79.2313 55.1859L79.1815 55.4019H79.1649ZM78.2677 59.1568L78.1348 59.2399L78.0351 59.622L78.2843 59.1568H78.2677ZM78.1514 59.1402L78.3341 59.0239L78.5335 58.6584L78.2511 58.8411L78.168 59.1402H78.1514ZM78.2677 58.7248L78.6 58.5255L78.7994 58.1599L78.3674 58.4258L78.2843 58.7248H78.2677ZM78.384 58.3095L78.8658 58.0104L79.0652 57.6449L78.4837 58.0104L78.4006 58.3095H78.384ZM78.5003 57.8941L79.1316 57.4953L79.331 57.1298L78.6 57.595L78.5169 57.8941H78.5003ZM78.6166 57.4787L79.3975 56.9969L79.5969 56.6314L78.7163 57.1797L78.6332 57.4787H78.6166ZM78.7329 57.0634L79.6633 56.4818L79.8627 56.1163L78.8326 56.7643L78.7495 57.0634H78.7329ZM78.8492 56.648L79.9292 55.9668L80.1285 55.6013L78.9489 56.3489L78.8658 56.648H78.8492ZM78.9655 56.2326L80.195 55.4683L80.3944 55.1028L79.0652 55.9336L78.9821 56.2326H78.9655ZM81.8066 53.973L82.3549 54.8702L82.737 54.7871L82.2386 53.9564H81.8232L81.8066 53.973ZM82.222 54.8868L81.6571 53.973H81.2916L81.9063 54.9533L82.222 54.8868ZM86.9572 53.7902L87.0237 53.8899L87.5886 53.7736H86.9738L86.9572 53.7902ZM86.8741 53.9066L86.8077 53.7902H86.3923L86.5086 53.9896L86.8907 53.9066H86.8741ZM86.3591 54.0062L86.2261 53.8069H85.8108L85.9769 54.0893L86.3591 54.0062ZM85.844 54.1059L85.6612 53.8069H85.2459L85.4619 54.189L85.844 54.1059ZM85.3289 54.2056L85.0963 53.8235H84.681L84.9634 54.2887L85.3456 54.2056H85.3289ZM84.8139 54.3053L84.5314 53.8401H84.1161L84.4484 54.3884L84.8305 54.3053H84.8139ZM84.2988 54.405L83.9499 53.8401H83.5346L83.9167 54.4881L84.2988 54.405ZM83.7838 54.5047L83.385 53.8567H82.9697L83.4016 54.5878L83.7838 54.5047ZM83.2687 54.6044L82.8201 53.8733H82.4048L82.9032 54.6874L83.2853 54.6044H83.2687ZM81.574 53.1589L83.0361 52.2451L83.1192 51.946L81.7568 52.7934L81.5574 53.1589H81.574ZM83.0195 52.3448L81.5076 53.2918L81.3414 53.6241L82.953 52.6106L83.0195 52.3614V52.3448ZM83.9333 48.5732L84.0662 48.4901L84.1659 48.1412L83.9499 48.5732H83.9333ZM84.033 48.6064L83.8668 48.7061L83.6675 49.0717L83.9333 48.9055L84.0164 48.6064H84.033ZM83.9167 49.0218L83.601 49.2212L83.4016 49.5867L83.817 49.3209L83.9001 49.0218H83.9167ZM83.8004 49.4372L83.3352 49.7196L83.1358 50.0852L83.7007 49.7196L83.7838 49.4206L83.8004 49.4372ZM83.6841 49.8526L83.0693 50.2347L82.87 50.6002L83.5844 50.1516L83.6675 49.8526H83.6841ZM83.5678 50.2679L82.8035 50.7498L82.6041 51.1153L83.4681 50.567L83.5512 50.2679H83.5678ZM83.4515 50.6833L82.5377 51.2482L82.3549 51.6137L83.3684 50.9824L83.4515 50.6833ZM83.3352 51.0987L82.2718 51.7633L82.0725 52.1288L83.2355 51.3977L83.3186 51.0987H83.3352ZM83.2189 51.514L82.006 52.2783L81.8066 52.6438L83.1192 51.8131L83.2023 51.514H83.2189ZM83.9499 44.054C83.4183 44.1537 82.8866 44.2866 82.3549 44.4361L82.2386 45.35C82.7204 45.217 83.2023 45.0841 83.6841 45.0011L83.9665 44.0374L83.9499 44.054ZM80.7267 44.9844C80.1784 45.2004 79.6467 45.433 79.115 45.6823L79.3144 46.4798C79.7962 46.2472 80.2781 46.0312 80.7765 45.8484L80.7433 44.9844H80.7267ZM77.52 46.5296C77.2542 46.6791 77.005 46.8287 76.7557 46.9948C76.5065 47.161 76.2573 47.3271 76.0081 47.4933L76.5065 48.108C76.7225 47.9585 76.9551 47.8089 77.1877 47.6594C77.4203 47.5099 77.6529 47.377 77.8855 47.244L77.5366 46.5296H77.52ZM74.5626 48.5732C74.0974 48.9387 73.6654 49.3375 73.2334 49.7363L73.9977 50.135C74.3798 49.7695 74.7786 49.4206 75.1939 49.0883L74.5626 48.5732ZM72.0538 50.9657C71.6882 51.3811 71.3393 51.8131 71.0237 52.2451L72.0039 52.3946C72.2864 51.9959 72.602 51.6137 72.9343 51.2316L72.0538 50.9491V50.9657ZM70.1597 53.5576C70.0268 53.7736 69.9105 53.9896 69.7942 54.2222C69.6779 54.4382 69.5782 54.6542 69.4785 54.8868L70.6083 54.7871C70.6914 54.5878 70.791 54.3884 70.8907 54.189C70.9904 53.9896 71.1067 53.7902 71.223 53.5909L70.1597 53.5576ZM69.0133 56.1662C68.8803 56.5981 68.7973 57.0135 68.7474 57.4289L69.9603 57.08C70.0102 56.7144 70.0932 56.3323 70.2095 55.9502L69.0299 56.1828L69.0133 56.1662ZM68.681 58.6251C68.6976 59.0073 68.7474 59.3894 68.8305 59.7383L70.0268 59.1568C69.9437 58.8411 69.8938 58.5088 69.8938 58.1599L68.681 58.6251ZM69.196 60.7518C69.2459 60.8515 69.2957 60.9512 69.3456 61.0509C69.2126 60.9844 69.0797 60.918 68.9468 60.8515C68.1161 59.107 68.249 56.7975 69.5782 54.2222C71.0237 51.3977 73.6322 48.7892 76.6727 46.8619C79.7132 44.9346 83.169 43.6885 86.3591 43.5888C89.1836 43.4891 91.3103 44.3198 92.5398 45.7653C92.5398 45.9149 92.5397 46.0644 92.5564 46.2139C92.5065 46.1475 92.4733 46.0976 92.4234 46.0312L91.3103 46.7954C91.4099 46.9284 91.5096 47.0447 91.5927 47.1776C91.6758 47.3105 91.7589 47.4434 91.8253 47.5929L92.4899 47.2108C92.4401 47.6262 92.3404 48.0416 92.2241 48.4735L92.1576 48.5068C92.1576 48.5068 92.1742 48.5898 92.1908 48.6231C92.0911 48.972 91.9582 49.3043 91.8253 49.6532C91.7921 48.8557 91.5761 48.1412 91.194 47.5265L88.9343 48.9554C89.6322 50.1184 89.5989 51.7466 88.6685 53.5743C88.0704 54.7539 87.1566 55.8671 86.06 56.864C85.3954 57.3957 84.681 57.8941 83.9333 58.3759C83.2355 58.8245 82.5377 59.2233 81.8232 59.5722C80.4442 60.1703 78.9987 60.5358 77.6363 60.5691C75.5927 60.6355 74.0974 59.9709 73.3497 58.8411L71.0901 60.27C71.5055 60.9014 72.087 61.4164 72.8347 61.7986C72.4525 61.7986 72.087 61.7487 71.7381 61.6989C71.6716 61.649 71.6218 61.6158 71.5719 61.566L71.4556 61.6656C71.007 61.5992 70.5917 61.4995 70.1929 61.3666L70.8907 60.8847C70.791 60.7518 70.6914 60.6355 70.6083 60.5026C70.5252 60.3697 70.4421 60.2368 70.3757 60.0872L69.2126 60.7684L69.196 60.7518ZM91.6426 45.2669C91.3601 45.0343 91.0444 44.8349 90.6955 44.6521L89.7485 45.5493C90.0642 45.7155 90.3466 45.8982 90.5958 46.0976L91.6259 45.2669H91.6426ZM89.5989 44.1869C89.2002 44.0706 88.7848 43.9709 88.3528 43.8879L87.6384 44.8515C88.0372 44.918 88.4193 45.0011 88.7682 45.1174L89.5989 44.1703V44.1869ZM83.0029 52.7103L81.4245 53.7072L87.4224 53.5078L83.0029 52.7103ZM79.1649 54.9699L80.8097 53.9232L74.5294 54.1392L79.1649 54.9699ZM80.4941 52.6604L81.0922 53.6075L83.8835 48.1412L80.4774 52.6604H80.4941ZM81.6737 55.0197L81.0756 54.0727L78.2677 59.539L81.6737 55.0197ZM73.7983 53.973H73.8482L79.2978 52.8432L78.5667 50.135C78.5667 50.135 78.6 50.0353 78.6664 50.0021C78.7163 49.9689 78.7661 49.9689 78.7827 50.0021L80.9094 51.8131L84.2988 47.3271C82.3051 47.4268 80.1451 48.2077 78.2511 49.4206C76.357 50.6168 74.7287 52.2451 73.7983 53.9896V53.973ZM88.4359 53.4746H88.4857C89.3497 51.7134 89.3497 50.1516 88.6519 49.0384C87.9375 47.9252 86.5252 47.2607 84.5647 47.2939L83.385 51.7134L87.4889 49.6864C87.4889 49.6864 87.6218 49.6698 87.6218 49.703C87.6218 49.7363 87.6218 49.7861 87.5553 49.8193L83.9832 52.6604L88.4525 53.458L88.4359 53.4746ZM80.7599 51.9959L78.9157 50.4341L79.547 52.7768L80.2947 52.6272L80.7599 52.0125V51.9959ZM83.7672 52.6272L86.8575 50.1516L83.3019 51.8962L83.1358 52.4943L83.7505 52.6106L83.7672 52.6272ZM82.8533 54.837L83.5844 57.5452C83.5844 57.5452 83.5512 57.6449 83.4847 57.6781C83.4349 57.7113 83.385 57.7113 83.3684 57.6781L81.2417 55.8671L77.8523 60.3531C79.8461 60.2534 82.006 59.4725 83.9001 58.2596C85.7942 57.0634 87.4224 55.4351 88.3694 53.6739L82.87 54.8204L82.8533 54.837ZM81.3746 55.6677L83.2189 57.2295L82.5875 54.8868L81.8398 55.0364L81.3746 55.6511V55.6677ZM78.7827 55.9502L74.6789 57.9772C74.6789 57.9772 74.546 57.9938 74.546 57.9606C74.546 57.9273 74.546 57.8775 74.5958 57.8443L78.168 55.0031L73.6654 54.189C72.8014 55.9502 72.8014 57.512 73.4992 58.6251C74.2137 59.7383 75.6259 60.4029 77.5865 60.3697L78.7661 55.9502H78.7827ZM78.384 55.0364L75.2936 57.512L78.8492 55.7674L79.0153 55.1693L78.4006 55.053L78.384 55.0364ZM91.0777 47.3936C90.0974 45.9149 88.1867 45.0509 85.5283 45.1506C82.87 45.2503 79.979 46.2638 77.4369 47.8588L78.2843 49.188C80.2448 47.9585 82.4878 47.1776 84.5314 47.1111C86.5751 47.0447 88.0704 47.7093 88.818 48.8391L91.0777 47.4102V47.3936ZM77.2043 47.9917C74.6789 49.62 72.519 51.7965 71.3061 54.1558C70.0932 56.5151 70.06 58.6251 70.9738 60.1371L73.2334 58.7082C72.5356 57.5452 72.5688 55.9169 73.4992 54.0893C74.4297 52.2617 76.0912 50.5836 78.0351 49.3209L77.1877 47.9917H77.2043Z" fill="url(#paint54_radial_822_9959)"/>
<path style="mix-blend-mode:screen" fill-rule="evenodd" clip-rule="evenodd" d="M71.1898 68.2949C72.1535 69.7736 68.1991 79.8255 67.5179 81.8858L73.5325 67.1319C73.2666 67.1983 73.0008 67.2648 72.735 67.3146C71.9209 67.4808 71.1067 67.6303 70.2926 67.73C70.708 67.8297 70.9904 68.0291 71.1732 68.2949H71.1898Z" fill="url(#paint55_radial_822_9959)"/>
<path fill-rule="evenodd" clip-rule="evenodd" d="M79.3975 64.8889C79.763 64.4071 81.0922 63.7093 81.9395 63.4102C82.1389 63.3437 82.8866 63.2108 83.2687 63.2939C83.1192 64.1246 82.2054 65.0551 82.0558 65.1215C81.7734 65.2544 80.3777 65.3375 79.3975 64.8889Z" fill="url(#paint56_radial_822_9959)"/>
<path style="mix-blend-mode:screen" fill-rule="evenodd" clip-rule="evenodd" d="M81.6073 65.2212C81.8233 65.2046 81.9728 65.1713 82.0559 65.1381C82.1389 65.1049 82.4546 64.8058 82.7371 64.4071C82.9697 64.0748 83.2023 63.676 83.2687 63.3105C82.9032 63.244 82.1389 63.3603 81.9396 63.4268C81.4245 63.6096 80.627 65.3043 81.6073 65.2212Z" fill="url(#paint57_radial_822_9959)"/>
<path fill-rule="evenodd" clip-rule="evenodd" d="M57.4161 40.5151L58.1472 41.4455L64.0454 30.6127L63.3808 29.5826L57.4161 40.5151Z" fill="#00295A"/>
<path fill-rule="evenodd" clip-rule="evenodd" d="M63.3809 29.5826C62.4504 29.649 62.0849 29.7986 61.088 30.2638C60.4899 30.5462 60.1078 30.5795 59.0776 30.4798C58.5792 30.4299 58.114 30.3468 57.5989 30.297C54.4754 29.9481 52.7807 30.7124 51.2023 33.5535L46.0683 42.8411C46.7661 41.5618 48.5605 40.9803 50.5211 40.9637C51.6342 40.9637 52.3985 41.2129 53.2957 41.3957C54.4089 41.6116 54.9738 41.4953 55.5387 41.163C56.519 40.5815 56.6519 40.5483 57.3996 40.5317L63.3643 29.5826H63.3809Z" fill="url(#paint58_linear_822_9959)"/>
<path fill-rule="evenodd" clip-rule="evenodd" d="M46.4837 44.3365C47.4473 42.6251 48.6104 42.0768 50.1223 41.9605C51.1192 41.8941 51.817 41.9605 52.5813 42.1101C53.8938 42.3925 54.5584 42.4756 55.2729 42.2596C56.6851 41.8442 56.5522 41.3126 58.1472 41.4289L57.4162 40.4984C56.6685 40.4984 56.5356 40.5483 55.5553 41.1298C54.9904 41.4621 54.4255 41.5784 53.3123 41.3624C52.4151 41.1963 51.6342 40.9304 50.5377 40.9304C48.5771 40.9304 46.7993 41.5286 46.0849 42.8079C45.5699 43.7383 45.5366 44.6521 45.8191 45.4995L46.5003 44.2866L46.4837 44.3365Z" fill="url(#paint59_linear_822_9959)"/>
<g style="mix-blend-mode:screen">
<path fill-rule="evenodd" clip-rule="evenodd" d="M70.8741 106.675L91.5927 107.09C92.2074 107.09 92.9883 107.09 93.4037 106.841C93.8024 106.609 94.1015 105.894 94.3507 105.329L118.641 50.6833L94.8658 106.476C94.3175 107.755 94.7329 108.586 95.2479 109.749C94.5501 108.901 93.7858 108.021 92.4234 107.938L70.8907 106.658L70.8741 106.675Z" fill="url(#paint60_radial_822_9959)"/>
</g>
<g style="mix-blend-mode:screen">
<path fill-rule="evenodd" clip-rule="evenodd" d="M12.7558 104.831C14.0351 103.801 16.0455 103.801 17.9728 104.465C19.9167 105.13 20.6311 104.847 22.0268 104.582C23.9209 104.199 25.4162 104.266 27.3103 104.366L57.0839 106.093L27.3103 104.98C25.3331 104.914 23.9375 104.847 21.9271 105.229C20.3487 105.529 19.6841 105.479 17.7568 104.98C16.0621 104.548 14.1846 104.116 12.7391 104.847H12.7558V104.831Z" fill="url(#paint61_radial_822_9959)"/>
</g>
<g style="mix-blend-mode:screen">
<path fill-rule="evenodd" clip-rule="evenodd" d="M47.7796 41.4455C48.5605 41.1298 49.5241 40.9637 50.521 40.9637C50.7703 40.9637 51.0029 40.9637 51.2355 40.9969L57.2168 30.2638C55.7879 30.1475 54.6747 30.2804 53.7277 30.7788L47.7962 41.4455H47.7796Z" fill="url(#paint62_linear_822_9959)"/>
</g>
<g style="mix-blend-mode:multiply" opacity="0.5">
<path fill-rule="evenodd" clip-rule="evenodd" d="M53.3123 41.3957C54.4255 41.6116 54.9904 41.4953 55.5553 41.163C55.8876 40.9637 56.1368 40.8308 56.3196 40.7311L62.4504 29.7155C62.0517 29.8152 61.6861 29.9813 61.088 30.2804C60.4899 30.5628 60.1077 30.5961 59.0776 30.4964C58.9945 30.4964 58.9115 30.4964 58.8284 30.4631L52.7972 41.296C52.9634 41.3292 53.1295 41.3624 53.2957 41.3957H53.3123Z" fill="url(#paint63_linear_822_9959)"/>
</g>
<g style="mix-blend-mode:screen">
<path fill-rule="evenodd" clip-rule="evenodd" d="M46.6332 42.1599C47.6134 41.2627 48.6602 40.9471 49.8564 40.8474C51.0527 40.7477 51.9665 40.9304 52.98 41.1963C54.2593 41.512 54.7079 41.5452 55.6882 41.08C54.7246 41.7778 54.143 41.6449 52.9136 41.4289C51.9001 41.2461 50.9198 41.0467 49.8897 41.0966C48.7266 41.1464 47.7464 41.3956 46.6498 42.1599H46.6332Z" fill="url(#paint64_radial_822_9959)"/>
</g>
<path fill-rule="evenodd" clip-rule="evenodd" d="M33.6737 84.0623C32.5605 83.9959 32.411 84.2949 31.1649 84.6106C30.0517 84.8931 29.2376 84.4611 27.709 84.1454C25.2334 83.647 22.8907 83.8463 21.9271 85.5909C21.2459 86.8204 21.5117 87.5847 21.7775 88.432L22.791 86.621C23.6384 85.4746 24.5522 85.0426 25.6654 84.9429C27.0776 84.81 28.1078 85.1091 29.2708 85.4413C30.5501 85.8069 30.9489 85.8899 31.9291 85.5743C33.0922 85.1921 33.1088 85.0094 34.4047 84.9928L33.6903 84.0623H33.6737Z" fill="url(#paint65_linear_822_9959)"/>
<path fill-rule="evenodd" clip-rule="evenodd" d="M31.1649 84.6106C32.411 84.2949 32.5605 83.9958 33.6737 84.0623L40.5023 71.5348C39.6052 71.3853 39.2895 71.7009 38.1597 72.0665C37.2791 72.3489 36.5647 72.1329 34.7869 71.784C31.7298 71.1859 29.5532 71.8339 27.8419 74.9242L21.9271 85.5909C22.8907 83.8463 25.2334 83.6469 27.709 84.1454C29.2376 84.4611 30.0517 84.8764 31.1649 84.6106Z" fill="url(#paint66_linear_822_9959)"/>
<path fill-rule="evenodd" clip-rule="evenodd" d="M40.519 71.5182L33.6737 84.0623L34.4048 84.9927L41.2334 72.4652L40.519 71.5182Z" fill="#00295A"/>
<g style="mix-blend-mode:screen">
<path fill-rule="evenodd" clip-rule="evenodd" d="M34.1721 71.6677C33.358 71.5514 32.6104 71.5348 31.9125 71.6677C31.6135 71.7176 31.331 71.784 31.0486 71.8837C30.9655 71.9169 30.8824 71.9502 30.7993 71.9834L24.0704 84.0789C24.0704 84.0789 24.1867 84.0457 24.2531 84.0457C24.519 83.9959 24.8014 83.9626 25.1005 83.946C25.7817 83.8962 26.5294 83.946 27.2936 84.0956L34.1888 71.701L34.1721 71.6677Z" fill="url(#paint67_linear_822_9959)"/>
</g>
<g style="mix-blend-mode:multiply" opacity="0.5">
<path fill-rule="evenodd" clip-rule="evenodd" d="M35.7339 71.9668L28.8055 84.4112C29.0548 84.4777 29.2874 84.5275 29.5034 84.5774C30.0683 84.7103 30.5833 84.7601 31.1815 84.6106C31.547 84.5109 31.8294 84.4279 32.062 84.3448L39.0901 71.7342C38.8408 71.8339 38.5584 71.9502 38.1929 72.0665C37.628 72.2492 37.1129 72.2326 36.3653 72.0831C36.1825 72.0499 35.9831 72.0166 35.7505 71.9668H35.7339Z" fill="url(#paint68_linear_822_9959)"/>
</g>
<g style="mix-blend-mode:screen">
<path fill-rule="evenodd" clip-rule="evenodd" d="M22.359 84.9928C23.6882 83.5307 25.9312 83.6802 27.9083 84.0457C29.5034 84.3448 29.952 84.8931 31.8959 84.378C30.251 85.1423 29.5864 84.6937 27.8253 84.3282C25.9478 83.9294 23.954 83.7633 22.3424 84.9928H22.359Z" fill="url(#paint69_radial_822_9959)"/>
</g>
<path fill-rule="evenodd" clip-rule="evenodd" d="M39.1233 73.9938C39.1399 74.6251 38.5584 76.0374 38.06 76.8349C37.9437 77.0177 37.4286 77.6158 37.0963 77.7986C36.681 77.0343 36.7807 75.7051 36.8637 75.5556C37.0133 75.2731 38.06 74.2928 39.1233 74.0104V73.9938Z" fill="url(#paint70_radial_822_9959)"/>
<g style="mix-blend-mode:screen">
<path fill-rule="evenodd" clip-rule="evenodd" d="M37.1628 75.1734C37.0133 75.3229 36.8969 75.4559 36.8637 75.5223C36.8139 75.6054 36.764 76.054 36.7973 76.5524C36.8305 76.9678 36.8969 77.433 37.0963 77.7653C37.4286 77.5826 37.9603 76.9844 38.06 76.8017C38.359 76.3198 37.8606 74.459 37.1628 75.1568V75.1734Z" fill="url(#paint71_radial_822_9959)"/>
</g>
<path fill-rule="evenodd" clip-rule="evenodd" d="M72.5024 61.4829L77.8856 51.7965L87.8212 44.1371L82.6872 53.6075L72.5024 61.4829Z" fill="#CCCCCC"/>
<path fill-rule="evenodd" clip-rule="evenodd" d="M73.0507 61.7653L72.5024 61.4829L87.8212 44.1371L88.1369 44.6023L83.0029 54.0561L73.0507 61.7653Z" fill="#4B70D6"/>
<path fill-rule="evenodd" clip-rule="evenodd" d="M82.6872 53.6075L83.0029 54.0561L73.0507 61.7653L72.5024 61.4829L82.6872 53.6075Z" fill="#890000"/>
<path fill-rule="evenodd" clip-rule="evenodd" d="M82.6872 53.6075L87.8212 44.1371L88.1368 44.6023L83.0029 54.0561L82.6872 53.6075Z" fill="#1C5584"/>
<path fill-rule="evenodd" clip-rule="evenodd" d="M77.8856 51.7965L82.6872 53.6075L72.5024 61.4829L77.8856 51.7965Z" fill="url(#paint72_radial_822_9959)"/>
<path fill-rule="evenodd" clip-rule="evenodd" d="M77.8855 51.7965L87.8211 44.1371L82.6872 53.6075L77.8855 51.7965Z" fill="url(#paint73_radial_822_9959)"/>
<path fill-rule="evenodd" clip-rule="evenodd" d="M79.8128 53.8068C80.7266 53.6739 81.8731 52.4777 81.3746 51.6802C81.2085 51.4143 80.8596 51.3312 80.3777 51.4143C79.7464 51.514 78.8824 52.1121 78.6498 52.7767C78.3341 53.6905 79.0485 53.9398 79.7962 53.8235L79.8128 53.8068Z" fill="url(#paint74_radial_822_9959)"/>
<path style="mix-blend-mode:screen" opacity="0.5" fill-rule="evenodd" clip-rule="evenodd" d="M91.6591 43.2233C94.2178 47.2607 90.7287 54.0561 83.8668 58.4091C77.0049 62.7622 69.3621 63.028 66.8035 58.9907C64.2448 54.9533 67.7339 48.1578 74.5958 43.8048C81.4577 39.4517 89.1005 39.1859 91.6591 43.2233Z" fill="url(#paint75_radial_822_9959)"/>
<path style="mix-blend-mode:screen" opacity="0.5" fill-rule="evenodd" clip-rule="evenodd" d="M71.7879 51.4143C72.7516 49.7861 74.3964 48.108 76.5397 46.7788L75.4265 45.001C72.5522 46.812 70.1929 49.1713 68.8637 51.5805L71.8045 51.4309L71.7879 51.4143Z" fill="url(#paint76_radial_822_9959)"/>
<path style="mix-blend-mode:screen" opacity="0.5" fill-rule="evenodd" clip-rule="evenodd" d="M78.5999 45.6656C82.305 44.0042 85.8606 44.1039 87.1067 46.081L90.0475 44.2368C88.3362 41.4953 83.5345 41.163 78.3507 43.4393L78.5999 45.6656Z" fill="url(#paint77_radial_822_9959)"/>
<path style="mix-blend-mode:screen" opacity="0.5" fill-rule="evenodd" clip-rule="evenodd" d="M79.7962 56.3988C76.8222 57.7279 73.9478 57.9273 72.2864 56.947L69.6945 59.1734C72.0039 60.6355 75.9582 60.4361 80.0454 58.6418L79.7962 56.4154V56.3988Z" fill="url(#paint78_radial_822_9959)"/>
<path fill-rule="evenodd" clip-rule="evenodd" d="M85.4453 131.713C86.9074 132.511 91.1109 133.142 93.7194 133.242C94.3175 133.259 96.4941 133.059 97.4245 132.694C96.2449 131.049 92.9385 129.637 92.4401 129.587C91.5595 129.504 87.6716 130.152 85.4286 131.713H85.4453Z" fill="url(#paint79_radial_822_9959)"/>
<g style="mix-blend-mode:screen">
<path fill-rule="evenodd" clip-rule="evenodd" d="M91.1607 129.686C91.7423 129.603 92.2075 129.57 92.4401 129.587C92.7059 129.62 93.8357 130.052 94.9821 130.717C95.9292 131.265 96.8928 131.946 97.4245 132.694C96.4775 133.059 94.3009 133.275 93.7194 133.242C92.141 133.175 88.4525 130.085 91.1607 129.686Z" fill="url(#paint80_radial_822_9959)"/>
</g>
<path fill-rule="evenodd" clip-rule="evenodd" d="M94.6166 57.7279L99.6508 56.5317C99.5345 56.7144 99.4016 56.8972 99.2853 57.08L94.9323 58.1101L94.6166 57.7446V57.7279ZM100.482 56.3323L113.391 53.242L113.142 53.7902L100.814 56.6978L100.465 56.3157L100.482 56.3323Z" fill="#6B3328"/>
<path fill-rule="evenodd" clip-rule="evenodd" d="M113.408 53.2253L96.4276 52.9263C95.8959 54.5379 95.2978 56.1329 94.6166 57.7113L113.408 53.2253Z" fill="url(#paint81_radial_822_9959)"/>
<path fill-rule="evenodd" clip-rule="evenodd" d="M96.4276 52.9263L113.408 53.2253L98.2386 50.2347C97.6737 51.1983 97.0756 52.0789 96.4276 52.9263Z" fill="url(#paint82_radial_822_9959)"/>
<path style="mix-blend-mode:screen" fill-rule="evenodd" clip-rule="evenodd" d="M101.462 52.6937C99.3518 52.594 98.4048 51.8131 98.2386 50.2513C97.6737 51.215 97.0756 52.0955 96.4276 52.9429L113.408 53.242L101.462 52.6937Z" fill="url(#paint83_radial_822_9959)"/>
<path fill-rule="evenodd" clip-rule="evenodd" d="M59.6426 102.106L75.3269 101.574L74.3134 103.718L59.6426 102.106Z" fill="#FFBC45"/>
<path fill-rule="evenodd" clip-rule="evenodd" d="M68.3819 27.4559L67.4182 28.1371L54.7744 53.7736L69.5449 27.9543L68.3819 27.4559Z" fill="url(#paint84_radial_822_9959)"/>
<path fill-rule="evenodd" clip-rule="evenodd" d="M86.8907 16.3572L86.8741 14.8951L87.5719 14.513L101.329 13.9647L86.8907 16.3572Z" fill="#CC6633"/>
<path fill-rule="evenodd" clip-rule="evenodd" d="M126.434 22.4881L125.404 23.1859L114.255 51.2814L127.78 22.9699L126.434 22.4881Z" fill="url(#paint85_radial_822_9959)"/>
<path fill-rule="evenodd" clip-rule="evenodd" d="M59.6426 102.106L75.0278 102.206L75.3269 101.574L59.6426 102.106Z" fill="#864421"/>
<path fill-rule="evenodd" clip-rule="evenodd" d="M86.8741 14.8951L101.329 13.9647L86.8907 16.3572L86.8741 14.8951Z" fill="url(#paint86_radial_822_9959)"/>
<path fill-rule="evenodd" clip-rule="evenodd" d="M68.3819 27.4559L54.7744 53.7736L69.5449 27.9543L68.3819 27.4559Z" fill="url(#paint87_radial_822_9959)"/>
<path fill-rule="evenodd" clip-rule="evenodd" d="M42.1306 100.86L42.0974 102.571L57.5324 102.006L43.277 100.295L42.1306 100.86Z" fill="#864421"/>
<path fill-rule="evenodd" clip-rule="evenodd" d="M42.1306 100.86L57.5324 102.006L42.0974 102.571L42.1306 100.86Z" fill="#FFBC45"/>
<path fill-rule="evenodd" clip-rule="evenodd" d="M126.434 22.4881L114.255 51.2814L127.78 22.9699L126.434 22.4881Z" fill="url(#paint88_radial_822_9959)"/>
</g>
<defs>
<filter id="filter0_d_822_9959" x="0" y="0" width="179.572" height="168" filterUnits="userSpaceOnUse" color-interpolation-filters="sRGB">
<feFlood flood-opacity="0" result="BackgroundImageFix"/>
<feColorMatrix in="SourceAlpha" type="matrix" values="0 0 0 0 0 0 0 0 0 0 0 0 0 0 0 0 0 0 127 0" result="hardAlpha"/>
<feOffset dx="8" dy="12"/>
<feGaussianBlur stdDeviation="10"/>
<feColorMatrix type="matrix" values="0 0 0 0 0 0 0 0 0 0 0 0 0 0 0 0 0 0 0.1 0"/>
<feBlend mode="normal" in2="BackgroundImageFix" result="effect1_dropShadow_822_9959"/>
<feBlend mode="normal" in="SourceGraphic" in2="effect1_dropShadow_822_9959" result="shape"/>
</filter>
<linearGradient id="paint0_linear_822_9959" x1="42.9115" y1="54.6708" x2="130.156" y2="103.036" gradientUnits="userSpaceOnUse">
<stop stop-color="#041F3E"/>
<stop offset="0.31" stop-color="#02315B"/>
<stop offset="0.55" stop-color="#023E6F"/>
<stop offset="1" stop-color="#02487F"/>
</linearGradient>
<radialGradient id="paint1_radial_822_9959" cx="0" cy="0" r="1" gradientUnits="userSpaceOnUse" gradientTransform="translate(67.3684 24.3323) scale(126.654 126.654)">
<stop stop-color="#02436B"/>
<stop offset="1" stop-color="#04233A"/>
</radialGradient>
<radialGradient id="paint2_radial_822_9959" cx="0" cy="0" r="1" gradientUnits="userSpaceOnUse" gradientTransform="translate(114.089 132.694) scale(40.8391 40.8391)">
<stop stop-color="#408091"/>
<stop offset="0.3" stop-color="#2D5864"/>
<stop offset="0.78" stop-color="#101C1F"/>
<stop offset="1" stop-color="#050505"/>
</radialGradient>
<radialGradient id="paint3_radial_822_9959" cx="0" cy="0" r="1" gradientUnits="userSpaceOnUse" gradientTransform="translate(96.5605 230.604) scale(173.126 173.126)">
<stop offset="0.31" stop-color="#C29D78"/>
<stop offset="0.39" stop-color="#BD9875"/>
<stop offset="0.48" stop-color="#B08C6D"/>
<stop offset="0.56" stop-color="#9A7860"/>
<stop offset="0.66" stop-color="#7B5C4E"/>
<stop offset="0.72" stop-color="#61443E"/>
<stop offset="1" stop-color="#332321"/>
</radialGradient>
<radialGradient id="paint4_radial_822_9959" cx="0" cy="0" r="1" gradientUnits="userSpaceOnUse" gradientTransform="translate(212.249 141.666) scale(159.701 159.701)">
<stop stop-color="#D4B697"/>
<stop offset="0.18" stop-color="#CFB192"/>
<stop offset="0.38" stop-color="#C2A485"/>
<stop offset="0.59" stop-color="#AD8E6F"/>
<stop offset="0.81" stop-color="#8F7050"/>
<stop offset="0.86" stop-color="#876848"/>
</radialGradient>
<radialGradient id="paint5_radial_822_9959" cx="0" cy="0" r="1" gradientUnits="userSpaceOnUse" gradientTransform="translate(115.751 78.4133) scale(38.9616 38.9616)">
<stop stop-color="#916C5F"/>
<stop offset="1"/>
</radialGradient>
<radialGradient id="paint6_radial_822_9959" cx="0" cy="0" r="1" gradientUnits="userSpaceOnUse" gradientTransform="translate(271.348 144.208) scale(194.675 194.675)">
<stop offset="0.81" stop-color="white"/>
<stop offset="0.83" stop-color="#F9F9F8"/>
<stop offset="0.86" stop-color="#EBE8E7"/>
<stop offset="0.89" stop-color="#D4CDC9"/>
<stop offset="0.93" stop-color="#B3A8A1"/>
<stop offset="0.97" stop-color="#8A786E"/>
<stop offset="1" stop-color="#695244"/>
</radialGradient>
<radialGradient id="paint7_radial_822_9959" cx="0" cy="0" r="1" gradientUnits="userSpaceOnUse" gradientTransform="translate(61.005 344.631) scale(260.27 260.27)">
<stop offset="0.81" stop-color="white"/>
<stop offset="0.83" stop-color="#F9F9F8"/>
<stop offset="0.86" stop-color="#EBE8E7"/>
<stop offset="0.89" stop-color="#D4CDC9"/>
<stop offset="0.93" stop-color="#B3A8A1"/>
<stop offset="0.97" stop-color="#8A786E"/>
<stop offset="1" stop-color="#695244"/>
</radialGradient>
<radialGradient id="paint8_radial_822_9959" cx="0" cy="0" r="1" gradientUnits="userSpaceOnUse" gradientTransform="translate(95.8294 118.671) scale(48.731 48.7311)">
<stop stop-color="#916C5F"/>
<stop offset="1"/>
</radialGradient>
<linearGradient id="paint9_linear_822_9959" x1="47.1316" y1="41.6283" x2="112.062" y2="77.1174" gradientUnits="userSpaceOnUse">
<stop stop-color="#01517A"/>
<stop offset="0.03" stop-color="#016CAB"/>
<stop offset="0.05" stop-color="#0177BF"/>
<stop offset="0.06" stop-color="#016DAC"/>
<stop offset="0.1" stop-color="#024C71"/>
<stop offset="0.12" stop-color="#015280"/>
<stop offset="0.14" stop-color="#015B96"/>
<stop offset="0.15" stop-color="#015F9F"/>
<stop offset="1" stop-color="#025191"/>
</linearGradient>
<radialGradient id="paint10_radial_822_9959" cx="0" cy="0" r="1" gradientUnits="userSpaceOnUse" gradientTransform="translate(73.0196 14.0701) scale(57.3707)">
<stop stop-color="#147087"/>
<stop offset="0.16" stop-color="#0F5668"/>
<stop offset="0.43" stop-color="#08313B"/>
<stop offset="0.67" stop-color="#04161B"/>
<stop offset="0.87" stop-color="#010507"/>
<stop offset="1"/>
</radialGradient>
<radialGradient id="paint11_radial_822_9959" cx="0" cy="0" r="1" gradientUnits="userSpaceOnUse" gradientTransform="translate(105.15 14.6625) scale(11.6469 11.647)">
<stop stop-color="#FFC45E"/>
<stop offset="1" stop-color="#E68B00"/>
</radialGradient>
<radialGradient id="paint12_radial_822_9959" cx="0" cy="0" r="1" gradientUnits="userSpaceOnUse" gradientTransform="translate(98.222 72.0166) scale(23.3769 23.3769)">
<stop stop-color="#FFC45E"/>
<stop offset="1" stop-color="#E68B00"/>
</radialGradient>
<radialGradient id="paint13_radial_822_9959" cx="0" cy="0" r="1" gradientUnits="userSpaceOnUse" gradientTransform="translate(94.3009 68.5441) scale(32.9304 32.9304)">
<stop stop-color="#E88200"/>
<stop offset="1" stop-color="#823C24"/>
</radialGradient>
<radialGradient id="paint14_radial_822_9959" cx="0" cy="0" r="1" gradientUnits="userSpaceOnUse" gradientTransform="translate(35.5345 56.1495) scale(37.134 37.134)">
<stop stop-color="#E88200"/>
<stop offset="1" stop-color="#823C24"/>
</radialGradient>
<radialGradient id="paint15_radial_822_9959" cx="0" cy="0" r="1" gradientUnits="userSpaceOnUse" gradientTransform="translate(41.4328 66.4673) scale(24.6231 24.6231)">
<stop stop-color="#FFC45E"/>
<stop offset="1" stop-color="#E68B00"/>
</radialGradient>
<radialGradient id="paint16_radial_822_9959" cx="0" cy="0" r="1" gradientUnits="userSpaceOnUse" gradientTransform="translate(65.4245 1.08827) scale(108.96 108.96)">
<stop stop-color="#FFC45E"/>
<stop offset="1" stop-color="#E68B00"/>
</radialGradient>
<radialGradient id="paint17_radial_822_9959" cx="0" cy="0" r="1" gradientUnits="userSpaceOnUse" gradientTransform="translate(56.7183 72.5483) scale(83.7882 83.7882)">
<stop stop-color="#015B88"/>
<stop offset="1" stop-color="#033C58"/>
</radialGradient>
<radialGradient id="paint18_radial_822_9959" cx="0" cy="0" r="1" gradientUnits="userSpaceOnUse" gradientTransform="translate(78.3341 13.1173) scale(119.726 119.726)">
<stop stop-color="#02436B"/>
<stop offset="1" stop-color="#04233A"/>
</radialGradient>
<linearGradient id="paint19_linear_822_9959" x1="43.2438" y1="58.9076" x2="46.6498" y2="60.8017" gradientUnits="userSpaceOnUse">
<stop stop-color="white"/>
<stop offset="0.06" stop-color="#F0EFF4"/>
<stop offset="0.36" stop-color="#AAA0BF"/>
<stop offset="0.5" stop-color="#8E82AB"/>
<stop offset="0.57" stop-color="#9489AF"/>
<stop offset="0.68" stop-color="#A69CBC"/>
<stop offset="0.8" stop-color="#C3BDD2"/>
<stop offset="0.94" stop-color="#EBE9F0"/>
<stop offset="1" stop-color="white"/>
</linearGradient>
<linearGradient id="paint20_linear_822_9959" x1="38.6914" y1="59.2897" x2="41.2999" y2="60.7352" gradientUnits="userSpaceOnUse">
<stop stop-color="#050505"/>
<stop offset="0.11" stop-color="#081E33"/>
<stop offset="0.31" stop-color="#0D4981"/>
<stop offset="0.4" stop-color="#105AA1"/>
<stop offset="0.48" stop-color="#0F5699"/>
<stop offset="0.58" stop-color="#0E4B86"/>
<stop offset="0.71" stop-color="#0B3965"/>
<stop offset="0.86" stop-color="#082139"/>
<stop offset="1" stop-color="#050505"/>
</linearGradient>
<radialGradient id="paint21_radial_822_9959" cx="0" cy="0" r="1" gradientUnits="userSpaceOnUse" gradientTransform="translate(69.3622 111.56) scale(11.7632 11.7632)">
<stop stop-color="#015B88"/>
<stop offset="1" stop-color="#033C58"/>
</radialGradient>
<radialGradient id="paint22_radial_822_9959" cx="0" cy="0" r="1" gradientUnits="userSpaceOnUse" gradientTransform="translate(73.0008 100.677) scale(10.7664 10.7664)">
<stop stop-color="#408091"/>
<stop offset="0.3" stop-color="#2D5864"/>
<stop offset="0.78" stop-color="#101C1F"/>
<stop offset="1" stop-color="#050505"/>
</radialGradient>
<radialGradient id="paint23_radial_822_9959" cx="0" cy="0" r="1" gradientUnits="userSpaceOnUse" gradientTransform="translate(76.3902 18.1018) scale(14.2056)">
<stop stop-color="#B36F50"/>
<stop offset="1"/>
</radialGradient>
<linearGradient id="paint24_linear_822_9959" x1="60.357" y1="55.4351" x2="103.755" y2="55.4351" gradientUnits="userSpaceOnUse">
<stop stop-color="#943515"/>
<stop offset="0.29" stop-color="#E88200"/>
<stop offset="0.38" stop-color="#D57400"/>
<stop offset="0.56" stop-color="#A55300"/>
<stop offset="0.74" stop-color="#702D00"/>
<stop offset="0.76" stop-color="#773100"/>
<stop offset="0.8" stop-color="#8A3E00"/>
<stop offset="0.84" stop-color="#AB5200"/>
<stop offset="0.89" stop-color="#D97000"/>
<stop offset="0.92" stop-color="#CD6407"/>
<stop offset="0.98" stop-color="#AE451C"/>
<stop offset="1" stop-color="#A33A25"/>
</linearGradient>
<radialGradient id="paint25_radial_822_9959" cx="0" cy="0" r="1" gradientUnits="userSpaceOnUse" gradientTransform="translate(82.8866 38.4881) scale(40.5566 40.5566)">
<stop stop-color="#FFD457"/>
<stop offset="1" stop-color="#E37900"/>
</radialGradient>
<radialGradient id="paint26_radial_822_9959" cx="0" cy="0" r="1" gradientUnits="userSpaceOnUse" gradientTransform="translate(75.925 45.1007) scale(14.7373)">
<stop stop-color="#E88200"/>
<stop offset="1" stop-color="#823C24"/>
</radialGradient>
<radialGradient id="paint27_radial_822_9959" cx="0" cy="0" r="1" gradientUnits="userSpaceOnUse" gradientTransform="translate(78.6996 39.4351) scale(12.81 12.81)">
<stop stop-color="#FFE7A1"/>
<stop offset="1" stop-color="#F5A000"/>
</radialGradient>
<radialGradient id="paint28_radial_822_9959" cx="0" cy="0" r="1" gradientUnits="userSpaceOnUse" gradientTransform="translate(79.8128 30.3967) scale(29.2087 29.2087)">
<stop stop-color="#E88200"/>
<stop offset="1" stop-color="#823C24"/>
</radialGradient>
<radialGradient id="paint29_radial_822_9959" cx="0" cy="0" r="1" gradientUnits="userSpaceOnUse" gradientTransform="translate(98.0226 31.4434) scale(18.8245)">
<stop stop-color="#FFE7A1"/>
<stop offset="1" stop-color="#F5A000"/>
</radialGradient>
<radialGradient id="paint30_radial_822_9959" cx="0" cy="0" r="1" gradientUnits="userSpaceOnUse" gradientTransform="translate(83.0693 27.7051) scale(15.5514 15.5514)">
<stop offset="0.55"/>
<stop offset="0.58" stop-color="#1B160A"/>
<stop offset="0.67" stop-color="#5F4D24"/>
<stop offset="0.76" stop-color="#987B3A"/>
<stop offset="0.83" stop-color="#C49F4A"/>
<stop offset="0.9" stop-color="#E4B956"/>
<stop offset="0.96" stop-color="#F8C95E"/>
<stop offset="1" stop-color="#FFCF61"/>
</radialGradient>
<radialGradient id="paint31_radial_822_9959" cx="0" cy="0" r="1" gradientUnits="userSpaceOnUse" gradientTransform="translate(94.0683 35.9294) scale(21.649 21.649)">
<stop stop-color="#E88200"/>
<stop offset="1" stop-color="#823C24"/>
</radialGradient>
<radialGradient id="paint32_radial_822_9959" cx="0" cy="0" r="1" gradientUnits="userSpaceOnUse" gradientTransform="translate(107.294 36.5441) scale(14.3551 14.3551)">
<stop stop-color="#FFE7A1"/>
<stop offset="1" stop-color="#F5A000"/>
</radialGradient>
<radialGradient id="paint33_radial_822_9959" cx="0" cy="0" r="1" gradientUnits="userSpaceOnUse" gradientTransform="translate(56.6685 52.5109) scale(9.28764 9.28764)">
<stop stop-color="#E88200"/>
<stop offset="1" stop-color="#823C24"/>
</radialGradient>
<radialGradient id="paint34_radial_822_9959" cx="0" cy="0" r="1" gradientUnits="userSpaceOnUse" gradientTransform="translate(57.7318 57.595) scale(9.58671 9.58671)">
<stop stop-color="#FFE7A1"/>
<stop offset="1" stop-color="#F5A000"/>
</radialGradient>
<radialGradient id="paint35_radial_822_9959" cx="0" cy="0" r="1" gradientUnits="userSpaceOnUse" gradientTransform="translate(59.5096 48.8557) scale(9.58671 9.58672)">
<stop offset="0.55"/>
<stop offset="0.58" stop-color="#1B160A"/>
<stop offset="0.67" stop-color="#5F4D24"/>
<stop offset="0.76" stop-color="#987B3A"/>
<stop offset="0.83" stop-color="#C49F4A"/>
<stop offset="0.9" stop-color="#E4B956"/>
<stop offset="0.96" stop-color="#F8C95E"/>
<stop offset="1" stop-color="#FFCF61"/>
</radialGradient>
<linearGradient id="paint36_linear_822_9959" x1="67.7007" y1="67.6469" x2="99.3684" y2="49.3707" gradientUnits="userSpaceOnUse">
<stop stop-color="#874935"/>
<stop offset="0.29" stop-color="#E88F1E"/>
<stop offset="0.38" stop-color="#D5811C"/>
<stop offset="0.56" stop-color="#A55F17"/>
<stop offset="0.74" stop-color="#6E3712"/>
<stop offset="0.77" stop-color="#753D14"/>
<stop offset="0.81" stop-color="#884D1C"/>
<stop offset="0.86" stop-color="#A86929"/>
<stop offset="0.89" stop-color="#BA7830"/>
<stop offset="0.93" stop-color="#B26C34"/>
<stop offset="1" stop-color="#A14F3F"/>
</linearGradient>
<linearGradient id="paint37_linear_822_9959" x1="91.2437" y1="53.4746" x2="99.1025" y2="48.9387" gradientUnits="userSpaceOnUse">
<stop stop-color="white"/>
<stop offset="1" stop-color="#B55A92"/>
</linearGradient>
<linearGradient id="paint38_linear_822_9959" x1="64.9759" y1="65.7861" x2="73.682" y2="65.7861" gradientUnits="userSpaceOnUse">
<stop stop-color="#B55A92"/>
<stop offset="1" stop-color="white"/>
</linearGradient>
<radialGradient id="paint39_radial_822_9959" cx="0" cy="0" r="1" gradientUnits="userSpaceOnUse" gradientTransform="translate(81.8398 66.1682) scale(28.7103 28.7103)">
<stop stop-color="#B36F50"/>
<stop offset="1"/>
</radialGradient>
<radialGradient id="paint40_radial_822_9959" cx="0" cy="0" r="1" gradientUnits="userSpaceOnUse" gradientTransform="translate(75.2272 39.8006) scale(34.5919 34.5919)">
<stop stop-color="#FFD457"/>
<stop offset="1" stop-color="#E37900"/>
</radialGradient>
<radialGradient id="paint41_radial_822_9959" cx="0" cy="0" r="1" gradientUnits="userSpaceOnUse" gradientTransform="translate(78.8325 45.001) scale(25.1713 25.1713)">
<stop stop-color="#D9D7D5"/>
<stop offset="1" stop-color="#ADA08C"/>
</radialGradient>
<radialGradient id="paint42_radial_822_9959" cx="0" cy="0" r="1" gradientUnits="userSpaceOnUse" gradientTransform="translate(77.0548 40.8806) scale(37.649)">
<stop stop-color="#FFE7A1"/>
<stop offset="1" stop-color="#F5A000"/>
</radialGradient>
<linearGradient id="paint43_linear_822_9959" x1="64.843" y1="55.568" x2="90.3134" y2="40.864" gradientUnits="userSpaceOnUse">
<stop stop-color="#A33A25"/>
<stop offset="0.04" stop-color="#9A371E"/>
<stop offset="0.18" stop-color="#7B2F08"/>
<stop offset="0.26" stop-color="#702D00"/>
<stop offset="0.44" stop-color="#A55300"/>
<stop offset="0.62" stop-color="#D57400"/>
<stop offset="0.71" stop-color="#E88200"/>
<stop offset="1" stop-color="#943515"/>
</linearGradient>
<linearGradient id="paint44_linear_822_9959" x1="68.2988" y1="63.3936" x2="95.5138" y2="47.676" gradientUnits="userSpaceOnUse">
<stop stop-color="#874935"/>
<stop offset="0.29" stop-color="#E88F1E"/>
<stop offset="0.38" stop-color="#D5811C"/>
<stop offset="0.56" stop-color="#A55F17"/>
<stop offset="0.74" stop-color="#6E3712"/>
<stop offset="0.77" stop-color="#753D14"/>
<stop offset="0.81" stop-color="#884D1C"/>
<stop offset="0.86" stop-color="#A86929"/>
<stop offset="0.89" stop-color="#BA7830"/>
<stop offset="0.93" stop-color="#B26C34"/>
<stop offset="1" stop-color="#A14F3F"/>
</linearGradient>
<radialGradient id="paint45_radial_822_9959" cx="0" cy="0" r="1" gradientUnits="userSpaceOnUse" gradientTransform="translate(83.2687 78.2139) scale(22.081)">
<stop stop-color="#FFE7A1"/>
<stop offset="1" stop-color="#F5A000"/>
</radialGradient>
<radialGradient id="paint46_radial_822_9959" cx="0" cy="0" r="1" gradientUnits="userSpaceOnUse" gradientTransform="translate(64.9427 69.3583) scale(20.0706 20.0706)">
<stop stop-color="#E88200"/>
<stop offset="1" stop-color="#823C24"/>
</radialGradient>
<radialGradient id="paint47_radial_822_9959" cx="0" cy="0" r="1" gradientUnits="userSpaceOnUse" gradientTransform="translate(83.1192 69.9564) scale(17.163 17.163)">
<stop stop-color="#B56500"/>
<stop offset="1" stop-color="#612D1B"/>
</radialGradient>
<radialGradient id="paint48_radial_822_9959" cx="0" cy="0" r="1" gradientUnits="userSpaceOnUse" gradientTransform="translate(99.5844 66.7331) scale(16.2658 16.2658)">
<stop stop-color="#FFC052"/>
<stop offset="1" stop-color="#CC7A00"/>
</radialGradient>
<radialGradient id="paint49_radial_822_9959" cx="0" cy="0" r="1" gradientUnits="userSpaceOnUse" gradientTransform="translate(62.4504 62.3801) scale(16.0665 16.0665)">
<stop stop-color="#E88200"/>
<stop offset="1" stop-color="#823C24"/>
</radialGradient>
<radialGradient id="paint50_radial_822_9959" cx="0" cy="0" r="1" gradientUnits="userSpaceOnUse" gradientTransform="translate(61.7027 73.6615) scale(17.0467)">
<stop stop-color="#FFE7A1"/>
<stop offset="1" stop-color="#F5A000"/>
</radialGradient>
<linearGradient id="paint51_linear_822_9959" x1="66.0891" y1="61.7321" x2="73.0672" y2="61.7321" gradientUnits="userSpaceOnUse">
<stop stop-color="#B55A92"/>
<stop offset="1" stop-color="#EFEDF2"/>
</linearGradient>
<linearGradient id="paint52_linear_822_9959" x1="88.6353" y1="50.7165" x2="95.115" y2="46.9616" gradientUnits="userSpaceOnUse">
<stop stop-color="#EFEDF2"/>
<stop offset="1" stop-color="#B55A92"/>
</linearGradient>
<radialGradient id="paint53_radial_822_9959" cx="0" cy="0" r="1" gradientUnits="userSpaceOnUse" gradientTransform="translate(82.006 61.5826) scale(26.0021 26.0021)">
<stop stop-color="#B36F50"/>
<stop offset="1"/>
</radialGradient>
<radialGradient id="paint54_radial_822_9959" cx="0" cy="0" r="1" gradientUnits="userSpaceOnUse" gradientTransform="translate(74.0641 31.1111) scale(32.2825 32.2825)">
<stop stop-color="#78859C"/>
<stop offset="1" stop-color="#434354"/>
</radialGradient>
<radialGradient id="paint55_radial_822_9959" cx="0" cy="0" r="1" gradientUnits="userSpaceOnUse" gradientTransform="translate(58.9281 70.9865) scale(17.7778)">
<stop offset="0.55"/>
<stop offset="0.58" stop-color="#1B160A"/>
<stop offset="0.67" stop-color="#5F4D24"/>
<stop offset="0.76" stop-color="#987B3A"/>
<stop offset="0.83" stop-color="#C49F4A"/>
<stop offset="0.9" stop-color="#E4B956"/>
<stop offset="0.96" stop-color="#F8C95E"/>
<stop offset="1" stop-color="#FFCF61"/>
</radialGradient>
<radialGradient id="paint56_radial_822_9959" cx="0" cy="0" r="1" gradientUnits="userSpaceOnUse" gradientTransform="translate(83.6674 63.3437) scale(5.4164 5.4164)">
<stop stop-color="#E88200"/>
<stop offset="1" stop-color="#823C24"/>
</radialGradient>
<radialGradient id="paint57_radial_822_9959" cx="0" cy="0" r="1" gradientUnits="userSpaceOnUse" gradientTransform="translate(85.761 64.1911) scale(4.80166 4.80167)">
<stop stop-color="#FFCF61"/>
<stop offset="0.24" stop-color="#B59344"/>
<stop offset="0.52" stop-color="#685427"/>
<stop offset="0.74" stop-color="#302612"/>
<stop offset="0.91" stop-color="#0D0A05"/>
<stop offset="1"/>
</radialGradient>
<linearGradient id="paint58_linear_822_9959" x1="50.9198" y1="34.1018" x2="58.6124" y2="38.3552" gradientUnits="userSpaceOnUse">
<stop stop-color="#0D415D"/>
<stop offset="0.02" stop-color="#0A3C5C"/>
<stop offset="0.1" stop-color="#00295B"/>
<stop offset="0.13" stop-color="#00316C"/>
<stop offset="0.15" stop-color="#003675"/>
<stop offset="1" stop-color="#0B5B8D"/>
</linearGradient>
<linearGradient id="paint59_linear_822_9959" x1="45.6363" y1="43.0239" x2="58.1472" y2="43.0239" gradientUnits="userSpaceOnUse">
<stop stop-color="#0B3F7D"/>
<stop offset="1" stop-color="#002B67"/>
</linearGradient>
<radialGradient id="paint60_radial_822_9959" cx="0" cy="0" r="1" gradientUnits="userSpaceOnUse" gradientTransform="translate(96.4774 105.362) scale(56.6729 56.6729)">
<stop stop-color="#408091"/>
<stop offset="0.3" stop-color="#2D5864"/>
<stop offset="0.78" stop-color="#101C1F"/>
<stop offset="1" stop-color="#050505"/>
</radialGradient>
<radialGradient id="paint61_radial_822_9959" cx="0" cy="0" r="1" gradientUnits="userSpaceOnUse" gradientTransform="translate(24.6353 98.7331) scale(51.323 51.3228)">
<stop stop-color="#408091"/>
<stop offset="0.3" stop-color="#2D5864"/>
<stop offset="0.78" stop-color="#101C1F"/>
<stop offset="1" stop-color="#050505"/>
</radialGradient>
<linearGradient id="paint62_linear_822_9959" x1="51.2687" y1="35.1651" x2="53.7443" y2="36.5441" gradientUnits="userSpaceOnUse">
<stop stop-color="#0F0F0F"/>
<stop offset="0.32" stop-color="#212E4F"/>
<stop offset="0.5" stop-color="#2A3E6E"/>
<stop offset="0.59" stop-color="#273A66"/>
<stop offset="0.71" stop-color="#223053"/>
<stop offset="0.86" stop-color="#192033"/>
<stop offset="1" stop-color="#0F0F0F"/>
</linearGradient>
<linearGradient id="paint63_linear_822_9959" x1="56.4026" y1="34.8162" x2="58.8782" y2="36.1786" gradientUnits="userSpaceOnUse">
<stop stop-color="white"/>
<stop offset="0.14" stop-color="#CED8EB"/>
<stop offset="0.39" stop-color="#809ACB"/>
<stop offset="0.5" stop-color="#6182BF"/>
<stop offset="0.56" stop-color="#6887C1"/>
<stop offset="0.65" stop-color="#7B97C9"/>
<stop offset="0.76" stop-color="#9CB0D6"/>
<stop offset="0.88" stop-color="#C8D4E9"/>
<stop offset="1" stop-color="white"/>
</linearGradient>
<radialGradient id="paint64_radial_822_9959" cx="0" cy="0" r="1" gradientUnits="userSpaceOnUse" gradientTransform="translate(49.79 40.216) scale(8.83905 8.83901)">
<stop stop-color="#275885"/>
<stop offset="1" stop-color="#0F0F0F"/>
</radialGradient>
<linearGradient id="paint65_linear_822_9959" x1="21.4951" y1="86.1724" x2="34.4047" y2="86.1724" gradientUnits="userSpaceOnUse">
<stop stop-color="#0B3F7D"/>
<stop offset="1" stop-color="#002B67"/>
</linearGradient>
<linearGradient id="paint66_linear_822_9959" x1="27.0942" y1="76.27" x2="35.4349" y2="80.8889" gradientUnits="userSpaceOnUse">
<stop stop-color="#0D415D"/>
<stop offset="0.02" stop-color="#0A3C5C"/>
<stop offset="0.1" stop-color="#00295B"/>
<stop offset="0.13" stop-color="#00316C"/>
<stop offset="0.15" stop-color="#003675"/>
<stop offset="1" stop-color="#0B5B8D"/>
</linearGradient>
<linearGradient id="paint67_linear_822_9959" x1="27.8752" y1="77.1838" x2="30.3507" y2="78.5628" gradientUnits="userSpaceOnUse">
<stop stop-color="#0F0F0F"/>
<stop offset="0.32" stop-color="#212E4F"/>
<stop offset="0.5" stop-color="#2A3E6E"/>
<stop offset="0.59" stop-color="#273A66"/>
<stop offset="0.71" stop-color="#223053"/>
<stop offset="0.86" stop-color="#192033"/>
<stop offset="1" stop-color="#0F0F0F"/>
</linearGradient>
<linearGradient id="paint68_linear_822_9959" x1="32.6934" y1="77.3832" x2="35.169" y2="78.7456" gradientUnits="userSpaceOnUse">
<stop stop-color="white"/>
<stop offset="0.14" stop-color="#CED8EB"/>
<stop offset="0.39" stop-color="#809ACB"/>
<stop offset="0.5" stop-color="#6182BF"/>
<stop offset="0.56" stop-color="#6887C1"/>
<stop offset="0.65" stop-color="#7B97C9"/>
<stop offset="0.76" stop-color="#9CB0D6"/>
<stop offset="0.88" stop-color="#C8D4E9"/>
<stop offset="1" stop-color="white"/>
</linearGradient>
<radialGradient id="paint69_radial_822_9959" cx="0" cy="0" r="1" gradientUnits="userSpaceOnUse" gradientTransform="translate(26.114 82.567) scale(11.9792 11.9792)">
<stop stop-color="#275885"/>
<stop offset="1" stop-color="#0F0F0F"/>
</radialGradient>
<radialGradient id="paint70_radial_822_9959" cx="0" cy="0" r="1" gradientUnits="userSpaceOnUse" gradientTransform="translate(37.7111 78.1807) scale(4.68536 4.68536)">
<stop stop-color="#12507D"/>
<stop offset="0.17" stop-color="#0E4979"/>
<stop offset="1" stop-color="#002B67"/>
</radialGradient>
<radialGradient id="paint71_radial_822_9959" cx="0" cy="0" r="1" gradientUnits="userSpaceOnUse" gradientTransform="translate(34.4213 77.7819) scale(4.12046 4.12046)">
<stop stop-color="#3B83C5"/>
<stop offset="1" stop-color="#0F0F0F"/>
</radialGradient>
<radialGradient id="paint72_radial_822_9959" cx="0" cy="0" r="1" gradientUnits="userSpaceOnUse" gradientTransform="translate(73.3165 62.7456) scale(16.4818 16.4818)">
<stop stop-color="#E04C67"/>
<stop offset="1" stop-color="#99134C"/>
</radialGradient>
<radialGradient id="paint73_radial_822_9959" cx="0" cy="0" r="1" gradientUnits="userSpaceOnUse" gradientTransform="translate(87.1233 43.539) scale(19.9211 19.9211)">
<stop stop-color="#4A95D9"/>
<stop offset="1" stop-color="#1E459C"/>
</radialGradient>
<radialGradient id="paint74_radial_822_9959" cx="0" cy="0" r="1" gradientUnits="userSpaceOnUse" gradientTransform="translate(79.4805 51.3479) scale(2.55867 2.55867)">
<stop stop-color="#FFD457"/>
<stop offset="0.72" stop-color="#E37900"/>
<stop offset="1" stop-color="#733C0B"/>
</radialGradient>
<radialGradient id="paint75_radial_822_9959" cx="0" cy="0" r="1" gradientUnits="userSpaceOnUse" gradientTransform="translate(75.7422 31.4268) scale(57.8027 57.8027)">
<stop stop-color="#AFD7F7"/>
<stop offset="0.16" stop-color="#ADD5F5"/>
<stop offset="0.22" stop-color="#A7CEEE"/>
<stop offset="0.26" stop-color="#9DC2E3"/>
<stop offset="0.29" stop-color="#8EB1D4"/>
<stop offset="0.32" stop-color="#7B9BBF"/>
<stop offset="0.34" stop-color="#6480A6"/>
<stop offset="0.37" stop-color="#485F87"/>
<stop offset="0.39" stop-color="#283B65"/>
<stop offset="0.41" stop-color="#03103D"/>
</radialGradient>
<radialGradient id="paint76_radial_822_9959" cx="0" cy="0" r="1" gradientUnits="userSpaceOnUse" gradientTransform="translate(82.1555 58.8743) scale(15.7674 15.7674)">
<stop offset="0.74"/>
<stop offset="0.77" stop-color="#050505"/>
<stop offset="0.8" stop-color="#141414"/>
<stop offset="0.83" stop-color="#2D2D2D"/>
<stop offset="0.87" stop-color="#515151"/>
<stop offset="0.91" stop-color="#7E7E7E"/>
<stop offset="0.95" stop-color="#B6B6B6"/>
<stop offset="1" stop-color="white"/>
</radialGradient>
<radialGradient id="paint77_radial_822_9959" cx="0" cy="0" r="1" gradientUnits="userSpaceOnUse" gradientTransform="translate(83.3684 54.9201) scale(13.0758)">
<stop offset="0.74"/>
<stop offset="0.77" stop-color="#050505"/>
<stop offset="0.8" stop-color="#141414"/>
<stop offset="0.83" stop-color="#2D2D2D"/>
<stop offset="0.87" stop-color="#515151"/>
<stop offset="0.91" stop-color="#7E7E7E"/>
<stop offset="0.95" stop-color="#B6B6B6"/>
<stop offset="1" stop-color="white"/>
</radialGradient>
<radialGradient id="paint78_radial_822_9959" cx="0" cy="0" r="1" gradientUnits="userSpaceOnUse" gradientTransform="translate(74.4961 45.4496) scale(14.8037 14.8038)">
<stop offset="0.81"/>
<stop offset="0.83" stop-color="#0F0F0F"/>
<stop offset="0.86" stop-color="#373737"/>
<stop offset="0.91" stop-color="#787878"/>
<stop offset="0.97" stop-color="#D1D1D1"/>
<stop offset="1" stop-color="white"/>
</radialGradient>
<radialGradient id="paint79_radial_822_9959" cx="0" cy="0" r="1" gradientUnits="userSpaceOnUse" gradientTransform="translate(98.7703 129.587) scale(14.6044 14.6044)">
<stop stop-color="#015B88"/>
<stop offset="1" stop-color="#033C58"/>
</radialGradient>
<radialGradient id="paint80_radial_822_9959" cx="0" cy="0" r="1" gradientUnits="userSpaceOnUse" gradientTransform="translate(100.731 123.888) scale(13.1423 13.1423)">
<stop stop-color="#408091"/>
<stop offset="0.3" stop-color="#2D5864"/>
<stop offset="0.78" stop-color="#101C1F"/>
<stop offset="1" stop-color="#050505"/>
</radialGradient>
<radialGradient id="paint81_radial_822_9959" cx="0" cy="0" r="1" gradientUnits="userSpaceOnUse" gradientTransform="translate(111.796 60.7518) scale(18.5753 18.5753)">
<stop stop-color="#E88200"/>
<stop offset="1" stop-color="#823C24"/>
</radialGradient>
<radialGradient id="paint82_radial_822_9959" cx="0" cy="0" r="1" gradientUnits="userSpaceOnUse" gradientTransform="translate(112.993 53.3416) scale(18.1931 18.1931)">
<stop stop-color="#FFE7A1"/>
<stop offset="1" stop-color="#F5A000"/>
</radialGradient>
<radialGradient id="paint83_radial_822_9959" cx="0" cy="0" r="1" gradientUnits="userSpaceOnUse" gradientTransform="translate(106.43 39.7674) scale(20.1703)">
<stop offset="0.55"/>
<stop offset="0.58" stop-color="#1B160A"/>
<stop offset="0.67" stop-color="#5F4D24"/>
<stop offset="0.76" stop-color="#987B3A"/>
<stop offset="0.83" stop-color="#C49F4A"/>
<stop offset="0.9" stop-color="#E4B956"/>
<stop offset="0.96" stop-color="#F8C95E"/>
<stop offset="1" stop-color="#FFCF61"/>
</radialGradient>
<radialGradient id="paint84_radial_822_9959" cx="0" cy="0" r="1" gradientUnits="userSpaceOnUse" gradientTransform="translate(60.7391 45.0841) scale(28.9429 28.9429)">
<stop stop-color="#FFC45E"/>
<stop offset="1" stop-color="#E68B00"/>
</radialGradient>
<radialGradient id="paint85_radial_822_9959" cx="0" cy="0" r="1" gradientUnits="userSpaceOnUse" gradientTransform="translate(117.146 44.918) scale(20.2368 20.2368)">
<stop stop-color="#FFC45E"/>
<stop offset="1" stop-color="#E68B00"/>
</radialGradient>
<radialGradient id="paint86_radial_822_9959" cx="0" cy="0" r="1" gradientUnits="userSpaceOnUse" gradientTransform="translate(97.0922 15.5597) scale(15.784 15.784)">
<stop stop-color="#FFC45E"/>
<stop offset="1" stop-color="#E68B00"/>
</radialGradient>
<radialGradient id="paint87_radial_822_9959" cx="0" cy="0" r="1" gradientUnits="userSpaceOnUse" gradientTransform="translate(63.0818 41.8276) scale(21.8152 21.8152)">
<stop stop-color="#E88200"/>
<stop offset="1" stop-color="#823C24"/>
</radialGradient>
<radialGradient id="paint88_radial_822_9959" cx="0" cy="0" r="1" gradientUnits="userSpaceOnUse" gradientTransform="translate(102.509 37.5909) scale(35.8878 35.8879)">
<stop stop-color="#E88200"/>
<stop offset="1" stop-color="#823C24"/>
</radialGradient>
</defs>
</svg>
