<svg width="120" height="120" viewBox="0 0 120 120" fill="none" xmlns="http://www.w3.org/2000/svg">
<circle cx="60" cy="60" r="46" fill="white"/>
<path d="M96.6 60.5V58.3C96.6 37.6998 79.9002 21 59.3 21C38.6998 21 22 37.6998 22 58.3V60.5C22 81.1002 38.6998 97.8 59.3 97.8C79.9002 97.8 96.6 81.1002 96.6 60.5Z" fill="white"/>
<mask id="mask0_1184_1410" style="mask-type:alpha" maskUnits="userSpaceOnUse" x="22" y="21" width="75" height="77">
<path d="M96.6 60.5V58.3C96.6 37.6998 79.9002 21 59.3 21C38.6998 21 22 37.6998 22 58.3V60.5C22 81.1002 38.6998 97.8 59.3 97.8C79.9002 97.8 96.6 81.1002 96.6 60.5Z" fill="white"/>
</mask>
<g mask="url(#mask0_1184_1410)">
<path d="M46.7999 84.6L48.6999 113.3L71.5999 113.4L72.4999 84.6L60.0999 83.3L46.7999 84.6Z" fill="#4A3222"/>
<path d="M72.5 84.5999L69.1 84.2999C68.3 87.4999 64.5 90 60 90C55.4 90 51.6 87.5 50.8 84.2L46.8 84.5999L43.1 131.6L76.7 131.5L72.5 84.5999Z" fill="#91B4F9"/>
<path d="M60 90C55.4 90 51.6 87.5 50.8 84.2L46.8 84.5999L43.1 131.6H60V90Z" fill="#6398E5"/>
<path d="M46.8 84.6001C44.8 83.6001 35.2 103.8 35.3 103.9C35.4 104.1 29.7 113 27.8 116.3C26 116.5 24.3 117.2 22.7 118C22 118.4 20.1 119.5 21.3 120.4C21.6 120.6 21.9 120.6 22.2 120.6C22.4 120.6 22.5 120.6 22.7 120.6C23.6 120.5 23.1 121.7 23 122.1C22.7 123.5 22 124.8 21.9 126.2C21.8 126.9 22.1 127.6 22.8 127.7C23.6 127.8 23.8 126.9 24.2 126.3C24.2 127 23.8 127.8 23.9 128.4C24 129.1 24.8 129 25.3 128.8C25.4 129 25.6 129.3 25.9 129.2C26.3 129.2 26.8 128.8 27.1 129C27.9 129.5 28.9 128.1 29.3 127.6C31 125.7 32.2 123.1 32.2 120.6C35.2 117.8 40.6 110.7 42.2 108.3C45.6 103.4 48.9 97.8002 49.6 91.8002C50.1 89.0002 49.5 85.9001 46.8 84.6001Z" fill="#4A3222"/>
<path d="M99.6999 118.2C99.8999 118.2 99.9999 118.2 100.2 118.2C100.5 118.2 100.8 118.1 101.1 117.9C102.2 116.9 100.3 116 99.4999 115.7C97.8999 115 96.0999 114.5 94.2999 114.5C91.9999 111.4 85.5999 103 85.6999 102.8C85.7999 102.7 74.3999 83.4001 72.4999 84.6001C69.8999 86.2001 69.5999 89.3001 70.1999 92.0001C71.4999 98.0001 75.1999 103.2 79.0999 107.8C80.9999 110 86.9999 116.6 90.1999 119.1C90.3999 121.7 91.7999 124.1 93.6999 125.8C94.1999 126.2 95.2999 127.6 95.9999 127C96.2999 126.8 96.7999 127.1 97.1999 127.1C97.4999 127.1 97.6999 126.9 97.7999 126.6C98.2999 126.7 99.0999 126.8 99.1999 126.1C99.1999 125.4 98.6999 124.7 98.6999 124C99.0999 124.6 99.3999 125.4 100.2 125.3C100.9 125.2 101.1 124.4 101 123.7C100.7 122.3 99.9999 121.1 99.4999 119.8C99.3999 119.4 98.8999 118.2 99.6999 118.2Z" fill="#4A3222"/>
<path d="M36.7 98.2001C37.6 96.7001 45.1 84.4001 46.7 84.4001C46.8 84.4001 46.8 84.4001 46.8 84.4001C50 86.0001 50.1 89.7001 49.8 91.7001C49.3 95.6001 47.8 99.6001 45.1 104L45 104.1L36.7 98.2001Z" fill="#6398E5"/>
<path d="M75.2999 103.1C72.5999 99.2002 70.8999 95.6002 70.0999 92.1002C69.6999 90.1002 69.3999 86.4002 72.3999 84.6002C72.4999 84.6002 72.5999 84.5002 72.6999 84.5002C74.3999 84.5002 80.0999 91.4002 83.4999 96.8002L83.5999 96.9002L83.4999 97.0002C81.9999 98.0002 80.2999 99.3002 78.6999 100.6C77.4999 101.6 76.3999 102.5 75.3999 103.2L75.2999 103.1Z" fill="#91B4F9"/>
<path d="M79.2 62.2001C80.2 43.1001 70.2 35.6001 58.8 35.6001C46.6 35.6001 37.5 43.5001 38.4 62.2001C35.5 61.3001 34.6 65.1001 35.7 67.4001C37.2 70.7001 39.5 70.5001 40.2 69.4001C44.4 80.7001 56.8 75.7001 56.3 85.3001C58.5 86.2001 61 86.5001 62.8 85.3001C61 76.4001 73.3 79.8001 77.2 69.4001C77.9 70.5001 80.2 70.7001 81.8 67.4001C83 65.1001 82.1 61.3001 79.2 62.2001Z" fill="#4A3222"/>
<path d="M56.1999 44.8001C52.6999 54.4001 61.2999 58.7001 57.6999 67.0001C54.8999 73.4001 57.8999 77.9001 57.8999 77.9001C58.9999 80.2001 82.2999 80.3001 76.7999 53.6001C74.5999 42.7001 57.5999 40.9001 56.1999 44.8001Z" fill="#754C29"/>
<path d="M50.3 65.8002C51.8464 65.8002 53.1 64.5466 53.1 63.0002C53.1 61.4538 51.8464 60.2002 50.3 60.2002C48.7536 60.2002 47.5 61.4538 47.5 63.0002C47.5 64.5466 48.7536 65.8002 50.3 65.8002Z" fill="white"/>
<path d="M50.3 60.8003C49.1 60.8003 48.1 61.8003 48.1 63.0003C48.1 64.2003 49.1 65.2003 50.3 65.2003C51.5 65.2003 52.5 64.2003 52.5 63.0003C52.5 61.8003 51.5 60.8003 50.3 60.8003Z" fill="#683011"/>
<path d="M50.3 62.2002C49.9 62.2002 49.5 62.6002 49.5 63.0002C49.5 63.4002 49.9 63.8002 50.3 63.8002C50.7 63.8002 51.1 63.4002 51.1 63.0002C51 62.6002 50.7 62.2002 50.3 62.2002Z" fill="black"/>
<path d="M67.1 65.8002C68.6464 65.8002 69.9001 64.5466 69.9001 63.0002C69.9001 61.4538 68.6464 60.2002 67.1 60.2002C65.5537 60.2002 64.3 61.4538 64.3 63.0002C64.3 64.5466 65.5537 65.8002 67.1 65.8002Z" fill="white"/>
<path d="M67.1 60.8003C65.9 60.8003 64.9 61.8003 64.9 63.0003C64.9 64.2003 65.9 65.2003 67.1 65.2003C68.3 65.2003 69.3 64.2003 69.3 63.0003C69.3 61.8003 68.3 60.8003 67.1 60.8003Z" fill="#683011"/>
<path d="M67.1 62.2002C66.7 62.2002 66.3 62.6002 66.3 63.0002C66.3 63.4002 66.7 63.8002 67.1 63.8002C67.5 63.8002 67.9001 63.4002 67.9001 63.0002C67.9001 62.6002 67.6 62.2002 67.1 62.2002Z" fill="black"/>
<path d="M49.7 54.7002C47.6 54.7002 47.1 57.0002 47.2 56.9002C48.7 55.4002 51 55.4002 52.7 57.0002C52.2 55.6002 51.2 54.7002 49.7 54.7002Z" fill="black"/>
<path d="M67.7 54.7002C66.2 54.7002 65.2 55.6002 64.7 57.0002C66.4 55.4002 68.6 55.4002 70.2 56.9002C70.3 57.0002 69.8 54.7002 67.7 54.7002Z" fill="black"/>
<path d="M56.5 68.1001C56.5 68.5001 57.5 68.8001 58.8 68.8001C60.1 68.8001 61.1 68.5001 61.1 68.1001C61.1 67.2001 56.5 66.9001 56.5 68.1001Z" fill="#4A3222"/>
<path d="M54.4 70.6003C54 70.3003 56.1 73.9003 58.8 73.9003C60.8 73.9003 63.3 71.7003 63.2 70.6003C59.9 73.7003 56.9 72.8003 54.4 70.6003Z" fill="white"/>
<path d="M58.7999 30.6001C43.1999 30.6001 27.2999 42.1001 38.3999 62.1001C39.6999 64.4001 37.4999 58.5001 38.9999 52.4001C40.4999 46.3001 43.7999 39.2001 58.7999 42.0001C58.7999 42.0001 79.1999 35.3001 79.1999 62.1001C89.7999 42.1001 72.4999 30.7001 58.7999 30.6001Z" fill="black"/>
<path d="M58.8999 30.6001C55.0999 36.3001 56.2999 37.9001 58.4999 42.0001C58.5999 42.0001 58.6999 42.0001 58.7999 42.1001C58.7999 42.1001 79.1999 35.4001 79.1999 62.2001C89.7999 42.1001 72.5999 30.7001 58.8999 30.6001Z" fill="#1E120E"/>
</g>
<circle cx="60" cy="60" r="57" stroke="#3C5000" stroke-width="6"/>
</svg>
