<svg width="119" height="119" viewBox="0 0 119 119" fill="none" xmlns="http://www.w3.org/2000/svg">
<g filter="url(#filter0_d_1_401)">
<circle cx="59.7169" cy="56.7169" r="35.7169" fill="#D3625D"/>
</g>
<mask id="path-2-inside-1_1_401" fill="white">
<path d="M42.9518 61.0903C42.9518 56.644 44.7181 52.3797 47.8622 49.2357C51.0062 46.0916 55.2705 44.3253 59.7169 44.3253C64.1632 44.3253 68.4275 46.0916 71.5716 49.2357C74.7156 52.3797 76.4819 56.644 76.4819 61.0903H70.8754C70.8754 58.1309 69.6997 55.2927 67.6071 53.2001C65.5145 51.1075 62.6763 49.9319 59.7169 49.9319C56.7575 49.9319 53.9193 51.1075 51.8266 53.2001C49.734 55.2927 48.5584 58.1309 48.5584 61.0903H42.9518Z"/>
</mask>
<path d="M42.9518 61.0903C42.9518 56.644 44.7181 52.3797 47.8622 49.2357C51.0062 46.0916 55.2705 44.3253 59.7169 44.3253C64.1632 44.3253 68.4275 46.0916 71.5716 49.2357C74.7156 52.3797 76.4819 56.644 76.4819 61.0903H70.8754C70.8754 58.1309 69.6997 55.2927 67.6071 53.2001C65.5145 51.1075 62.6763 49.9319 59.7169 49.9319C56.7575 49.9319 53.9193 51.1075 51.8266 53.2001C49.734 55.2927 48.5584 58.1309 48.5584 61.0903H42.9518Z" stroke="#9BC90E" stroke-opacity="0.21" stroke-width="6.15859" mask="url(#path-2-inside-1_1_401)"/>
<mask id="path-3-inside-2_1_401" fill="white">
<path d="M42.9518 61.0903C42.9518 58.8887 43.3855 56.7087 44.228 54.6746C45.0705 52.6406 46.3054 50.7924 47.8622 49.2357C49.419 47.6789 51.2671 46.444 53.3012 45.6015C55.3352 44.7589 57.5153 44.3253 59.7169 44.3253C61.9185 44.3253 64.0986 44.7589 66.1326 45.6015C68.1666 46.444 70.0148 47.6789 71.5716 49.2357C73.1283 50.7924 74.3632 52.6406 75.2058 54.6746C76.0483 56.7087 76.4819 58.8887 76.4819 61.0903H70.8754C70.8754 59.625 70.5867 58.174 70.026 56.8202C69.4652 55.4664 68.6433 54.2363 67.6071 53.2001C66.571 52.1639 65.3409 51.342 63.987 50.7812C62.6332 50.2205 61.1822 49.9319 59.7169 49.9319C58.2515 49.9319 56.8005 50.2205 55.4467 50.7812C54.0929 51.342 52.8628 52.1639 51.8266 53.2001C50.7905 54.2363 49.9685 55.4664 49.4078 56.8202C48.847 58.174 48.5584 59.625 48.5584 61.0903H42.9518Z"/>
</mask>
<path d="M42.9518 61.0903C42.9518 58.8887 43.3855 56.7087 44.228 54.6746C45.0705 52.6406 46.3054 50.7924 47.8622 49.2357C49.419 47.6789 51.2671 46.444 53.3012 45.6015C55.3352 44.7589 57.5153 44.3253 59.7169 44.3253C61.9185 44.3253 64.0986 44.7589 66.1326 45.6015C68.1666 46.444 70.0148 47.6789 71.5716 49.2357C73.1283 50.7924 74.3632 52.6406 75.2058 54.6746C76.0483 56.7087 76.4819 58.8887 76.4819 61.0903H70.8754C70.8754 59.625 70.5867 58.174 70.026 56.8202C69.4652 55.4664 68.6433 54.2363 67.6071 53.2001C66.571 52.1639 65.3409 51.342 63.987 50.7812C62.6332 50.2205 61.1822 49.9319 59.7169 49.9319C58.2515 49.9319 56.8005 50.2205 55.4467 50.7812C54.0929 51.342 52.8628 52.1639 51.8266 53.2001C50.7905 54.2363 49.9685 55.4664 49.4078 56.8202C48.847 58.174 48.5584 59.625 48.5584 61.0903H42.9518Z" stroke="white" stroke-width="6.15859" mask="url(#path-3-inside-2_1_401)"/>
<path d="M79.0528 60.9176L59.7403 60.5366L59.6971 62.7229L79.0528 60.9176Z" fill="#AB3A35"/>
<circle cx="59.7169" cy="61.8193" r="2.91566" fill="white"/>
<defs>
<filter id="filter0_d_1_401" x="0.674698" y="0.590361" width="118.084" height="118.084" filterUnits="userSpaceOnUse" color-interpolation-filters="sRGB">
<feFlood flood-opacity="0" result="BackgroundImageFix"/>
<feColorMatrix in="SourceAlpha" type="matrix" values="0 0 0 0 0 0 0 0 0 0 0 0 0 0 0 0 0 0 127 0" result="hardAlpha"/>
<feOffset dy="2.91566"/>
<feGaussianBlur stdDeviation="11.6627"/>
<feComposite in2="hardAlpha" operator="out"/>
<feColorMatrix type="matrix" values="0 0 0 0 0.725 0 0 0 0 0.725 0 0 0 0 0.725 0 0 0 0.4 0"/>
<feBlend mode="normal" in2="BackgroundImageFix" result="effect1_dropShadow_1_401"/>
<feBlend mode="normal" in="SourceGraphic" in2="effect1_dropShadow_1_401" result="shape"/>
</filter>
</defs>
</svg>
