<svg width="164" height="46" viewBox="0 0 164 46" fill="none" xmlns="http://www.w3.org/2000/svg">
<path d="M46 22.9601L118 22.9601" stroke="white" stroke-width="0.840168" stroke-dasharray="1.68 1.68"/>
<circle cx="22.3463" cy="22.7966" r="20.7385" fill="white" stroke="#DCF09E" stroke-width="3.21569"/>
<path d="M23.0056 32.313C22.5254 32.313 22.1309 32.1673 21.8222 31.8757C21.5135 31.567 21.3592 31.1897 21.3592 30.7438V17.7781L21.7193 18.3441L19.8414 19.7333C19.6013 19.9219 19.3011 20.0163 18.941 20.0163C18.5294 20.0163 18.1692 19.8619 17.8605 19.5532C17.5518 19.2445 17.3974 18.8758 17.3974 18.447C17.3974 17.8982 17.6633 17.4523 18.1949 17.1093L21.8994 14.6396C22.0709 14.5196 22.2596 14.4338 22.4654 14.3824C22.6883 14.3309 22.8941 14.3052 23.0828 14.3052C23.5801 14.3052 23.9746 14.4596 24.2662 14.7683C24.5577 15.0598 24.7035 15.4286 24.7035 15.8745V30.7438C24.7035 31.1897 24.5406 31.567 24.2147 31.8757C23.906 32.1673 23.503 32.313 23.0056 32.313Z" fill="#403296"/>
<circle opacity="0.7" cx="141.654" cy="22.7966" r="20.7385" fill="white" stroke="#DCF09E" stroke-width="3.21569"/>
<path d="M146.214 29.4832C146.626 29.4832 146.969 29.6204 147.243 29.8949C147.517 30.1693 147.655 30.5123 147.655 30.9239C147.655 31.3183 147.517 31.6528 147.243 31.9272C146.969 32.1844 146.626 32.313 146.214 32.313H137.467C137.021 32.313 136.67 32.1758 136.413 31.9014C136.155 31.627 136.027 31.2755 136.027 30.8467C136.027 30.4179 136.181 30.0406 136.49 29.7148L142.098 23.7207C142.732 23.0347 143.23 22.3316 143.59 21.6112C143.967 20.8909 144.156 20.2649 144.156 19.7333C144.156 18.8758 143.907 18.1898 143.41 17.6752C142.912 17.1436 142.252 16.8778 141.429 16.8778C141.103 16.8778 140.769 16.9549 140.426 17.1093C140.083 17.2636 139.748 17.478 139.422 17.7524C139.114 18.0268 138.822 18.3441 138.548 18.7043C138.342 18.9787 138.136 19.1502 137.93 19.2188C137.725 19.2874 137.536 19.3217 137.364 19.3217C136.987 19.3217 136.635 19.1845 136.31 18.9101C136.001 18.6185 135.847 18.2841 135.847 17.9068C135.847 17.6152 135.941 17.3322 136.13 17.0578C136.335 16.7834 136.584 16.5004 136.876 16.2089C137.304 15.7801 137.785 15.4028 138.316 15.077C138.848 14.7511 139.397 14.5024 139.963 14.3309C140.529 14.1423 141.077 14.048 141.609 14.048C142.758 14.048 143.753 14.2795 144.593 14.7425C145.451 15.1884 146.111 15.8316 146.574 16.672C147.037 17.4952 147.269 18.4727 147.269 19.6047C147.269 20.5479 146.986 21.6027 146.42 22.7689C145.871 23.918 145.125 24.9984 144.182 26.0103L140.709 29.7148L140.426 29.4832H146.214Z" fill="#403296"/>
</svg>
