<svg width="61" height="67" viewBox="0 0 61 67" fill="none" xmlns="http://www.w3.org/2000/svg">
<g clip-path="url(#clip0_3_3705)">
<g style="mix-blend-mode:multiply" opacity="0.25">
<path d="M53.144 22.2114L54.6931 16.7219L50.0509 15.539L50.1697 14.87C50.1493 14.8963 49.6367 14.8145 48.7781 14.6582L49.0063 12.35C48.7705 12.5079 47.5915 12.179 47.2976 12.1405C46.6426 12.0578 45.9877 11.9751 45.3368 11.8871C43.9057 11.6992 42.4786 11.506 41.0515 11.3129C35.6906 10.5909 30.3408 9.80586 24.9817 9.05994C23.0378 8.79023 21.0992 8.48669 19.1502 8.2508C18.0194 8.11479 16.8898 8.026 15.7513 8.12789C13.8031 8.30889 11.737 9.0545 11.05 11.0703C10.8499 11.6595 10.7968 12.2112 10.8572 12.7248L10.5686 15.4149C10.4916 15.4058 10.3995 15.4269 10.2935 15.4878C7.93069 15.6503 8.1468 18.8829 9.95694 19.6672C10.0077 19.6939 10.0532 19.7165 10.104 19.7433L10.0725 20.0174L10.03 20.3545C10.03 20.3545 10.03 20.3545 10.0352 20.3585L9.51517 25.2199L9.50407 25.2071C6.84926 25.1224 7.04716 28.5847 8.92266 29.3986C8.97343 29.4253 9.0137 29.4439 9.06448 29.4706L9.01406 29.9319L9.01642 29.9505L8.44993 35.23C5.8972 35.1655 6.13181 38.6185 7.95542 39.4342C7.9706 39.4418 7.98111 39.4499 7.99628 39.4575L7.94993 39.9135L7.92927 40.0867L7.37715 45.2554C4.78133 45.2248 4.90225 48.678 6.76724 49.4837C6.81801 49.5104 6.86354 49.533 6.91431 49.5598L6.62392 52.2739C6.83344 53.2897 8.21805 53.82 9.65788 53.9641C9.86951 53.9515 10.0748 54.0012 10.2349 54.1799L13.2616 55.1035C13.1934 55.4249 13.1147 55.7381 13.0255 56.0432C13.0186 56.0631 13.0157 56.0777 13.0087 56.0975C12.2369 58.6026 10.698 60.627 8.97412 62.5375C8.97412 62.5375 9.31888 63.2377 9.0943 63.4841L12.769 62.4206L12.9698 64.6743L13.09 65.6209C15.2314 63.4158 16.9124 60.7194 18.1371 57.5266L18.102 56.5786L35.9014 62.0047L36.8802 61.0181L36.9706 60.3859L37.1178 60.2392C37.1173 60.3104 37.1175 60.3862 37.1217 60.4567C37.1553 60.3482 37.1895 60.2443 37.2231 60.1358L41.3549 56.029C41.3414 56.2961 41.3233 56.5637 41.3191 56.8296C41.332 56.5579 41.3502 56.2902 41.3677 56.0179L42.5205 54.8717C42.533 54.9697 42.5413 55.0729 42.5584 55.1702C42.5663 55.046 42.5842 54.9253 42.5921 54.8011L43.0507 54.3448L44.0524 54.6583L44.7079 53.8122L46.3451 54.7274L52.3901 23.7381L51.2023 23.0786L51.3689 22.3751L53.1608 22.195L53.144 22.2114ZM14.2874 16.0801C14.2874 16.0801 14.6351 16.1686 15.2318 16.3155L14.2874 16.0801C14.0134 16.1243 13.7888 16.0344 13.6013 15.8639C13.8254 15.9492 14.0529 16.0245 14.2874 16.0801ZM13.3714 15.7699C13.0686 15.6614 12.789 15.5121 12.5309 15.308C12.7901 15.4836 13.0703 15.6375 13.3714 15.7699ZM10.4998 15.4332C10.4689 15.4513 10.4433 15.4735 10.4124 15.4916C10.3798 15.4958 10.3512 15.4947 10.3186 15.4988L10.4998 15.4332Z" fill="#214380"/>
</g>
<path d="M8.4386 60.26L12.15 59.187L12.3188 61.4495L12.439 62.3961C14.5804 60.191 16.2614 57.4946 17.486 54.3018L17.4468 53.2833L12.7683 52.6737C12.2261 55.3818 8.31782 59.3086 8.31782 59.3086C8.31782 59.3086 8.66259 60.0088 8.438 60.2553L8.4386 60.26Z" fill="#014492"/>
<path d="M8.31898 59.318L12.0304 58.2451L12.3193 61.4542C14.4607 59.2491 16.1417 56.5527 17.3664 53.3599L12.6493 51.7364C12.0372 54.7899 10.3012 57.1283 8.31958 59.3227L8.31898 59.318Z" fill="url(#paint0_linear_3_3705)"/>
<path opacity="0.5" d="M12.0544 53.7309L16.5057 55.3882C16.8208 54.6232 17.1528 53.8039 17.4934 52.9788L12.7686 51.2947C12.575 52.1959 12.3567 52.9392 12.0544 53.7309Z" fill="#014492"/>
<path style="mix-blend-mode:screen" d="M8.31901 59.318L12.0304 58.245L12.2848 61.07C14.1243 59.2491 16.8074 56.1223 14.4028 56.1053C12.477 56.0892 10.4787 57.518 8.88159 58.6732C8.69542 58.8864 8.50984 59.1042 8.31842 59.3133L8.31901 59.318Z" fill="url(#paint1_radial_3_3705)"/>
<path d="M12.0305 58.245L12.3194 61.4541C14.9167 58.8831 16.2262 56.1344 17.3665 53.3598C15.5216 56.6314 13.6688 59.7286 12.566 60.5225C12.3219 60.0181 12.2249 58.9927 12.0351 58.2444L12.0305 58.245Z" fill="#80FFFF"/>
<path d="M12.0305 58.245L8.31908 59.3179L8.56402 59.0452L12.0305 58.245Z" fill="#80FFFF"/>
<path fill-rule="evenodd" clip-rule="evenodd" d="M9.8523 12.1985C9.21689 12.5682 8.55274 14.0551 9.56207 14.3913C10.6058 14.7374 10.582 13.2809 10.35 12.6849C10.2023 12.3056 10.0152 12.0261 9.59418 12.2928L9.8523 12.1985Z" fill="#71223D"/>
<path fill-rule="evenodd" clip-rule="evenodd" d="M5.89902 43.9504C6.35876 44.1006 6.67491 43.8662 6.77433 43.4176C6.82289 43.2029 6.82949 42.9936 6.80166 42.7744C6.77443 42.5599 6.70042 42.2755 6.81664 42.0713C6.69487 42.1199 6.566 42.1125 6.44483 42.1658C6.08538 42.3205 5.64799 42.5703 5.43584 42.9147C5.20103 43.3046 5.49295 43.8125 5.89377 43.9464L5.89902 43.9504Z" fill="#551A2E"/>
<path fill-rule="evenodd" clip-rule="evenodd" d="M7.08866 34.0619C8.00872 34.3668 7.98218 33.2993 7.97287 32.7034C7.97243 32.476 8.00871 32.2392 8.0042 32.0171C7.69524 32.0468 7.44468 32.126 7.20544 32.3317C6.93593 32.5602 6.60127 32.8728 6.55359 33.2437C6.50532 33.6099 6.74735 33.9488 7.08866 34.0619Z" fill="#551A2E"/>
<path fill-rule="evenodd" clip-rule="evenodd" d="M8.2629 24.0521C8.75239 24.2127 9.07195 23.9304 9.15849 23.4551C9.19595 23.2276 9.19085 23.0008 9.14785 22.7741C9.12313 22.654 9.0273 21.9365 9.17764 21.889C8.90376 21.9711 8.56178 22.114 8.33764 22.2894C7.77818 22.7347 7.32241 23.7356 8.26757 24.0515L8.2629 24.0521Z" fill="#71223D"/>
<path d="M47.306 9.81757L43.3874 51.4353L12.557 41.5652L15.1475 5.16249L47.306 9.81757Z" fill="url(#paint2_radial_3_3705)"/>
<path d="M14.2013 11.8928C13.0585 10.6921 12.9748 8.72681 13.9775 7.40543C14.623 6.55584 16.197 5.47942 17.3409 5.79382C16.2638 5.37142 14.7294 5.15398 13.6164 5.49429C12.5996 5.80818 11.4172 6.46055 11.0321 7.49505C10.785 8.16137 10.6353 8.8485 10.8418 9.54252C11.1153 10.465 11.6668 11.6364 12.583 12.0603C13.1625 12.3326 13.8137 12.2737 14.4274 12.1815C14.2745 12.0588 14.1884 11.866 14.0639 11.7443L14.2007 11.8881L14.2013 11.8928Z" fill="#551A2E"/>
<path d="M47.306 9.81759L48.3594 9.11998L44.2511 50.3259L43.3874 51.4353L47.306 9.81759Z" fill="#551A2E"/>
<path d="M36.1974 57.2808L42.3857 51.1218L49.5181 11.6406L40 19.0421L36.1974 57.2808Z" fill="url(#paint3_linear_3_3705)"/>
<path d="M49.5181 11.6406C49.3785 11.81 29.5408 7.64722 25.1316 6.95603C23.3376 6.67204 21.5109 6.39218 19.7065 6.17584C17.9984 5.97097 15.0171 5.33068 13.5761 6.66981C12.8852 7.31191 12.347 8.18578 12.255 9.14042C12.1281 10.4549 13.0144 11.4274 14.1972 11.898L41.496 19.0323C41.496 19.0323 48.4236 12.4998 49.5181 11.6406Z" fill="url(#paint4_linear_3_3705)"/>
<path d="M13.6399 12.8454C13.3566 12.8908 13.1267 12.7968 12.9374 12.6123L9.00224 50.7399C9.21387 50.7273 9.4192 50.777 9.5793 50.9557L13.6399 12.8454Z" fill="#551A2E"/>
<path d="M13.6399 12.8453L40.9674 19.7201L35.2411 58.7811L9.57987 50.9604L13.6399 12.8453Z" fill="url(#paint5_radial_3_3705)"/>
<path d="M12.9381 12.617C11.5124 12.2483 10.5223 10.7203 10.2423 9.14952L5.97356 49.0538C6.18308 50.0696 7.56768 50.5999 9.00752 50.744L12.9381 12.617Z" fill="url(#paint6_linear_3_3705)"/>
<path d="M40.9674 19.7201L35.2411 58.7811L36.2205 57.7991L41.7277 19.1023L40.9674 19.7201Z" fill="#551A2E"/>
<path opacity="0.3" d="M15.9968 32.0828L26.4581 24.571L34.575 37.1115L22.6479 45.8044L15.9968 32.0828Z" fill="url(#paint7_linear_3_3705)"/>
<path d="M15.8544 32.0061L26.4581 24.571L33.5977 36.4679L22.9893 43.9035L15.8544 32.0061Z" fill="url(#paint8_linear_3_3705)"/>
<path d="M16.359 32.1363L19.9465 33.0361L25.6551 29.0323L26.3571 25.1193L16.359 32.1363Z" fill="url(#paint9_linear_3_3705)"/>
<path d="M25.5906 29.159L26.3571 25.1193L33.0931 36.3377L29.5004 35.4339L25.5906 29.159Z" fill="url(#paint10_linear_3_3705)"/>
<path d="M23.7918 39.4376L23.0897 43.3506L33.0931 36.3377L29.5003 35.4338L23.7918 39.4376Z" fill="url(#paint11_linear_3_3705)"/>
<path d="M16.3589 32.1363L19.9464 33.036L23.7917 39.4376L23.0896 43.3506L16.3589 32.1363Z" fill="url(#paint12_linear_3_3705)"/>
<path d="M23.7917 39.4376L19.9464 33.036L25.655 29.0323L29.5003 35.4338L23.7917 39.4376Z" fill="url(#paint13_linear_3_3705)"/>
<path d="M23.0956 36.3796C22.665 36.2353 22.309 36.0815 22.2061 35.3079C22.1688 35.0142 22.6263 32.7953 22.7463 32.4342C22.8077 32.2463 23.0008 31.6769 23.5009 31.585C23.5615 31.5773 23.7183 31.5432 24.6096 31.7712C24.6289 31.7735 26.4798 32.2445 26.7707 32.5203C27.1626 32.8828 27.0837 33.3809 27.0255 33.7437C27.014 33.802 27.0071 33.8597 27.0002 33.9175C26.9325 34.4663 26.6204 36.2259 26.519 36.5468C26.3428 37.0999 25.6873 37.0125 25.4073 36.9722C25.1472 36.9389 23.4865 36.5101 23.095 36.375L23.0956 36.3796Z" fill="url(#paint14_linear_3_3705)"/>
<g opacity="0.43">
<path d="M26.3571 25.1193L25.655 29.0323L29.4956 35.4344L33.0884 36.3383C27.6942 33.4124 26.4957 27.7789 26.3571 25.1193Z" fill="#F7E96E"/>
</g>
<path style="mix-blend-mode:screen" d="M26.3571 25.1193L25.6551 29.0323L19.9465 33.0361L16.359 32.1363C19.6222 32.9825 23.2545 30.5027 26.3577 25.1239L26.3571 25.1193Z" fill="url(#paint15_linear_3_3705)"/>
<g style="mix-blend-mode:multiply" opacity="0.46">
<path d="M17.6284 32.5058L19.9459 33.0314L23.7865 39.4335L23.0845 43.3466C23.0027 39.9026 20.9732 35.1517 17.6232 32.5018L17.6284 32.5058Z" fill="url(#paint16_linear_3_3705)"/>
</g>
<g style="mix-blend-mode:multiply" opacity="0.46">
<path d="M23.0897 43.3506L23.7918 39.4376L29.5003 35.4338L33.0931 36.3377C27.6986 36.3212 25.3817 40.0176 23.0897 43.3506Z" fill="url(#paint17_linear_3_3705)"/>
</g>
<g style="mix-blend-mode:overlay" opacity="0.24">
<path d="M19.9465 33.0361L27.5643 32.2017L23.7918 39.4376L19.9465 33.0361Z" fill="#F7E96E"/>
</g>
<g style="mix-blend-mode:overlay" opacity="0.24">
<path d="M20.1409 32.8502L25.6551 29.0323L28.3163 33.6461L27.3477 36.9154L20.1409 32.8502Z" fill="#F7E96E"/>
</g>
<path d="M26.3571 25.1193C26.3962 25.1285 26.2713 26.0115 26.081 27.0876C25.886 28.1643 25.6982 29.0363 25.655 29.0323C25.6159 29.0231 25.7408 28.1401 25.9358 27.0634C26.1308 25.9867 26.3186 25.1147 26.3571 25.1193Z" fill="#FFFCD7"/>
<g style="mix-blend-mode:overlay">
<path d="M20.0762 33.1997C20.1292 33.1693 21.8061 35.8895 23.8118 39.2597L23.8241 39.2819L25.9529 37.7986L27.7795 36.5479C28.8224 35.8422 29.4787 35.4129 29.4962 35.4391C29.5138 35.4654 28.8908 35.933 27.8713 36.6737L26.0687 37.9639L23.7553 39.5986L23.6225 39.3738C21.6174 36.0082 20.0238 33.2348 20.0768 33.2043L20.0762 33.1997Z" fill="#F9B20E"/>
</g>
<g style="mix-blend-mode:screen" opacity="0.68">
<path d="M25.6833 30.0759C25.4419 29.7796 24.4368 29.8503 24.46 30.3686C24.4862 30.986 26.1099 30.5998 25.6833 30.0759Z" fill="#FFECBC"/>
</g>
<g style="mix-blend-mode:screen" opacity="0.68">
<path d="M26.5496 31.5249C26.7959 31.0388 25.8385 30.4401 25.9401 31.0906C25.9754 31.2946 26.3829 31.8541 26.5496 31.5249Z" fill="#FFECBC"/>
</g>
<path style="mix-blend-mode:screen" d="M28.8648 29.383C28.9564 29.9921 28.281 31.9874 27.0621 32.4644C25.3656 33.1347 22.7462 32.0599 22.2184 30.7764C21.9225 30.0511 21.6383 28.9689 22.0347 28.3215C22.438 27.6543 26.3571 25.1193 26.3571 25.1193C26.6133 25.5701 28.8277 29.165 28.8602 29.3836L28.8648 29.383Z" fill="url(#paint18_radial_3_3705)"/>
<path d="M20.0947 33.0457C20.0947 33.0457 20.6926 32.567 21.6894 31.8339L25.6794 28.925L25.8777 29.2552C27.9086 32.6365 29.536 35.4151 29.5005 35.4339C29.4649 35.4526 27.7811 32.7143 25.7496 29.3283L25.6355 29.1391L21.7472 31.9166C20.7341 32.6328 20.1064 33.0631 20.0947 33.0457Z" fill="#FFF9C5"/>
<path d="M33.0931 36.3377C33.0839 36.3767 32.2661 36.2057 31.2774 35.9569C30.2886 35.7081 29.4911 35.4729 29.5004 35.4338C29.5096 35.3948 30.3274 35.5658 31.3162 35.8146C32.3049 36.0634 33.1024 36.2986 33.0931 36.3377Z" fill="#FFE384"/>
<path d="M16.359 32.1363C16.3683 32.0972 17.2146 32.2693 18.2419 32.5227C19.2691 32.7761 20.0998 33.0119 20.0906 33.0509C20.0813 33.09 19.235 32.9179 18.2077 32.6645C17.1805 32.4111 16.3498 32.1754 16.359 32.1363Z" fill="#FFE384"/>
<path d="M23.0897 43.3506C23.0506 43.3414 23.1755 42.4584 23.3705 41.3817C23.5655 40.305 23.7533 39.433 23.7918 39.4376C23.8303 39.4422 23.706 40.3298 23.511 41.4065C23.316 42.4832 23.1282 43.3552 23.0897 43.3506Z" fill="#FFCE4D"/>
<path d="M19.5725 37.4429C19.5725 37.4429 19.9947 38.0811 20.641 39.1411L23.1152 43.2527L23.4064 43.0451C26.7043 40.7311 29.4108 38.8712 29.4342 38.9061C29.457 38.9364 26.7856 40.8487 23.4876 43.1627L23.0702 43.4574L20.5577 39.1943C19.9336 38.1221 19.5603 37.4587 19.5731 37.4476L19.5725 37.4429Z" fill="#FFCE4D"/>
<g clip-path="url(#clip1_3_3705)">
<path d="M24.7358 36.504L25.1733 33.507L26.4084 33.6873L26.4827 33.1807L25.2469 33.0004L25.4968 31.2904L24.9906 31.2165L24.7407 32.9265L23.5056 32.7462L23.4317 33.2524L24.6671 33.433L24.2296 36.4301L24.7358 36.504Z" fill="#FFE384"/>
</g>
<g opacity="0.3">
<path fill-rule="evenodd" clip-rule="evenodd" d="M17.2039 17.2546L38.8264 22.7118L37.4352 23.6229L18.2926 18.8506L17.2039 17.2546Z" fill="url(#paint19_linear_3_3705)"/>
<path fill-rule="evenodd" clip-rule="evenodd" d="M13.7458 49.7349L33.9669 55.9102L32.9417 54.2919L15.088 48.849L13.7458 49.7349Z" fill="url(#paint20_linear_3_3705)"/>
<path fill-rule="evenodd" clip-rule="evenodd" d="M38.824 22.6931L33.951 55.8602L32.9417 54.292L37.4352 23.6229L38.824 22.6931Z" fill="url(#paint21_linear_3_3705)"/>
<path fill-rule="evenodd" clip-rule="evenodd" d="M17.2038 17.2546L13.7458 49.735L15.088 48.8491L18.2633 18.8069L17.2038 17.2546Z" fill="url(#paint22_linear_3_3705)"/>
</g>
<path fill-rule="evenodd" clip-rule="evenodd" d="M16.137 16.4281L37.7595 21.8853L36.3683 22.7964L17.2257 18.0242L16.137 16.4281Z" fill="url(#paint23_linear_3_3705)"/>
<path fill-rule="evenodd" clip-rule="evenodd" d="M12.679 48.9085L32.9001 55.0838L31.8749 53.4655L14.0212 48.0226L12.679 48.9085Z" fill="url(#paint24_linear_3_3705)"/>
<path fill-rule="evenodd" clip-rule="evenodd" d="M37.7571 21.8666L32.8841 55.0337L31.8748 53.4655L36.3683 22.7964L37.7571 21.8666Z" fill="url(#paint25_linear_3_3705)"/>
<path fill-rule="evenodd" clip-rule="evenodd" d="M16.1369 16.4281L12.6789 48.9085L14.0211 48.0226L17.1964 17.9805L16.1369 16.4281Z" fill="url(#paint26_linear_3_3705)"/>
<path style="mix-blend-mode:screen" d="M13.6399 12.8454C13.5846 13.1936 13.6087 13.5696 13.5254 13.9213L10.8502 39.0194C11.4059 38.1338 11.8576 37.1382 12.3363 36.2435C14.8204 31.5498 18.1843 28.3744 22.157 24.8801C24.778 22.5715 29.2074 18.8675 33.17 17.758L13.6399 12.8454Z" fill="url(#paint27_radial_3_3705)"/>
<path style="mix-blend-mode:screen" opacity="0.82" d="M34.9003 23.4756C32.5738 18.8477 26.8912 14.5463 24.7277 18.5928C22.4846 22.7963 30.5424 33.7142 34.8099 29.8555C36.4123 28.4059 36.1171 25.8941 34.9003 23.4756Z" fill="url(#paint28_radial_3_3705)"/>
<path style="mix-blend-mode:screen" opacity="0.82" d="M25.8983 23.3342C23.8345 25.2547 19.527 25.3277 17.1573 24.913C11.0693 23.8379 12.1135 17.4696 16.967 15.3892C20.283 13.9637 28.6046 17.4419 26.803 22.0253C26.6022 22.5341 26.2882 22.972 25.8942 23.3395L25.8983 23.3342Z" fill="url(#paint29_radial_3_3705)"/>
<path fill-rule="evenodd" clip-rule="evenodd" d="M9.91534 12.2473C7.26053 12.1627 7.43045 15.6286 9.30595 16.4424C10.8515 17.2697 11.7749 17.5268 13.0992 17.9178L13.357 15.5064C9.11496 14.4528 8.66421 13.515 9.91534 12.2473Z" fill="url(#paint30_linear_3_3705)"/>
<path d="M9.91535 12.2473C9.93349 12.2782 9.86132 12.3442 9.75191 12.4529C9.64251 12.5615 9.4784 12.7245 9.38846 12.9492C9.29385 13.1744 9.32412 13.4501 9.51878 13.7145C9.71345 13.9788 10.0369 14.2126 10.4029 14.4078C11.1487 14.7964 11.9147 15.0072 12.4619 15.1746C13.0132 15.3368 13.3633 15.444 13.3529 15.5116C13.3419 15.5746 12.9787 15.5876 12.3949 15.5053C11.8152 15.4178 11.0033 15.2555 10.1815 14.8292C9.77472 14.6107 9.3987 14.3362 9.15719 13.9641C9.03906 13.7801 8.95934 13.5628 8.95195 13.3552C8.9393 13.1436 9.00481 12.9505 9.08557 12.8028C9.26167 12.5104 9.4958 12.3764 9.64725 12.3003C9.80395 12.2283 9.90248 12.2205 9.91535 12.2473Z" fill="#FFFFA5"/>
<path style="mix-blend-mode:screen" d="M9.44845 12.3397C8.53748 12.517 7.89615 13.1386 8.05082 14.133C8.19195 15.058 9.18166 15.501 9.95539 15.8103C10.3749 15.9797 11.9584 16.5463 12.0525 15.7194C12.1471 14.8971 10.4525 14.7616 9.98496 14.5129C9.04995 14.0156 9.07381 13.0839 9.69102 12.3469L9.44845 12.3397Z" fill="url(#paint31_radial_3_3705)"/>
<path opacity="0.24" fill-rule="evenodd" clip-rule="evenodd" d="M9.46461 16.4981L9.38361 17.1291C10.0318 17.6439 11.7174 18.2307 13.0302 18.4194L13.3569 15.5064C12.5966 16.7212 11.2181 16.9104 9.46461 16.4981Z" fill="url(#paint32_linear_3_3705)"/>
<path fill-rule="evenodd" clip-rule="evenodd" d="M8.85363 21.987C6.19883 21.9023 6.39672 25.3647 8.27222 26.1785C9.81774 27.0058 10.7412 27.2629 12.0655 27.6539L12.3232 25.2425C8.08124 24.1889 7.6025 23.2546 8.85363 21.987Z" fill="url(#paint33_linear_3_3705)"/>
<path d="M8.85366 21.9869C8.87179 22.0178 8.80954 22.0873 8.70598 22.2047C8.60242 22.3221 8.44883 22.4932 8.36414 22.722C8.27479 22.9513 8.29632 23.2328 8.49099 23.4972C8.68099 23.7621 9.00386 23.9912 9.36981 24.1864C10.1151 24.5704 10.8845 24.7712 11.4352 24.9287C11.99 25.081 12.3389 25.1789 12.3291 25.2512C12.3228 25.3136 11.9555 25.3318 11.3688 25.2641C10.7903 25.1859 9.97549 25.0382 9.14966 24.6171C8.74344 24.4033 8.36217 24.1248 8.12473 23.7474C7.87329 23.3718 7.88108 22.8733 8.06303 22.5896C8.22922 22.2937 8.44758 22.1475 8.59377 22.0673C8.74463 21.9866 8.84196 21.9695 8.85951 21.9957L8.85366 21.9869Z" fill="#FFFFA5"/>
<path style="mix-blend-mode:screen" d="M8.41476 22.0758C7.50379 22.2531 6.86246 22.8747 7.01713 23.8691C7.15826 24.7941 8.14797 25.2371 8.92169 25.5464C9.34124 25.7158 10.9247 26.2824 11.0194 25.4601C11.114 24.6378 9.41936 24.5023 8.95186 24.2537C8.01685 23.7564 8.04072 22.8246 8.65792 22.0876L8.41535 22.0805L8.41476 22.0758Z" fill="url(#paint34_radial_3_3705)"/>
<path opacity="0.24" fill-rule="evenodd" clip-rule="evenodd" d="M8.44239 26.1L8.3614 26.731C9.00958 27.2458 10.6951 27.8326 12.008 28.0213L12.3347 25.1083C11.5744 26.3231 10.1958 26.5124 8.44239 26.1Z" fill="url(#paint35_linear_3_3705)"/>
<path fill-rule="evenodd" clip-rule="evenodd" d="M7.82746 32.0064C5.24261 31.9128 5.47551 35.3897 7.30438 36.2094C8.81259 37.0415 9.71274 37.3015 10.9997 37.6973L11.2435 35.2876C7.1134 34.2198 6.6183 33.2687 7.83213 32.0058L7.82746 32.0064Z" fill="url(#paint36_linear_3_3705)"/>
<path d="M7.82749 32.0064C7.84562 32.0372 7.77345 32.1033 7.65938 32.2125C7.54998 32.3212 7.38528 32.4795 7.29067 32.7047C7.19607 32.93 7.22167 33.2063 7.421 33.47C7.61566 33.7344 7.93912 33.9681 8.301 34.1686C9.04282 34.5625 9.8053 34.7832 10.3531 34.9553C10.905 35.1221 11.2504 35.2299 11.2394 35.2929C11.2285 35.3559 10.8647 35.3642 10.2803 35.2773C9.69995 35.1851 8.89677 35.017 8.07849 34.5807C7.67634 34.3616 7.3044 34.0819 7.06288 33.7098C6.94475 33.5258 6.86563 33.3131 6.85764 33.1009C6.84965 32.8887 6.9105 32.6961 6.99652 32.5525C7.17729 32.2595 7.40735 32.1308 7.55939 32.0594C7.71609 31.9874 7.81461 31.9796 7.82749 32.0064Z" fill="#FFFFA5"/>
<path style="mix-blend-mode:screen" d="M7.4236 32.1097C6.53594 32.284 5.91793 32.9027 6.06793 33.8977C6.20906 34.8227 7.17079 35.2692 7.92586 35.5809C8.34074 35.7509 9.87761 36.3234 9.96697 35.4971C10.0575 34.68 8.40895 34.5339 7.95077 34.2841C7.03908 33.7839 7.05828 32.8527 7.65683 32.118L7.4236 32.1097Z" fill="url(#paint37_radial_3_3705)"/>
<path opacity="0.24" fill-rule="evenodd" clip-rule="evenodd" d="M7.35462 36.2315L7.27363 36.8625C7.92181 37.3773 9.60738 37.9641 10.9202 38.1528L11.2469 35.2398C10.4866 36.4546 9.10808 36.6438 7.35462 36.2315Z" fill="url(#paint38_linear_3_3705)"/>
<path fill-rule="evenodd" clip-rule="evenodd" d="M6.778 42.0287C4.12319 41.944 4.23604 45.4456 6.11154 46.2595C7.66172 47.0862 8.58052 47.3439 9.90481 47.7349L10.1625 45.3235C5.92055 44.2699 5.52687 43.2964 6.77741 42.0241L6.778 42.0287Z" fill="url(#paint39_linear_3_3705)"/>
<path d="M6.67383 42.1036C6.69196 42.1344 6.62971 42.2039 6.53082 42.3207C6.43658 42.4369 6.29231 42.6069 6.22221 42.8385C6.15151 43.0654 6.19111 43.34 6.39391 43.5938C6.58739 43.8488 6.90967 44.0732 7.26977 44.2597C8.00397 44.6309 8.75534 44.8387 9.29265 45.0027C9.83403 45.1614 10.1741 45.2651 10.1638 45.3328C10.1528 45.3958 9.79427 45.4081 9.22565 45.3334C8.65585 45.2494 7.86435 45.0987 7.0537 44.6852C6.65273 44.4755 6.28257 44.2097 6.03757 43.8475C5.77977 43.4964 5.75144 43.012 5.91296 42.7166C6.0593 42.4138 6.27241 42.2635 6.41801 42.1787C6.56361 42.0939 6.66154 42.0814 6.67908 42.1076L6.67383 42.1036Z" fill="#FFFFA5"/>
<path style="mix-blend-mode:screen" d="M6.25412 42.1568C5.34315 42.3341 4.70182 42.9557 4.85649 43.9501C4.99762 44.8751 5.98733 45.3181 6.76105 45.6273C7.18525 45.7962 8.76409 46.3634 8.85812 45.5364C8.95333 44.7188 7.25813 44.5786 6.79062 44.33C5.85562 43.8327 5.87948 42.9009 6.49668 42.1639L6.25412 42.1568Z" fill="url(#paint40_radial_3_3705)"/>
<path opacity="0.24" fill-rule="evenodd" clip-rule="evenodd" d="M6.28541 46.2848L6.20441 46.9158C6.85259 47.4306 8.53816 48.0174 9.85098 48.2061L10.1777 45.2931C9.41742 46.5079 8.03886 46.6972 6.28541 46.2848Z" fill="url(#paint41_linear_3_3705)"/>
<path opacity="0.41" d="M33.3216 39.3698L31.259 52.4965L17.27 48.3826C28.8356 51.7712 31.5173 48.8578 33.3216 39.3698Z" fill="#132745"/>
<path d="M40.9674 19.7201L41.7324 19.1017C41.7324 19.1017 13.5811 11.673 13.5321 11.6602C12.1216 11.2991 11.0817 9.93851 11.3745 8.47506C11.6916 6.90429 13.3768 5.80899 14.9002 5.71511C15.6342 5.67405 16.2219 5.67525 16.9561 5.74789C17.8437 5.83422 18.7227 6.0022 19.6114 6.09786C22.2007 6.37567 24.7775 6.81617 27.3628 7.13712C30.41 7.51317 33.4491 7.97552 36.4981 8.36555C39.0414 8.69183 41.5761 9.06186 44.1147 9.38874C45.1791 9.52371 46.2405 9.67327 47.306 9.81756L48.3594 9.11996C48.1236 9.27783 46.9446 8.94893 46.6507 8.91043C45.9958 8.82773 45.3408 8.74503 44.69 8.65707C43.2588 8.46916 41.8317 8.276 40.4046 8.08284C35.0438 7.36083 29.6939 6.57583 24.3348 5.82991C22.391 5.56019 20.4523 5.25665 18.5033 5.02076C17.3731 4.88941 16.2389 4.80122 15.105 4.90252C13.1568 5.08351 11.0907 5.82913 10.4037 7.8449C9.54734 10.356 11.3113 12.2691 13.6446 12.8448C13.6889 12.8581 40.9715 19.7148 40.9715 19.7148L40.9674 19.7201Z" fill="url(#paint42_linear_3_3705)"/>
<path d="M24.1285 8.31065L24.4283 6.26822L29.4019 7.56061L29.131 9.1966L30.1007 7.39135L54.0456 13.4872L52.4965 18.9767L49.4879 19.2781L51.7304 20.5192L45.6848 51.5038L42.7063 49.8397L48.7788 14.9614L24.1285 8.31065Z" fill="url(#paint43_linear_3_3705)"/>
<path opacity="0.2" d="M23.5883 8.49768L51.831 14.3701L50.2146 21.2329L48.5289 21.2052L49.9938 21.3604L43.4878 50.3233L42.7062 49.8397L47.9462 15.3466L23.5883 8.49768Z" fill="#865D46"/>
<path d="M22.5665 8.02557L50.8093 13.898L49.1928 20.7608L47.5072 20.7331L48.8917 22.1589L42.3857 51.1218L46.9245 14.8745L22.5665 8.02557Z" fill="url(#paint44_linear_3_3705)"/>
<path d="M29.9352 9.85741C29.9611 9.72617 36.5974 10.9023 44.7054 12.4743L51.0725 13.732L50.0444 17.9139L49.2828 20.8726L48.477 20.8327L47.9463 20.7959C47.6594 20.7754 47.5095 20.7518 47.5071 20.7331C47.5048 20.7145 47.6587 20.695 47.9461 20.6822L49.1075 20.6484L49.212 20.1282L49.357 19.4416L49.7032 17.8387L50.5426 14.0741L44.609 12.9462C36.5009 11.3741 29.9045 9.98924 29.9311 9.86266L29.9352 9.85741Z" fill="#B3A281"/>
<path d="M36.9672 12.2105C36.9764 12.1714 37.9569 12.3549 39.6706 12.7155L42.7685 13.3788L46.9706 14.3048L45.4299 27.5122C43.9103 40.1767 42.5617 50.4929 42.4317 50.4763C42.3016 50.4596 43.4385 40.1181 44.9581 27.4536L46.5444 14.6053L39.6273 12.9342C37.9292 12.5101 36.9673 12.2484 36.9719 12.2099L36.9672 12.2105Z" fill="#B3A281"/>
<path d="M22.8519 11.8417C22.8641 11.788 25.0742 12.2893 28.7731 13.1702L35.353 14.7609L43.8439 16.8483L42.7155 25.2412C40.5234 41.417 38.6288 54.5982 38.4987 54.5815C38.3687 54.5649 40.051 41.3537 42.2431 25.1779L43.3332 17.1927L35.254 15.1384L28.699 13.4449C25.0186 12.4859 22.8339 11.8866 22.8467 11.8376L22.8519 11.8417Z" fill="#B3A281"/>
<path d="M13.8589 7.33042C13.8948 7.20266 18.5918 8.36907 24.3192 9.92589C30.0467 11.4827 34.6898 12.8597 34.6539 12.9875C34.618 13.1152 29.9204 11.9442 24.193 10.3873C18.4656 8.83051 13.8224 7.45352 13.8543 7.33101L13.8589 7.33042Z" fill="#B3A281"/>
<path d="M13.3154 8.72147C13.346 8.58964 16.5984 9.23816 20.5585 10.1617C24.5181 11.0805 27.7213 11.9391 27.69 12.0662C27.6588 12.1934 24.4064 11.5449 20.4515 10.6254C16.492 9.70655 13.2888 8.84804 13.3201 8.72088L13.3154 8.72147Z" fill="#B3A281"/>
<path opacity="0.62" d="M41.4928 19.4544L47.4994 28.5478L42.3857 51.1218L36.3678 57.0554L41.4928 19.4544Z" fill="url(#paint45_linear_3_3705)"/>
<path opacity="0.62" d="M12.3237 8.48724C16.2405 8.69602 20.3351 10.7539 24.3026 11.5486C25.2749 11.7426 26.2245 11.9443 27.23 12.1009C25.5862 11.6936 23.2987 11.6286 21.3666 11.0779C19.5377 10.5566 17.6672 10.1923 15.8358 9.87515C14.8081 9.69288 13.7387 9.66754 12.7178 9.38963C20.025 12.6034 28.2322 13.9117 36.0041 15.5975C37.4122 15.9021 38.8978 16.2205 40.2614 16.7345C36.3611 15.3864 31.9547 14.9412 27.8917 14.2156C24.0038 13.5245 20.2991 12.6349 16.4963 11.6819C14.583 11.2046 11.8344 11.165 12.319 8.48783L12.3237 8.48724Z" fill="url(#paint46_linear_3_3705)"/>
<path opacity="0.62" d="M13.8611 7.2354C15.2924 6.86416 17.9335 8.03569 19.2428 8.53285C21.0598 9.22144 23.0537 9.43742 24.7959 10.3961C22.6301 10.2067 20.5441 9.37694 18.3108 9.29086C17.3062 9.25256 16.3175 9.07955 15.3238 8.94036C14.3008 8.79539 13.298 8.80898 12.281 8.74855C12.6543 7.28437 13.8198 6.0513 15.0896 6.05119C17.0137 6.05332 19.2618 6.89093 21.1864 7.12045C22.2017 7.24269 23.2256 7.28329 24.2375 7.45334C23.034 7.71512 21.7988 7.54024 20.6316 7.3046C22.5907 7.61976 24.4834 8.56884 26.4065 8.97386C27.989 9.30841 29.5543 9.84414 31.1512 10.1058C32.2495 10.2838 33.6333 10.0987 34.5089 10.9494C33.6633 10.5213 32.5205 10.5527 31.6211 10.3731C28.4907 9.75173 25.3492 9.15547 22.2482 8.39297C19.5089 7.71723 16.7236 6.49292 13.8617 7.24007L13.8611 7.2354Z" fill="url(#paint47_linear_3_3705)"/>
<path opacity="0.62" d="M40.8008 51.3657C40.7247 52.1098 40.6731 52.8603 40.6541 53.6066C40.6871 52.8585 40.7486 52.1115 40.8008 51.3657Z" fill="url(#paint48_linear_3_3705)"/>
<path opacity="0.62" d="M43.1028 17.729C42.662 18.0266 42.1192 18.6783 41.6487 19.0034C41.5934 19.3516 41.5614 19.6968 41.5061 20.045C41.3154 21.1922 41.2739 22.3584 41.0825 23.501C40.5648 26.552 40.1958 29.6551 39.7796 32.7216C39.2961 36.3036 38.745 39.8753 38.2662 43.4568C37.8714 46.4305 37.4182 49.3927 37.0041 52.3642C36.8304 53.6088 36.6468 54.8498 36.4731 56.0944C36.4645 56.4746 36.4559 56.8547 36.4666 57.2372C36.9381 55.6516 37.6945 54.1814 37.9776 52.5296C38.5847 48.9888 38.7141 45.3048 39.0809 41.7375C39.3471 39.1687 39.8898 36.65 40.3543 34.1128C40.9036 31.1242 40.7592 27.8967 41.9484 25.059C42.3232 26.5183 41.567 28.3627 41.4825 29.8614C41.2863 33.3548 40.7165 36.6303 40.2602 40.0905C39.6436 44.7887 38.1459 50.0111 38.6739 54.7678C39.5423 51.5302 39.6351 48.2299 40.0176 44.9355C40.4713 41.0066 41.598 37.1913 42.1385 33.275C42.5009 30.6798 42.5356 28.1166 42.8927 25.5172C43.1354 23.7711 43.657 17.616 45.3516 16.818C45.1985 18.747 44.888 20.7434 44.6299 22.6668C43.9792 27.5068 42.5756 32.2387 42.1418 37.108C41.7166 41.8578 41.1252 46.605 40.8067 51.3744C41.0457 48.9654 41.5274 46.5634 41.9269 44.1861C41.9247 44.2812 41.9138 44.3821 41.9117 44.4771C41.9007 46.9283 41.5015 49.4951 41.8946 51.9566C42.2711 47.3456 43.0635 42.8004 43.5123 38.1992C44.1025 32.1728 45.0449 26.1964 46.1003 20.2152C46.3011 19.0714 46.0152 15.0279 47.0849 14.3472C46.0635 14.9981 44.9478 15.7652 44.1175 16.6525C43.7795 17.0128 43.4349 17.3219 43.1028 17.729Z" fill="url(#paint49_linear_3_3705)"/>
<g opacity="0.62">
<path d="M48.8861 22.3018C49.018 22.3324 47.7309 28.5421 46.0301 36.1216C44.3252 43.7063 42.8328 49.8662 42.7062 49.8396C42.5797 49.813 43.8621 43.604 45.5669 36.0192C47.2718 28.4345 48.7642 22.2746 48.8908 22.3012L48.8861 22.3018Z" fill="#865D46"/>
</g>
<path d="M30.1006 7.39136L54.0455 13.4872L52.4964 18.9767L53.1182 13.9461L30.2793 7.8283L29.1309 9.19661L30.1006 7.39136Z" fill="url(#paint50_linear_3_3705)"/>
<path d="M24.1285 8.31065L24.4283 6.26822L29.4019 7.56061L24.792 6.78119L24.1285 8.31065Z" fill="url(#paint51_linear_3_3705)"/>
<path d="M49.7249 19.4281L51.7304 20.5192L45.6848 51.5038L43.2146 50.0736L45.2435 50.9012L51.1125 20.8772L49.7249 19.4281Z" fill="url(#paint52_linear_3_3705)"/>
<path d="M32.774 10.4589L50.8093 13.898L49.1928 20.7608L49.4218 14.3158L32.774 10.4589Z" fill="url(#paint53_linear_3_3705)"/>
<path d="M15.5713 15.1447C16.2321 14.9376 16.8004 14.2258 15.9374 13.9231C15.3773 13.7289 14.1143 14.2683 14.6911 14.9674C14.8986 15.2206 15.2473 15.2427 15.5713 15.1447Z" fill="#FABBAC"/>
<path d="M14.9725 17.5947C15.0119 17.1585 14.9336 16.7657 14.6506 16.6642C14.1243 16.4751 13.6472 17.6066 13.6071 17.9623C13.5716 18.2796 13.8269 19.1711 14.303 19.0396C14.6049 18.9539 14.9107 18.228 14.9678 17.5953L14.9725 17.5947Z" fill="#FABBAC"/>
<path d="M34.6031 57.488L40.8902 19.8957L35.0784 58.7307L11.4806 51.5246L34.6031 57.488Z" fill="url(#paint54_linear_3_3705)"/>
</g>
<defs>
<linearGradient id="paint0_linear_3_3705" x1="13.807" y1="52.793" x2="11.2479" y2="62.1589" gradientUnits="userSpaceOnUse">
<stop stop-color="#015FBA"/>
<stop offset="1" stop-color="#29CCE5"/>
</linearGradient>
<radialGradient id="paint1_radial_3_3705" cx="0" cy="0" r="1" gradientUnits="userSpaceOnUse" gradientTransform="translate(10.2688 55.1186) rotate(-7.23516) scale(7.49295)">
<stop stop-color="#42C4D7"/>
<stop offset="0.29" stop-color="#2C8492"/>
<stop offset="0.63" stop-color="#153F47"/>
<stop offset="0.88" stop-color="#071418"/>
<stop offset="1" stop-color="#020406"/>
</radialGradient>
<radialGradient id="paint2_radial_3_3705" cx="0" cy="0" r="1" gradientUnits="userSpaceOnUse" gradientTransform="translate(15.1007 17.2609) rotate(-7.23516) scale(49.8511 49.8511)">
<stop stop-color="#FF665B"/>
<stop offset="0.33" stop-color="#E00056"/>
<stop offset="0.96" stop-color="#71223D"/>
</radialGradient>
<linearGradient id="paint3_linear_3_3705" x1="44.9425" y1="14.1548" x2="39.3809" y2="50.3329" gradientUnits="userSpaceOnUse">
<stop stop-color="#F2EAD1"/>
<stop offset="0.37" stop-color="#C8BA9B"/>
<stop offset="0.59" stop-color="#B3A281"/>
<stop offset="1" stop-color="#865D46"/>
</linearGradient>
<linearGradient id="paint4_linear_3_3705" x1="51.7926" y1="16.8295" x2="7.02627" y2="6.17457" gradientUnits="userSpaceOnUse">
<stop offset="0.04" stop-color="#FBFAF5"/>
<stop offset="0.18" stop-color="#F6F2E4"/>
<stop offset="0.36" stop-color="#F3ECD5"/>
<stop offset="0.52" stop-color="#F2EAD1"/>
<stop offset="0.82" stop-color="#C8BA9B"/>
<stop offset="1" stop-color="#B3A281"/>
</linearGradient>
<radialGradient id="paint5_radial_3_3705" cx="0" cy="0" r="1" gradientUnits="userSpaceOnUse" gradientTransform="translate(11.4079 24.9369) rotate(-7.23516) scale(47.2939 47.2939)">
<stop stop-color="#4981D4"/>
<stop offset="0.33" stop-color="#3C78D1"/>
<stop offset="0.96" stop-color="#2C559E"/>
</radialGradient>
<linearGradient id="paint6_linear_3_3705" x1="6.91399" y1="29.6252" x2="11.3497" y2="30.1519" gradientUnits="userSpaceOnUse">
<stop stop-color="#2C549D"/>
<stop offset="0.07" stop-color="#2D589E"/>
<stop offset="0.13" stop-color="#7396CB"/>
<stop offset="0.171875" stop-color="#274C88"/>
<stop offset="0.22" stop-color="#2D599E"/>
<stop offset="0.3" stop-color="#3C78D1"/>
<stop offset="0.38" stop-color="#3E79D1"/>
<stop offset="0.46" stop-color="#23478A"/>
<stop offset="0.54" stop-color="#2C559E"/>
<stop offset="0.6099" stop-color="#2F5C9D"/>
<stop offset="0.61" stop-color="#E00256"/>
<stop offset="0.6101" stop-color="#3E79D1"/>
<stop offset="0.6102" stop-color="#3E79D1"/>
<stop offset="0.67" stop-color="#3C78D1"/>
<stop offset="0.75" stop-color="#2C549D"/>
<stop offset="0.84" stop-color="#417BD2"/>
<stop offset="0.94" stop-color="#3C78D1"/>
<stop offset="0.96" stop-color="#3C78D1"/>
</linearGradient>
<linearGradient id="paint7_linear_3_3705" x1="27.4173" y1="39.3376" x2="28.9796" y2="42.8009" gradientUnits="userSpaceOnUse">
<stop stop-color="#551A2E"/>
<stop offset="1" stop-color="#71223D"/>
</linearGradient>
<linearGradient id="paint8_linear_3_3705" x1="26.7769" y1="24.6118" x2="22.7023" y2="43.6751" gradientUnits="userSpaceOnUse">
<stop stop-color="#FF665B"/>
<stop offset="0.19" stop-color="#C62E4F"/>
<stop offset="0.3" stop-color="#A81149"/>
<stop offset="1" stop-color="#71223D"/>
</linearGradient>
<linearGradient id="paint9_linear_3_3705" x1="25.9272" y1="26.3386" x2="19.0597" y2="32.2685" gradientUnits="userSpaceOnUse">
<stop offset="0.02" stop-color="#F7E641"/>
<stop offset="0.47" stop-color="#FFCF01"/>
<stop offset="0.8" stop-color="#FCBD11"/>
<stop offset="1" stop-color="#FBB01E"/>
</linearGradient>
<linearGradient id="paint10_linear_3_3705" x1="30.6824" y1="35.0363" x2="25.9091" y2="26.9404" gradientUnits="userSpaceOnUse">
<stop stop-color="#F89736"/>
<stop offset="0.16" stop-color="#F7A538"/>
<stop offset="0.72" stop-color="#F7D43E"/>
<stop offset="1" stop-color="#F7E641"/>
</linearGradient>
<linearGradient id="paint11_linear_3_3705" x1="32.2116" y1="36.2477" x2="23.3884" y2="40.9376" gradientUnits="userSpaceOnUse">
<stop stop-color="#FBCB48"/>
<stop offset="0.48" stop-color="#E38530"/>
<stop offset="1" stop-color="#B52A44"/>
</linearGradient>
<linearGradient id="paint12_linear_3_3705" x1="18.2171" y1="32.8143" x2="23.7046" y2="41.7743" gradientUnits="userSpaceOnUse">
<stop stop-color="#FBCB48"/>
<stop offset="0.48" stop-color="#E38530"/>
<stop offset="1" stop-color="#B52A44"/>
</linearGradient>
<linearGradient id="paint13_linear_3_3705" x1="25.7654" y1="29.7938" x2="23.5152" y2="39.3544" gradientUnits="userSpaceOnUse">
<stop stop-color="#F7E96E"/>
<stop offset="0.61" stop-color="#FFB44F"/>
<stop offset="1" stop-color="#F9A135"/>
</linearGradient>
<linearGradient id="paint14_linear_3_3705" x1="25.302" y1="31.3098" x2="24.3126" y2="35.9389" gradientUnits="userSpaceOnUse">
<stop stop-color="#F19639"/>
<stop offset="1" stop-color="#C6611B"/>
</linearGradient>
<linearGradient id="paint15_linear_3_3705" x1="20.967" y1="20.6013" x2="21.5392" y2="32.5197" gradientUnits="userSpaceOnUse">
<stop stop-color="#FFECBC"/>
<stop offset="0.55" stop-color="#7B6E5A"/>
<stop offset="1" stop-color="#130C0E"/>
</linearGradient>
<linearGradient id="paint16_linear_3_3705" x1="18.3516" y1="41.1589" x2="22.1371" y2="35.0749" gradientUnits="userSpaceOnUse">
<stop stop-color="#FF665B"/>
<stop offset="1" stop-color="white"/>
</linearGradient>
<linearGradient id="paint17_linear_3_3705" x1="23.9635" y1="45.0839" x2="29.9541" y2="35.4527" gradientUnits="userSpaceOnUse">
<stop stop-color="#FF665B"/>
<stop offset="1" stop-color="white"/>
</linearGradient>
<radialGradient id="paint18_radial_3_3705" cx="0" cy="0" r="1" gradientUnits="userSpaceOnUse" gradientTransform="translate(23.9307 29.7526) rotate(-24.8052) scale(3.3219 2.51272)">
<stop stop-color="#FFE780"/>
<stop offset="0.55" stop-color="#7B6C40"/>
<stop offset="1" stop-color="#130C0E"/>
</radialGradient>
<linearGradient id="paint19_linear_3_3705" x1="28.0624" y1="19.8142" x2="27.6835" y2="21.25" gradientUnits="userSpaceOnUse">
<stop stop-color="#551A2E"/>
<stop offset="1" stop-color="#71223D"/>
</linearGradient>
<linearGradient id="paint20_linear_3_3705" x1="24.2353" y1="51.609" x2="23.8743" y2="52.7733" gradientUnits="userSpaceOnUse">
<stop stop-color="#551A2E"/>
<stop offset="1" stop-color="#71223D"/>
</linearGradient>
<linearGradient id="paint21_linear_3_3705" x1="34.8089" y1="38.9914" x2="36.7972" y2="39.3502" gradientUnits="userSpaceOnUse">
<stop stop-color="#551A2E"/>
<stop offset="1" stop-color="#71223D"/>
</linearGradient>
<linearGradient id="paint22_linear_3_3705" x1="15.1523" y1="33.4551" x2="16.91" y2="33.6774" gradientUnits="userSpaceOnUse">
<stop stop-color="#551A2E"/>
<stop offset="1" stop-color="#71223D"/>
</linearGradient>
<linearGradient id="paint23_linear_3_3705" x1="26.9944" y1="18.9888" x2="26.6154" y2="20.4246" gradientUnits="userSpaceOnUse">
<stop offset="0.02" stop-color="#CC5348"/>
<stop offset="0.05" stop-color="#D06047"/>
<stop offset="0.14" stop-color="#DD8647"/>
<stop offset="0.24" stop-color="#E7A646"/>
<stop offset="0.34" stop-color="#EFBE46"/>
<stop offset="0.44" stop-color="#F5CF46"/>
<stop offset="0.55" stop-color="#F8D946"/>
<stop offset="0.68" stop-color="#FADD46"/>
<stop offset="0.83" stop-color="#E0A300"/>
<stop offset="1" stop-color="#CC5348"/>
</linearGradient>
<linearGradient id="paint24_linear_3_3705" x1="23.1668" y1="50.779" x2="22.8063" y2="51.948" gradientUnits="userSpaceOnUse">
<stop offset="0.02" stop-color="#CC5348"/>
<stop offset="0.05" stop-color="#D06047"/>
<stop offset="0.14" stop-color="#DD8647"/>
<stop offset="0.24" stop-color="#E7A646"/>
<stop offset="0.34" stop-color="#EFBE46"/>
<stop offset="0.44" stop-color="#F5CF46"/>
<stop offset="0.55" stop-color="#F8D946"/>
<stop offset="0.68" stop-color="#FADD46"/>
<stop offset="0.83" stop-color="#E0A300"/>
<stop offset="1" stop-color="#CC5348"/>
</linearGradient>
<linearGradient id="paint25_linear_3_3705" x1="33.742" y1="38.1649" x2="35.7251" y2="38.5197" gradientUnits="userSpaceOnUse">
<stop offset="0.02" stop-color="#CC5348"/>
<stop offset="0.05" stop-color="#D06047"/>
<stop offset="0.14" stop-color="#DD8647"/>
<stop offset="0.22" stop-color="#E7A646"/>
<stop offset="0.32" stop-color="#EFBE46"/>
<stop offset="0.41" stop-color="#F5CF46"/>
<stop offset="0.52" stop-color="#F8D946"/>
<stop offset="0.64" stop-color="#FADD46"/>
<stop offset="0.83" stop-color="#E0A300"/>
<stop offset="1" stop-color="#CC5348"/>
</linearGradient>
<linearGradient id="paint26_linear_3_3705" x1="14.0854" y1="32.6287" x2="15.8432" y2="32.8509" gradientUnits="userSpaceOnUse">
<stop offset="0.02" stop-color="#CC5348"/>
<stop offset="0.05" stop-color="#D06047"/>
<stop offset="0.14" stop-color="#DD8647"/>
<stop offset="0.24" stop-color="#E7A646"/>
<stop offset="0.34" stop-color="#EFBE46"/>
<stop offset="0.44" stop-color="#F5CF46"/>
<stop offset="0.55" stop-color="#F8D946"/>
<stop offset="0.68" stop-color="#FADD46"/>
<stop offset="0.83" stop-color="#E0A300"/>
<stop offset="1" stop-color="#CC5348"/>
</linearGradient>
<radialGradient id="paint27_radial_3_3705" cx="0" cy="0" r="1" gradientUnits="userSpaceOnUse" gradientTransform="translate(15.5062 7.35349) rotate(-7.23516) scale(21.5481 21.5481)">
<stop stop-color="#FF9B74"/>
<stop offset="1"/>
</radialGradient>
<radialGradient id="paint28_radial_3_3705" cx="0" cy="0" r="1" gradientUnits="userSpaceOnUse" gradientTransform="translate(37.4791 18.1399) rotate(-174.105) scale(16.147)">
<stop stop-color="#FFD871"/>
<stop offset="0.11" stop-color="#CDAD5C"/>
<stop offset="0.23" stop-color="#9C8247"/>
<stop offset="0.35" stop-color="#725E35"/>
<stop offset="0.47" stop-color="#4F4027"/>
<stop offset="0.6" stop-color="#35291C"/>
<stop offset="0.73" stop-color="#221914"/>
<stop offset="0.86" stop-color="#160F0F"/>
<stop offset="1" stop-color="#130C0E"/>
</radialGradient>
<radialGradient id="paint29_radial_3_3705" cx="0" cy="0" r="1" gradientUnits="userSpaceOnUse" gradientTransform="translate(18.6576 11.0361) rotate(-174.105) scale(11.6108 11.6108)">
<stop stop-color="#FFD871"/>
<stop offset="0.11" stop-color="#CDAD5C"/>
<stop offset="0.23" stop-color="#9C8247"/>
<stop offset="0.35" stop-color="#725E35"/>
<stop offset="0.47" stop-color="#4F4027"/>
<stop offset="0.6" stop-color="#35291C"/>
<stop offset="0.73" stop-color="#221914"/>
<stop offset="0.86" stop-color="#160F0F"/>
<stop offset="1" stop-color="#130C0E"/>
</radialGradient>
<linearGradient id="paint30_linear_3_3705" x1="11.4216" y1="12.6911" x2="10.243" y2="16.7689" gradientUnits="userSpaceOnUse">
<stop offset="0.02" stop-color="#CC5348"/>
<stop offset="0.07" stop-color="#D26946"/>
<stop offset="0.15" stop-color="#DD8F45"/>
<stop offset="0.23" stop-color="#E6AF43"/>
<stop offset="0.32" stop-color="#EEC742"/>
<stop offset="0.41" stop-color="#F3D841"/>
<stop offset="0.51" stop-color="#F6E241"/>
<stop offset="0.64" stop-color="#F7E641"/>
<stop offset="0.83" stop-color="#FBB040"/>
<stop offset="1" stop-color="#A81149"/>
</linearGradient>
<radialGradient id="paint31_radial_3_3705" cx="0" cy="0" r="1" gradientUnits="userSpaceOnUse" gradientTransform="translate(9.4225 13.703) rotate(-7.23516) scale(2.74052)">
<stop stop-color="#FFE780"/>
<stop offset="0.55" stop-color="#7B6C40"/>
<stop offset="1" stop-color="#130C0E"/>
</radialGradient>
<linearGradient id="paint32_linear_3_3705" x1="11.9094" y1="18.6233" x2="11.255" y2="15.8206" gradientUnits="userSpaceOnUse">
<stop stop-color="#71223D"/>
<stop offset="1" stop-color="#A81149"/>
</linearGradient>
<linearGradient id="paint33_linear_3_3705" x1="10.3751" y1="22.4382" x2="9.20398" y2="26.5009" gradientUnits="userSpaceOnUse">
<stop offset="0.02" stop-color="#CC5348"/>
<stop offset="0.07" stop-color="#D26946"/>
<stop offset="0.15" stop-color="#DD8F45"/>
<stop offset="0.23" stop-color="#E6AF43"/>
<stop offset="0.32" stop-color="#EEC742"/>
<stop offset="0.41" stop-color="#F3D841"/>
<stop offset="0.51" stop-color="#F6E241"/>
<stop offset="0.64" stop-color="#F7E641"/>
<stop offset="0.83" stop-color="#FBB040"/>
<stop offset="1" stop-color="#A81149"/>
</linearGradient>
<radialGradient id="paint34_radial_3_3705" cx="0" cy="0" r="1" gradientUnits="userSpaceOnUse" gradientTransform="translate(8.38881 23.4391) rotate(-7.23516) scale(2.74052)">
<stop stop-color="#FFE780"/>
<stop offset="0.55" stop-color="#7B6C40"/>
<stop offset="1" stop-color="#130C0E"/>
</radialGradient>
<linearGradient id="paint35_linear_3_3705" x1="10.8871" y1="28.2252" x2="10.2328" y2="25.4226" gradientUnits="userSpaceOnUse">
<stop stop-color="#71223D"/>
<stop offset="1" stop-color="#A81149"/>
</linearGradient>
<linearGradient id="paint36_linear_3_3705" x1="9.36352" y1="32.4605" x2="8.17788" y2="36.5582" gradientUnits="userSpaceOnUse">
<stop offset="0.02" stop-color="#CC5348"/>
<stop offset="0.07" stop-color="#D26946"/>
<stop offset="0.15" stop-color="#DD8F45"/>
<stop offset="0.23" stop-color="#E6AF43"/>
<stop offset="0.32" stop-color="#EEC742"/>
<stop offset="0.41" stop-color="#F3D841"/>
<stop offset="0.51" stop-color="#F6E241"/>
<stop offset="0.64" stop-color="#F7E641"/>
<stop offset="0.83" stop-color="#FBB040"/>
<stop offset="1" stop-color="#A81149"/>
</linearGradient>
<radialGradient id="paint37_radial_3_3705" cx="0" cy="0" r="1" gradientUnits="userSpaceOnUse" gradientTransform="translate(7.36673 33.4769) rotate(-7.23516) scale(2.65374 2.73582)">
<stop stop-color="#FFE780"/>
<stop offset="0.55" stop-color="#7B6C40"/>
<stop offset="1" stop-color="#130C0E"/>
</radialGradient>
<linearGradient id="paint38_linear_3_3705" x1="9.79937" y1="38.3567" x2="9.14505" y2="35.554" gradientUnits="userSpaceOnUse">
<stop stop-color="#71223D"/>
<stop offset="1" stop-color="#A81149"/>
</linearGradient>
<linearGradient id="paint39_linear_3_3705" x1="8.25513" y1="42.4667" x2="7.06313" y2="46.5888" gradientUnits="userSpaceOnUse">
<stop offset="0.02" stop-color="#CC5348"/>
<stop offset="0.07" stop-color="#D26946"/>
<stop offset="0.15" stop-color="#DD8F45"/>
<stop offset="0.23" stop-color="#E6AF43"/>
<stop offset="0.32" stop-color="#EEC742"/>
<stop offset="0.41" stop-color="#F3D841"/>
<stop offset="0.51" stop-color="#F6E241"/>
<stop offset="0.64" stop-color="#F7E641"/>
<stop offset="0.83" stop-color="#FBB040"/>
<stop offset="1" stop-color="#A81149"/>
</linearGradient>
<radialGradient id="paint40_radial_3_3705" cx="0" cy="0" r="1" gradientUnits="userSpaceOnUse" gradientTransform="translate(6.22876 43.5247) rotate(-7.23516) scale(2.74052 2.74052)">
<stop stop-color="#FFE780"/>
<stop offset="0.55" stop-color="#7B6C40"/>
<stop offset="1" stop-color="#130C0E"/>
</radialGradient>
<linearGradient id="paint41_linear_3_3705" x1="8.73016" y1="48.41" x2="8.07642" y2="45.612" gradientUnits="userSpaceOnUse">
<stop stop-color="#71223D"/>
<stop offset="1" stop-color="#A81149"/>
</linearGradient>
<linearGradient id="paint42_linear_3_3705" x1="13.2841" y1="18.8136" x2="40.4957" y2="6.337" gradientUnits="userSpaceOnUse">
<stop stop-color="#4B82D5"/>
<stop offset="0.3" stop-color="#447ED3"/>
<stop offset="0.57" stop-color="#2C559E"/>
<stop offset="0.72" stop-color="#3C78D1"/>
<stop offset="0.98" stop-color="#2B539D"/>
</linearGradient>
<linearGradient id="paint43_linear_3_3705" x1="27.4153" y1="0.795178" x2="53.5962" y2="39.3593" gradientUnits="userSpaceOnUse">
<stop stop-color="#F8F5EA"/>
<stop offset="0.41" stop-color="#F2EAD1"/>
<stop offset="0.78" stop-color="#C8BA9B"/>
<stop offset="1" stop-color="#B3A281"/>
</linearGradient>
<linearGradient id="paint44_linear_3_3705" x1="26.1204" y1="2.35263" x2="50.9366" y2="38.9009" gradientUnits="userSpaceOnUse">
<stop offset="0.05" stop-color="#F2EAD1"/>
<stop offset="0.23" stop-color="#ECE4CA"/>
<stop offset="0.49" stop-color="#DED4B8"/>
<stop offset="0.78" stop-color="#C7B99B"/>
<stop offset="1" stop-color="#B3A281"/>
</linearGradient>
<linearGradient id="paint45_linear_3_3705" x1="39.4957" y1="19.6605" x2="41.8713" y2="42.2172" gradientUnits="userSpaceOnUse">
<stop stop-color="#865D46"/>
<stop offset="0.58" stop-color="#A1876A"/>
<stop offset="1" stop-color="#B3A281"/>
</linearGradient>
<linearGradient id="paint46_linear_3_3705" x1="25.6449" y1="7.08038" x2="26.3629" y2="13.8931" gradientUnits="userSpaceOnUse">
<stop stop-color="#865D46"/>
<stop offset="0.58" stop-color="#A1876A"/>
<stop offset="1" stop-color="#B3A281"/>
</linearGradient>
<linearGradient id="paint47_linear_3_3705" x1="22.9062" y1="5.21523" x2="23.3487" y2="9.44735" gradientUnits="userSpaceOnUse">
<stop stop-color="#865D46"/>
<stop offset="0.58" stop-color="#A1876A"/>
<stop offset="1" stop-color="#B3A281"/>
</linearGradient>
<linearGradient id="paint48_linear_3_3705" x1="40.6048" y1="53.4423" x2="41.0053" y2="50.3636" gradientUnits="userSpaceOnUse">
<stop stop-color="#865D46"/>
<stop offset="0.58" stop-color="#A1876A"/>
<stop offset="1" stop-color="#B3A281"/>
</linearGradient>
<linearGradient id="paint49_linear_3_3705" x1="39.2752" y1="54.502" x2="47.1032" y2="-5.85042" gradientUnits="userSpaceOnUse">
<stop stop-color="#865D46"/>
<stop offset="0.58" stop-color="#A1876A"/>
<stop offset="1" stop-color="#B3A281"/>
</linearGradient>
<linearGradient id="paint50_linear_3_3705" x1="31.7774" y1="8.28254" x2="57.2336" y2="17.6977" gradientUnits="userSpaceOnUse">
<stop offset="0.38" stop-color="#FBFAF5"/>
<stop offset="0.57" stop-color="#F6F2E4"/>
<stop offset="0.8" stop-color="#F3ECD5"/>
<stop offset="1" stop-color="#F2EAD1"/>
</linearGradient>
<linearGradient id="paint51_linear_3_3705" x1="24.5751" y1="7.12619" x2="29.7208" y2="9.02696" gradientUnits="userSpaceOnUse">
<stop offset="0.38" stop-color="white"/>
<stop offset="0.4" stop-color="#FEFDFB"/>
<stop offset="0.62" stop-color="#F7F2E4"/>
<stop offset="0.83" stop-color="#F3ECD5"/>
<stop offset="1" stop-color="#F2EAD1"/>
</linearGradient>
<linearGradient id="paint52_linear_3_3705" x1="44.8561" y1="34.4132" x2="52.2294" y2="37.1399" gradientUnits="userSpaceOnUse">
<stop stop-color="#F2EAD1"/>
<stop offset="0.2" stop-color="#EEE5CC"/>
<stop offset="0.44" stop-color="#E2D8BD"/>
<stop offset="0.7" stop-color="#D0C3A6"/>
<stop offset="0.97" stop-color="#B6A685"/>
<stop offset="1" stop-color="#B3A281"/>
</linearGradient>
<linearGradient id="paint53_linear_3_3705" x1="42.2215" y1="5.44976" x2="40.5676" y2="31.3137" gradientUnits="userSpaceOnUse">
<stop stop-color="#FBFAF5"/>
<stop offset="0.13" stop-color="#F6F2E4"/>
<stop offset="0.3" stop-color="#F3ECD5"/>
<stop offset="0.44" stop-color="#F2EAD1"/>
<stop offset="0.79" stop-color="#C8BA9B"/>
<stop offset="0.99" stop-color="#B3A281"/>
</linearGradient>
<linearGradient id="paint54_linear_3_3705" x1="28.9316" y1="59.5442" x2="24.7804" y2="23.5236" gradientUnits="userSpaceOnUse">
<stop stop-color="#09E9FA"/>
<stop offset="0.02" stop-color="#12DCEF"/>
<stop offset="0.11" stop-color="#34ADC9"/>
<stop offset="0.21" stop-color="#5383A6"/>
<stop offset="0.31" stop-color="#6D5F89"/>
<stop offset="0.42" stop-color="#834372"/>
<stop offset="0.53" stop-color="#932C5F"/>
<stop offset="0.65" stop-color="#9F1D52"/>
<stop offset="0.79" stop-color="#A5134B"/>
<stop offset="0.98" stop-color="#A81149"/>
</linearGradient>
<clipPath id="clip0_3_3705">
<rect width="53.01" height="60" fill="white" transform="translate(0 6.81543) rotate(-7.23516)"/>
</clipPath>
<clipPath id="clip1_3_3705">
<rect width="3.57733" height="4.51722" fill="white" transform="translate(25.2091 31) rotate(45.2726)"/>
</clipPath>
</defs>
</svg>
