<svg width="20" height="21" viewBox="0 0 20 21" fill="none" xmlns="http://www.w3.org/2000/svg">
<g clip-path="url(#clip0_217_22)">
<path d="M7.54688 14.3281C7.46946 14.3012 7.38745 14.29 7.30565 14.2951C7.22385 14.3003 7.14389 14.3216 7.07044 14.358C6.99698 14.3943 6.93151 14.445 6.87783 14.5069C6.82416 14.5689 6.78336 14.6409 6.75781 14.7188C6.24219 16.2578 4.57812 16.7344 3.61719 16.8828C3.76562 15.9219 4.24219 14.2578 5.78125 13.7422C5.86552 13.7218 5.94463 13.684 6.01353 13.6314C6.08243 13.5788 6.13963 13.5124 6.18148 13.4364C6.22333 13.3605 6.24893 13.2767 6.25663 13.1903C6.26434 13.1039 6.25399 13.0169 6.22625 12.9348C6.1985 12.8526 6.15396 12.7771 6.09547 12.7131C6.03697 12.6491 5.9658 12.598 5.88647 12.563C5.80715 12.528 5.7214 12.5098 5.63469 12.5098C5.54798 12.5097 5.4622 12.5276 5.38281 12.5625C4.10156 12.9844 3.16406 14 2.66406 15.4922C2.44252 16.1634 2.32142 16.8637 2.30469 17.5703C2.30469 17.7361 2.37054 17.895 2.48775 18.0123C2.60496 18.1295 2.76393 18.1953 2.92969 18.1953C3.63632 18.1786 4.3366 18.0575 5.00781 17.8359C6.5 17.3359 7.51562 16.3984 7.9375 15.1172C7.96441 15.0398 7.97562 14.9578 7.9705 14.876C7.96537 14.7942 7.944 14.7142 7.90764 14.6408C7.87128 14.5673 7.82065 14.5018 7.75871 14.4481C7.69677 14.3945 7.62475 14.3537 7.54688 14.3281Z" fill="white"/>
<path d="M17.7803 3.76562C17.7437 3.50091 17.6216 3.25539 17.4326 3.06643C17.2437 2.87746 16.9981 2.75538 16.7334 2.71875C15.8506 2.58594 13.5616 2.52344 11.3272 4.75781L10.6241 5.45312H5.83499C5.50403 5.45538 5.18712 5.58719 4.95218 5.82031L2.42874 8.35156C2.26873 8.5107 2.15509 8.71042 2.10004 8.92927C2.04498 9.14812 2.05058 9.37784 2.11624 9.59375C2.18139 9.81122 2.30453 10.0068 2.47245 10.1596C2.64037 10.3124 2.84672 10.4166 3.06937 10.4609L6.1553 11.0781L9.42093 14.3437L10.0381 17.4297C10.0825 17.6523 10.1866 17.8587 10.3394 18.0266C10.4922 18.1945 10.6878 18.3177 10.9053 18.3828C11.0214 18.42 11.1427 18.4385 11.2647 18.4375C11.429 18.439 11.5919 18.4072 11.7436 18.3441C11.8953 18.281 12.0327 18.1879 12.1475 18.0703L14.6787 15.5469C14.9119 15.3119 15.0437 14.995 15.0459 14.6641V9.875L15.7412 9.17187C17.9756 6.9375 17.9131 4.64844 17.7803 3.76562ZM5.83499 6.70312H9.37405L6.25687 9.82031L3.31155 9.23437L5.83499 6.70312ZM13.7959 14.6641L11.2647 17.1875L10.6787 14.2422L13.7959 11.125V14.6641Z" fill="white"/>
</g>
<defs>
<clipPath id="clip0_217_22">
<rect width="20" height="20" fill="white" transform="translate(0 0.5)"/>
</clipPath>
</defs>
</svg>
