<?xml version="1.0" encoding="UTF-8"?><svg xmlns="http://www.w3.org/2000/svg" xmlns:xlink="http://www.w3.org/1999/xlink" viewBox="0 0 92.48 90.52"><defs><style>.cls-1{fill:url(#linear-gradient);}.cls-1,.cls-2,.cls-3,.cls-4,.cls-5,.cls-6,.cls-7,.cls-8,.cls-9,.cls-10,.cls-11,.cls-12,.cls-13,.cls-14,.cls-15{stroke-width:0px;}.cls-2{fill:url(#radial-gradient);opacity:.5;}.cls-2,.cls-3,.cls-4,.cls-14,.cls-15{mix-blend-mode:overlay;}.cls-3{fill:url(#linear-gradient-10);}.cls-3,.cls-4{opacity:.4;}.cls-4{fill:url(#linear-gradient-9);}.cls-5{fill:url(#linear-gradient-2);}.cls-6{fill:url(#linear-gradient-3);}.cls-7{fill:url(#linear-gradient-8);}.cls-8{fill:url(#linear-gradient-7);}.cls-9{fill:url(#linear-gradient-5);}.cls-16{isolation:isolate;}.cls-10{fill:#d84905;}.cls-11{fill:#ba3e05;}.cls-12{fill:#f69d05;}.cls-13{fill:#f67205;}.cls-14{fill:url(#linear-gradient-6);}.cls-14,.cls-15{opacity:.7;}.cls-15{fill:url(#linear-gradient-4);}</style><linearGradient id="linear-gradient" x1="18.83" y1="87.1" x2="89.24" y2="26" gradientUnits="userSpaceOnUse"><stop offset="0" stop-color="#d13f05"/><stop offset=".29" stop-color="#f67205"/><stop offset=".37" stop-color="#f67605"/><stop offset=".45" stop-color="#f68405"/><stop offset=".54" stop-color="#f69b05"/><stop offset=".56" stop-color="#f6a205"/><stop offset=".6" stop-color="#f69005"/><stop offset=".64" stop-color="#f67f05"/><stop offset=".69" stop-color="#f67505"/><stop offset=".76" stop-color="#f67205"/><stop offset="1" stop-color="#d13f05"/></linearGradient><linearGradient id="linear-gradient-2" x1="21.04" y1="89.65" x2="91.46" y2="28.55" xlink:href="#linear-gradient"/><linearGradient id="linear-gradient-3" x1="30.92" y1="101.05" x2="101.34" y2="39.94" xlink:href="#linear-gradient"/><linearGradient id="linear-gradient-4" x1="4.87" y1="72.86" x2="82.65" y2="9.59" gradientUnits="userSpaceOnUse"><stop offset="0" stop-color="#fff" stop-opacity="0"/><stop offset=".26" stop-color="#fff"/><stop offset=".76" stop-color="#fff"/><stop offset="1" stop-color="#fff" stop-opacity="0"/></linearGradient><linearGradient id="linear-gradient-5" x1="73.2" y1="53.67" x2="-5.69" y2="20.34" gradientUnits="userSpaceOnUse"><stop offset="0" stop-color="#ffaf02"/><stop offset="1" stop-color="#f56d05"/></linearGradient><linearGradient id="linear-gradient-6" x1="14.23" y1="13.95" x2="60.02" y2="57.72" xlink:href="#linear-gradient-4"/><linearGradient id="linear-gradient-7" x1="11.72" y1="40.96" x2="74.51" y2="40.96" gradientUnits="userSpaceOnUse"><stop offset="0" stop-color="#cf4505"/><stop offset="1" stop-color="#e45905"/></linearGradient><linearGradient id="linear-gradient-8" x1="61.79" y1="48.84" x2="24.42" y2="33.05" xlink:href="#linear-gradient-5"/><radialGradient id="radial-gradient" cx="-38.27" cy="208.93" fx="-38.27" fy="208.93" r="23.47" gradientTransform="translate(176.32 -30.57) rotate(45.47) scale(.1 .69) skewX(.15)" gradientUnits="userSpaceOnUse"><stop offset="0" stop-color="#fff"/><stop offset=".09" stop-color="#fff" stop-opacity=".96"/><stop offset=".24" stop-color="#fff" stop-opacity=".85"/><stop offset=".43" stop-color="#fff" stop-opacity=".66"/><stop offset=".66" stop-color="#fff" stop-opacity=".41"/><stop offset=".93" stop-color="#fff" stop-opacity=".09"/><stop offset="1" stop-color="#fff" stop-opacity="0"/></radialGradient><linearGradient id="linear-gradient-9" x1="32.79" y1="28.85" x2="61.1" y2="62.06" gradientUnits="userSpaceOnUse"><stop offset="0" stop-color="#fff"/><stop offset="1" stop-color="#fff" stop-opacity="0"/></linearGradient><linearGradient id="linear-gradient-10" x1="16.29" y1="13.58" x2="31.43" y2="28.94" xlink:href="#linear-gradient-9"/></defs><g class="cls-16"><g id="Layer_2"><g id="OBJECTS"><polygon class="cls-10" points="8.05 65.53 14.31 74.13 10.97 73.69 4.72 65.08 8.05 65.53"/><path class="cls-1" d="m79.82,14.23c2.09,2.87,4.17,5.74,6.25,8.61,4.17,5.74,6.42,12.78,6.41,20.31l-6.25-8.61c0-7.54-2.24-14.58-6.41-20.31Z"/><polygon class="cls-13" points="86.23 34.54 92.48 43.15 89.31 45.48 83.05 36.88 86.23 34.54"/><polygon class="cls-10" points="54.54 76.58 60.79 85.19 59.44 87.36 53.18 78.75 54.54 76.58"/><path class="cls-5" d="m53.18,78.75l6.25,8.61c-9.09,3.42-18.94,4.22-28.09,1.65-7.02-1.98-12.76-5.7-16.96-10.57l-6.25-8.61c4.21,4.87,9.94,8.59,16.96,10.57,9.15,2.57,19,1.77,28.09-1.65Z"/><polygon class="cls-12" points="56.82 77.22 63.08 85.83 60.79 85.19 54.54 76.58 56.82 77.22"/><path class="cls-6" d="m86.1,37.73l6.25,8.61c-.39,4.67-1.64,9.47-3.82,14.24-5.17,11.32-14.58,20.19-25.46,25.25l-6.25-8.61c10.88-5.06,20.28-13.92,25.45-25.25,2.18-4.77,3.42-9.57,3.82-14.24Z"/><path class="cls-15" d="m86.48,38.22c-.4,4.67-1.64,9.47-3.82,14.24-5.17,11.32-14.58,20.19-25.45,25.25l-2.29-.64-1.36,2.17c-9.09,3.42-18.94,4.22-28.09,1.65-7.02-1.98-12.76-5.7-16.96-10.57l-.08-4.3-3.34-.44c-5.77-9.78-6.5-22.59-.76-35.15,1.71-3.74,3.89-7.22,6.42-10.38,1.87-.81,3.83-1.97,3.93-2.03l.57-2.88C25.85,4.94,40.53-.68,54.48.69l3.01,2.44,8.47.43c13.1,5.5,20.67,17.65,20.65,31.48l-3.18,2.33,3.05.86Z"/><path class="cls-9" d="m86.1,37.73c-.4,4.67-1.64,9.47-3.82,14.24-5.17,11.32-14.58,20.19-25.45,25.25l-2.29-.64-1.36,2.17c-9.09,3.42-18.94,4.22-28.09,1.65-7.02-1.98-12.75-5.7-16.96-10.57l-.08-4.3-3.34-.44c-5.77-9.78-6.5-22.59-.77-35.15,1.71-3.74,3.89-7.22,6.42-10.38,1.87-.81,3.83-1.97,3.93-2.03l.57-2.88C25.47,4.45,40.15-1.17,54.1.2l3.01,2.44,8.47.43c13.09,5.51,20.67,17.65,20.65,31.48l-3.18,2.33,3.05.86Z"/><path class="cls-14" d="m55.42,12.07c15.74,4.43,22.64,20.88,15.39,36.74-7.25,15.86-25.89,25.12-41.63,20.69-15.74-4.43-22.64-20.88-15.39-36.74,7.25-15.86,25.89-25.12,41.63-20.69Z"/><path class="cls-8" d="m56.24,12.24c15.74,4.43,22.64,20.88,15.39,36.74-7.25,15.86-25.89,25.12-41.63,20.69-15.74-4.43-22.64-20.88-15.39-36.74,7.25-15.86,25.89-25.12,41.63-20.69Z"/><path class="cls-11" d="m32.49,70.16c-15.74-4.43-22.64-20.88-15.39-36.74,6.71-14.68,23.2-23.71,38.1-21.45-15.52-3.75-33.51,5.45-40.6,20.96-7.25,15.86-.35,32.31,15.39,36.74,1.16.33,2.34.57,3.53.75-.35-.08-.69-.16-1.04-.26Z"/><path class="cls-7" d="m63.4,35.14s-6.2,3.29-13.03,2.06c3.43-6.51,9.71-9.64,9.71-9.64-.38-.17-.77-.31-1.15-.41-2.36-.63-4.57-.06-4.57-.06.75-3.67-2.53-6.12-2.52-6.12,0,0-4.51.36-6.78,3.63,0,0-1.31-1.52-3.67-2.15-.38-.1-.79-.18-1.23-.23,0,0,2.51,5.48.14,12.28-6.36-2.3-8.69-7.88-8.69-7.88-1.74,2.83-1.4,5.62-1.4,5.62-3.77-.15-6.88,3.4-6.88,3.4,0,0-.32,4.3,2.78,5.99,0,0-2.45,2.03-3.28,5.11,0,0,6.2-3.29,13.03-2.06-3.43,6.52-9.71,9.65-9.71,9.65.38.17.76.3,1.14.41,2.36.63,4.59.07,4.59.07-.76,3.67,2.53,6.11,2.53,6.11,0,0,4.51-.36,6.78-3.62,0,0,1.32,1.51,3.67,2.15.38.1.79.18,1.22.23,0,0-2.51-5.48-.14-12.28,6.36,2.3,8.69,7.88,8.69,7.88,1.74-2.83,1.4-5.61,1.4-5.61,3.77.15,6.87-3.41,6.87-3.4,0,0,.33-4.3-2.77-5.99,0,0,2.44-2.04,3.28-5.11Z"/><path class="cls-2" d="m72.43,69.56c-6.38,6.28-12.32,10.59-13.26,9.63-.95-.96,3.46-6.83,9.84-13.11,6.38-6.28,12.32-10.59,13.26-9.63.95.96-3.46,6.83-9.84,13.11Z"/><path class="cls-4" d="m77.04,10.93L8.1,68l.03,1.83c4.21,4.87,9.94,8.59,16.96,10.57,1.58.44,3.18.78,4.79,1.03l53.65-44.42-.48-.14,3.18-2.33c0-9.06-3.26-17.39-9.19-23.62Z"/><path class="cls-3" d="m57.11,2.64l-3.01-2.44c-4.09-.4-8.25-.19-12.35.56L2.65,33.12C.38,39.27-.39,45.42.2,51.17L58.72,2.72l-1.61-.08Z"/></g></g></g></svg>