<svg width="41" height="36" viewBox="0 0 41 36" fill="none" xmlns="http://www.w3.org/2000/svg">
<g style="mix-blend-mode:multiply" opacity="0.25">
<path d="M40.3576 11.7634C40.3576 11.7634 40.3576 11.7606 40.3576 11.7579C40.3164 11.5873 40.2723 11.4195 40.2201 11.2572C40.2201 11.249 40.2146 11.2407 40.2118 11.2325C40.1623 11.0756 40.1073 10.9188 40.0495 10.7648C40.044 10.7483 40.0385 10.7345 40.0303 10.718C39.9725 10.5722 39.912 10.4292 39.8459 10.2916C39.8349 10.2696 39.8239 10.2476 39.8129 10.2256C39.7496 10.0935 39.6836 9.96698 39.6121 9.84043C39.5956 9.81017 39.5763 9.78266 39.5598 9.7524C39.4911 9.63685 39.4223 9.52131 39.348 9.41127C39.3232 9.3755 39.2985 9.33974 39.2737 9.30398C39.2022 9.20219 39.1307 9.10315 39.0564 9.00687C39.0234 8.9656 38.9904 8.92709 38.9546 8.88582C38.8831 8.80054 38.8115 8.71251 38.7345 8.62998C38.6932 8.58596 38.6492 8.54194 38.6052 8.49793C38.5337 8.4264 38.4622 8.35212 38.3879 8.28335C38.3356 8.23658 38.2806 8.19256 38.2256 8.14855C38.154 8.08802 38.0853 8.0275 38.0137 7.97248C37.9505 7.92296 37.8817 7.87894 37.8157 7.83493C37.7496 7.78816 37.6836 7.74139 37.6148 7.70013C37.5323 7.64786 37.447 7.60384 37.3617 7.55982C37.3067 7.52956 37.2517 7.49655 37.1939 7.46629C37.0509 7.39476 36.9023 7.33149 36.751 7.27647C36.6547 7.24071 36.5557 7.21044 36.4567 7.18293C36.4181 7.17193 36.3824 7.16092 36.3439 7.15267C36.3246 7.14717 36.3054 7.14442 36.2861 7.13892C36.2861 7.13892 36.2806 7.13892 36.2778 7.13892C36.2448 7.13066 36.2091 7.12241 36.1761 7.11416C36.0935 7.0949 36.011 7.08114 35.9257 7.06464C35.9257 7.06464 35.923 7.06464 35.9202 7.06464C35.9065 7.06464 35.8899 7.05914 35.8762 7.05639C35.8734 7.05639 35.8707 7.05639 35.8679 7.05639C35.403 6.98486 34.9326 6.98211 34.4677 7.03713C34.4457 7.03713 34.4209 7.04263 34.3989 7.04538C34.2503 7.06464 34.1045 7.08665 33.9587 7.11691C33.956 7.11691 33.9505 7.11691 33.9477 7.11691C33.9367 7.11691 33.923 7.12241 33.912 7.12516C33.502 7.21319 33.0536 7.33424 32.674 7.52406C32.641 7.54057 32.5777 7.58458 32.5034 7.64236C32.4429 7.67537 32.3824 7.71663 32.3219 7.7524C32.0908 7.85694 31.8652 7.96973 31.6644 8.13479C31.2214 8.49793 30.8363 8.98761 30.5529 9.49655C30.6382 9.27647 30.6932 9.03163 30.7373 8.77853C30.773 8.64648 30.806 8.51443 30.8418 8.38788C30.9711 8.20907 31.1252 8.12654 31.2792 7.85694C31.4553 7.68637 31.5846 7.4938 31.6699 7.25446C31.6699 7.25446 31.6699 7.25171 31.6699 7.24896C31.7001 7.16368 31.7249 7.07839 31.7441 6.98211C31.7772 6.81705 31.8597 6.35762 31.8844 5.96148C31.8844 5.94497 31.8844 5.93121 31.8844 5.91746C31.8899 5.85694 31.8954 5.79641 31.901 5.73864C31.9037 5.68362 31.9037 5.63135 31.901 5.58183C31.901 5.54057 31.8954 5.50205 31.8927 5.46079C31.8927 5.45804 31.8927 5.45529 31.8927 5.44978C31.8927 5.44978 31.8927 5.44703 31.8927 5.44428C31.8762 5.31773 31.8459 5.20219 31.7937 5.0949C31.7937 5.09215 31.7909 5.08665 31.7882 5.0839C31.7717 5.04813 31.7524 5.01237 31.7304 4.97661C31.7304 4.97661 31.7276 4.97386 31.7276 4.9711C31.6836 4.90233 31.6313 4.83355 31.5708 4.76478C31.5708 4.76478 31.5681 4.75927 31.5653 4.75652C31.5378 4.72626 31.5048 4.69325 31.4718 4.66299C31.4608 4.65474 31.4525 4.64373 31.4415 4.63548C31.4085 4.60522 31.3755 4.57496 31.3397 4.54469C31.293 4.50068 31.2407 4.45666 31.1802 4.41815C31.0481 4.33011 30.9133 4.24758 30.7703 4.16505C30.7455 4.1513 30.718 4.13754 30.6905 4.12379C30.5722 4.05776 30.4512 3.99174 30.3219 3.92846C30.2751 3.9037 30.2228 3.8817 30.1733 3.85969C30.0633 3.80742 29.956 3.75515 29.8404 3.70563C29.7551 3.66987 29.6671 3.6341 29.5791 3.59834C29.4938 3.56533 29.414 3.52956 29.326 3.49655C29.2049 3.44978 29.0784 3.40852 28.9518 3.3645C28.8941 3.34524 28.8391 3.32324 28.7785 3.30123C28.619 3.24896 28.4539 3.19669 28.2888 3.14717C28.2586 3.13892 28.2311 3.12791 28.2008 3.11966C28.0055 3.06189 27.8074 3.00687 27.6011 2.9546C27.5983 2.9546 27.5928 2.9546 27.5901 2.95185C25.6891 2.45391 23.359 2.12104 20.6933 1.8817C16.4044 1.5048 12.9821 1.55157 10.8446 2.38789C10.8308 2.39339 10.8198 2.39889 10.806 2.40439C10.7208 2.4374 10.6355 2.47317 10.5557 2.50893C10.4402 2.5612 10.3301 2.61347 10.2228 2.66849C10.2173 2.66849 10.2146 2.67399 10.2091 2.67674C10.0413 2.75927 9.67812 3.02888 9.54057 3.4938C9.54057 3.49105 9.54057 3.4883 9.54057 3.48555C9.53782 3.49655 9.53507 3.5048 9.53232 3.51581C9.52681 3.53782 9.52131 3.55707 9.51581 3.57908C9.50206 3.64236 9.4883 3.70838 9.48555 3.77716C9.48555 3.82392 9.48555 3.86794 9.4828 3.91196C9.4773 3.94222 9.47179 3.96973 9.47179 3.99999C9.46079 4.46216 9.46629 4.83905 9.47179 5.00412C9.50206 5.54332 9.67262 5.97523 10.1238 6.28335C10.1293 6.28885 10.1375 6.29435 10.143 6.2971C10.1651 6.48142 10.1871 6.67399 10.2118 6.87207C10.2036 6.86656 10.1981 6.85831 10.1898 6.85006C10.1981 6.85831 10.2063 6.86932 10.2146 6.88032C10.2256 6.96285 10.2338 7.04538 10.2448 7.13066C10.2503 7.17468 10.2558 7.2187 10.2613 7.26271C9.31498 5.37 7.29573 4.39614 5.55708 4.36038C5.53782 4.36038 5.51856 4.36038 5.4993 4.36038C5.43053 4.36038 5.359 4.36038 5.29023 4.36038C5.26272 4.36038 5.23796 4.36037 5.21045 4.36313C5.14717 4.36588 5.0839 4.37138 5.02338 4.37688C4.99862 4.37688 4.97111 4.38238 4.94635 4.38513C4.86106 4.39614 4.77853 4.40714 4.696 4.4209C4.53919 4.44841 4.38514 4.48692 4.23108 4.53094C4.17881 4.54744 4.12929 4.5667 4.07702 4.58321C3.97798 4.61622 3.87895 4.64648 3.77991 4.68775C3.71664 4.71251 3.65336 4.74552 3.59009 4.77578C3.51031 4.81154 3.42778 4.84731 3.348 4.88857C3.27647 4.92709 3.2077 4.96835 3.13617 5.00962C3.07014 5.04813 3.00137 5.08665 2.93534 5.12791C2.85831 5.17743 2.78404 5.23245 2.70976 5.28747C2.65474 5.32874 2.59697 5.3645 2.5447 5.40852C2.46492 5.47179 2.38514 5.54057 2.30811 5.60934C2.26409 5.64786 2.22008 5.68362 2.17881 5.72214C2.09353 5.79916 2.01375 5.88445 1.93397 5.96698C1.90096 5.99999 1.86794 6.033 1.83493 6.06877C1.74965 6.1623 1.66712 6.26134 1.58734 6.36037C1.56258 6.38789 1.54057 6.41815 1.51581 6.44566C1.43053 6.5557 1.35075 6.66849 1.27097 6.78403C1.25446 6.80604 1.24071 6.82805 1.2242 6.85006C1.14167 6.97385 1.06189 7.10315 0.987613 7.2352C0.97936 7.25171 0.971107 7.26546 0.960103 7.28197C0.880323 7.42227 0.806045 7.56533 0.737269 7.71113C0.734518 7.71938 0.729016 7.72764 0.726265 7.73589C0.651987 7.88995 0.585963 8.04676 0.522689 8.20632C0.522689 8.20632 0.522689 8.20907 0.522689 8.21182C0.233831 8.96835 0.0467606 9.79366 0.00824617 10.6547C0.00824617 10.7098 0.00824617 10.7648 0.00549514 10.817C0.00549514 10.9078 0.00274411 10.9986 0.00549514 11.0866C0.00549514 11.1279 0.00549514 11.1719 0.00824617 11.2132C0.0109972 11.3177 0.0164993 11.4223 0.0247524 11.5268C0.0275034 11.5681 0.0302544 11.6066 0.0330055 11.6479C0.0577647 11.9285 0.101781 12.2008 0.156802 12.4677C0.162304 12.4979 0.170557 12.5309 0.17881 12.5612C0.203569 12.6712 0.23108 12.7813 0.261341 12.8886C0.269594 12.9133 0.275096 12.9381 0.280598 12.9628C0.360378 13.2325 0.453913 13.4938 0.561203 13.7469C0.566705 13.7579 0.572208 13.7689 0.574959 13.7799C0.627228 13.9037 0.685 14.0247 0.742772 14.143C0.742772 14.143 0.742772 14.1485 0.745523 14.1513C1.76891 16.2008 3.69188 17.6644 5.55708 18.3246C5.67262 18.3659 5.78816 18.4044 5.90646 18.4429C6.53369 18.6492 7.0894 18.8033 7.73039 19.0151C8.25034 19.1857 8.75653 19.4058 9.24621 19.6589C9.24621 19.6589 9.25171 19.6616 9.25446 19.6644C9.36175 19.7276 9.46629 19.7937 9.57083 19.8624C9.58459 19.8707 9.59834 19.8817 9.6121 19.8899C9.70288 19.9532 9.79091 20.0192 9.87895 20.088C9.8982 20.1045 9.92021 20.121 9.93947 20.1375C10.022 20.2036 10.099 20.2751 10.1761 20.3494C10.1953 20.3686 10.2173 20.3879 10.2393 20.4071C10.3329 20.5007 10.4236 20.5997 10.5117 20.7043C10.5502 20.751 10.586 20.8033 10.6245 20.8556C10.6355 20.8721 10.6465 20.8886 10.6575 20.9051C10.685 20.9463 10.7098 20.9904 10.7345 21.0344C10.7428 21.0509 10.7538 21.0674 10.762 21.0839C10.8281 21.2104 10.8886 21.3452 10.9408 21.4883C10.9436 21.4993 10.9491 21.5103 10.9518 21.5213C10.9766 21.5873 10.9959 21.6561 11.0179 21.7276C11.0179 21.7331 11.0206 21.7414 11.0234 21.7469C11.0894 21.9862 11.1279 22.2393 11.1334 22.4869C11.1389 22.8253 11.0839 23.1554 10.9408 23.4415C10.4979 24.3191 9.52406 24.3604 9.01512 23.8597C9.01512 23.8487 9.01512 23.8404 9.01787 23.8294C9.02062 23.8157 9.02888 23.8019 9.03163 23.7882C9.92846 23.4525 9.73589 22.3081 9.29848 21.7854C9.29573 21.7827 9.29298 21.7799 9.29023 21.7772C9.29023 21.7772 9.29573 21.7772 9.29848 21.7772C9.25996 21.7359 9.2187 21.6974 9.17743 21.6616C8.70976 21.2407 8.11278 21.403 7.69188 21.8514C7.66161 21.8817 7.6341 21.9147 7.60659 21.9477C7.59559 21.9587 7.58734 21.9725 7.57908 21.9835C7.54057 22.033 7.50481 22.0825 7.47454 22.1348C7.46904 22.1403 7.46629 22.1485 7.46079 22.154C7.42778 22.2091 7.39476 22.2668 7.36725 22.3274C7.3535 22.3576 7.33974 22.3879 7.32874 22.4209C7.31774 22.4457 7.30673 22.4732 7.29848 22.4979C7.28197 22.5392 7.26822 22.5805 7.25721 22.6245C7.25721 22.6327 7.25171 22.6437 7.24896 22.652C7.22695 22.7318 7.21045 22.8143 7.19669 22.8996C7.19394 22.9271 7.18844 22.9546 7.18569 22.9794C7.18294 23.0124 7.18018 23.0454 7.17743 23.0784C7.17468 23.1444 7.17193 23.2132 7.17743 23.2792C7.26547 24.5309 8.19531 25.2242 9.19944 25.458C9.55983 25.5736 9.93672 25.6258 10.2888 25.5763C10.8941 25.491 11.4305 25.2242 11.8624 24.8446C11.8955 24.817 11.9257 24.7895 11.9587 24.7593C11.9835 24.7345 12.0082 24.7125 12.033 24.6877C12.7235 24.022 13.1389 23.0646 13.1334 22.0055C13.4195 22.4347 13.7304 22.784 14.0358 22.9821C14.619 23.5626 15.4443 24.0413 16.6905 24.3906C16.7153 24.8473 16.7593 25.3397 16.9986 25.6864C17.0756 25.8294 17.1857 25.945 17.3425 26.0495C17.6974 27.4525 17.8184 29.1334 17.6864 31.1252C17.0674 31.1389 16.5722 31.2187 16.3109 31.3452C16.3109 31.3425 16.3081 31.3397 16.3054 31.3342C16.2888 31.3507 16.2668 31.3617 16.2503 31.3755C16.2146 31.3975 16.1843 31.4195 16.1623 31.4443C15.392 32.0413 14.3851 32.2311 13.4278 32.1898C13.4195 32.1898 13.4113 32.1981 13.403 32.2008C13.304 32.2063 13.2022 32.2228 13.1004 32.2531C13.1279 32.2778 13.1582 32.2999 13.1884 32.3246C13.1417 32.3549 13.0922 32.3824 13.0371 32.3989C12.7043 32.4952 12.4759 32.6272 12.3439 32.784C12.3191 32.751 12.2888 32.7208 12.2641 32.6877C12.0825 32.8941 12.11 33.0564 12.2118 33.2077C12.2366 33.4305 12.3879 33.6754 12.6547 33.9257C12.9656 34.2228 13.4443 34.5254 14.0688 34.8033C15.1857 35.3177 16.7648 35.7607 18.6932 35.9587C22.4154 36.2146 24.8858 35.3232 25.1664 34.4126C25.1802 34.3796 25.1884 34.3466 25.1967 34.3136C25.3012 34.1458 25.348 33.9532 25.293 33.7304C25.3177 33.8322 25.2682 33.9312 25.1747 34.0275C25.1747 34.022 25.1692 34.0165 25.1664 34.0137C25.1609 33.9807 25.1499 33.9477 25.1389 33.9147C25.1362 33.9202 25.1307 33.9257 25.1279 33.9312C25.1169 33.912 25.1004 33.8927 25.0839 33.8734C25.0839 33.8734 25.0839 33.8707 25.0811 33.8679C25.0811 33.8679 25.0756 33.8624 25.0756 33.8597C25.0564 33.8349 25.0371 33.8102 25.0124 33.7882C24.8088 33.5681 24.5337 33.4635 24.3439 33.2325C24.3576 33.2242 24.3741 33.2187 24.3879 33.2104C24.3604 33.1994 24.3301 33.1912 24.3026 33.1802C24.2778 33.1444 24.2531 33.1059 24.2311 33.0646C24.1458 33.0811 24.055 33.0839 23.9615 33.0811C23.8872 33.0619 23.8102 33.0426 23.7386 33.0206C23.7276 33.0234 23.7166 33.0289 23.7056 33.0316C23.4223 32.9628 23.1334 32.8776 22.8528 32.7703C22.8473 32.7703 22.8446 32.7675 22.8391 32.7648C22.3741 32.5832 21.923 32.3356 21.5818 31.9642C21.5791 31.9587 21.5736 31.956 21.5708 31.9532C21.4443 31.7139 20.8005 31.4663 19.9175 31.304C19.9285 31.1362 19.9395 30.9684 19.9532 30.806C19.9587 30.7373 19.9642 30.6685 19.9697 30.5997C19.989 30.3851 20.011 30.1788 20.033 29.9752C20.0358 29.9422 20.0413 29.9092 20.044 29.8762C20.0688 29.6726 20.0963 29.4773 20.1265 29.2847C20.1375 29.2214 20.1458 29.1609 20.1568 29.0976C20.1871 28.9161 20.2173 28.74 20.2503 28.5695C20.2558 28.5474 20.2586 28.5254 20.2641 28.5034C20.3026 28.3219 20.3411 28.1485 20.3851 27.9807C20.3961 27.934 20.4099 27.8844 20.4209 27.8377C20.4622 27.6781 20.5062 27.5241 20.5529 27.3755C20.5557 27.3645 20.5584 27.3562 20.5612 27.3452C20.5887 27.2627 20.619 27.1857 20.6465 27.1059C20.74 26.8693 20.8473 26.6547 20.9766 26.4484C21.0701 26.4071 21.1609 26.3576 21.249 26.2943C21.2765 26.2751 21.3012 26.2531 21.326 26.2311C21.7441 25.9615 21.8844 25.3893 21.9862 24.8556C22.6795 24.7868 23.2572 24.6602 23.7441 24.4842C23.7441 24.4952 23.7441 24.5034 23.7441 24.5144C23.7441 24.5172 23.9312 24.4291 24.1595 24.3109C24.3521 24.2201 24.5282 24.1183 24.6932 24.0082C24.74 23.978 24.784 23.9477 24.8198 23.9202C24.8198 23.9202 24.8253 23.9175 24.828 23.9147C24.8363 23.9092 24.8446 23.9037 24.8501 23.8982C25.2682 23.5873 25.5956 23.2159 25.8762 22.8033C25.8899 22.784 25.9065 22.7648 25.923 22.7455C26.0413 22.5832 26.1513 22.4236 26.2558 22.2613C26.2421 22.2999 26.2283 22.3384 26.2146 22.3769C26.2036 22.4071 26.1953 22.4402 26.1843 22.4704C26.1458 22.5887 26.1128 22.7043 26.088 22.8225C26.0825 22.8473 26.077 22.8721 26.0715 22.8968C25.7496 24.4402 26.3741 25.967 27.5791 26.7923C27.6644 26.8528 27.7606 26.9051 27.8597 26.9546C27.8982 26.9739 27.9367 26.9904 27.9752 27.0069C28.033 27.0316 28.088 27.0536 28.1485 27.0756C28.2118 27.0977 28.2751 27.1197 28.3411 27.1389C28.3576 27.1444 28.3741 27.1472 28.3934 27.1527C28.5832 27.2049 28.7758 27.2462 28.9601 27.2627C29.238 27.2875 29.5268 27.271 29.8074 27.2187C29.8734 27.2077 29.9395 27.1939 30.0055 27.1802C30.0275 27.1747 30.0495 27.1692 30.0688 27.1637C30.3961 27.0784 30.7043 26.9353 30.9684 26.7263C30.9849 26.7153 31.0014 26.7015 31.0151 26.6905C31.0701 26.6437 31.1224 26.5942 31.1719 26.5392C31.2104 26.5007 31.249 26.4649 31.282 26.4236C31.293 26.4099 31.304 26.3906 31.3177 26.3769C31.3728 26.3081 31.4278 26.2421 31.4718 26.1651C31.6369 25.8899 31.7386 25.5653 31.7634 25.2407C31.7634 25.2352 31.7634 25.2269 31.7634 25.2214C31.7772 25.0096 31.7634 24.7978 31.7084 24.597C31.6891 24.5282 31.6616 24.4512 31.6286 24.3714C31.3122 23.5598 30.5117 23.0344 29.8377 23.6203C29.3205 24.0688 28.9656 25.2104 29.8844 25.6809C29.3205 26.1348 28.3164 25.934 27.989 24.9628C27.8844 24.6547 27.8762 24.3164 27.9285 23.9835C27.9807 23.6534 28.0963 23.3315 28.2476 23.0454C28.2476 23.0454 28.2476 23.0426 28.2476 23.0399C28.3219 22.9023 28.4016 22.773 28.4897 22.6575C28.4979 22.6465 28.5062 22.6355 28.5144 22.6272C28.5474 22.5832 28.5832 22.5419 28.619 22.5007C28.63 22.4897 28.641 22.4759 28.652 22.4649C28.696 22.4181 28.74 22.3741 28.784 22.3329C28.8831 22.2448 28.9849 22.1651 29.0894 22.0908C29.1169 22.0715 29.1472 22.0523 29.1747 22.033C29.2545 21.978 29.3342 21.9257 29.4195 21.8789C29.447 21.8624 29.4773 21.8487 29.5048 21.8322C29.5928 21.7827 29.6836 21.7359 29.7744 21.6946C29.7964 21.6836 29.8157 21.6754 29.8377 21.6644C29.9422 21.6176 30.0495 21.5736 30.1568 21.5323C30.1623 21.5323 30.1706 21.5268 30.1761 21.5241C30.6932 21.3617 31.2242 21.2325 31.7579 21.1554C32.5419 21.0399 33.1857 20.9931 33.9972 20.8583C36.2916 20.4787 38.817 18.9931 39.9505 16.4814C39.956 16.4704 39.9615 16.4594 39.967 16.4457C40.0165 16.3301 40.066 16.2146 40.11 16.0963C40.1183 16.077 40.1238 16.0578 40.132 16.0385C40.2283 15.7799 40.3081 15.5103 40.3741 15.2325C40.3824 15.1994 40.3879 15.1664 40.3961 15.1334C40.4181 15.0261 40.4402 14.9188 40.4594 14.8088C40.4649 14.7703 40.4732 14.7318 40.4787 14.6932C40.4924 14.6025 40.5034 14.5117 40.5144 14.4209C40.5199 14.3686 40.5282 14.3136 40.5337 14.2586C40.6107 13.4003 40.5419 12.5529 40.3521 11.7551L40.3576 11.7634ZM2.98211 12.707C2.97386 12.6767 2.9656 12.6492 2.9601 12.619C2.93534 12.5282 2.91334 12.4347 2.89683 12.3439C2.89133 12.3191 2.88582 12.2971 2.88307 12.2723C2.84181 12.0358 2.81705 11.7992 2.8143 11.5708C2.8143 11.3783 2.82255 11.1857 2.84731 11.0014C2.84731 11.0014 2.84731 11.0041 2.84731 11.0069C2.91609 10.4594 3.0894 9.95047 3.348 9.50756C3.348 9.50205 3.3535 9.4993 3.35625 9.4938C3.4828 9.27922 3.62585 9.08114 3.78541 8.90233C3.79367 8.89407 3.80192 8.88307 3.81017 8.87482C3.96698 8.7015 4.1403 8.54744 4.32461 8.41264C4.34112 8.40164 4.35488 8.39064 4.36863 8.37963C4.45941 8.31636 4.5502 8.25859 4.64648 8.20357C4.66024 8.19531 4.674 8.18981 4.68775 8.18156C4.77303 8.13479 4.85831 8.09352 4.9491 8.05776C4.96836 8.04951 4.98761 8.04125 5.00962 8.033C5.10866 7.99449 5.20769 7.96147 5.30948 7.93396C5.33149 7.92846 5.35625 7.92296 5.37826 7.91746C5.46629 7.89545 5.55708 7.87619 5.64786 7.86244C5.66987 7.85969 5.68913 7.85419 5.71113 7.85143C5.81567 7.83768 5.92296 7.83218 6.03025 7.82943C6.05776 7.82943 6.08527 7.82943 6.11278 7.82943C6.21182 7.82943 6.31086 7.83493 6.4099 7.84868C6.42365 7.84868 6.44016 7.84868 6.45391 7.85143C6.56395 7.86519 6.67675 7.88995 6.78954 7.91746C6.81705 7.92296 6.84456 7.93121 6.87207 7.93947C6.98761 7.97248 7.10316 8.00824 7.2187 8.05501C7.26272 8.07152 7.30673 8.09352 7.35075 8.11553C7.3645 8.12103 7.37551 8.12929 7.38926 8.13754C7.41952 8.15405 7.44979 8.17055 7.48005 8.18981C7.4938 8.19806 7.51031 8.20907 7.52406 8.22007C7.55157 8.23933 7.57908 8.25859 7.60659 8.28059C7.62035 8.2916 7.6341 8.3026 7.64786 8.31361C7.67537 8.33562 7.70288 8.36037 7.73039 8.38513C7.74139 8.39614 7.75515 8.40714 7.76615 8.41815C7.79917 8.44841 7.83218 8.48142 7.86244 8.51443C7.86794 8.51993 7.87344 8.52544 7.87895 8.53094C7.95598 8.61347 8.03025 8.70425 8.09903 8.79779C8.10178 8.80329 8.10453 8.80604 8.10728 8.81154C8.13754 8.85556 8.1678 8.89958 8.19532 8.94359C8.20082 8.95185 8.20357 8.95735 8.20907 8.9656C8.23658 9.00962 8.26409 9.05364 8.28885 9.1004C8.2916 9.1059 8.2971 9.11141 8.29985 9.11966C8.32736 9.16918 8.35487 9.22145 8.37963 9.27372C8.48692 9.4938 8.5667 9.73039 8.61347 9.96423C8.62448 10.022 8.63548 10.0798 8.64098 10.1348C8.64098 10.1348 8.64098 10.1375 8.64098 10.1403C8.64923 10.1981 8.65199 10.2558 8.65474 10.3136C8.66299 10.4732 8.65474 10.63 8.62173 10.7785C8.62173 10.7785 8.62173 10.7785 8.62173 10.7813C8.61622 10.8143 8.60522 10.8446 8.59697 10.8776C8.53919 11.0481 8.45116 11.2132 8.35487 11.3535C8.21457 11.5268 8.022 11.6699 7.77166 11.7689C7.7634 11.7689 7.7579 11.7689 7.74965 11.7689C7.84868 11.5736 7.87344 11.348 7.84593 11.1279C7.84593 11.1197 7.84593 11.1087 7.84318 11.1004C7.83768 11.0646 7.82943 11.0289 7.82117 10.9931C7.81567 10.9656 7.81017 10.9381 7.80192 10.9106C7.79642 10.8886 7.78541 10.8693 7.77716 10.8473C7.7634 10.8115 7.7524 10.7758 7.73589 10.7428C7.72489 10.718 7.70838 10.6932 7.69463 10.6685C7.68087 10.641 7.66712 10.6135 7.65061 10.5887C7.6176 10.5392 7.58459 10.4924 7.54607 10.4512C7.49105 10.3879 7.43328 10.3356 7.37826 10.2888C7.36175 10.2751 7.348 10.2641 7.33149 10.2503C7.28472 10.2118 7.2352 10.1788 7.18844 10.1513C7.18018 10.1458 7.16918 10.1403 7.16093 10.1348C7.10591 10.1045 7.04813 10.0825 6.99311 10.0633C6.97936 10.0578 6.96285 10.055 6.9491 10.0523C6.90508 10.0413 6.85831 10.033 6.8143 10.0275C6.80054 10.0275 6.78954 10.0247 6.77578 10.022C6.72076 10.0192 6.66849 10.022 6.61622 10.0275C6.60522 10.0275 6.59421 10.033 6.58046 10.033C6.53644 10.0413 6.49518 10.0523 6.45391 10.066C6.44016 10.0715 6.42915 10.0743 6.4154 10.0798C6.36588 10.099 6.31636 10.1238 6.26684 10.1513C6.26134 10.154 6.25584 10.1595 6.25034 10.1623C6.20907 10.1898 6.16781 10.2201 6.12654 10.2531C6.11554 10.2613 6.10453 10.2723 6.09353 10.2806C6.00549 10.3604 5.92296 10.4539 5.85144 10.5584C5.84318 10.5695 5.83493 10.5832 5.82668 10.597C5.79642 10.6465 5.76615 10.696 5.73864 10.7483C5.73589 10.7538 5.73039 10.762 5.72764 10.7675C5.69738 10.828 5.66987 10.8913 5.64511 10.9546C5.63961 10.9684 5.6341 10.9821 5.63135 10.9959C5.6121 11.0509 5.59284 11.1087 5.57908 11.1664C5.57633 11.1802 5.57083 11.1912 5.56808 11.2049C5.55157 11.2737 5.53782 11.3425 5.52681 11.414C5.52681 11.4278 5.52406 11.4388 5.52131 11.4525C5.51306 11.5131 5.50756 11.5736 5.50481 11.6341C5.50481 11.6506 5.50481 11.6671 5.50481 11.6864C5.50481 11.7579 5.50481 11.8322 5.51306 11.9037C5.51306 11.9037 5.51306 11.9065 5.51306 11.9092C5.51306 11.9175 5.51306 11.9285 5.51581 11.9367C5.51581 11.9505 5.51856 11.9642 5.52131 11.9807C5.53232 12.0688 5.54882 12.1568 5.57083 12.2421C5.57083 12.2503 5.57633 12.2558 5.57633 12.2641C5.59834 12.3466 5.6286 12.4264 5.66437 12.5089C5.66987 12.5227 5.67537 12.5364 5.68087 12.5474C5.71664 12.6272 5.7634 12.707 5.81292 12.784C5.82393 12.8005 5.83493 12.817 5.84593 12.8336C5.8982 12.9106 5.95873 12.9821 6.02475 13.0536C6.03576 13.0646 6.04951 13.0784 6.06051 13.0894C6.13479 13.1637 6.21182 13.2352 6.30261 13.3012C6.98486 13.8074 7.81292 13.8404 8.56395 13.5296C9.62035 13.0921 10.3714 11.989 10.6685 10.729C10.6795 10.6905 10.6905 10.652 10.6988 10.6107C10.718 10.7593 10.7373 10.9078 10.7565 11.0509C10.762 11.0866 10.7648 11.1224 10.7703 11.1609C10.7703 11.1719 10.773 11.1829 10.7758 11.1939C10.0385 12.1485 9.57358 13.2985 9.4883 14.564C9.41402 15.6451 9.59009 16.6822 9.97523 17.6203C8.78679 17.0756 7.47179 16.7483 6.38239 16.1926C5.17468 15.5791 3.66437 14.5667 3.10041 13.0481C3.05639 12.9326 3.02063 12.817 2.98761 12.7015L2.98211 12.707ZM37.4773 15.3645C37.4718 15.381 37.4663 15.3975 37.4608 15.414C37.4278 15.5076 37.392 15.6011 37.3535 15.6919C37.3425 15.7166 37.3342 15.7414 37.3232 15.7634C37.2737 15.8734 37.2214 15.9807 37.1637 16.088C36.3989 17.4855 34.7703 18.2201 33.4938 18.6107C31.392 19.2545 28.6492 19.0289 27.0289 20.9463C27.2187 20.5612 27.3865 20.1595 27.5351 19.7469C27.8817 18.8473 28.1706 17.8762 28.5007 16.7318C28.5117 16.6877 28.5282 16.6437 28.5419 16.6025C28.619 16.3549 28.696 16.11 28.7758 15.8762C28.784 15.8514 28.7923 15.8239 28.8033 15.7937C28.8033 15.7854 28.8088 15.7772 28.8115 15.7689C28.8115 15.7606 28.817 15.7524 28.8198 15.7441C28.8418 15.6754 28.8666 15.5901 28.8941 15.4938C29.1279 14.7318 29.3425 13.9642 29.5461 13.1912C29.6891 12.6795 29.8377 12.1293 29.9917 11.5708C29.9725 11.8184 29.967 12.0688 29.9862 12.3109C29.989 12.3549 29.9972 12.3989 30.0027 12.4429C30.077 13.2682 30.3439 14.066 30.7813 14.6988C31.0316 15.0591 31.3397 15.3673 31.6974 15.5928C32.3961 16.033 33.2572 16.2146 33.9615 15.7662C34.1238 15.6836 34.2613 15.5846 34.3796 15.4745C34.7345 15.1939 34.8858 14.9243 34.9656 14.4264C34.9766 14.3521 34.9794 14.2751 34.9794 14.1953C35.0151 13.6506 34.8391 13.1114 34.5392 12.7758C34.5337 12.7703 34.5282 12.7648 34.5254 12.7593C34.5144 12.7483 34.5034 12.7373 34.4924 12.7263C34.4704 12.7015 34.4457 12.6795 34.4209 12.6575C34.0798 12.3714 33.6176 12.3219 33.1224 12.7263C33.0784 12.762 33.0399 12.8005 33.0014 12.8418C32.9656 12.8831 32.9326 12.9271 32.8996 12.9739C32.8996 12.9739 32.8996 12.9739 32.8968 12.9766C32.8666 13.0206 32.8418 13.0646 32.8198 13.1142C32.817 13.1197 32.8143 13.1252 32.8115 13.1307C32.795 13.1637 32.784 13.1994 32.7703 13.2352C32.762 13.26 32.751 13.2847 32.7428 13.3095C32.7373 13.3232 32.7345 13.3397 32.7318 13.3535C32.6767 13.5598 32.6712 13.7827 32.7428 13.9917C32.7345 13.9917 32.7263 13.9917 32.7208 13.989C32.4842 13.8459 32.3136 13.6699 32.2008 13.4718C32.1238 13.3177 32.0578 13.1389 32.0275 12.9573C32.0247 12.9298 32.0192 12.9051 32.0192 12.8776C32.0192 12.8693 32.0192 12.8611 32.0192 12.8501C32.0082 12.6988 32.0192 12.5447 32.0495 12.3879C32.121 11.9972 32.3109 11.6038 32.5667 11.2682C32.5667 11.2655 32.5722 11.2627 32.575 11.26C32.608 11.2159 32.6437 11.1747 32.6795 11.1334C32.6822 11.1307 32.685 11.1252 32.6905 11.1224C32.729 11.0784 32.7675 11.0371 32.806 10.9986C32.8886 10.9161 32.9739 10.8391 33.0646 10.7703C33.0674 10.7703 33.0701 10.7648 33.0729 10.7648C33.1114 10.7345 33.1527 10.707 33.1939 10.6795C33.2049 10.6712 33.2159 10.6657 33.2269 10.6602C33.26 10.6382 33.293 10.619 33.326 10.5997C33.3397 10.5915 33.3535 10.5832 33.3673 10.5777C33.3975 10.5612 33.4305 10.5447 33.4635 10.5309C33.4773 10.5254 33.4938 10.5172 33.5076 10.5117C33.5406 10.4979 33.5736 10.4842 33.6066 10.4732C33.6203 10.4677 33.6314 10.4622 33.6451 10.4594C33.6919 10.4457 33.7359 10.4319 33.7827 10.4209C33.9037 10.3961 34.022 10.3796 34.1403 10.3686C34.1678 10.3659 34.1981 10.3631 34.2256 10.3604C34.3411 10.3521 34.4539 10.3494 34.5667 10.3549C34.5805 10.3549 34.597 10.3576 34.6107 10.3576C34.7125 10.3631 34.8115 10.3769 34.9078 10.3934C34.9353 10.3989 34.9601 10.4016 34.9876 10.4071C35.0949 10.4292 35.1994 10.4539 35.3012 10.4869C35.3205 10.4924 35.3397 10.5007 35.359 10.5062C35.447 10.5364 35.5351 10.5695 35.6203 10.608C35.6424 10.6162 35.6644 10.6272 35.6836 10.6355C35.7799 10.6822 35.8734 10.7318 35.967 10.7868C35.9862 10.7978 36.0027 10.8115 36.022 10.8225C36.1045 10.8748 36.1843 10.9298 36.2613 10.9904C36.2751 11.0014 36.2861 11.0096 36.2999 11.0206C36.3851 11.0894 36.4704 11.1637 36.5502 11.2435C36.5639 11.2572 36.5777 11.271 36.5915 11.2847C36.6712 11.3645 36.7455 11.447 36.817 11.5323C36.817 11.5323 36.8198 11.5351 36.8225 11.5378C36.8968 11.6286 36.9683 11.7249 37.0344 11.8239C37.0426 11.8377 37.0509 11.8514 37.0619 11.8652C37.1939 12.0688 37.3067 12.2861 37.4003 12.5144C37.403 12.5254 37.4085 12.5337 37.4113 12.5447C37.5048 12.7813 37.5791 13.0289 37.6259 13.2847C37.6259 13.2902 37.6259 13.293 37.6259 13.2985C37.6754 13.5598 37.7001 13.8322 37.6946 14.1073C37.6946 14.2971 37.6781 14.4869 37.6479 14.6767C37.6479 14.674 37.6479 14.6712 37.6479 14.6685C37.6121 14.8996 37.5571 15.1307 37.4828 15.3617L37.4773 15.3645Z" fill="#214380"/>
</g>
<path d="M13.425 30.5337C14.4402 30.5777 15.5158 30.3686 16.3026 29.6781C16.674 30.5639 18.1348 30.619 18.8721 30.685C19.304 30.7235 21.3535 30.9381 21.5241 30.2613C22.1898 31.0261 23.3095 31.3012 24.2063 31.4938C24.2063 31.4938 24.2833 31.6974 24.3989 31.7469C26.7565 32.7675 23.6809 34.5859 18.5282 34.2311C13.2765 33.6946 10.773 31.392 13.0316 30.7428C13.1884 30.6987 13.2875 30.5722 13.4223 30.5337H13.425Z" fill="url(#paint0_radial_3_3614)"/>
<path style="mix-blend-mode:screen" d="M18.5777 33.5653C19.9972 33.6643 21.4415 33.6148 22.8418 33.3067C23.1471 33.2379 25.436 32.6712 25.2902 32.0798C25.5213 33.0261 23.9945 33.4388 23.4305 33.5956C21.8404 34.044 20.1788 34.1265 18.5474 34.0137C16.5997 33.8157 13.9147 33.4498 12.4236 31.8129C12.2063 31.5763 11.9779 31.359 12.2613 31.0371C13.6533 32.9216 16.5116 33.425 18.5749 33.5681L18.5777 33.5653Z" fill="url(#paint1_radial_3_3614)"/>
<path d="M18.5612 33.7882C22.1981 34.0385 24.6905 33.1637 25.1334 32.2614C25.5296 33.282 22.7703 34.5255 18.531 34.2338C14.2063 33.7909 11.7909 32.1898 12.2834 31.2407C12.5805 32.2063 14.8501 33.4085 18.5612 33.7909V33.7882Z" fill="url(#paint2_linear_3_3614)"/>
<path d="M18.6245 33.9642C22.2614 34.2145 24.7098 33.2819 25.1527 32.3796C25.5489 33.4002 22.9326 34.5969 18.6933 34.3053C14.3687 33.8624 11.791 32.1898 12.2861 31.2379C12.5833 32.2035 14.9161 33.5845 18.6273 33.9642H18.6245Z" fill="url(#paint3_linear_3_3614)"/>
<path style="mix-blend-mode:screen" d="M24.3851 31.557C23.1857 32.1733 21.1252 32.6217 18.6272 32.4511C16.8666 32.3301 14.5392 31.8569 13.0977 30.5969C14.022 30.3191 14.9106 31.1306 15.7634 31.4002C16.7098 31.7001 17.6809 31.8872 18.6575 31.989C20.7318 32.132 22.5062 31.8266 23.7331 31.3672C23.8872 31.4167 24.044 31.4608 24.2091 31.4965C24.2723 31.5158 24.3274 31.5378 24.3851 31.557Z" fill="url(#paint4_radial_3_3614)"/>
<path d="M13.0344 30.7428C13.1884 30.6988 13.3067 30.5722 13.425 30.5337C14.5227 31.271 16.3329 31.9725 18.6657 32.2146C20.9271 32.3686 22.9023 31.9917 24.1265 31.4608C24.1788 31.4745 24.3136 31.6314 24.3989 31.7496C23.2545 32.4292 21.2957 32.8583 18.6327 32.6767C15.8982 32.3961 14.022 31.6093 13.0316 30.7455L13.0344 30.7428Z" fill="url(#paint5_linear_3_3614)"/>
<path style="mix-blend-mode:screen" d="M16.0935 30.0165C16.066 30.4292 17.2709 30.8748 18.7867 31.0096C20.3026 31.1444 21.5543 30.9189 21.5818 30.5034C21.6093 30.0908 20.4043 29.6424 18.8885 29.5103C17.3727 29.3755 16.121 29.6011 16.0935 30.0165Z" fill="url(#paint6_radial_3_3614)"/>
<path d="M16.1018 29.9064C16.0771 30.2586 17.2875 30.6547 18.8033 30.7895C20.3191 30.9243 21.5681 30.7483 21.5929 30.3934C21.6176 30.0412 20.4072 29.6451 18.8941 29.5103C17.3783 29.3755 16.1293 29.5516 16.1046 29.9037L16.1018 29.9064Z" fill="url(#paint7_radial_3_3614)"/>
<path opacity="0.26" d="M19.1637 29.6478C19.1334 29.6478 19.1032 29.6478 19.0729 29.6506C18.7043 29.6699 18.3494 29.8212 17.9808 29.8239C17.8817 29.8239 17.6176 29.7166 17.6149 29.923C17.6149 30.0357 17.7964 30.1513 17.8652 30.2008C18.3824 30.5667 19.8129 30.7648 20.5887 30.5832C20.7951 30.5364 21.2077 30.2833 20.8831 30.033C20.6795 29.8734 20.4127 29.8377 20.1761 29.7799C19.846 29.7001 19.5048 29.6396 19.1637 29.6478Z" fill="#473F87"/>
<path d="M19.8074 30.3273C20.1512 30.242 20.4264 29.9091 19.9752 29.7716C19.5763 29.6505 19.2076 29.6836 18.8032 29.6808C18.5887 29.6808 18.3631 29.7331 18.1485 29.7056C18.0164 29.6891 17.8954 29.601 17.7661 29.6671C17.3314 29.8899 17.9587 30.1953 18.121 30.242C18.3933 30.3218 18.6767 30.3548 18.9573 30.3741C19.1169 30.3851 19.502 30.4016 19.8074 30.3246V30.3273Z" fill="url(#paint8_linear_3_3614)"/>
<path d="M21.5653 23.8349C20.6382 24.7867 20.0743 26.784 19.8954 29.8899C19.6341 30.3576 17.9312 30.3438 17.6671 29.7826C17.8789 27.1279 17.6451 25.0123 17.0261 23.3562L21.5653 23.8376V23.8349Z" fill="url(#paint9_radial_3_3614)"/>
<path opacity="0.77" d="M19.2297 24.7867C19.1499 24.7757 19.0701 24.7647 18.9903 24.751C18.652 24.6877 18.2971 24.6877 17.9725 24.5529C17.7139 24.4456 17.491 24.253 17.2214 24.1622C17.8404 25.1966 20.0302 25.2159 20.2256 26.927C20.4814 25.8128 20.685 25.1113 21.2159 24.4593C20.6355 24.8087 19.8899 24.8665 19.2297 24.7867Z" fill="url(#paint10_linear_3_3614)"/>
<path d="M17.6671 29.7799C17.6726 29.7056 17.6781 29.6369 17.6809 29.5626C17.8404 29.7717 18.3301 29.8652 18.4622 29.8569C18.8115 29.8322 19.0069 29.5351 19.1912 29.238C19.2847 29.0867 19.3673 28.9326 19.4415 28.773C19.6589 28.3109 19.7992 27.8157 19.9422 27.3177C20.077 26.8501 20.2751 26.4044 20.3906 25.9257C20.4402 25.7249 20.6382 25.0812 20.4539 24.9354C20.4677 24.9464 20.7648 24.8253 20.9326 24.7538C20.3769 25.8624 20.0275 27.5653 19.8954 29.8872C19.6341 30.3549 17.9312 30.3411 17.6671 29.7799Z" fill="url(#paint11_linear_3_3614)"/>
<path d="M19.3452 22.8776C20.663 23.0096 22 23.1417 22 23.1417C21.8844 23.7607 21.7304 24.4594 21.1472 24.674C20.5502 24.9574 19.8734 25.0289 19.2049 24.9464C18.5309 24.9106 17.8734 24.718 17.3205 24.3329C16.7758 24.0165 16.718 23.3013 16.6877 22.6713C16.6877 22.6713 18.0247 22.7758 19.3452 22.8776Z" fill="url(#paint12_radial_3_3614)"/>
<path opacity="0.77" d="M21.3755 23.9478C21.7414 23.7524 22.0137 23.348 22.0468 22.8776C21.8129 22.9189 21.5928 23.0289 21.3507 23.0564C21.0729 23.0894 20.7923 23.0867 20.5144 23.0647C19.978 23.0234 19.4498 22.9161 18.9188 22.8446C18.0523 22.7291 17.2352 22.6438 16.4209 22.2449C16.9216 23.1637 17.5736 23.5846 18.5034 23.8597C19.3067 24.0991 20.3219 24.2476 21.1444 24.0358C21.227 24.0138 21.304 23.9835 21.3755 23.945V23.9478Z" fill="url(#paint13_linear_3_3614)"/>
<path d="M19.5434 19.9752C22.8969 20.2751 26.2339 20.5722 26.2339 20.5722C25.249 22.3383 23.912 23.469 19.326 23.1416C14.7511 22.6547 13.5846 21.2985 12.8501 19.381C12.8501 19.381 16.1898 19.6781 19.5406 19.978L19.5434 19.9752Z" fill="url(#paint14_radial_3_3614)"/>
<path d="M19.5434 19.9752C22.8969 20.2751 26.2339 20.5722 26.2339 20.5722C25.249 22.3383 23.912 23.469 19.326 23.1416C14.7511 22.6547 13.5846 21.2985 12.8501 19.381C12.8501 19.381 16.1898 19.6781 19.5406 19.978L19.5434 19.9752Z" fill="url(#paint15_radial_3_3614)"/>
<path d="M19.5433 19.9753C22.8968 20.2751 26.2338 20.5722 26.2338 20.5722C25.2489 22.3384 23.9092 23.5406 19.3232 23.2105C14.7482 22.7236 13.5846 21.2985 12.8528 19.3783C12.8528 19.3783 16.1925 19.6754 19.5433 19.9753Z" fill="url(#paint16_linear_3_3614)"/>
<path d="M31.1086 5.72759C30.5089 8.06046 29.0261 13.4772 28.7757 14.2255C28.0165 16.5061 27.3397 19.4442 25.7936 21.1774C24.3576 22.5501 21.2874 22.4016 19.3012 22.3163C16.8225 22.0219 14.1045 21.5048 13.2187 20.0742C11.9202 18.0907 11.6478 15.0453 11.2077 12.6574C11.0646 11.8734 10.3356 6.25854 10.0632 3.84863C10.0632 3.84863 31.1114 5.72209 31.1114 5.72484L31.1086 5.72759Z" fill="url(#paint17_radial_3_3614)"/>
<g opacity="0.75">
<path d="M13.6919 20.6245C13.0866 20.0963 12.4346 18.575 12.1293 17.8322C12.4429 19.1087 13.4663 19.6506 14.5667 20.1761C20.1678 22.8501 26.9216 17.5709 28.6355 12.2504C28.4511 15.1747 27.7909 18.9381 25.7936 21.1802C24.3576 22.553 21.5048 22.9711 19.1719 22.718C16.4952 22.4952 14.861 21.6451 13.6919 20.6245Z" fill="url(#paint18_linear_3_3614)"/>
</g>
<path opacity="0.56" d="M15.923 21.7358C16.1293 21.8899 16.3494 22.0302 16.5805 22.1595C15.5076 21.5653 13.9285 21.2269 13.216 20.077C11.9175 18.0935 11.6451 15.0481 11.205 12.6602C11.0619 11.8761 10.3329 6.26403 10.0605 3.85413C10.0688 3.92015 11.923 4.47586 12.1816 4.89402C12.52 5.44972 12.2696 6.47036 12.2559 7.09759C12.2146 8.93803 12.2366 10.7922 12.3907 12.6272C12.6493 15.7358 13.2352 19.7386 15.9257 21.7358H15.923Z" fill="url(#paint19_radial_3_3614)"/>
<path opacity="0.42" d="M29.1086 8.28053C28.9793 8.90776 28.85 9.53775 28.707 10.1595C28.0357 13.0811 27.2682 16.0522 25.923 18.6767C25.26 19.9697 24.4842 21.0893 23.4195 21.9752C23.304 22.0687 23.1857 22.1677 23.0674 22.2585C22.0357 22.3961 20.9298 22.3823 19.9752 22.3493C21.3425 21.1086 22.011 19.5157 22.5749 17.5625C23.491 14.3741 23.8734 9.77159 22.7593 6.65192C24.674 6.883 27.3397 6.70144 29.1582 5.55701C29.3452 5.57351 29.5241 5.59002 29.6864 5.60377C29.4718 6.48135 29.2875 7.38094 29.1059 8.28053H29.1086Z" fill="url(#paint20_radial_3_3614)"/>
<path style="mix-blend-mode:screen" d="M15.4801 19.0179C15.9093 19.2132 16.3824 19.3287 16.9079 19.3453C19.293 19.4223 20.9822 17.1032 22.0028 15.2215C22.6603 14.011 23.1747 11.7909 24.3494 9.6011C19.901 10.8391 14.0853 10.5722 11.6011 7.54883C11.0757 10.7373 12.1293 17.4856 15.4801 19.0206V19.0179Z" fill="url(#paint21_radial_3_3614)"/>
<path style="mix-blend-mode:screen" d="M10.4127 6.7675C10.2889 5.78263 10.1734 4.85003 10.0908 4.13477C10.8666 4.6272 11.9038 4.90781 12.5282 5.15265C14.9629 6.1045 17.5571 6.67122 20.1156 6.67947C22.6768 6.68497 25.0042 6.54192 27.5186 5.9477C27.9588 5.84591 28.8143 5.64233 29.6397 5.60107C30.2091 5.65058 30.6355 5.6891 30.8776 5.71111C30.9519 5.73312 31.0234 5.76063 31.0894 5.79364C30.4815 8.15677 29.0207 13.4883 28.7731 14.2311C28.4347 15.2462 28.1128 16.3934 27.7249 17.5048C27.6644 17.5268 27.6039 17.546 27.5351 17.5653C25.3535 18.132 21.3508 16.9848 19.3563 16.022C15.3921 14.1073 12.2366 11.5543 10.4127 6.77025V6.7675Z" fill="url(#paint22_radial_3_3614)"/>
<path opacity="0.42" d="M16.5667 5.48552C18.6327 5.84315 20.7565 6.20079 22.8446 6.21729C25.7332 6.24205 28.2751 6.33008 31.0894 5.47726C30.707 6.32458 30.8941 7.78538 30.1733 8.44288C29.4608 9.09487 27.7579 9.0481 26.8611 9.14439C23.2352 9.54054 19.0151 8.98758 15.4773 8.03848C14.1898 7.69185 12.6327 7.24618 11.5846 6.3686C9.74966 4.83627 11.1747 4.65471 12.9409 4.93806C14.0523 5.11688 15.1692 5.24068 16.2779 5.43325C16.3741 5.44975 16.4704 5.46626 16.5667 5.48277V5.48552Z" fill="url(#paint23_linear_3_3614)"/>
<path d="M10.2256 1.0151C12.2889 -0.0935696 15.9698 -0.189856 20.6988 0.228301C25.4196 0.654711 29.0839 1.36998 31.183 2.77025C31.7387 3.18566 31.9423 3.53504 31.9065 4.09075C31.879 4.48965 31.7965 4.94907 31.7635 5.11413C31.6589 5.63958 31.4003 5.97521 30.9464 6.26131C29.4113 7.23243 25.7002 7.08387 23.1555 6.94632C22.2449 6.8968 18.2614 6.55842 17.3728 6.41262C15.8707 6.16503 12.0853 5.73862 10.1458 4.40712C9.69468 4.09625 9.52411 3.66709 9.49385 3.12789C9.4856 2.96558 9.4801 2.58594 9.49385 2.12376C9.53512 1.47177 10.0331 1.10863 10.2284 1.01785L10.2256 1.0151Z" fill="url(#paint24_radial_3_3614)"/>
<path d="M9.55712 2.23931C9.58738 2.77851 9.75794 3.20767 10.2091 3.51854C12.1486 4.84728 15.934 5.27645 17.4361 5.52404C18.3247 5.66984 22.3081 6.00822 23.2187 6.05774C25.7634 6.19529 29.4746 6.34385 31.0097 5.37273C31.4636 5.08662 31.7249 4.751 31.8295 4.22555C31.846 4.14302 31.8735 3.98896 31.9037 3.80464C31.9148 3.89543 31.9175 3.98896 31.912 4.09075C31.8845 4.48965 31.802 4.94907 31.7689 5.11413C31.6644 5.63958 31.4058 5.97521 30.9519 6.26131C29.4168 7.23243 25.7057 7.08387 23.161 6.94632C22.2504 6.8968 18.2669 6.55843 17.3783 6.41262C15.8762 6.16503 12.0908 5.73862 10.1513 4.40712C9.70017 4.09625 9.52961 3.66709 9.49935 3.12789C9.49109 2.96558 9.48559 2.58594 9.49935 2.12376C9.50485 2.01922 9.52686 1.92294 9.55162 1.83215C9.55162 2.01372 9.55712 2.15402 9.56262 2.23931H9.55712Z" fill="url(#paint25_radial_3_3614)"/>
<path d="M28.4429 4.75924C26.3328 4.89679 23.546 4.82802 20.5997 4.56667C17.6533 4.30257 14.894 3.87891 12.8253 3.36722C12.0412 3.17189 11.1719 2.99033 10.4374 2.60793C9.84039 2.29982 9.4635 1.41949 10.2283 1.01509C11.7193 0.225539 14.1843 -0.0715722 17.2682 0.0164608C18.2365 0.0494732 19.2489 0.109996 20.2888 0.192527C20.3383 0.195278 20.3878 0.20078 20.4401 0.203531C20.5502 0.211784 20.6629 0.222788 20.773 0.231041C25.458 0.657451 29.0976 1.37272 31.1829 2.76474C31.9697 3.29019 31.535 4.05222 30.8803 4.33008C30.1017 4.6602 29.2654 4.70147 28.4429 4.75649V4.75924Z" fill="url(#paint26_linear_3_3614)"/>
<path style="mix-blend-mode:screen" d="M18.9656 6.53641C18.8721 6.52265 18.7758 6.50339 18.6795 6.48414C18.7043 5.54879 18.5997 4.6382 18.2228 3.79913C17.9835 3.27093 17.2737 1.93118 16.7125 1.87616C17.3398 1.93668 17.9808 2.06598 18.63 2.12375C19.359 2.18703 20.4209 1.99445 21.0014 2.61068C21.3233 2.95181 21.5956 3.35071 21.868 3.74411C22.5337 4.70422 22.9876 5.79913 23.1114 7.01234C22.0413 7.10312 20.8666 6.85828 19.8102 6.66295C19.5268 6.61068 19.2462 6.58317 18.9656 6.53641Z" fill="url(#paint27_radial_3_3614)"/>
<path style="mix-blend-mode:screen" d="M17.7112 6.48144C16.9106 6.43192 15.9588 6.2476 15.1802 6.02202C15.8157 4.56397 14.8336 2.87484 14.1321 1.76892C15.857 1.82394 17.0344 2.74554 17.6121 4.62174C17.8047 5.24622 17.835 5.86521 17.9203 6.48969C17.8515 6.48969 17.7799 6.48969 17.7112 6.48419V6.48144Z" fill="url(#paint28_radial_3_3614)"/>
<path style="mix-blend-mode:screen" opacity="0.64" d="M26.7703 4.31363C26.6795 4.22835 26.5778 4.17883 26.465 4.17608C27.2958 4.19534 28.2724 3.65338 28.8914 4.46769C29.2077 4.88584 29.5571 6.13206 29.348 6.69327C29.161 7.20221 27.7992 7.05366 27.3343 7.14169C27.3123 6.25861 27.4636 4.96562 26.7703 4.31088V4.31363Z" fill="url(#paint29_radial_3_3614)"/>
<path d="M10.9299 1.39749C10.8694 2.29983 15.216 3.425 20.6438 3.90919C26.0716 4.39337 30.52 4.05224 30.5805 3.1499C30.641 2.24756 26.2944 1.12239 20.8666 0.64096C15.4388 0.156778 10.9904 0.497906 10.9271 1.39749H10.9299Z" fill="url(#paint30_radial_3_3614)"/>
<path d="M9.51031 2.90501C9.54332 3.44421 9.64236 3.70006 10.1623 4.18149C12.0385 5.59002 19.0371 6.57764 20.2503 6.62716C22.1953 6.85549 28.9519 7.32042 30.9629 6.03568C31.4168 5.74958 31.6781 5.4167 31.7827 4.8885C31.8074 4.76471 31.8597 4.47585 31.8955 4.17048C31.8955 4.21725 31.8955 4.26127 31.8955 4.31079C31.8679 4.70969 31.7882 5.16911 31.7552 5.33142C31.6506 5.85962 31.3893 6.19249 30.9381 6.4786C28.9078 7.96966 21.6699 7.32592 19.978 7.1526C18.7813 7.07832 12.2751 6.33555 10.1375 4.6244C9.68638 4.31629 9.51581 3.88713 9.48555 3.34517C9.4773 3.18286 9.4718 2.80597 9.48555 2.34105C9.49105 2.27777 9.49931 2.22 9.51031 2.16223C9.50481 2.50061 9.51031 2.77021 9.51856 2.89951L9.51031 2.90501Z" fill="url(#paint31_linear_3_3614)"/>
<path style="mix-blend-mode:screen" d="M9.4828 12.9188C9.2297 16.6437 11.912 19.8541 16.0192 20.2145C20.1265 20.5776 24.1018 17.9532 24.3549 14.2283C24.6052 10.5034 21.4828 7.18837 17.3755 6.82798C13.2682 6.46485 9.73589 9.19112 9.48555 12.9188H9.4828Z" fill="url(#paint32_radial_3_3614)"/>
<g style="mix-blend-mode:screen" opacity="0.73">
<path d="M11.6643 4.12378C10.7235 2.79228 14.927 3.87069 13.469 4.65198C13.0508 4.87481 11.9504 4.53094 11.6643 4.12378Z" fill="#D9BB22"/>
</g>
<g style="mix-blend-mode:screen" opacity="0.73">
<path d="M14.8528 5.10864C14.4016 5.11964 13.9917 4.39887 14.6327 4.22281C15.1031 4.09351 15.5735 4.87755 14.9766 5.08388C14.9353 5.10038 14.8913 5.10589 14.85 5.10864H14.8528Z" fill="#D9BB22"/>
</g>
<path opacity="0.26" d="M11.9918 8.51165C12.2146 9.86516 11.9808 11.2874 11.1527 12.3246C11.0097 11.3947 10.8886 10.4539 10.7648 9.51578C10.6603 8.71247 10.5558 7.91192 10.4567 7.11137C10.4182 6.80601 10.4237 5.38097 10.1981 5.19666C11.1362 5.96144 11.7772 7.20491 11.9918 8.51165Z" fill="#473F87"/>
<path opacity="0.26" d="M12.1155 17.3067C13.3232 18.2586 13.7799 19.9009 14.1348 21.3892C13.0977 20.8335 11.912 18.3548 12.0825 17.0784L12.1155 17.3067Z" fill="#473F87"/>
<path opacity="0.27" d="M24.3961 13.6616C24.8446 11.4305 25.0509 9.16095 24.8281 6.97388C26.0853 7.02064 27.3067 6.96837 28.5502 7.06741C27.8157 12.8171 25.326 17.8817 23.8735 19.7689C23.271 20.5502 21.9835 21.6974 21.359 22.4457C21.8542 21.8487 22.1541 21.1307 22.4292 20.3824C23.1967 18.2834 23.9257 15.9945 24.3934 13.6589L24.3961 13.6616Z" fill="#78471C"/>
<path d="M25.2489 20.9986C26.3246 19.8294 27.1279 18.1898 27.6506 16.7868C28.1485 15.458 28.4126 14.0082 28.8115 12.6382C29.1857 11.3535 29.4855 9.95047 29.458 8.58871C29.436 7.47454 28.696 6.81155 27.6231 6.87207C28.8583 6.80329 30.1018 6.65199 30.9436 5.51306C31.5681 4.66849 32.0798 3.32599 30.9793 2.64648C31.0481 2.68775 31.1169 2.72902 31.1802 2.77028C31.2407 2.81155 31.293 2.85556 31.3397 2.89683C31.6836 3.18569 31.8569 3.45529 31.8982 3.80467C31.9037 3.84593 31.9064 3.88995 31.9064 3.93397C31.9064 3.98349 31.9064 4.03576 31.9064 4.09078C31.9009 4.1458 31.8982 4.20632 31.8899 4.26409C31.8899 4.2806 31.8899 4.2971 31.8899 4.31361C31.8624 4.71251 31.7827 5.17193 31.7496 5.33424C31.7304 5.43053 31.7029 5.51856 31.6726 5.60659C31.5598 5.77991 31.4333 5.95598 31.3095 6.15405C31.2985 6.17056 31.2902 6.19256 31.282 6.20907C31.0509 6.61622 30.8115 6.59146 30.6712 7.12791C30.055 9.46354 29.5268 11.8184 28.8088 14.1183C28.8088 14.1265 28.8033 14.1348 28.8005 14.143C28.7895 14.1761 28.7813 14.2036 28.773 14.2256C28.696 14.4594 28.6162 14.7043 28.5392 14.9518C28.5254 14.9959 28.5117 15.0399 28.4979 15.0811C27.7854 17.5598 27.2627 19.2407 25.9202 21.0894C25.6368 21.48 25.304 21.8487 24.9326 22.1596C24.795 22.3604 23.7359 22.8693 23.7414 22.8611C23.7716 22.4759 23.0784 22.5695 22.8418 22.6272C23.7716 22.3411 24.597 21.6974 25.2462 20.9959L25.2489 20.9986Z" fill="url(#paint33_linear_3_3614)"/>
<path d="M17.4167 24.4429C17.0481 24.2283 16.9215 23.9807 16.8363 23.5185C16.8253 23.5048 16.8253 23.5048 16.8363 23.5185C17.392 24.3961 18.9903 24.6272 19.8816 24.6272C20.7427 24.6272 21.7964 24.2393 21.9587 23.1141C21.9009 23.9284 21.6148 24.3851 21.2517 24.6437C20.861 24.9188 20.4153 24.9766 19.9642 24.9931C19.1334 25.0206 18.1705 24.8858 17.4222 24.4456L17.4167 24.4429Z" fill="url(#paint34_linear_3_3614)"/>
<path style="mix-blend-mode:screen" opacity="0.73" d="M17.8652 24.9766C18.1678 25.491 18.7703 25.8239 19.2929 25.8927C19.1416 26.795 18.9876 27.8596 18.7235 28.729C18.663 28.927 18.5529 29.4112 18.3273 29.4085C18.088 29.4085 18.0055 28.9766 17.9917 28.7812C17.8927 27.5048 17.8817 26.2228 17.7964 24.9408L17.8679 24.9738L17.8652 24.9766Z" fill="url(#paint35_radial_3_3614)"/>
<path style="mix-blend-mode:screen" d="M17.4608 30.762C17.106 30.9051 16.8584 31.5158 16.8529 31.9312C16.0661 31.6671 15.2242 31.4828 14.5062 31.1224C15.0344 30.9628 16.1596 31.0976 16.1403 30.1238C16.4402 30.6107 17.0427 30.685 17.4636 30.7593L17.4608 30.762Z" fill="url(#paint36_radial_3_3614)"/>
<path style="mix-blend-mode:screen" d="M15.7689 33.2599C14.7896 33.0013 13.1664 32.4099 12.3741 31.5405C12.8363 31.7304 13.7166 31.7854 13.9092 31.304C14.5612 31.7221 15.1885 31.9394 15.8927 32.1705C15.7084 32.2778 15.4801 33.2297 15.7662 33.2599H15.7689Z" fill="url(#paint37_radial_3_3614)"/>
<path opacity="0.42" d="M21.5323 30.4924C21.5791 31.1664 22.5089 31.414 22.9628 31.5763C23.1306 31.6341 23.2847 31.6506 23.458 31.6754C23.392 31.9725 23.3452 32.2146 23.5873 32.4016C23.8349 32.5942 24.1128 32.6823 24.4044 32.7428C24.5529 32.773 24.707 32.7978 24.8363 32.7428C24.6327 33.0014 23.0096 33.6259 22.2173 33.6864C22.4649 33.326 22.1513 32.6437 21.6836 32.6107C21.7469 31.9422 21.546 31.348 21.0261 31.0014C20.8886 30.9106 20.7427 30.8308 20.5859 30.8033C20.8693 30.7153 21.293 30.7538 21.5323 30.5144V30.4952V30.4924Z" fill="url(#paint38_radial_3_3614)"/>
<path d="M21.5626 30.2971C21.5626 30.2971 21.5378 30.2751 21.5241 30.2614C21.4966 30.3686 21.4196 30.4512 21.315 30.5172C21.194 30.6548 20.9381 30.7043 20.8116 30.751C20.6603 30.8061 20.4512 30.8006 20.3274 30.8556C20.8198 30.9023 21.348 30.5502 21.8157 30.7263C22.2724 30.8996 22.6603 31.2572 23.1197 31.4195C23.271 31.4746 23.4251 31.5488 23.5819 31.5736C23.6616 31.5873 23.7827 31.5488 23.857 31.5901C24.1101 31.7249 23.8735 32.0193 23.7112 32.0798C23.923 32.0028 24.1431 31.923 24.3687 31.923C24.7593 31.923 25.0949 32.2724 25.0537 32.7373C25.0454 32.8473 25.0124 32.9464 24.9711 33.0399C25.1142 32.729 25.3288 32.5612 25.0757 32.2146C24.8281 31.879 24.4209 31.8074 24.2256 31.4113C23.7909 31.5021 23.249 31.2737 22.8308 31.1114C22.3659 30.9299 21.9147 30.6823 21.5736 30.3109C21.5709 30.3054 21.5654 30.3026 21.5599 30.2971H21.5626Z" fill="url(#paint39_linear_3_3614)"/>
<path d="M12.7346 18.5529C11.5434 15.8541 8.51997 15.6368 6.37692 14.5474C5.16922 13.9339 3.6589 12.9215 3.09494 11.403C1.94226 8.3053 4.50897 5.31493 7.21874 6.40159C8.50347 6.91603 9.48283 9.56528 7.6644 10.1567C7.64515 10.1733 7.64515 10.176 7.6644 10.1595C7.99178 9.75235 7.85422 9.14437 7.54336 8.79774C6.15409 7.24616 4.47871 10.2998 6.29714 11.6533C6.9794 12.1595 7.80746 12.1925 8.55849 11.8816C10.1183 11.2379 11.0152 9.13887 10.7621 7.22965C10.3164 3.86514 6.98765 2.36032 4.70154 2.77023C2.14308 3.22965 0.151335 5.88715 0.00828155 9.00407C-0.170535 12.8803 2.75931 15.6836 5.55986 16.6712C7.19122 17.2489 9.25725 17.5268 10.5145 19.0508C11.0289 19.6753 11.3728 20.9298 10.9409 21.7854C10.4842 22.6877 9.46633 22.707 8.97114 22.1595C9.94226 21.8569 9.74968 20.6657 9.30127 20.132C8.47321 19.1444 7.08393 20.3053 7.17747 21.6203C7.32327 23.7166 9.83222 24.2585 11.1059 23.6698C12.674 22.9435 13.5571 21.0701 12.9436 19.1031C12.8831 18.9078 12.8143 18.7235 12.7373 18.5501L12.7346 18.5529Z" fill="url(#paint40_radial_3_3614)"/>
<path d="M9.17748 20.011C9.21875 20.0467 9.26001 20.0852 9.29853 20.1265C9.0977 20.033 8.86937 20.0495 8.67129 20.143C7.93677 20.4924 8.00829 21.2682 8.30541 21.9064C8.63828 22.6189 9.29303 23.0426 10.0853 22.9601C11.9753 22.7648 12.3797 20.5942 11.901 18.817C11.6011 17.7084 11.0344 16.9986 10.1348 16.4731C10.6355 16.4786 11.1472 16.8225 11.5764 17.1086L11.5159 17.0289C12.0688 17.6396 12.5668 18.3246 12.9244 19.0536C12.9299 19.0701 12.9381 19.0894 12.9436 19.1059C13.5571 21.0729 12.674 22.9463 11.106 23.6726C9.83498 24.2613 7.32604 23.7194 7.17748 21.6231C7.11971 20.7785 7.70843 19.7606 8.64928 19.7936C8.85561 19.7991 9.02893 19.8844 9.17748 20.011Z" fill="url(#paint41_linear_3_3614)"/>
<g opacity="0.55">
<path d="M7.24894 5.95877C8.12377 6.31091 8.85829 7.65341 8.66022 8.66029C8.6162 7.73594 7.96971 6.7043 7.21868 6.40169C5.12514 5.55987 3.11964 7.15547 2.84729 9.35355C2.8858 6.93264 5.01785 5.05919 7.25169 5.95602L7.24894 5.95877Z" fill="url(#paint42_radial_3_3614)"/>
</g>
<path d="M8.55845 11.8817C7.80742 12.1925 6.97935 12.1595 6.2971 11.6533C5.5103 11.0674 5.37825 10.165 5.59283 9.45527C5.80191 9.28471 6.05776 9.16642 6.23107 8.89406C5.18018 10.5474 7.21319 11.3948 8.42915 11.282C8.53369 11.271 8.62997 11.2544 8.72076 11.2324C10.751 10.6905 11.0096 6.88031 9.99724 5.22144C10.2146 5.57632 10.4126 5.97522 10.5805 6.39613C10.6602 6.66023 10.7235 6.94083 10.762 7.23244C11.0151 9.14166 10.1183 11.2407 8.55845 11.8844V11.8817Z" fill="url(#paint43_radial_3_3614)"/>
<path d="M0.0357919 8.67668C0.299891 5.70282 2.23387 3.21588 4.70429 2.77297C5.06193 2.70969 5.44982 2.69319 5.84322 2.7207C5.90374 2.7317 5.96426 2.73996 6.02204 2.75371L6.51172 3.24615C3.95051 3.33418 1.70842 5.29016 1.36454 8.33005C0.894114 12.5199 4.66028 15.3947 7.59563 16.6987C8.22561 16.9793 9.16371 17.3177 9.7937 17.9009C10.0661 18.1045 10.3191 18.3356 10.5447 18.6107C10.9629 19.1196 11.271 20.0467 11.1362 20.8362C11.1224 20.165 10.8584 19.4717 10.5145 19.0563C10.1513 18.6162 9.71942 18.2833 9.25175 18.0137C8.76206 17.7578 8.25312 17.5378 7.73318 17.3672C6.97389 17.1141 6.34391 16.9545 5.55986 16.6767C2.75931 15.6836 -0.170535 12.8803 0.00828155 9.00406C0.0137836 8.89401 0.0247877 8.78397 0.0357919 8.67668Z" fill="url(#paint44_radial_3_3614)"/>
<path d="M10.718 7.89821C10.2723 4.5337 6.9436 3.02888 4.65749 3.43603C2.23658 3.87345 0.327364 6.27235 0.00549316 9.16918C0.00549316 9.11416 0.00549316 9.06189 0.0082442 9.00687C0.151298 5.8872 2.14304 3.22971 4.7015 2.77304C6.98761 2.36313 10.3136 3.86795 10.762 7.23246C10.8198 7.67262 10.8143 8.12379 10.7565 8.56396C10.7565 8.34112 10.7455 8.12104 10.7153 7.90096L10.718 7.89821Z" fill="url(#paint45_linear_3_3614)"/>
<path style="mix-blend-mode:screen" d="M12.8969 19.7744C12.8364 19.579 12.7676 19.3947 12.6905 19.2214C11.4994 16.5226 8.47597 16.3053 6.33291 15.2159C5.12521 14.6024 3.61764 13.59 3.05093 12.0715C2.77583 11.3287 2.71256 10.5942 2.81434 9.92017C2.81985 10.4016 2.90788 10.9023 3.09495 11.4057C3.65891 12.9243 5.16923 13.9367 6.37693 14.5502C8.51998 15.6396 11.5461 15.8569 12.7346 18.5557C12.8116 18.729 12.8804 18.9133 12.9409 19.1086C13.1417 19.7524 13.1775 20.3851 13.0867 20.9738C13.0812 20.5832 13.0207 20.1815 12.8941 19.7771L12.8969 19.7744Z" fill="url(#paint46_radial_3_3614)"/>
<path d="M7.54327 8.79772C7.84313 9.13334 7.96418 9.6918 7.7496 10.1155C7.90916 10.1595 8.20627 9.90638 8.31356 9.76333C8.46761 9.557 8.61617 9.27365 8.65468 9.00129C8.73722 8.38231 8.48962 7.67805 8.18151 7.18286C8.4236 7.43045 8.61067 7.71656 8.75647 8.04669C9.15537 8.94352 8.54464 11.1664 7.21314 10.33C7.44973 10.1072 7.6368 9.91739 7.57353 9.557C7.491 9.09483 7.05358 8.63541 6.5584 8.73169C5.89815 8.86099 5.63955 9.69455 5.51026 10.2585C5.39196 8.95177 6.54189 7.67254 7.54602 8.79221L7.54327 8.79772Z" fill="url(#paint47_linear_3_3614)"/>
<path style="mix-blend-mode:screen" d="M7.55987 10.8115C7.1142 11.6341 6.09632 11.6368 5.66441 10.8005C5.22424 9.95045 5.83772 8.36586 6.78958 8.64371C7.58463 8.87755 7.99453 10.011 7.56262 10.8115H7.55987Z" fill="url(#paint48_radial_3_3614)"/>
<path style="mix-blend-mode:screen" d="M9.02059 22.1761C8.94632 22.4512 9.21592 22.5722 9.4305 23.0592C9.05636 23.2792 8.37685 23.0234 8.03297 22.7951C7.23793 22.2669 7.05086 20.608 7.90367 20.0413C9.06461 19.271 10.1513 20.7098 9.26819 21.7744C9.12238 21.9477 9.0481 22.0743 9.02059 22.1761Z" fill="url(#paint49_radial_3_3614)"/>
<path style="mix-blend-mode:screen" d="M4.70145 2.77304C6.98756 2.36313 10.3136 3.86795 10.762 7.23246C10.8363 7.79367 10.8225 8.39614 10.6987 8.9436C10.4924 9.85694 9.98068 10.7208 9.25441 11.1912C8.62993 11.5956 7.34795 12.0853 6.69045 11.4828C7.41122 11.425 8.24203 11.1362 8.61892 10.3604C8.97656 9.62585 9.0976 8.62448 8.94079 7.80467C8.58316 5.93122 6.7042 4.8253 5.12511 4.97661C2.59691 5.2187 0.550147 7.69463 0.833503 10.6382C0.957299 11.934 1.502 13.0591 2.16225 14.0963C1.61204 13.6671 1.13887 13.1224 0.74547 12.4979C0.236529 11.4718 -0.0523293 10.2999 0.00819343 9.00412C0.151247 5.8872 2.14299 3.22971 4.70145 2.77304Z" fill="url(#paint50_radial_3_3614)"/>
<g style="mix-blend-mode:screen">
<path d="M7.09213 4.56673C6.48415 3.00414 10.3026 5.27649 8.71798 5.60662C8.26406 5.7029 7.2792 5.04541 7.09213 4.56673Z" fill="#FFFFA5"/>
</g>
<g style="mix-blend-mode:screen">
<path d="M6.23378 4.43738C5.78536 4.37411 5.47449 3.59282 6.12924 3.52404C6.61342 3.47452 6.97656 4.33009 6.36033 4.43463C6.31631 4.44288 6.27504 4.44288 6.23378 4.43463V4.43738Z" fill="#FFFFA5"/>
</g>
<path d="M26.6657 19.7936C28.209 17.3369 31.2269 17.6588 33.4938 16.9628C34.7703 16.5694 36.3989 15.8349 37.1637 14.4401C38.7235 11.5845 36.5969 8.17324 33.7716 8.77022C32.4346 9.05082 31.1031 11.4937 32.8198 12.4016C32.8363 12.4236 32.8363 12.4236 32.8198 12.4016C32.5502 11.9422 32.7703 11.3644 33.1251 11.0756C34.7097 9.7881 35.9504 13.1031 33.967 14.1182C33.2242 14.4979 32.4016 14.3823 31.7029 13.9449C30.2503 13.0316 29.6506 10.8005 30.1623 8.96004C31.0619 5.71382 34.5529 4.81698 36.7565 5.62579C39.2214 6.53363 40.828 9.51024 40.5447 12.6162C40.1953 16.4759 36.9188 18.7262 34.0137 19.2076C32.3246 19.4882 30.2448 19.4002 28.7978 20.6794C28.2035 21.2049 27.6946 22.3823 28.0027 23.3039C28.3301 24.2778 29.3342 24.4759 29.8982 24.0219C28.9793 23.5515 29.3342 22.4098 29.8514 21.9614C30.806 21.1306 32.0165 22.5254 31.7469 23.8074C31.3177 25.8514 28.7648 25.9422 27.5873 25.1361C26.1375 24.143 25.5213 22.1347 26.3934 20.3025C26.4814 20.121 26.5722 19.9504 26.674 19.7936H26.6657Z" fill="url(#paint51_radial_3_3614)"/>
<path d="M30.8088 21.8597C31.7414 22.4457 31.0921 23.89 30.3961 24.3604C29.9257 24.6768 29.2242 24.7731 28.6822 24.6163C26.8418 24.0881 26.7373 21.8735 27.4525 20.2036C27.9009 19.161 28.5557 18.5612 29.5185 18.2008C29.0234 18.1183 28.4704 18.3687 28.0082 18.575L28.0798 18.5062C27.4525 19.0124 26.8666 19.6011 26.4126 20.2559C26.4044 20.2724 26.3961 20.2889 26.3879 20.3054C25.5158 22.1403 26.132 24.1458 27.5818 25.1389C27.9725 25.4058 28.4979 25.5654 28.9628 25.6066C29.9009 25.6919 30.9766 25.3508 31.48 24.509C31.7551 24.0495 31.8569 23.4608 31.7166 22.9381C31.6121 22.5502 31.2544 21.9092 30.8088 21.8597Z" fill="url(#paint52_linear_3_3614)"/>
<g opacity="0.55">
<path d="M33.8019 8.32456C32.8885 8.51713 31.9807 9.71383 32.0412 10.7455C32.209 9.84038 32.9876 8.93529 33.7716 8.77023C35.9532 8.31081 37.7193 10.242 37.6891 12.4621C37.9807 10.066 36.1292 7.83488 33.8019 8.32456Z" fill="url(#paint53_radial_3_3614)"/>
</g>
<path d="M33.824 5.63681C35.1665 5.37821 36.542 5.63681 37.2407 6.64644C36.6273 6.2778 35.9725 6.00545 35.2682 6.05772C33.9725 6.15401 32.8033 7.13062 32.0826 8.31632C31.0647 9.99169 31.3343 14.209 33.912 13.1031C34.5722 12.817 34.5282 12.2668 34.7758 11.6698C34.7456 11.7744 34.9106 11.9779 34.9326 12.0852C34.9766 12.2998 35.0069 12.5612 34.9739 12.784C34.8693 13.447 34.6328 13.7056 33.9698 14.1237C33.2655 14.5694 32.4044 14.3878 31.7057 13.9504C31.3453 13.7248 31.0372 13.4167 30.7868 13.0536C30.2669 12.2585 29.9753 11.2132 30.0495 10.198C30.0936 9.61755 30.2394 8.83901 30.4815 8.10999C30.9024 6.85277 32.3439 5.92567 33.8295 5.63956L33.824 5.63681Z" fill="url(#paint54_radial_3_3614)"/>
<path d="M40.5557 12.2888C40.7015 9.30396 39.1279 6.50341 36.751 5.62858C36.4044 5.50204 36.0275 5.41675 35.6314 5.37549C35.5708 5.37549 35.5103 5.37549 35.4498 5.37549L34.8996 5.77439C37.4168 6.31359 39.3645 8.64371 39.2902 11.7084C39.1857 15.9312 35.0729 18.1045 31.9945 18.872C31.3343 19.0371 30.3604 19.2049 29.6616 19.6698C29.3673 19.8212 29.0839 20.0055 28.8253 20.2366C28.3411 20.663 27.912 21.5268 27.9395 22.3301C28.044 21.6698 28.4017 21.0316 28.7951 20.6822C29.2132 20.3136 29.6836 20.0577 30.1843 19.8762C30.7043 19.7111 31.2352 19.5846 31.7717 19.5075C32.5557 19.392 33.1995 19.3452 34.011 19.2104C36.9134 18.729 40.1898 16.4787 40.542 12.619C40.553 12.5089 40.5557 12.3989 40.5585 12.2888H40.5557Z" fill="url(#paint55_radial_3_3614)"/>
<path d="M31.923 6.44845C32.6245 6.33566 33.2572 6.03579 34.0028 5.95601C34.8803 5.86248 35.8707 5.98903 36.707 6.29714C38.9271 7.1142 40.8418 9.98352 40.5227 12.7813C40.5282 12.7291 40.5365 12.674 40.542 12.619C40.8253 9.5131 39.2187 6.53648 36.7538 5.62864C35.8597 5.30127 34.8803 5.27376 33.9615 5.46633C33.5406 5.55436 33.0729 5.67816 32.6795 5.87623C32.5475 5.94226 31.9697 6.44295 31.9285 6.44845H31.923Z" fill="url(#paint56_linear_3_3614)"/>
<path style="mix-blend-mode:screen" d="M26.3411 20.9711C26.4291 20.7895 26.5226 20.619 26.6217 20.4622C28.165 18.0055 31.1829 18.3274 33.4497 17.6314C34.729 17.238 36.3548 16.5062 37.1196 15.1059C37.4938 14.4237 37.6533 13.7084 37.6451 13.0206C37.5735 13.4966 37.4195 13.9752 37.1664 14.4402C36.4016 15.8377 34.773 16.5722 33.4965 16.9629C31.2297 17.6589 28.2118 17.3397 26.6684 19.7937C26.5694 19.9532 26.4759 20.121 26.3878 20.3026C26.1045 20.9023 25.9779 21.5213 25.9889 22.1183C26.0495 21.7359 26.1623 21.348 26.3411 20.9684V20.9711Z" fill="url(#paint57_radial_3_3614)"/>
<path d="M33.1224 11.0784C32.7813 11.3563 32.586 11.8872 32.74 12.3439C32.575 12.3604 32.3164 12.0578 32.2311 11.8983C32.1073 11.6672 31.9973 11.359 32 11.0867C32 10.4622 32.3439 9.81022 32.7153 9.3728C32.4429 9.57638 32.2174 9.82397 32.0275 10.1238C31.3893 11.1335 31.901 13.1555 33.2297 12.5998C32.9436 12.7208 32.9134 11.4938 33.4966 11.2985C33.978 11.139 34.6438 11.3866 34.8693 11.846C34.6933 11.4883 34.7015 11.1665 34.3054 10.9271C33.9065 10.6878 33.4746 10.7923 33.1224 11.0784Z" fill="url(#paint58_linear_3_3614)"/>
<path style="mix-blend-mode:screen" d="M32.8335 13.0646C33.1609 13.956 34.1678 14.1403 34.707 13.3865C35.2572 12.6245 34.8693 10.9518 33.8899 11.0591C33.0701 11.1472 32.5116 12.1953 32.8308 13.0646H32.8335Z" fill="url(#paint59_radial_3_3614)"/>
<path style="mix-blend-mode:screen" d="M30.7318 24.8198C31.8129 24.3411 32.0963 22.2971 30.8198 21.8514C30.033 21.5763 29.227 22.4539 29.4773 23.2324C29.5708 23.5213 29.9147 23.7304 29.9257 24.0275C29.9395 24.4154 29.4883 24.5584 29.3177 24.8308C29.6589 25.1141 30.3631 24.9821 30.7318 24.8198Z" fill="url(#paint60_radial_3_3614)"/>
<path style="mix-blend-mode:screen" d="M36.751 5.6286C34.5502 4.81979 31.0564 5.71663 30.1568 8.96285C30.0055 9.50205 29.9367 10.099 29.9835 10.663C30.0633 11.6011 30.4484 12.5474 31.1031 13.1389C31.6671 13.6479 32.8666 14.3604 33.5983 13.8817C32.8941 13.6974 32.1128 13.2627 31.8459 12.4319C31.5928 11.6451 31.6066 10.63 31.8734 9.84868C32.4814 8.06051 34.4897 7.30122 36.0275 7.73038C38.4952 8.41539 40.176 11.2242 39.4938 14.0825C39.1939 15.3397 38.5034 16.3549 37.7111 17.2655C38.3136 16.9408 38.8556 16.4842 39.3287 15.9395C39.9752 15.0151 40.4181 13.9064 40.5364 12.619C40.8198 9.51305 39.2132 6.53644 36.7483 5.6286H36.751Z" fill="url(#paint61_radial_3_3614)"/>
<path d="M10.2861 23.9175C9.58456 24.0165 8.78126 23.7084 8.21179 23.3122C10.2503 24.2751 12.5254 22.531 12.7455 20.5089C12.8088 19.923 12.6767 19.447 12.5117 18.9023C13.7386 21.0812 12.4429 23.6149 10.2861 23.9202V23.9175Z" fill="url(#paint62_linear_3_3614)"/>
<path d="M31.2957 24.4346C29.4965 26.3218 26.4456 24.7647 26.2421 22.4016C26.3411 23.5488 26.5529 24.3824 27.5818 25.0564C28.3273 25.546 29.326 25.7194 30.1513 25.3177C30.5777 25.1086 30.9711 24.8143 31.2957 24.4346Z" fill="url(#paint63_linear_3_3614)"/>
<path opacity="0.84" d="M32.4402 14.2201C33.1857 14.487 34.2779 14.0138 34.5722 13.2518C34.1348 13.6314 33.4635 13.8652 32.8996 13.7469C32.022 13.5626 31.315 12.9134 31.0426 12.0496C30.4402 10.1403 30.6878 7.54612 32.3521 6.21737C32.6217 6.00279 32.9216 5.85698 33.2132 5.67542C32.707 5.99178 32.121 6.11283 31.6644 6.48697C31.1527 6.90513 30.7208 7.48835 30.4347 8.07982C29.7854 9.41957 29.9257 11.2655 30.6052 12.5723C30.9739 13.2765 31.6781 13.9478 32.4402 14.2201Z" fill="url(#paint64_radial_3_3614)"/>
<defs>
<radialGradient id="paint0_radial_3_3614" cx="0" cy="0" r="1" gradientUnits="userSpaceOnUse" gradientTransform="translate(18.9574 26.9931) scale(9.18294 9.18294)">
<stop stop-color="#D9BB22"/>
<stop offset="0.15" stop-color="#D4B521"/>
<stop offset="0.34" stop-color="#C6A520"/>
<stop offset="0.56" stop-color="#B08A1F"/>
<stop offset="0.79" stop-color="#91651D"/>
<stop offset="0.96" stop-color="#78471C"/>
</radialGradient>
<radialGradient id="paint1_radial_3_3614" cx="0" cy="0" r="1" gradientUnits="userSpaceOnUse" gradientTransform="translate(18.1768 32.6038) rotate(-174.9) scale(4.73521 5.37827)">
<stop stop-color="#F9EC31"/>
<stop offset="0.99"/>
</radialGradient>
<linearGradient id="paint2_linear_3_3614" x1="25.1167" y1="33.3791" x2="10.4175" y2="32.3873" gradientUnits="userSpaceOnUse">
<stop stop-color="#8A4400"/>
<stop offset="0.34" stop-color="#927A25"/>
<stop offset="0.54" stop-color="#957C24"/>
<stop offset="0.71" stop-color="#9F8322"/>
<stop offset="0.87" stop-color="#B18F1F"/>
<stop offset="1" stop-color="#C69D1C"/>
</linearGradient>
<linearGradient id="paint3_linear_3_3614" x1="24.6291" y1="33.4795" x2="11.6738" y2="32.3233" gradientUnits="userSpaceOnUse">
<stop stop-color="#38BAD5"/>
<stop offset="0.12" stop-color="#3BB7CE"/>
<stop offset="0.28" stop-color="#44B1BD"/>
<stop offset="0.46" stop-color="#52A6A0"/>
<stop offset="0.66" stop-color="#679878"/>
<stop offset="0.87" stop-color="#818646"/>
<stop offset="1" stop-color="#927A25"/>
</linearGradient>
<radialGradient id="paint4_radial_3_3614" cx="0" cy="0" r="1" gradientUnits="userSpaceOnUse" gradientTransform="translate(18.242 31.5475) rotate(-174.9) scale(4.02883 4.57595)">
<stop stop-color="#F9EC31"/>
<stop offset="0.99"/>
</radialGradient>
<linearGradient id="paint5_linear_3_3614" x1="24.3816" y1="32.1572" x2="11.4667" y2="31.2855" gradientUnits="userSpaceOnUse">
<stop stop-color="#78471C"/>
<stop offset="0.34" stop-color="#927A25"/>
<stop offset="0.54" stop-color="#957C24"/>
<stop offset="0.71" stop-color="#9F8322"/>
<stop offset="0.87" stop-color="#B18F1F"/>
<stop offset="1" stop-color="#C69D1C"/>
</linearGradient>
<radialGradient id="paint6_radial_3_3614" cx="0" cy="0" r="1" gradientUnits="userSpaceOnUse" gradientTransform="translate(15.4934 29.6409) rotate(-174.9) scale(6.00982 6.30661)">
<stop stop-color="#F9EC31"/>
<stop offset="0.99"/>
</radialGradient>
<radialGradient id="paint7_radial_3_3614" cx="0" cy="0" r="1" gradientUnits="userSpaceOnUse" gradientTransform="translate(15.7072 29.5219) rotate(-174.9) scale(6.00982 5.34207)">
<stop stop-color="#F9ED32"/>
<stop offset="0.14" stop-color="#F0DF2D"/>
<stop offset="0.56" stop-color="#D9BB22"/>
<stop offset="0.65" stop-color="#D3B522"/>
<stop offset="0.77" stop-color="#C3A622"/>
<stop offset="0.9" stop-color="#A88E24"/>
<stop offset="0.99" stop-color="#927A25"/>
</radialGradient>
<linearGradient id="paint8_linear_3_3614" x1="20.2083" y1="30.0869" x2="17.2656" y2="29.89" gradientUnits="userSpaceOnUse">
<stop stop-color="#78471C"/>
<stop offset="0.34" stop-color="#927A25"/>
<stop offset="0.54" stop-color="#957C24"/>
<stop offset="0.71" stop-color="#9F8322"/>
<stop offset="0.87" stop-color="#B18F1F"/>
<stop offset="1" stop-color="#C69D1C"/>
</linearGradient>
<radialGradient id="paint9_radial_3_3614" cx="0" cy="0" r="1" gradientUnits="userSpaceOnUse" gradientTransform="translate(18.6174 26.5142) rotate(-174.9) scale(3.34919 3.80402)">
<stop stop-color="#D9BB22"/>
<stop offset="0.15" stop-color="#D4B521"/>
<stop offset="0.34" stop-color="#C6A520"/>
<stop offset="0.56" stop-color="#B08A1F"/>
<stop offset="0.79" stop-color="#91651D"/>
<stop offset="0.96" stop-color="#78471C"/>
</radialGradient>
<linearGradient id="paint10_linear_3_3614" x1="19.2198" y1="24.3418" x2="19.0273" y2="26.8047" gradientUnits="userSpaceOnUse">
<stop stop-color="#C69D1C"/>
<stop offset="0.13" stop-color="#B18F1F"/>
<stop offset="0.29" stop-color="#9F8322"/>
<stop offset="0.46" stop-color="#957C24"/>
<stop offset="0.66" stop-color="#927A25"/>
<stop offset="0.99" stop-color="#78471C"/>
</linearGradient>
<linearGradient id="paint11_linear_3_3614" x1="21.3188" y1="26.9315" x2="15.7515" y2="29.4571" gradientUnits="userSpaceOnUse">
<stop stop-color="#927A25"/>
<stop offset="1" stop-color="#38BAD5"/>
</linearGradient>
<radialGradient id="paint12_radial_3_3614" cx="0" cy="0" r="1" gradientUnits="userSpaceOnUse" gradientTransform="translate(18.5786 0.452779) rotate(-174.9) scale(21.6817 24.6261)">
<stop stop-color="#D9BB22"/>
<stop offset="0.87" stop-color="#C69D1C"/>
<stop offset="0.9" stop-color="#C0991C"/>
<stop offset="0.94" stop-color="#B08E1F"/>
<stop offset="0.98" stop-color="#957C24"/>
<stop offset="0.99" stop-color="#927A25"/>
</radialGradient>
<linearGradient id="paint13_linear_3_3614" x1="19.2462" y1="22.4868" x2="19.1247" y2="24.0419" gradientUnits="userSpaceOnUse">
<stop stop-color="#927A25"/>
<stop offset="0.99" stop-color="#78471C"/>
</linearGradient>
<radialGradient id="paint14_radial_3_3614" cx="0" cy="0" r="1" gradientUnits="userSpaceOnUse" gradientTransform="translate(21.0608 3.3982) rotate(-174.9) scale(17.3699 19.7288)">
<stop stop-color="#EF8626"/>
<stop offset="0.05" stop-color="#E27A23"/>
<stop offset="0.19" stop-color="#CA621F"/>
<stop offset="0.33" stop-color="#B8521C"/>
<stop offset="0.48" stop-color="#AE481A"/>
<stop offset="0.66" stop-color="#AB451A"/>
<stop offset="0.78" stop-color="#AA421A"/>
<stop offset="0.87" stop-color="#A8381A"/>
<stop offset="0.96" stop-color="#A5281C"/>
<stop offset="0.99" stop-color="#A41E1D"/>
</radialGradient>
<radialGradient id="paint15_radial_3_3614" cx="0" cy="0" r="1" gradientUnits="userSpaceOnUse" gradientTransform="translate(21.0608 3.3982) rotate(-174.9) scale(17.3699 19.7288)">
<stop stop-color="#EF8626"/>
<stop offset="0.05" stop-color="#E27A23"/>
<stop offset="0.19" stop-color="#CA621F"/>
<stop offset="0.33" stop-color="#B8521C"/>
<stop offset="0.48" stop-color="#AE481A"/>
<stop offset="0.66" stop-color="#AB451A"/>
<stop offset="0.78" stop-color="#AA421A"/>
<stop offset="0.87" stop-color="#A8381A"/>
<stop offset="0.96" stop-color="#A5281C"/>
<stop offset="0.99" stop-color="#A41E1D"/>
</radialGradient>
<linearGradient id="paint16_linear_3_3614" x1="12.8528" y1="21.3205" x2="26.2338" y2="21.3205" gradientUnits="userSpaceOnUse">
<stop stop-color="#A34A10"/>
<stop offset="0.19" stop-color="#856846"/>
<stop offset="0.39" stop-color="#6A8578"/>
<stop offset="0.57" stop-color="#549CA0"/>
<stop offset="0.74" stop-color="#44ACBD"/>
<stop offset="0.89" stop-color="#3BB6CE"/>
<stop offset="1" stop-color="#38BAD5"/>
</linearGradient>
<radialGradient id="paint17_radial_3_3614" cx="0" cy="0" r="1" gradientUnits="userSpaceOnUse" gradientTransform="translate(20.9973 4.7113) rotate(-174.9) scale(15.6407 17.7647)">
<stop stop-color="#D9BB22"/>
<stop offset="0.25" stop-color="#D6B721"/>
<stop offset="0.46" stop-color="#D0AD1F"/>
<stop offset="0.64" stop-color="#C69D1C"/>
<stop offset="0.74" stop-color="#BC961D"/>
<stop offset="0.91" stop-color="#A38522"/>
<stop offset="1" stop-color="#927A25"/>
</radialGradient>
<linearGradient id="paint18_linear_3_3614" x1="20.643" y1="11.8205" x2="19.7946" y2="22.6732" gradientUnits="userSpaceOnUse">
<stop stop-color="#C69D1C"/>
<stop offset="0.13" stop-color="#B18F1F"/>
<stop offset="0.29" stop-color="#9F8322"/>
<stop offset="0.46" stop-color="#957C24"/>
<stop offset="0.66" stop-color="#927A25"/>
<stop offset="0.99" stop-color="#78471C"/>
</linearGradient>
<radialGradient id="paint19_radial_3_3614" cx="0" cy="0" r="1" gradientUnits="userSpaceOnUse" gradientTransform="translate(2.82975 12.3493) rotate(-174.9) scale(17.8601 20.2856)">
<stop offset="0.04" stop-color="#C69D1C"/>
<stop offset="0.61" stop-color="#927A25"/>
<stop offset="0.99" stop-color="#78471C"/>
</radialGradient>
<radialGradient id="paint20_radial_3_3614" cx="0" cy="0" r="1" gradientUnits="userSpaceOnUse" gradientTransform="translate(12.9051 8.0632) scale(17.5956 17.5956)">
<stop offset="0.04" stop-color="#D9BB22"/>
<stop offset="0.61" stop-color="#927A25"/>
<stop offset="0.99" stop-color="#78471C"/>
</radialGradient>
<radialGradient id="paint21_radial_3_3614" cx="0" cy="0" r="1" gradientUnits="userSpaceOnUse" gradientTransform="translate(16.641 14.044) scale(7.68638)">
<stop stop-color="#D66900"/>
<stop offset="0.99"/>
</radialGradient>
<radialGradient id="paint22_radial_3_3614" cx="0" cy="0" r="1" gradientUnits="userSpaceOnUse" gradientTransform="translate(15.1995 14.6547) scale(14.3439)">
<stop stop-color="#D66900"/>
<stop offset="0.99"/>
</radialGradient>
<linearGradient id="paint23_linear_3_3614" x1="20.9632" y1="4.75925" x2="20.6294" y2="9.02957" gradientUnits="userSpaceOnUse">
<stop stop-color="#C69D1C"/>
<stop offset="0.99" stop-color="#78471C"/>
</linearGradient>
<radialGradient id="paint24_radial_3_3614" cx="0" cy="0" r="1" gradientUnits="userSpaceOnUse" gradientTransform="translate(23.6984 -21.7347) rotate(-174.9) scale(30.809 30.809)">
<stop offset="0.85" stop-color="#D9BB22"/>
<stop offset="0.98" stop-color="#C9A21D"/>
<stop offset="1" stop-color="#C69D1C"/>
</radialGradient>
<radialGradient id="paint25_radial_3_3614" cx="0" cy="0" r="1" gradientUnits="userSpaceOnUse" gradientTransform="translate(22.9483 -21.4851) rotate(-174.9) scale(32.8167 37.2733)">
<stop offset="0.61" stop-color="#D9BB22"/>
<stop offset="0.76" stop-color="#C0A423"/>
<stop offset="1" stop-color="#927A25"/>
</radialGradient>
<linearGradient id="paint26_linear_3_3614" x1="33.6711" y1="3.40717" x2="2.21828" y2="0.948349" gradientUnits="userSpaceOnUse">
<stop stop-color="#D9BB22"/>
<stop offset="0.13" stop-color="#E1C62A"/>
<stop offset="0.39" stop-color="#EDD837"/>
<stop offset="0.67" stop-color="#F4E23E"/>
<stop offset="1" stop-color="#F7E641"/>
</linearGradient>
<radialGradient id="paint27_radial_3_3614" cx="0" cy="0" r="1" gradientUnits="userSpaceOnUse" gradientTransform="translate(18.6345 5.69218) rotate(-174.9) scale(5.27001 5.98569)">
<stop stop-color="#FFCF01"/>
<stop offset="0.99"/>
</radialGradient>
<radialGradient id="paint28_radial_3_3614" cx="0" cy="0" r="1" gradientUnits="userSpaceOnUse" gradientTransform="translate(16.6121 3.68729) rotate(-174.9) scale(3.45392 3.92297)">
<stop stop-color="#F9EC31"/>
<stop offset="0.99"/>
</radialGradient>
<radialGradient id="paint29_radial_3_3614" cx="0" cy="0" r="1" gradientUnits="userSpaceOnUse" gradientTransform="translate(25.8895 2.8128) rotate(-174.9) scale(5.26556 5.98063)">
<stop stop-color="#130B0D"/>
<stop offset="0.3" stop-color="#173459"/>
<stop offset="0.79" stop-color="#1E73CE"/>
<stop offset="1" stop-color="#218DFE"/>
</radialGradient>
<radialGradient id="paint30_radial_3_3614" cx="0" cy="0" r="1" gradientUnits="userSpaceOnUse" gradientTransform="translate(21.5379 -2.38793) scale(11.5323 11.5323)">
<stop stop-color="#C69D1C"/>
<stop offset="0.14" stop-color="#C2971B"/>
<stop offset="0.31" stop-color="#B8861A"/>
<stop offset="0.51" stop-color="#A76B18"/>
<stop offset="0.62" stop-color="#9C5A17"/>
<stop offset="1" stop-color="#78471C"/>
</radialGradient>
<linearGradient id="paint31_linear_3_3614" x1="21.1192" y1="-0.201085" x2="19.8551" y2="10.2853" gradientUnits="userSpaceOnUse">
<stop stop-color="#927A25"/>
<stop offset="0.99" stop-color="#78471C"/>
</linearGradient>
<radialGradient id="paint32_radial_3_3614" cx="0" cy="0" r="1" gradientUnits="userSpaceOnUse" gradientTransform="translate(16.0866 13.4544) rotate(-174.96) scale(7.34393 6.64451)">
<stop stop-color="#F7E641"/>
<stop offset="0.99"/>
</radialGradient>
<linearGradient id="paint33_linear_3_3614" x1="31.8493" y1="4.05122" x2="23.1228" y2="21.4681" gradientUnits="userSpaceOnUse">
<stop stop-color="#927A25"/>
<stop offset="0.11" stop-color="#8C7D2F"/>
<stop offset="0.31" stop-color="#7E874A"/>
<stop offset="0.56" stop-color="#679877"/>
<stop offset="0.86" stop-color="#48AEB5"/>
<stop offset="1" stop-color="#38BAD5"/>
</linearGradient>
<linearGradient id="paint34_linear_3_3614" x1="21.8822" y1="24.136" x2="16.8165" y2="23.74" gradientUnits="userSpaceOnUse">
<stop stop-color="#C69D1C"/>
<stop offset="1" stop-color="#38BAD5"/>
</linearGradient>
<radialGradient id="paint35_radial_3_3614" cx="0" cy="0" r="1" gradientUnits="userSpaceOnUse" gradientTransform="translate(18.2648 26.6301) rotate(-174.9) scale(2.5559 2.903)">
<stop stop-color="#F7E641"/>
<stop offset="0.99"/>
</radialGradient>
<radialGradient id="paint36_radial_3_3614" cx="0" cy="0" r="1" gradientUnits="userSpaceOnUse" gradientTransform="translate(15.8693 30.6853) rotate(-174.9) scale(2.02556 2.30063)">
<stop stop-color="#D9BB22"/>
<stop offset="0.99"/>
</radialGradient>
<radialGradient id="paint37_radial_3_3614" cx="0" cy="0" r="1" gradientUnits="userSpaceOnUse" gradientTransform="translate(14.0416 31.9121) rotate(-174.9) scale(2.38432 2.70812)">
<stop stop-color="#D9BB22"/>
<stop offset="0.99"/>
</radialGradient>
<radialGradient id="paint38_radial_3_3614" cx="0" cy="0" r="1" gradientUnits="userSpaceOnUse" gradientTransform="translate(16.3645 31.5528) rotate(-174.9) scale(7.046 8.00286)">
<stop offset="0.04" stop-color="#FFCF01"/>
<stop offset="0.61" stop-color="#927A25"/>
<stop offset="0.99" stop-color="#78471C"/>
</radialGradient>
<linearGradient id="paint39_linear_3_3614" x1="20.0743" y1="23.8927" x2="24.1486" y2="35.6616" gradientUnits="userSpaceOnUse">
<stop stop-color="#D66900"/>
<stop offset="1" stop-color="#38BAD5"/>
</linearGradient>
<radialGradient id="paint40_radial_3_3614" cx="0" cy="0" r="1" gradientUnits="userSpaceOnUse" gradientTransform="translate(8.91366 -6.28604) rotate(-174.9) scale(21.2445 25.717)">
<stop stop-color="#FFCF01"/>
<stop offset="0.2" stop-color="#FBCC02"/>
<stop offset="0.37" stop-color="#F1C207"/>
<stop offset="0.53" stop-color="#DFB30F"/>
<stop offset="0.68" stop-color="#C79E1B"/>
<stop offset="0.69" stop-color="#C69D1C"/>
<stop offset="1" stop-color="#927A25"/>
</radialGradient>
<linearGradient id="paint41_linear_3_3614" x1="10.5017" y1="16.6265" x2="9.93847" y2="23.8315" gradientUnits="userSpaceOnUse">
<stop stop-color="#927A25"/>
<stop offset="0.99" stop-color="#78471C"/>
</linearGradient>
<radialGradient id="paint42_radial_3_3614" cx="0" cy="0" r="1" gradientUnits="userSpaceOnUse" gradientTransform="translate(6.27679 3.95665) rotate(-174.9) scale(4.78201 5.43142)">
<stop stop-color="#7A5A25"/>
<stop offset="0.46" stop-color="#784D1F"/>
<stop offset="0.93" stop-color="#78471C"/>
</radialGradient>
<radialGradient id="paint43_radial_3_3614" cx="0" cy="0" r="1" gradientUnits="userSpaceOnUse" gradientTransform="translate(8.52638 3.8931) rotate(-174.9) scale(7.57857 8.60776)">
<stop offset="0.04" stop-color="#FFCF01"/>
<stop offset="0.61" stop-color="#C69D1C"/>
<stop offset="0.99" stop-color="#7A5A25"/>
</radialGradient>
<radialGradient id="paint44_radial_3_3614" cx="0" cy="0" r="1" gradientUnits="userSpaceOnUse" gradientTransform="translate(7.39232 -5.00768) rotate(-174.9) scale(19.1169 21.713)">
<stop offset="0.04" stop-color="#FFCF01"/>
<stop offset="0.61" stop-color="#C69D1C"/>
<stop offset="1" stop-color="#78471C"/>
</radialGradient>
<linearGradient id="paint45_linear_3_3614" x1="1.22145" y1="4.79229" x2="10.2201" y2="9.52957" gradientUnits="userSpaceOnUse">
<stop stop-color="#F9EC31"/>
<stop offset="1" stop-color="#D9BB22"/>
</linearGradient>
<radialGradient id="paint46_radial_3_3614" cx="0" cy="0" r="1" gradientUnits="userSpaceOnUse" gradientTransform="translate(6.57136 14.5941) rotate(-174.9) scale(8.65486 9.8302)">
<stop stop-color="#FFCF01"/>
<stop offset="0.99"/>
</radialGradient>
<linearGradient id="paint47_linear_3_3614" x1="6.03845" y1="7.99442" x2="8.87752" y2="10.5584" gradientUnits="userSpaceOnUse">
<stop stop-color="#F9EC31"/>
<stop offset="0.31" stop-color="#F6E82F"/>
<stop offset="0.58" stop-color="#EFDE2C"/>
<stop offset="0.82" stop-color="#E4CC27"/>
<stop offset="1" stop-color="#D9BB22"/>
</linearGradient>
<radialGradient id="paint48_radial_3_3614" cx="0" cy="0" r="1" gradientUnits="userSpaceOnUse" gradientTransform="translate(6.38793 9.07901) rotate(-174.9) scale(2.11692 2.4044)">
<stop stop-color="#FFCF01"/>
<stop offset="0.99"/>
</radialGradient>
<radialGradient id="paint49_radial_3_3614" cx="0" cy="0" r="1" gradientUnits="userSpaceOnUse" gradientTransform="translate(8.1176 20.5053) rotate(-174.9) scale(2.08127 2.36391)">
<stop stop-color="#FFCF01"/>
<stop offset="0.99"/>
</radialGradient>
<radialGradient id="paint50_radial_3_3614" cx="0" cy="0" r="1" gradientUnits="userSpaceOnUse" gradientTransform="translate(3.81287 2.79229) scale(9.01238 9.01238)">
<stop stop-color="#FFCF01"/>
<stop offset="1"/>
</radialGradient>
<radialGradient id="paint51_radial_3_3614" cx="0" cy="0" r="1" gradientUnits="userSpaceOnUse" gradientTransform="translate(34.6263 -3.97889) rotate(5.1) scale(21.2445 25.717)">
<stop stop-color="#FFCF01"/>
<stop offset="0.2" stop-color="#FBCC02"/>
<stop offset="0.37" stop-color="#F1C207"/>
<stop offset="0.53" stop-color="#DFB30F"/>
<stop offset="0.68" stop-color="#C79E1B"/>
<stop offset="0.69" stop-color="#C69D1C"/>
<stop offset="1" stop-color="#927A25"/>
</radialGradient>
<linearGradient id="paint52_linear_3_3614" x1="29.2228" y1="18.3095" x2="28.6587" y2="25.5254" gradientUnits="userSpaceOnUse">
<stop stop-color="#927A25"/>
<stop offset="0.99" stop-color="#78471C"/>
</linearGradient>
<radialGradient id="paint53_radial_3_3614" cx="0" cy="0" r="1" gradientUnits="userSpaceOnUse" gradientTransform="translate(34.4449 6.06065) rotate(5.1) scale(7.31563 8.3091)">
<stop stop-color="#7A5A25"/>
<stop offset="0.46" stop-color="#784D1F"/>
<stop offset="0.93" stop-color="#78471C"/>
</radialGradient>
<radialGradient id="paint54_radial_3_3614" cx="0" cy="0" r="1" gradientUnits="userSpaceOnUse" gradientTransform="translate(33.9676 3.94533) rotate(-174.9) scale(9.69994 11.0172)">
<stop offset="0.04" stop-color="#FFCF01"/>
<stop offset="0.61" stop-color="#C69D1C"/>
<stop offset="0.99" stop-color="#7A5A25"/>
</radialGradient>
<radialGradient id="paint55_radial_3_3614" cx="0" cy="0" r="1" gradientUnits="userSpaceOnUse" gradientTransform="translate(35.5275 -2.48467) rotate(5.1) scale(19.1169 21.713)">
<stop offset="0.04" stop-color="#FFCF01"/>
<stop offset="0.61" stop-color="#C69D1C"/>
<stop offset="1" stop-color="#78471C"/>
</radialGradient>
<linearGradient id="paint56_linear_3_3614" x1="31.7551" y1="8.57905" x2="40.7976" y2="9.28595" gradientUnits="userSpaceOnUse">
<stop offset="0.39" stop-color="#F9EC31"/>
<stop offset="0.58" stop-color="#F9E92D"/>
<stop offset="0.74" stop-color="#FAE323"/>
<stop offset="0.9" stop-color="#FCD911"/>
<stop offset="1" stop-color="#FFCF01"/>
</linearGradient>
<radialGradient id="paint57_radial_3_3614" cx="0" cy="0" r="1" gradientUnits="userSpaceOnUse" gradientTransform="translate(32.8641 16.9552) rotate(5.1) scale(8.65485 9.83021)">
<stop stop-color="#FFCF01"/>
<stop offset="0.99"/>
</radialGradient>
<linearGradient id="paint58_linear_3_3614" x1="35.172" y1="11.7992" x2="32.1046" y2="10.8501" gradientUnits="userSpaceOnUse">
<stop stop-color="#F9EC31"/>
<stop offset="0.31" stop-color="#F6E82F"/>
<stop offset="0.58" stop-color="#EFDE2C"/>
<stop offset="0.82" stop-color="#E4CC27"/>
<stop offset="1" stop-color="#D9BB22"/>
</linearGradient>
<radialGradient id="paint59_radial_3_3614" cx="0" cy="0" r="1" gradientUnits="userSpaceOnUse" gradientTransform="translate(34.0213 11.5597) rotate(5.1) scale(2.11692 2.4044)">
<stop stop-color="#FFCF01"/>
<stop offset="0.99"/>
</radialGradient>
<radialGradient id="paint60_radial_3_3614" cx="0" cy="0" r="1" gradientUnits="userSpaceOnUse" gradientTransform="translate(30.3097 22.5156) rotate(5.1) scale(2.07458 2.35631)">
<stop stop-color="#FFCF01"/>
<stop offset="0.99"/>
</radialGradient>
<radialGradient id="paint61_radial_3_3614" cx="0" cy="0" r="1" gradientUnits="userSpaceOnUse" gradientTransform="translate(38.9904 5.2462) scale(7.989 7.989)">
<stop stop-color="#FFCF01"/>
<stop offset="1"/>
</radialGradient>
<linearGradient id="paint62_linear_3_3614" x1="8.21179" y1="21.4195" x2="12.9876" y2="21.4195" gradientUnits="userSpaceOnUse">
<stop stop-color="#8A6400"/>
<stop offset="1" stop-color="#29CCE5"/>
</linearGradient>
<linearGradient id="paint63_linear_3_3614" x1="26.7813" y1="21.0481" x2="29.9174" y2="25.6588" gradientUnits="userSpaceOnUse">
<stop stop-color="#8A6400"/>
<stop offset="1" stop-color="#29CCE5"/>
</linearGradient>
<radialGradient id="paint64_radial_3_3614" cx="0" cy="0" r="1" gradientUnits="userSpaceOnUse" gradientTransform="translate(32.2283 4.29165) scale(10.4622)">
<stop offset="0.04" stop-color="#FFCF01"/>
<stop offset="0.51" stop-color="#927A25"/>
<stop offset="0.99" stop-color="#78471C"/>
</radialGradient>
</defs>
</svg>
