<svg width="214" height="69" viewBox="0 0 214 69" fill="none" xmlns="http://www.w3.org/2000/svg">
<circle cx="24.75" cy="24.5" r="23.5" fill="white" stroke="white" stroke-width="2"/>
<g clip-path="url(#clip0_11_59)">
<path d="M38.1547 36.2241C34.7166 22.6775 31.7214 11.3443 27.9452 9.32514C24.1642 7.30602 25.7309 26.6284 25.7309 26.6284C25.7309 26.6284 28.8071 27.0555 30.2881 33.7536C31.4785 39.146 39.1785 40.2381 38.1595 36.2241H38.1547Z" fill="#49282E"/>
<path d="M29.9406 23.3425L19.2358 22.8474L20.0977 34.6758C22.7596 37.4424 30.6644 36.4231 32.7596 33.5546L29.9358 23.3425H29.9406Z" fill="#D27558"/>
<path d="M15.4121 12.9265C16.9359 24.4054 20.8026 32.0548 22.1835 33.4623C23.5645 34.8699 31.555 35.6076 36.7121 32.943L32.8597 18.7994C29.9312 12.6304 28.4026 1.53984 15.4121 12.9265Z" fill="#49282E"/>
<path d="M23.1595 22.7066C21.569 19.8624 20.6881 15.1301 21.7262 12.8537C22.7642 10.5774 26.769 10.1939 28.2452 10.9511C29.7166 11.7131 33.6071 22.4348 33.2166 23.4493C33.0785 23.8133 30.369 23.3279 29.0119 23.6385C26.5881 24.1919 25.9357 27.6574 23.1642 22.7066H23.1595Z" fill="#EDB984"/>
<path d="M19.9931 21.265C19.6407 20.435 18.9979 19.9206 18.555 20.1147C18.1121 20.3088 18.0407 21.1388 18.3931 21.9688C18.7455 22.7988 19.3883 23.3133 19.8312 23.1191C20.274 22.925 20.3455 22.095 19.9931 21.265Z" fill="#D27558"/>
<path d="M20.2025 22.4493C19.9311 21.8086 19.4358 21.4154 19.0977 21.561C18.7596 21.7115 18.7025 22.3473 18.9739 22.988C19.2454 23.6287 19.7406 24.0218 20.0787 23.8762C20.4168 23.7258 20.4739 23.0899 20.2025 22.4493Z" fill="#EDB984"/>
<path d="M13.8453 39.2916C13.0787 26.4052 12.5501 15.6009 15.5501 12.7858C18.5501 9.97068 22.8215 27.4244 22.8215 27.4244C22.8215 27.4244 20.0215 28.6427 20.6072 34.9524C21.0787 40.0294 14.0739 43.1066 13.8453 39.2868V39.2916Z" fill="#49282E"/>
<path d="M20.4596 21.0564C19.8977 19.7363 18.8786 18.916 18.1786 19.2266C17.4786 19.5373 17.3643 20.8574 17.9215 22.1728C18.4786 23.4881 19.5024 24.3133 20.2024 24.0026C20.9024 23.692 21.0167 22.3718 20.4596 21.0564Z" fill="#EDB984"/>
<path d="M26.2594 20.0564C26.107 19.3138 25.6499 18.7653 25.2261 18.8236C24.807 18.8818 24.588 19.5322 24.7404 20.2748C24.8928 21.0174 25.3499 21.5659 25.7737 21.5076C26.1928 21.4494 26.4118 20.799 26.2594 20.0564V20.0564Z" fill="#5A4949"/>
<path d="M24.845 16.4066L22.3927 17.6782C22.1879 17.785 22.1022 18.0519 22.2069 18.2704L22.6022 19.1003C22.7069 19.3187 22.9593 19.411 23.1641 19.3042L25.6165 18.0325C25.8212 17.9257 25.9069 17.6588 25.8022 17.4404L25.4069 16.6104C25.3022 16.392 25.0498 16.2998 24.845 16.4066Z" fill="#49282E"/>
<path d="M30.9928 18.8044C30.8214 18.0666 30.3404 17.5327 29.9262 17.6055C29.5119 17.6783 29.3119 18.3384 29.4833 19.0762C29.6547 19.8139 30.1357 20.3478 30.55 20.275C30.9643 20.2022 31.1643 19.5421 30.9928 18.8044Z" fill="#5A4949"/>
<path d="M30.8213 15.5086L28.1832 15.5378C27.9594 15.5378 27.7927 15.7416 27.807 15.9891L27.8641 16.921C27.8784 17.1686 28.0737 17.3676 28.2927 17.3627L30.9308 17.3336C31.1546 17.3336 31.3213 17.1298 31.307 16.8822L31.2499 15.9503C31.2356 15.7028 31.0403 15.5038 30.8213 15.5086V15.5086Z" fill="#49282E"/>
<path d="M27.9546 19.8284C29.3927 21.4446 30.0974 22.5416 29.6403 23.1483C29.3546 23.5269 28.7546 23.6142 28.2546 23.6142V23.653C28.2546 23.653 29.9213 23.9346 30.4451 23.3424C30.9641 22.7551 29.9213 21.6 27.9546 19.8284V19.8284Z" fill="#D27558"/>
<path d="M31.9307 24.8179L26.4688 25.7498C26.4688 25.7498 26.9307 27.8126 29.5545 27.9533C32.183 28.0941 31.9259 24.8179 31.9259 24.8179H31.9307Z" fill="#281519"/>
<path d="M31.3165 26.4391C31.5308 25.7936 31.4784 25.1287 31.4784 25.1287L27.0688 25.881C27.0688 25.881 27.2022 26.4683 27.7546 26.9731L31.3117 26.4391H31.3165Z" fill="#F9EDDB"/>
<path d="M20.0069 21.2554C19.645 20.4012 18.9879 19.8673 18.5355 20.0663C18.0831 20.2653 18.0069 21.1244 18.3641 21.9786C18.726 22.8329 19.3831 23.3668 19.8355 23.1678C20.2879 22.9688 20.3641 22.1097 20.0069 21.2554Z" fill="#D27558"/>
<path d="M20.1501 22.2067C19.9072 21.6194 19.4596 21.2553 19.1501 21.3912C18.8405 21.5271 18.7881 22.1144 19.031 22.7017C19.2739 23.289 19.7215 23.653 20.031 23.5171C20.3405 23.3812 20.3929 22.7939 20.1501 22.2067Z" fill="#EDB984"/>
</g>
<path d="M85.6855 40.6315C65.9687 22.9353 55.1675 20.4034 36.2503 28.2559" stroke="white"/>
<rect x="72.75" y="45" width="141" height="24" rx="5" fill="#FEA94E"/>
<g clip-path="url(#clip1_11_59)">
<path d="M98.7189 59.575C98.7319 59.5512 98.7424 59.526 98.7501 59.5C99.3195 58.1339 99.4056 56.6144 98.9942 55.1927C98.5828 53.771 97.6985 52.5322 96.4876 51.6813L96.4126 51.6375C95.3357 50.895 94.0582 50.4983 92.7501 50.5C91.5635 50.5004 90.3996 50.8257 89.3847 51.4405C88.3697 52.0553 87.5424 52.9363 86.9925 53.9878C86.4426 55.0393 86.1911 56.2213 86.2651 57.4056C86.3392 58.59 86.736 59.7314 87.4126 60.7063V60.7188C87.4278 60.7427 87.4445 60.7657 87.4626 60.7875C87.9704 61.4953 88.6152 62.0939 89.3589 62.5475C90.1025 63.0012 90.9298 63.3008 91.7915 63.4285C92.6532 63.5562 93.5317 63.5093 94.375 63.2908C95.2182 63.0722 96.0089 62.6864 96.7001 62.1563L96.7876 62.0875C97.6264 61.4198 98.2894 60.5573 98.7189 59.575ZM88.5939 60.6L88.8376 60.45C88.9847 60.3622 89.1063 60.2377 89.1907 60.0887C89.2751 59.9397 89.3192 59.7713 89.3189 59.6L89.3314 57.4875C89.3332 57.3922 89.3613 57.2992 89.4126 57.2188L90.2876 55.8438C90.3242 55.7865 90.372 55.7373 90.4281 55.6992C90.4843 55.661 90.5476 55.6347 90.6143 55.6219C90.681 55.609 90.7496 55.6098 90.8159 55.6244C90.8822 55.6389 90.9449 55.6667 91.0001 55.7063L91.8001 56.2875C92.0106 56.4364 92.2693 56.5011 92.5251 56.4688L94.4876 56.2C94.7306 56.1689 94.9534 56.0486 95.1126 55.8625L96.4939 54.2625C96.5787 54.1677 96.644 54.0571 96.6858 53.9369C96.7277 53.8168 96.7453 53.6895 96.7376 53.5625L96.7251 53.2C97.7052 54.2221 98.2517 55.5839 98.2501 57C98.2507 57.4944 98.1834 57.9865 98.0501 58.4625L97.0564 57.55C96.9159 57.4223 96.7422 57.3369 96.5553 57.3038C96.3684 57.2706 96.1759 57.2909 96.0001 57.3625L94.0939 58.1563C93.9349 58.2227 93.7957 58.3289 93.6896 58.4646C93.5834 58.6003 93.5139 58.761 93.4876 58.9313L93.3376 59.9438C93.3031 60.1881 93.359 60.4366 93.4948 60.6426C93.6306 60.8486 93.837 60.9979 94.0751 61.0625L95.4189 61.4125L95.6689 61.6625C94.5567 62.3583 93.2324 62.6336 91.935 62.4388C90.6376 62.244 89.4526 61.5918 88.5939 60.6V60.6Z" fill="white"/>
</g>
<path d="M108.81 60.6C108.303 60.6 107.83 60.51 107.39 60.33C106.95 60.1433 106.563 59.8867 106.23 59.56C105.903 59.2267 105.647 58.8433 105.46 58.41C105.273 57.9767 105.18 57.5067 105.18 57C105.18 56.4933 105.273 56.0233 105.46 55.59C105.647 55.1567 105.903 54.7767 106.23 54.45C106.563 54.1167 106.95 53.86 107.39 53.68C107.83 53.4933 108.303 53.4 108.81 53.4C109.137 53.4 109.453 53.4367 109.76 53.51C110.067 53.5833 110.343 53.69 110.59 53.83C110.677 53.8767 110.74 53.94 110.78 54.02C110.82 54.0933 110.84 54.1667 110.84 54.24C110.84 54.38 110.793 54.5033 110.7 54.61C110.613 54.71 110.503 54.76 110.37 54.76C110.323 54.76 110.273 54.7533 110.22 54.74C110.173 54.7267 110.13 54.71 110.09 54.69C109.903 54.5967 109.703 54.5267 109.49 54.48C109.277 54.4267 109.05 54.4 108.81 54.4C108.33 54.4 107.897 54.5167 107.51 54.75C107.123 54.9767 106.817 55.2867 106.59 55.68C106.37 56.0733 106.26 56.5133 106.26 57C106.26 57.48 106.37 57.92 106.59 58.32C106.817 58.7133 107.123 59.0267 107.51 59.26C107.897 59.4867 108.33 59.6 108.81 59.6C109.043 59.6 109.29 59.5733 109.55 59.52C109.81 59.46 110.03 59.3833 110.21 59.29L110.13 59.56V57.66L110.29 57.8H108.98C108.833 57.8 108.71 57.7533 108.61 57.66C108.517 57.5667 108.47 57.4467 108.47 57.3C108.47 57.1533 108.517 57.0333 108.61 56.94C108.71 56.8467 108.833 56.8 108.98 56.8H110.71C110.85 56.8 110.967 56.85 111.06 56.95C111.16 57.0433 111.21 57.1633 111.21 57.31V59.53C111.21 59.6367 111.183 59.7267 111.13 59.8C111.077 59.8733 111.017 59.9333 110.95 59.98C110.65 60.1667 110.317 60.3167 109.95 60.43C109.59 60.5433 109.21 60.6 108.81 60.6ZM116.293 59.52C116.433 59.52 116.55 59.5667 116.643 59.66C116.743 59.7533 116.793 59.87 116.793 60.01C116.793 60.15 116.743 60.2667 116.643 60.36C116.55 60.4533 116.433 60.5 116.293 60.5H112.933C112.786 60.5 112.663 60.4533 112.563 60.36C112.47 60.26 112.423 60.1367 112.423 59.99V54.01C112.423 53.8633 112.473 53.7433 112.573 53.65C112.673 53.55 112.803 53.5 112.963 53.5C113.096 53.5 113.213 53.55 113.313 53.65C113.42 53.7433 113.473 53.8633 113.473 54.01V59.69L113.263 59.52H116.293ZM124.123 57C124.123 57.5067 124.039 57.98 123.873 58.42C123.706 58.8533 123.469 59.2333 123.163 59.56C122.863 59.8867 122.506 60.1433 122.093 60.33C121.679 60.51 121.226 60.6 120.733 60.6C120.246 60.6 119.796 60.51 119.383 60.33C118.969 60.1433 118.609 59.8867 118.303 59.56C118.003 59.2333 117.769 58.8533 117.603 58.42C117.443 57.98 117.363 57.5067 117.363 57C117.363 56.4933 117.443 56.0233 117.603 55.59C117.769 55.15 118.003 54.7667 118.303 54.44C118.609 54.1133 118.969 53.86 119.383 53.68C119.796 53.4933 120.246 53.4 120.733 53.4C121.226 53.4 121.679 53.4933 122.093 53.68C122.506 53.86 122.863 54.1133 123.163 54.44C123.469 54.7667 123.706 55.15 123.873 55.59C124.039 56.0233 124.123 56.4933 124.123 57ZM123.043 57C123.043 56.5067 122.943 56.0633 122.743 55.67C122.549 55.2767 122.279 54.9667 121.933 54.74C121.586 54.5133 121.186 54.4 120.733 54.4C120.286 54.4 119.889 54.5133 119.543 54.74C119.196 54.9667 118.926 55.2767 118.733 55.67C118.539 56.0567 118.443 56.5 118.443 57C118.443 57.4933 118.539 57.9367 118.733 58.33C118.926 58.7233 119.196 59.0333 119.543 59.26C119.889 59.4867 120.286 59.6 120.733 59.6C121.186 59.6 121.586 59.4867 121.933 59.26C122.279 59.0333 122.549 58.7233 122.743 58.33C122.943 57.9367 123.043 57.4933 123.043 57ZM128.32 53.5C128.934 53.5 129.397 53.65 129.71 53.95C130.03 54.25 130.19 54.6867 130.19 55.26C130.19 55.56 130.117 55.8333 129.97 56.08C129.83 56.32 129.62 56.51 129.34 56.65C129.067 56.79 128.724 56.8633 128.31 56.87L128.33 56.5C128.55 56.5 128.787 56.53 129.04 56.59C129.3 56.65 129.544 56.7533 129.77 56.9C129.997 57.0467 130.184 57.2467 130.33 57.5C130.477 57.7467 130.55 58.0567 130.55 58.43C130.55 58.8367 130.484 59.1767 130.35 59.45C130.217 59.7167 130.04 59.9267 129.82 60.08C129.6 60.2333 129.357 60.3433 129.09 60.41C128.83 60.47 128.574 60.5 128.32 60.5H125.76C125.62 60.5 125.5 60.4533 125.4 60.36C125.3 60.26 125.25 60.1367 125.25 59.99V54.01C125.25 53.8633 125.3 53.7433 125.4 53.65C125.5 53.55 125.62 53.5 125.76 53.5H128.32ZM128.18 54.48H126.21L126.33 54.32V56.47L126.22 56.36H128.2C128.44 56.3533 128.65 56.2733 128.83 56.12C129.017 55.96 129.11 55.7267 129.11 55.42C129.11 55.1067 129.027 54.8733 128.86 54.72C128.694 54.56 128.467 54.48 128.18 54.48ZM128.25 57.34H126.26L126.33 57.27V59.63L126.25 59.54H128.31C128.657 59.54 128.937 59.45 129.15 59.27C129.364 59.0833 129.47 58.8033 129.47 58.43C129.47 58.1167 129.407 57.8833 129.28 57.73C129.154 57.5767 128.997 57.4733 128.81 57.42C128.624 57.3667 128.437 57.34 128.25 57.34ZM134.193 54.8L131.943 60.2C131.903 60.3067 131.843 60.39 131.763 60.45C131.683 60.51 131.593 60.54 131.493 60.54C131.347 60.54 131.237 60.5 131.163 60.42C131.09 60.3333 131.05 60.2267 131.043 60.1C131.043 60.0533 131.053 60 131.073 59.94L133.613 53.8C133.66 53.6867 133.727 53.6 133.813 53.54C133.907 53.48 134.007 53.4533 134.113 53.46C134.213 53.46 134.307 53.49 134.393 53.55C134.48 53.61 134.543 53.6933 134.583 53.8L137.093 59.85C137.12 59.9167 137.133 59.9833 137.133 60.05C137.133 60.1967 137.083 60.3167 136.983 60.41C136.89 60.4967 136.783 60.54 136.663 60.54C136.563 60.54 136.47 60.51 136.383 60.45C136.303 60.3833 136.243 60.3 136.203 60.2L133.933 54.83L134.193 54.8ZM132.343 58.78L132.793 57.82H135.623L135.793 58.78H132.343ZM141.879 59.52C142.019 59.52 142.136 59.5667 142.229 59.66C142.329 59.7533 142.379 59.87 142.379 60.01C142.379 60.15 142.329 60.2667 142.229 60.36C142.136 60.4533 142.019 60.5 141.879 60.5H138.519C138.373 60.5 138.249 60.4533 138.149 60.36C138.056 60.26 138.009 60.1367 138.009 59.99V54.01C138.009 53.8633 138.059 53.7433 138.159 53.65C138.259 53.55 138.389 53.5 138.549 53.5C138.683 53.5 138.799 53.55 138.899 53.65C139.006 53.7433 139.059 53.8633 139.059 54.01V59.69L138.849 59.52H141.879ZM151.08 53.9C151.227 53.9733 151.31 54.0867 151.33 54.24C151.357 54.3933 151.32 54.5333 151.22 54.66C151.147 54.76 151.05 54.8167 150.93 54.83C150.817 54.8433 150.703 54.82 150.59 54.76C150.397 54.66 150.193 54.58 149.98 54.52C149.767 54.46 149.54 54.43 149.3 54.43C148.92 54.43 148.577 54.4933 148.27 54.62C147.97 54.74 147.71 54.9167 147.49 55.15C147.27 55.3767 147.1 55.6467 146.98 55.96C146.867 56.2733 146.81 56.62 146.81 57C146.81 57.42 146.873 57.7933 147 58.12C147.127 58.44 147.3 58.7133 147.52 58.94C147.747 59.16 148.01 59.3267 148.31 59.44C148.617 59.5467 148.947 59.6 149.3 59.6C149.527 59.6 149.747 59.5733 149.96 59.52C150.18 59.4667 150.387 59.3867 150.58 59.28C150.7 59.22 150.817 59.2 150.93 59.22C151.05 59.2333 151.147 59.29 151.22 59.39C151.333 59.53 151.373 59.6733 151.34 59.82C151.313 59.96 151.23 60.0667 151.09 60.14C150.923 60.2333 150.74 60.3133 150.54 60.38C150.34 60.4467 150.137 60.5 149.93 60.54C149.723 60.58 149.513 60.6 149.3 60.6C148.82 60.6 148.367 60.52 147.94 60.36C147.513 60.2 147.133 59.9667 146.8 59.66C146.467 59.3533 146.203 58.9767 146.01 58.53C145.823 58.0833 145.73 57.5733 145.73 57C145.73 56.4867 145.817 56.0133 145.99 55.58C146.17 55.14 146.42 54.7633 146.74 54.45C147.067 54.13 147.447 53.8833 147.88 53.71C148.313 53.53 148.787 53.44 149.3 53.44C149.62 53.44 149.93 53.48 150.23 53.56C150.537 53.64 150.82 53.7533 151.08 53.9ZM152.907 53.5C153.041 53.5 153.157 53.55 153.257 53.65C153.364 53.7433 153.417 53.8633 153.417 54.01V59.99C153.411 60.1367 153.354 60.26 153.247 60.36C153.147 60.4533 153.027 60.5 152.887 60.5C152.734 60.5 152.607 60.4533 152.507 60.36C152.414 60.26 152.367 60.1367 152.367 59.99V54.01C152.367 53.8633 152.417 53.7433 152.517 53.65C152.617 53.55 152.747 53.5 152.907 53.5ZM157.417 53.5C157.577 53.5 157.704 53.55 157.797 53.65C157.891 53.7433 157.937 53.8633 157.937 54.01V59.99C157.937 60.1367 157.887 60.26 157.787 60.36C157.694 60.4533 157.567 60.5 157.407 60.5C157.267 60.5 157.147 60.4533 157.047 60.36C156.947 60.26 156.897 60.1367 156.897 59.99V54.01C156.897 53.8633 156.947 53.7433 157.047 53.65C157.154 53.55 157.277 53.5 157.417 53.5ZM152.867 56.48H157.427L157.417 57.44H152.857L152.867 56.48ZM161.955 54.8L159.705 60.2C159.665 60.3067 159.605 60.39 159.525 60.45C159.445 60.51 159.355 60.54 159.255 60.54C159.108 60.54 158.998 60.5 158.925 60.42C158.852 60.3333 158.812 60.2267 158.805 60.1C158.805 60.0533 158.815 60 158.835 59.94L161.375 53.8C161.422 53.6867 161.488 53.6 161.575 53.54C161.668 53.48 161.768 53.4533 161.875 53.46C161.975 53.46 162.068 53.49 162.155 53.55C162.242 53.61 162.305 53.6933 162.345 53.8L164.855 59.85C164.882 59.9167 164.895 59.9833 164.895 60.05C164.895 60.1967 164.845 60.3167 164.745 60.41C164.652 60.4967 164.545 60.54 164.425 60.54C164.325 60.54 164.232 60.51 164.145 60.45C164.065 60.3833 164.005 60.3 163.965 60.2L161.695 54.83L161.955 54.8ZM160.105 58.78L160.555 57.82H163.385L163.555 58.78H160.105ZM169.641 59.52C169.781 59.52 169.898 59.5667 169.991 59.66C170.091 59.7533 170.141 59.87 170.141 60.01C170.141 60.15 170.091 60.2667 169.991 60.36C169.898 60.4533 169.781 60.5 169.641 60.5H166.281C166.134 60.5 166.011 60.4533 165.911 60.36C165.818 60.26 165.771 60.1367 165.771 59.99V54.01C165.771 53.8633 165.821 53.7433 165.921 53.65C166.021 53.55 166.151 53.5 166.311 53.5C166.444 53.5 166.561 53.55 166.661 53.65C166.768 53.7433 166.821 53.8633 166.821 54.01V59.69L166.611 59.52H169.641ZM175.059 59.52C175.199 59.52 175.315 59.5667 175.409 59.66C175.509 59.7533 175.559 59.87 175.559 60.01C175.559 60.15 175.509 60.2667 175.409 60.36C175.315 60.4533 175.199 60.5 175.059 60.5H171.699C171.552 60.5 171.429 60.4533 171.329 60.36C171.235 60.26 171.189 60.1367 171.189 59.99V54.01C171.189 53.8633 171.239 53.7433 171.339 53.65C171.439 53.55 171.569 53.5 171.729 53.5C171.862 53.5 171.979 53.55 172.079 53.65C172.185 53.7433 172.239 53.8633 172.239 54.01V59.69L172.029 59.52H175.059ZM177.116 53.5H180.576C180.716 53.5 180.833 53.5467 180.926 53.64C181.026 53.7333 181.076 53.85 181.076 53.99C181.076 54.13 181.026 54.2433 180.926 54.33C180.833 54.4167 180.716 54.46 180.576 54.46H177.556L177.656 54.29V56.53L177.566 56.43H180.126C180.266 56.43 180.383 56.4767 180.476 56.57C180.576 56.6633 180.626 56.7833 180.626 56.93C180.626 57.07 180.576 57.1833 180.476 57.27C180.383 57.3567 180.266 57.4 180.126 57.4H177.586L177.656 57.31V59.62L177.586 59.54H180.576C180.716 59.54 180.833 59.59 180.926 59.69C181.026 59.7833 181.076 59.8933 181.076 60.02C181.076 60.16 181.026 60.2767 180.926 60.37C180.833 60.4567 180.716 60.5 180.576 60.5H177.116C176.976 60.5 176.856 60.4533 176.756 60.36C176.656 60.26 176.606 60.1367 176.606 59.99V54.01C176.606 53.8633 176.656 53.7433 176.756 53.65C176.856 53.55 176.976 53.5 177.116 53.5ZM187.469 53.5C187.602 53.5 187.709 53.5467 187.789 53.64C187.876 53.7267 187.919 53.8367 187.919 53.97V59.99C187.919 60.1367 187.869 60.26 187.769 60.36C187.676 60.4533 187.556 60.5 187.409 60.5C187.342 60.5 187.269 60.4867 187.189 60.46C187.116 60.4333 187.059 60.3967 187.019 60.35L182.909 55.02L183.139 54.89V60.04C183.139 60.1667 183.096 60.2767 183.009 60.37C182.922 60.4567 182.812 60.5 182.679 60.5C182.539 60.5 182.426 60.4567 182.339 60.37C182.259 60.2767 182.219 60.1667 182.219 60.04V54.01C182.219 53.8567 182.269 53.7333 182.369 53.64C182.469 53.5467 182.589 53.5 182.729 53.5C182.802 53.5 182.879 53.5167 182.959 53.55C183.046 53.5767 183.109 53.62 183.149 53.68L187.159 58.9L187.009 59.04V53.97C187.009 53.8367 187.052 53.7267 187.139 53.64C187.226 53.5467 187.336 53.5 187.469 53.5ZM192.703 60.6C192.196 60.6 191.723 60.51 191.283 60.33C190.843 60.1433 190.456 59.8867 190.123 59.56C189.796 59.2267 189.54 58.8433 189.353 58.41C189.166 57.9767 189.073 57.5067 189.073 57C189.073 56.4933 189.166 56.0233 189.353 55.59C189.54 55.1567 189.796 54.7767 190.123 54.45C190.456 54.1167 190.843 53.86 191.283 53.68C191.723 53.4933 192.196 53.4 192.703 53.4C193.03 53.4 193.346 53.4367 193.653 53.51C193.96 53.5833 194.236 53.69 194.483 53.83C194.57 53.8767 194.633 53.94 194.673 54.02C194.713 54.0933 194.733 54.1667 194.733 54.24C194.733 54.38 194.686 54.5033 194.593 54.61C194.506 54.71 194.396 54.76 194.263 54.76C194.216 54.76 194.166 54.7533 194.113 54.74C194.066 54.7267 194.023 54.71 193.983 54.69C193.796 54.5967 193.596 54.5267 193.383 54.48C193.17 54.4267 192.943 54.4 192.703 54.4C192.223 54.4 191.79 54.5167 191.403 54.75C191.016 54.9767 190.71 55.2867 190.483 55.68C190.263 56.0733 190.153 56.5133 190.153 57C190.153 57.48 190.263 57.92 190.483 58.32C190.71 58.7133 191.016 59.0267 191.403 59.26C191.79 59.4867 192.223 59.6 192.703 59.6C192.936 59.6 193.183 59.5733 193.443 59.52C193.703 59.46 193.923 59.3833 194.103 59.29L194.023 59.56V57.66L194.183 57.8H192.873C192.726 57.8 192.603 57.7533 192.503 57.66C192.41 57.5667 192.363 57.4467 192.363 57.3C192.363 57.1533 192.41 57.0333 192.503 56.94C192.603 56.8467 192.726 56.8 192.873 56.8H194.603C194.743 56.8 194.86 56.85 194.953 56.95C195.053 57.0433 195.103 57.1633 195.103 57.31V59.53C195.103 59.6367 195.076 59.7267 195.023 59.8C194.97 59.8733 194.91 59.9333 194.843 59.98C194.543 60.1667 194.21 60.3167 193.843 60.43C193.483 60.5433 193.103 60.6 192.703 60.6ZM196.826 53.5H200.286C200.426 53.5 200.543 53.5467 200.636 53.64C200.736 53.7333 200.786 53.85 200.786 53.99C200.786 54.13 200.736 54.2433 200.636 54.33C200.543 54.4167 200.426 54.46 200.286 54.46H197.266L197.366 54.29V56.53L197.276 56.43H199.836C199.976 56.43 200.093 56.4767 200.186 56.57C200.286 56.6633 200.336 56.7833 200.336 56.93C200.336 57.07 200.286 57.1833 200.186 57.27C200.093 57.3567 199.976 57.4 199.836 57.4H197.296L197.366 57.31V59.62L197.296 59.54H200.286C200.426 59.54 200.543 59.59 200.636 59.69C200.736 59.7833 200.786 59.8933 200.786 60.02C200.786 60.16 200.736 60.2767 200.636 60.37C200.543 60.4567 200.426 60.5 200.286 60.5H196.826C196.686 60.5 196.566 60.4533 196.466 60.36C196.366 60.26 196.316 60.1367 196.316 59.99V54.01C196.316 53.8633 196.366 53.7433 196.466 53.65C196.566 53.55 196.686 53.5 196.826 53.5Z" fill="white"/>
<defs>
<clipPath id="clip0_11_59">
<rect width="25" height="33" fill="white" transform="translate(13.25 8)"/>
</clipPath>
<clipPath id="clip1_11_59">
<rect width="16" height="16" fill="white" transform="translate(84.75 49)"/>
</clipPath>
</defs>
</svg>
