<svg width="53" height="52" viewBox="0 0 53 52" fill="none" xmlns="http://www.w3.org/2000/svg">
<circle cx="26.5" cy="26" r="25" fill="white" stroke="#7563DF" stroke-width="2"/>
<g clip-path="url(#clip0_264_11083)">
<path d="M39.4047 38.224C35.9666 24.6774 32.9714 13.3441 29.1952 11.325C25.4142 9.3059 26.9809 28.6283 26.9809 28.6283C26.9809 28.6283 30.0571 29.0554 31.5381 35.7535C32.7285 41.1459 40.4285 42.2379 39.4095 38.224H39.4047Z" fill="#49282E"/>
<path d="M31.1901 25.3424L20.4854 24.8473L21.3473 36.6756C24.0092 39.4422 31.9139 38.423 34.0092 35.5545L31.1854 25.3424H31.1901Z" fill="#D27558"/>
<path d="M16.6621 14.9265C18.1859 26.4054 22.0526 34.0548 23.4335 35.4623C24.8145 36.8699 32.805 37.6076 37.9621 34.943L34.1097 20.7994C31.1812 14.6304 29.6526 3.53984 16.6621 14.9265Z" fill="#49282E"/>
<path d="M24.4095 24.7065C22.819 21.8623 21.9381 17.13 22.9762 14.8536C24.0142 12.5772 28.019 12.1938 29.4952 12.951C30.9666 13.713 34.8571 24.4347 34.4666 25.4491C34.3285 25.8132 31.619 25.3278 30.2619 25.6384C27.8381 26.1917 27.1857 29.6572 24.4142 24.7065H24.4095Z" fill="#EDB984"/>
<path d="M21.2426 23.265C20.8902 22.435 20.2474 21.9206 19.8045 22.1147C19.3617 22.3088 19.2902 23.1388 19.6426 23.9688C19.995 24.7988 20.6378 25.3133 21.0807 25.1191C21.5236 24.925 21.595 24.095 21.2426 23.265Z" fill="#D27558"/>
<path d="M21.452 24.4494C21.1806 23.8087 20.6853 23.4156 20.3473 23.5612C20.0092 23.7116 19.952 24.3475 20.2234 24.9881C20.4949 25.6288 20.9901 26.022 21.3282 25.8764C21.6663 25.7259 21.7234 25.0901 21.452 24.4494Z" fill="#EDB984"/>
<path d="M15.0953 41.2915C14.3287 28.405 13.8001 17.6008 16.8001 14.7857C19.8001 11.9706 24.0715 29.4243 24.0715 29.4243C24.0715 29.4243 21.2715 30.6426 21.8572 36.9523C22.3287 42.0292 15.3239 45.1065 15.0953 41.2866V41.2915Z" fill="#49282E"/>
<path d="M21.7096 23.0563C21.1477 21.7361 20.1286 20.9159 19.4286 21.2265C18.7286 21.5371 18.6143 22.8573 19.1715 24.1727C19.7286 25.488 20.7524 26.3131 21.4524 26.0025C22.1524 25.6919 22.2667 24.3717 21.7096 23.0563Z" fill="#EDB984"/>
<path d="M27.5089 22.0565C27.3566 21.3139 26.8994 20.7655 26.4756 20.8237C26.0566 20.8819 25.8375 21.5323 25.9899 22.2749C26.1423 23.0176 26.5994 23.566 27.0232 23.5078C27.4423 23.4495 27.6613 22.7991 27.5089 22.0565Z" fill="#5A4949"/>
<path d="M26.095 18.4066L23.6427 19.6782C23.4379 19.785 23.3522 20.0519 23.4569 20.2704L23.8522 21.1003C23.9569 21.3187 24.2093 21.411 24.4141 21.3042L26.8665 20.0325C27.0712 19.9257 27.1569 19.6588 27.0522 19.4404L26.6569 18.6104C26.5522 18.392 26.2998 18.2998 26.095 18.4066Z" fill="#49282E"/>
<path d="M32.2428 20.8042C32.0714 20.0665 31.5904 19.5326 31.1762 19.6054C30.7619 19.6782 30.5619 20.3383 30.7333 21.0761C30.9047 21.8138 31.3857 22.3477 31.8 22.2749C32.2143 22.2021 32.4143 21.542 32.2428 20.8042Z" fill="#5A4949"/>
<path d="M32.0708 17.5086L29.4327 17.5378C29.2089 17.5378 29.0422 17.7416 29.0565 17.9891L29.1137 18.921C29.1279 19.1686 29.3232 19.3676 29.5422 19.3627L32.1803 19.3336C32.4041 19.3336 32.5708 19.1298 32.5565 18.8822L32.4994 17.9503C32.4851 17.7028 32.2899 17.5038 32.0708 17.5086Z" fill="#49282E"/>
<path d="M29.2041 21.8284C30.6422 23.4446 31.347 24.5416 30.8898 25.1483C30.6041 25.5269 30.0041 25.6142 29.5041 25.6142V25.653C29.5041 25.653 31.1708 25.9346 31.6946 25.3424C32.2136 24.7551 31.1708 23.6 29.2041 21.8284Z" fill="#D27558"/>
<path d="M33.1807 26.818L27.7188 27.7499C27.7188 27.7499 28.1807 29.8127 30.8045 29.9535C33.433 30.0942 33.1759 26.818 33.1759 26.818H33.1807Z" fill="#281519"/>
<path d="M32.566 28.439C32.7803 27.7935 32.7279 27.1285 32.7279 27.1285L28.3184 27.8809C28.3184 27.8809 28.4517 28.4681 29.0041 28.9729L32.5612 28.439H32.566Z" fill="#F9EDDB"/>
<path d="M21.2574 23.2553C20.8955 22.4011 20.2384 21.8672 19.786 22.0662C19.3336 22.2652 19.2574 23.1243 19.6146 23.9785C19.9765 24.8327 20.6336 25.3666 21.086 25.1676C21.5384 24.9686 21.6146 24.1095 21.2574 23.2553Z" fill="#D27558"/>
<path d="M21.3996 24.2067C21.1567 23.6194 20.7091 23.2553 20.3996 23.3912C20.09 23.5271 20.0377 24.1144 20.2805 24.7017C20.5234 25.289 20.971 25.653 21.2805 25.5171C21.59 25.3812 21.6424 24.7939 21.3996 24.2067Z" fill="#EDB984"/>
</g>
<defs>
<clipPath id="clip0_264_11083">
<rect width="25" height="33" fill="white" transform="translate(14.5 10)"/>
</clipPath>
</defs>
</svg>
