<svg width="26" height="36" viewBox="0 0 26 36" fill="none" xmlns="http://www.w3.org/2000/svg">
<path fill-rule="evenodd" clip-rule="evenodd" d="M12.7486 17.3495C9.10611 17.3495 4.84062 13.8748 4.52909 8.67477C4.21757 3.4747 8.1955 0 12.7486 0C17.3016 0 21.2795 3.4747 20.968 8.67477C20.6565 13.8748 16.391 17.3495 12.7486 17.3495ZM4.79269 19.5302C2.15671 21.9026 0.670977 26.5515 0 30.793C3.35488 33.8604 7.83605 35.7535 12.7486 35.7535C17.6611 35.7535 22.1422 33.8843 25.4971 30.793C24.8261 26.5755 23.3404 21.9266 20.7044 19.5302C19.5781 18.4998 17.4214 17.4694 15.8159 18.1403C14.8573 18.5477 13.8029 18.7873 12.7486 18.7873C11.6942 18.7873 10.6398 18.5477 9.68123 18.1403C8.07568 17.4694 5.94294 18.5237 4.79269 19.5302Z" fill="url(#paint0_linear_273_22850)"/>
<defs>
<linearGradient id="paint0_linear_273_22850" x1="12.7486" y1="35.7295" x2="12.7486" y2="0.0239637" gradientUnits="userSpaceOnUse">
<stop stop-color="#E6DBFF"/>
<stop offset="1" stop-color="white"/>
</linearGradient>
</defs>
</svg>
