<svg width="14" height="14" viewBox="0 0 14 14" fill="none" xmlns="http://www.w3.org/2000/svg">
<g clip-path="url(#clip0_44_27064)">
<path d="M12.25 4.19453L9.82734 1.76641C9.66422 1.59913 9.44288 1.50119 9.20938 1.49297C9.09088 1.49024 8.97306 1.51162 8.86307 1.5558C8.75308 1.59998 8.65321 1.66605 8.56953 1.75L7.12578 3.18828L2.00703 8.3125C1.92549 8.39342 1.86079 8.4897 1.81668 8.59576C1.77256 8.70183 1.7499 8.81559 1.75 8.93047V11.375C1.75 11.6071 1.84219 11.8296 2.00628 11.9937C2.17038 12.1578 2.39294 12.25 2.625 12.25H5.06953C5.30132 12.249 5.52338 12.1567 5.6875 11.993L12.25 5.43047C12.4123 5.26574 12.5033 5.04376 12.5033 4.8125C12.5033 4.58124 12.4123 4.35926 12.25 4.19453ZM10.5 5.94453L8.05547 3.5L9.1875 2.36797L11.632 4.8125L10.5 5.94453Z" fill="#4075BB"/>
</g>
<defs>
<clipPath id="clip0_44_27064">
<rect width="14" height="14" fill="white"/>
</clipPath>
</defs>
</svg>
