<svg width="102" height="65" viewBox="0 0 102 65" fill="none" xmlns="http://www.w3.org/2000/svg">
<path d="M1 51.4778C22.5809 42.5362 34.0976 33.7512 53.9139 13.3907" stroke="#FCC660"/>
<circle cx="30" cy="30" r="29" transform="matrix(-1 0 0 1 102 5)" fill="white" stroke="#FCC660" stroke-width="2"/>
<g clip-path="url(#clip0_9_412)">
<path d="M58.8841 47.7898C62.6275 33.0118 65.8886 20.6482 70.0001 18.4455C74.1167 16.2428 72.4109 37.3218 72.4109 37.3218C72.4109 37.3218 69.0616 37.7878 67.4492 45.0947C66.153 50.9774 57.7694 52.1687 58.8789 47.7898H58.8841Z" fill="#49282E"/>
<path d="M67.8278 33.7372L79.4829 33.1971L78.5445 46.1007C75.6463 49.1188 67.0397 48.0069 64.7584 44.8776L67.833 33.7372H67.8278Z" fill="#D27558"/>
<path d="M83.6461 22.3743C81.987 34.8968 77.7771 43.2415 76.2735 44.777C74.77 46.3126 66.0701 47.1174 60.4551 44.2105L64.6495 28.7812C67.8381 22.0513 69.5023 9.95251 83.6461 22.3743Z" fill="#49282E"/>
<path d="M75.2106 33.0435C76.9423 29.9407 77.9015 24.7782 76.7712 22.2949C75.641 19.8116 71.2807 19.3933 69.6734 20.2193C68.0714 21.0506 63.8355 32.747 64.2606 33.8536C64.411 34.2508 67.3611 33.7213 68.8387 34.0601C71.4777 34.6638 72.188 38.4443 75.2055 33.0435H75.2106Z" fill="#EDB984"/>
<path d="M78.6585 31.471C79.0421 30.5655 79.7421 30.0043 80.2242 30.2161C80.7064 30.4279 80.7842 31.3333 80.4005 32.2387C80.0169 33.1442 79.3169 33.7054 78.8348 33.4936C78.3526 33.2818 78.2748 32.3764 78.6585 31.471Z" fill="#D27558"/>
<path d="M78.4304 32.7629C78.7259 32.064 79.2651 31.6351 79.6332 31.794C80.0013 31.9581 80.0636 32.6517 79.768 33.3507C79.4725 34.0496 78.9333 34.4785 78.5652 34.3196C78.1971 34.1555 78.1349 33.4618 78.4304 32.7629Z" fill="#EDB984"/>
<path d="M85.352 51.1362C86.1867 37.0783 86.7622 25.2918 83.4959 22.2208C80.2295 19.1497 75.5789 38.1902 75.5789 38.1902C75.5789 38.1902 78.6275 39.5192 77.9897 46.4026C77.4765 51.941 85.1031 55.298 85.352 51.1309V51.1362Z" fill="#49282E"/>
<path d="M78.1505 31.2433C78.7622 29.8031 79.8718 28.9082 80.6339 29.2471C81.3961 29.586 81.5205 31.0262 80.9139 32.4611C80.3073 33.896 79.1926 34.7962 78.4304 34.4573C77.6683 34.1184 77.5438 32.6782 78.1505 31.2433Z" fill="#EDB984"/>
<path d="M71.8354 30.1525C72.0013 29.3424 72.4991 28.7441 72.9605 28.8076C73.4167 28.8711 73.6552 29.5807 73.4893 30.3908C73.3234 31.2009 72.8257 31.7992 72.3643 31.7357C71.908 31.6721 71.6695 30.9626 71.8354 30.1525V30.1525Z" fill="#5A4949"/>
<path d="M73.3753 26.1707L76.0454 27.558C76.2683 27.6745 76.3616 27.9657 76.2476 28.204L75.8173 29.1094C75.7032 29.3477 75.4284 29.4483 75.2055 29.3318L72.5354 27.9445C72.3124 27.828 72.2191 27.5368 72.3332 27.2985L72.7635 26.3931C72.8775 26.1548 73.1523 26.0542 73.3753 26.1707Z" fill="#49282E"/>
<path d="M66.6819 28.7865C66.8686 27.9816 67.3922 27.3992 67.8433 27.4786C68.2943 27.558 68.5121 28.2781 68.3255 29.083C68.1388 29.8878 67.6152 30.4702 67.1641 30.3908C66.713 30.3114 66.4953 29.5913 66.6819 28.7865Z" fill="#5A4949"/>
<path d="M66.8685 25.1912L69.7408 25.223C69.9845 25.223 70.166 25.4454 70.1504 25.7154L70.0882 26.732C70.0727 27.0021 69.8601 27.2191 69.6216 27.2138L66.7493 27.1821C66.5056 27.1821 66.3242 26.9597 66.3397 26.6897L66.4019 25.673C66.4175 25.403 66.63 25.1859 66.8685 25.1912V25.1912Z" fill="#49282E"/>
<path d="M69.9896 29.9036C68.4239 31.6668 67.6565 32.8635 68.1543 33.5253C68.4653 33.9383 69.1186 34.0336 69.663 34.0336V34.076C69.663 34.076 67.8484 34.3831 67.278 33.7371C66.7129 33.0964 67.8484 31.8363 69.9896 29.9036V29.9036Z" fill="#D27558"/>
<path d="M65.6605 35.3468L71.6073 36.3634C71.6073 36.3634 71.1044 38.6138 68.2476 38.7673C65.3857 38.9209 65.6657 35.3468 65.6657 35.3468H65.6605Z" fill="#281519"/>
<path d="M66.3293 37.1153C66.0959 36.4111 66.153 35.6857 66.153 35.6857L70.954 36.5064C70.954 36.5064 70.8088 37.1471 70.2074 37.6977L66.3344 37.1153H66.3293Z" fill="#F9EDDB"/>
<path d="M78.6429 31.4604C79.0369 30.5285 79.7524 29.9461 80.245 30.1631C80.7375 30.3802 80.8205 31.3174 80.4316 32.2493C80.0376 33.1812 79.3221 33.7637 78.8295 33.5466C78.337 33.3295 78.2541 32.3923 78.6429 31.4604Z" fill="#D27558"/>
<path d="M78.4874 32.4981C78.7518 31.8575 79.2392 31.4603 79.5762 31.6086C79.9132 31.7569 79.9702 32.3975 79.7058 33.0382C79.4414 33.6789 78.954 34.076 78.617 33.9278C78.28 33.7795 78.223 33.1388 78.4874 32.4981Z" fill="#EDB984"/>
</g>
<defs>
<clipPath id="clip0_9_412">
<rect width="27.2195" height="36" fill="white" transform="matrix(-1 0 0 1 86 17)"/>
</clipPath>
</defs>
</svg>
