<svg width="140" height="75" viewBox="0 0 140 75" fill="none" xmlns="http://www.w3.org/2000/svg">
<path d="M48 33C76.3742 54.768 96.8371 63.3123 139 74" stroke="#FCC660"/>
<circle cx="30" cy="30" r="29" fill="white" stroke="#FCC660" stroke-width="2"/>
<g clip-path="url(#clip0_822_10533)">
<path d="M43.1158 42.7898C39.3725 28.0118 36.1113 15.6482 31.9999 13.4455C27.8832 11.2428 29.589 32.3218 29.589 32.3218C29.589 32.3218 32.9383 32.7878 34.5507 40.0947C35.8469 45.9774 44.2305 47.1687 43.121 42.7898H43.1158Z" fill="#49282E"/>
<path d="M34.1723 28.7372L22.5172 28.1971L23.4556 41.1007C26.3538 44.1188 34.9604 43.0069 37.2416 39.8776L34.1671 28.7372H34.1723Z" fill="#D27558"/>
<path d="M18.3538 17.3743C20.0129 29.8968 24.2229 38.2415 25.7264 39.777C27.23 41.3126 35.9298 42.1174 41.5448 39.2105L37.3504 23.7812C34.1619 17.0513 32.4976 4.95251 18.3538 17.3743Z" fill="#49282E"/>
<path d="M26.7893 28.0435C25.0576 24.9407 24.0984 19.7782 25.2287 17.2949C26.359 14.8116 30.7193 14.3933 32.3265 15.2193C33.9286 16.0506 38.1645 27.747 37.7393 28.8536C37.589 29.2508 34.6389 28.7213 33.1613 29.0601C30.5223 29.6638 29.812 33.4443 26.7945 28.0435H26.7893Z" fill="#EDB984"/>
<path d="M23.3415 26.471C22.9579 25.5655 22.2579 25.0043 21.7758 25.2161C21.2936 25.4279 21.2158 26.3333 21.5995 27.2387C21.9831 28.1442 22.6831 28.7054 23.1652 28.4936C23.6474 28.2818 23.7252 27.3764 23.3415 26.471Z" fill="#D27558"/>
<path d="M23.5696 27.7629C23.2741 27.064 22.7349 26.6351 22.3668 26.794C21.9987 26.9581 21.9364 27.6517 22.232 28.3507C22.5275 29.0496 23.0667 29.4785 23.4348 29.3196C23.8029 29.1555 23.8651 28.4618 23.5696 27.7629Z" fill="#EDB984"/>
<path d="M16.6481 46.1362C15.8134 32.0783 15.2379 20.2918 18.5042 17.2208C21.7705 14.1497 26.4212 33.1902 26.4212 33.1902C26.4212 33.1902 23.3726 34.5192 24.0103 41.4026C24.5236 46.941 16.8969 50.298 16.6481 46.1309V46.1362Z" fill="#49282E"/>
<path d="M23.8496 26.2433C23.2378 24.8031 22.1283 23.9082 21.3662 24.2471C20.604 24.586 20.4796 26.0262 21.0862 27.4611C21.6928 28.896 22.8075 29.7962 23.5696 29.4573C24.3318 29.1184 24.4562 27.6782 23.8496 26.2433Z" fill="#EDB984"/>
<path d="M30.1645 25.1525C29.9986 24.3424 29.5009 23.7441 29.0394 23.8076C28.5832 23.8711 28.3447 24.5807 28.5106 25.3908C28.6765 26.2009 29.1742 26.7992 29.6357 26.7357C30.0919 26.6721 30.3304 25.9626 30.1645 25.1525Z" fill="#5A4949"/>
<path d="M28.6247 21.1707L25.9546 22.558C25.7316 22.6745 25.6383 22.9657 25.7524 23.204L26.1827 24.1094C26.2968 24.3477 26.5715 24.4483 26.7945 24.3318L29.4646 22.9445C29.6875 22.828 29.7808 22.5368 29.6668 22.2985L29.2365 21.3931C29.1224 21.1548 28.8476 21.0542 28.6247 21.1707Z" fill="#49282E"/>
<path d="M35.3181 23.7865C35.1314 22.9816 34.6078 22.3992 34.1567 22.4786C33.7057 22.558 33.4879 23.2781 33.6745 24.083C33.8612 24.8878 34.3848 25.4702 34.8359 25.3908C35.287 25.3114 35.5047 24.5913 35.3181 23.7865Z" fill="#5A4949"/>
<path d="M35.1315 20.1912L32.2592 20.223C32.0155 20.223 31.834 20.4454 31.8496 20.7154L31.9118 21.732C31.9273 22.0021 32.1399 22.2191 32.3784 22.2138L35.2507 22.1821C35.4944 22.1821 35.6758 21.9597 35.6603 21.6897L35.5981 20.673C35.5825 20.403 35.37 20.1859 35.1315 20.1912Z" fill="#49282E"/>
<path d="M32.0103 24.9036C33.576 26.6668 34.3434 27.8635 33.8456 28.5253C33.5345 28.9383 32.8813 29.0336 32.3369 29.0336V29.076C32.3369 29.076 34.1515 29.3831 34.7218 28.7371C35.287 28.0964 34.1515 26.8363 32.0103 24.9036Z" fill="#D27558"/>
<path d="M36.3395 30.3468L30.3926 31.3634C30.3926 31.3634 30.8956 33.6138 33.7523 33.7673C36.6142 33.9209 36.3343 30.3468 36.3343 30.3468H36.3395Z" fill="#281519"/>
<path d="M35.6706 32.1153C35.9039 31.4111 35.8469 30.6857 35.8469 30.6857L31.0459 31.5064C31.0459 31.5064 31.1911 32.1471 31.7925 32.6977L35.6654 32.1153H35.6706Z" fill="#F9EDDB"/>
<path d="M23.357 26.4604C22.963 25.5285 22.2475 24.9461 21.755 25.1631C21.2624 25.3802 21.1795 26.3174 21.5683 27.2493C21.9624 28.1812 22.6778 28.7637 23.1704 28.5466C23.6629 28.3295 23.7459 27.3923 23.357 26.4604Z" fill="#D27558"/>
<path d="M23.5126 27.4981C23.2482 26.8575 22.7608 26.4603 22.4238 26.6086C22.0868 26.7569 22.0298 27.3975 22.2942 28.0382C22.5586 28.6789 23.046 29.076 23.383 28.9278C23.72 28.7795 23.777 28.1388 23.5126 27.4981Z" fill="#EDB984"/>
</g>
<defs>
<clipPath id="clip0_822_10533">
<rect width="27.2195" height="36" fill="white" transform="translate(16 12)"/>
</clipPath>
</defs>
</svg>
