<svg width="113" height="60" viewBox="0 0 113 60" fill="none" xmlns="http://www.w3.org/2000/svg">
<path d="M66.5 53C40.9046 60.9064 26.6166 61.0083 1.5 36" stroke="#FCC660" stroke-width="3" stroke-linecap="round"/>
<circle cx="30" cy="30" r="29" transform="matrix(-1 0 0 1 113 3.8147e-06)" fill="white" stroke="#FCC660" stroke-width="2"/>
<g clip-path="url(#clip0_940_3075)">
<path d="M69.8841 42.7898C73.6275 28.0118 76.8886 15.6482 81.0001 13.4455C85.1167 11.2428 83.4109 32.3218 83.4109 32.3218C83.4109 32.3218 80.0616 32.7878 78.4492 40.0947C77.153 45.9773 68.7694 47.1687 69.8789 42.7898H69.8841Z" fill="#49282E"/>
<path d="M78.8278 28.7372L90.4829 28.1971L89.5445 41.1008C86.6463 44.1188 78.0397 43.0069 75.7584 39.8776L78.833 28.7372H78.8278Z" fill="#D27558"/>
<path d="M94.6462 17.3743C92.9871 29.8968 88.7772 38.2415 87.2736 39.777C85.7701 41.3125 77.0702 42.1174 71.4552 39.2105L75.6496 23.7811C78.8382 17.0513 80.5025 4.95249 94.6462 17.3743Z" fill="#49282E"/>
<path d="M86.2108 28.0435C87.9424 24.9407 88.9016 19.7782 87.7714 17.2949C86.6411 14.8116 82.2808 14.3933 80.6735 15.2193C79.0715 16.0506 74.8356 27.747 75.2607 28.8537C75.4111 29.2508 78.3612 28.7213 79.8388 29.0602C82.4778 29.6638 83.1881 33.4443 86.2056 28.0435H86.2108Z" fill="#EDB984"/>
<path d="M89.6585 26.471C90.0421 25.5655 90.7421 25.0043 91.2242 25.2161C91.7064 25.4279 91.7842 26.3333 91.4005 27.2387C91.0169 28.1441 90.3169 28.7054 89.8348 28.4936C89.3526 28.2818 89.2748 27.3764 89.6585 26.471Z" fill="#D27558"/>
<path d="M89.4303 27.7629C89.7258 27.064 90.265 26.6351 90.6331 26.7939C91.0012 26.9581 91.0634 27.6517 90.7679 28.3506C90.4724 29.0496 89.9332 29.4785 89.5651 29.3196C89.197 29.1555 89.1347 28.4618 89.4303 27.7629Z" fill="#EDB984"/>
<path d="M96.352 46.1362C97.1867 32.0782 97.7622 20.2918 94.4959 17.2208C91.2295 14.1497 86.5789 33.1902 86.5789 33.1902C86.5789 33.1902 89.6275 34.5192 88.9897 41.4026C88.4765 46.941 96.1031 50.298 96.352 46.1309V46.1362Z" fill="#49282E"/>
<path d="M89.1505 26.2433C89.7622 24.8031 90.8718 23.9082 91.6339 24.2471C92.3961 24.586 92.5205 26.0262 91.9139 27.4611C91.3073 28.896 90.1926 29.7962 89.4304 29.4573C88.6683 29.1184 88.5438 27.6782 89.1505 26.2433Z" fill="#EDB984"/>
<path d="M82.8355 25.1525C83.0014 24.3424 83.4992 23.7441 83.9606 23.8076C84.4169 23.8712 84.6554 24.5807 84.4894 25.3908C84.3235 26.2009 83.8258 26.7992 83.3644 26.7357C82.9081 26.6722 82.6696 25.9626 82.8355 25.1525Z" fill="#5A4949"/>
<path d="M84.3753 21.1708L87.0454 22.558C87.2683 22.6745 87.3616 22.9657 87.2476 23.204L86.8173 24.1094C86.7032 24.3477 86.4284 24.4483 86.2055 24.3318L83.5354 22.9446C83.3124 22.8281 83.2191 22.5368 83.3332 22.2986L83.7635 21.3931C83.8775 21.1549 84.1523 21.0543 84.3753 21.1708Z" fill="#49282E"/>
<path d="M77.6819 23.7864C77.8686 22.9816 78.3922 22.3992 78.8433 22.4786C79.2943 22.558 79.5121 23.2781 79.3255 24.083C79.1388 24.8878 78.6152 25.4702 78.1641 25.3908C77.713 25.3114 77.4953 24.5913 77.6819 23.7864Z" fill="#5A4949"/>
<path d="M77.8685 20.1912L80.7408 20.223C80.9845 20.223 81.166 20.4454 81.1504 20.7154L81.0882 21.732C81.0727 22.0021 80.8601 22.2191 80.6216 22.2139L77.7493 22.1821C77.5056 22.1821 77.3242 21.9597 77.3397 21.6897L77.4019 20.673C77.4175 20.403 77.63 20.1859 77.8685 20.1912Z" fill="#49282E"/>
<path d="M80.9897 24.9037C79.424 26.6669 78.6566 27.8635 79.1544 28.5254C79.4655 28.9384 80.1187 29.0337 80.6631 29.0337V29.076C80.6631 29.076 78.8485 29.3831 78.2782 28.7372C77.713 28.0965 78.8485 26.8363 80.9897 24.9037Z" fill="#D27558"/>
<path d="M76.6604 30.3468L82.6072 31.3634C82.6072 31.3634 82.1043 33.6138 79.2475 33.7673C76.3856 33.9209 76.6655 30.3468 76.6655 30.3468H76.6604Z" fill="#281519"/>
<path d="M77.3294 32.1153C77.0961 31.4111 77.1531 30.6857 77.1531 30.6857L81.9541 31.5064C81.9541 31.5064 81.8089 32.1471 81.2075 32.6977L77.3346 32.1153H77.3294Z" fill="#F9EDDB"/>
<path d="M89.6429 26.4604C90.0369 25.5285 90.7524 24.946 91.245 25.1631C91.7375 25.3802 91.8205 26.3174 91.4316 27.2493C91.0376 28.1812 90.3221 28.7636 89.8295 28.5466C89.337 28.3295 89.2541 27.3923 89.6429 26.4604Z" fill="#D27558"/>
<path d="M89.4873 27.4982C89.7517 26.8575 90.2391 26.4604 90.5761 26.6086C90.9131 26.7569 90.9701 27.3976 90.7057 28.0382C90.4413 28.6789 89.9539 29.076 89.6169 28.9278C89.2799 28.7795 89.2229 28.1388 89.4873 27.4982Z" fill="#EDB984"/>
</g>
<defs>
<clipPath id="clip0_940_3075">
<rect width="27.2195" height="36" fill="white" transform="matrix(-1 0 0 1 97 12)"/>
</clipPath>
</defs>
</svg>
