<svg width="119" height="119" viewBox="0 0 119 119" fill="none" xmlns="http://www.w3.org/2000/svg">
<g filter="url(#filter0_d_45_264)">
<circle cx="59.7169" cy="56.7169" r="35.7169" fill="#93AF52"/>
</g>
<mask id="path-2-inside-1_45_264" fill="white">
<path d="M42.9518 61.0904C42.9518 56.644 44.7181 52.3797 47.8622 49.2357C51.0062 46.0916 55.2705 44.3253 59.7169 44.3253C64.1632 44.3253 68.4275 46.0916 71.5716 49.2357C74.7156 52.3797 76.4819 56.644 76.4819 61.0904L70.8754 61.0904C70.8754 58.131 69.6997 55.2928 67.6071 53.2001C65.5145 51.1075 62.6763 49.9319 59.7169 49.9319C56.7575 49.9319 53.9193 51.1075 51.8266 53.2001C49.734 55.2928 48.5584 58.131 48.5584 61.0904H42.9518Z"/>
</mask>
<path d="M42.9518 61.0904C42.9518 56.644 44.7181 52.3797 47.8622 49.2357C51.0062 46.0916 55.2705 44.3253 59.7169 44.3253C64.1632 44.3253 68.4275 46.0916 71.5716 49.2357C74.7156 52.3797 76.4819 56.644 76.4819 61.0904L70.8754 61.0904C70.8754 58.131 69.6997 55.2928 67.6071 53.2001C65.5145 51.1075 62.6763 49.9319 59.7169 49.9319C56.7575 49.9319 53.9193 51.1075 51.8266 53.2001C49.734 55.2928 48.5584 58.131 48.5584 61.0904H42.9518Z" stroke="white" stroke-opacity="0.21" stroke-width="6.15859" mask="url(#path-2-inside-1_45_264)"/>
<mask id="path-3-inside-2_45_264" fill="white">
<path d="M42.9518 61.0904C42.9518 58.8888 43.3855 56.7087 44.228 54.6747C45.0705 52.6406 46.3054 50.7925 47.8622 49.2357L51.8266 53.2001C50.7905 54.2363 49.9685 55.4664 49.4078 56.8202C48.847 58.174 48.5584 59.625 48.5584 61.0904H42.9518Z"/>
</mask>
<path d="M42.9518 61.0904C42.9518 58.8888 43.3855 56.7087 44.228 54.6747C45.0705 52.6406 46.3054 50.7925 47.8622 49.2357L51.8266 53.2001C50.7905 54.2363 49.9685 55.4664 49.4078 56.8202C48.847 58.174 48.5584 59.625 48.5584 61.0904H42.9518Z" stroke="white" stroke-width="6.15859" mask="url(#path-3-inside-2_45_264)"/>
<path d="M46.5126 47.6634L58.924 62.4709L60.5945 61.0598L46.5126 47.6634Z" fill="#395500"/>
<circle cx="59.7168" cy="61.8192" r="2.91566" fill="white"/>
<defs>
<filter id="filter0_d_45_264" x="0.674698" y="0.590361" width="118.084" height="118.084" filterUnits="userSpaceOnUse" color-interpolation-filters="sRGB">
<feFlood flood-opacity="0" result="BackgroundImageFix"/>
<feColorMatrix in="SourceAlpha" type="matrix" values="0 0 0 0 0 0 0 0 0 0 0 0 0 0 0 0 0 0 127 0" result="hardAlpha"/>
<feOffset dy="2.91566"/>
<feGaussianBlur stdDeviation="11.6627"/>
<feComposite in2="hardAlpha" operator="out"/>
<feColorMatrix type="matrix" values="0 0 0 0 0.725 0 0 0 0 0.725 0 0 0 0 0.725 0 0 0 0.4 0"/>
<feBlend mode="normal" in2="BackgroundImageFix" result="effect1_dropShadow_45_264"/>
<feBlend mode="normal" in="SourceGraphic" in2="effect1_dropShadow_45_264" result="shape"/>
</filter>
</defs>
</svg>
